<?xml version="1.0" encoding="UTF-8"?>
<svg width="384px" height="205px" viewBox="0 0 384 205" version="1.1" xmlns="http://www.w3.org/2000/svg" xmlns:xlink="http://www.w3.org/1999/xlink">
    <!-- Generator: Sketch 43.1 (39012) - http://www.bohemiancoding.com/sketch -->
    <title>Group 16</title>
    <desc>Created with Sketch.</desc>
    <defs></defs>
    <g id="Page-1" stroke="none" stroke-width="1" fill="none" fill-rule="evenodd">
        <g id="HomeBuying-Copy" transform="translate(-291.000000, -3096.000000)">
            <g id="Group-16" transform="translate(291.000000, 3096.000000)">
                <g id="Group-13">
                    <g id="Group-7">
                        <g id="Group-12" transform="translate(44.000000, 107.000000)" fill="#358FCA">
                            <g id="conversation" transform="translate(252.000000, 0.000000)" fill-rule="nonzero">
                                <path d="M25.9447052,66.9900377 C30.1700331,64.1390364 32.9539963,59.3083001 32.9539963,53.8395498 C32.9539963,45.0973662 25.8405327,37.9852467 17.0966967,37.9852467 C8.35286074,37.9852467 1.23939711,45.0973662 1.23939711,53.8395498 C1.23939711,59.3083001 4.02336029,64.1390364 8.24868824,66.9900377 C3.73392294,68.2779153 0.41745324,72.4369595 0.41745324,77.3585436 L0.41745324,96.2401386 C0.41745324,97.1012184 1.11567927,97.7993125 1.97692175,97.7993125 L32.2164717,97.7993125 C33.0777141,97.7993125 33.7759402,97.1012184 33.7759402,96.2401386 L33.7759402,77.3585436 C33.7759402,72.4369595 30.4596784,68.2779153 25.9447052,66.9900377 Z M20.6924152,71.8505022 L18.7983887,69.693853 L22.5864417,69.693853 L20.6924152,71.8505022 Z M14.6477074,69.693853 L18.4062344,73.9732654 L14.8878655,76.597251 L13.1915796,69.693853 L14.6477074,69.693853 Z M26.1403665,70.3734449 C26.3387309,70.4632533 26.5327288,70.5605457 26.7217363,70.6661538 L26.1667735,76.3509015 L22.978804,73.9732654 L26.1403665,70.3734449 Z M3.21973723,53.8395498 C3.21973723,46.1891085 9.44480946,39.9652126 17.0966967,39.9652126 C24.7485839,39.9652126 30.9736562,46.1891085 30.9736562,53.8395498 C30.9736562,61.4899912 24.7485839,67.7138871 17.0966967,67.7138871 C9.44480946,67.7138871 3.21973723,61.4899912 3.21973723,53.8395498 Z M3.53639026,77.3585436 C3.53639026,73.5402309 6.34384944,70.365753 10.0031943,69.788235 L12.4203705,79.6251666 C12.5451279,80.1328336 12.9158656,80.5440397 13.4080339,80.7207461 C13.5793675,80.7822814 13.7573548,80.8124255 13.9345104,80.8124255 C14.2659495,80.8124255 14.5938537,80.7068174 14.8670726,80.5030854 L19.1329467,77.3215392 L19.1329467,94.6809648 L11.236422,94.6809648 L11.236422,79.2251865 C11.236422,78.3641068 10.5381959,77.6660127 9.67695346,77.6660127 C8.81571099,77.6660127 8.11748496,78.3641068 8.11748496,79.2251865 L8.11748496,94.6809648 L3.53639026,94.6809648 L3.53639026,77.3585436 Z M30.6570032,94.6809648 L22.2520917,94.6809648 L22.2520917,77.3215392 L26.5179658,80.5030854 C26.7920164,80.7074411 27.1199206,80.8124255 27.450528,80.8124255 C27.6640712,80.8124255 27.878862,80.7685607 28.0809691,80.6791681 C28.5955937,80.4517366 28.9478257,79.9646507 29.002511,79.4045955 L29.583673,73.4527092 C30.2646409,74.5973507 30.6572111,75.9326272 30.6572111,77.3585436 L30.6572111,94.6809648 L30.6570032,94.6809648 Z" id="Shape"></path>
                                <path d="M25.7359443,81.7367037 C25.4878849,81.1487912 24.8988216,80.7587899 24.2577761,80.7752132 C23.5770161,80.7926759 22.9775564,81.2631307 22.7941629,81.9175679 C22.6153439,82.555166 22.8779584,83.2640704 23.4300102,83.6307881 C23.9760321,83.993348 24.7148043,83.972559 25.2369144,83.5765288 C25.7937486,83.1536809 26.0102029,82.3838648 25.7359443,81.7367037 C25.6964378,81.6431533 25.7756588,81.8302541 25.7359443,81.7367037 Z" id="Shape"></path>
                                <path d="M16.5392387,50.9376155 C16.2961695,50.3623843 15.7274834,49.9750855 15.0993294,49.9750855 C14.4734627,49.9750855 13.8997863,50.3621764 13.6594202,50.9376155 C13.4032515,51.5510985 13.5795754,52.2886916 14.0865066,52.7194394 C14.6021709,53.1574633 15.3615281,53.2119304 15.9329173,52.8497863 C16.5629426,52.4508457 16.8307553,51.6282256 16.5392387,50.9376155 C16.4997322,50.844273 16.5787452,51.0313738 16.5392387,50.9376155 Z" id="Shape"></path>
                                <path d="M23.8585522,52.1311111 C24.1066116,52.718192 24.6965066,53.1090249 25.3373442,53.0926016 C26.0291244,53.074931 26.6433471,52.5841031 26.81073,51.912411 C26.9600231,51.3130646 26.7313011,50.664864 26.2395487,50.2914939 C25.6993488,49.8815351 24.9302189,49.8732195 24.3823257,50.2727838 C23.8042827,50.6941765 23.5853333,51.4700214 23.8585522,52.1311111 C23.8978508,52.2244537 23.8190456,52.0354818 23.8585522,52.1311111 Z" id="Shape"></path>
                                <path d="M64.083275,36.986336 C64.3381961,37.148698 64.6292969,37.2303987 64.9210215,37.2303987 C65.1788536,37.2303987 65.4368936,37.1665765 65.6710219,37.0381006 C66.1700518,36.7643097 66.48049,36.2404273 66.48049,35.6712249 L66.48049,32.0450023 L68.0671972,32.0450023 C70.7384628,32.0450023 72.9117381,29.8721377 72.9117381,27.2015848 L72.9117381,10.90115 C72.9117381,8.23038921 70.7384628,6.05752456 68.0671972,6.05752456 L51.9115193,6.05752456 L51.9115193,5.41535284 C51.9115193,2.74438413 49.738244,0.571519484 47.0667705,0.571519484 L18.4474044,0.571519484 C15.7759308,0.571519484 13.6026555,2.74459202 13.6026555,5.41535284 L13.6026555,21.7139166 C13.6026555,24.3848853 15.7761388,26.5577499 18.4474044,26.5577499 L20.0339037,26.5577499 L20.0339037,30.1854277 C20.0339037,30.7546301 20.3441339,31.2787204 20.8433718,31.5525113 C21.0775,31.6809872 21.33554,31.7446015 21.5931642,31.7446015 C21.8850967,31.7446015 22.1764055,31.6626929 22.4313266,31.5003309 L30.1883309,26.5577499 L34.6028743,26.5577499 L34.6028743,27.2015848 C34.6028743,29.8723456 36.7761497,32.0450023 39.4472073,32.0450023 L56.3250231,32.0450023 L64.083275,36.986336 Z M29.550356,23.9201395 C29.2354171,23.9201395 28.926874,24.010105 28.6613372,24.1792314 L22.5700914,28.0605395 L22.5700914,25.573918 C22.5700914,24.6605913 21.8294997,23.9201395 20.9160003,23.9201395 L17.5791471,23.9201395 C16.5697104,23.9201395 15.7486195,23.0992038 15.7486195,22.0899578 L15.7486195,4.8024591 C15.7486195,3.79321316 16.5699309,2.97227747 17.5791471,2.97227747 L47.9350277,2.97227747 C48.9442439,2.97227747 49.7655553,3.79343366 49.7655553,4.8024591 L49.7655553,5.48359537 L39.853359,5.48359537 C37.6132785,5.48359537 35.7046778,6.92480827 35.0031226,8.92808539 L22.3806429,8.92808539 C21.4671434,8.92808539 20.7265517,9.66853719 20.7265517,10.581864 C20.7265517,11.4951908 21.4671434,12.2356425 22.3806429,12.2356425 L34.7150902,12.2356425 L34.7150902,15.0007603 L22.3806429,15.0007603 C21.4671434,15.0007603 20.7265517,15.7412121 20.7265517,16.6545389 C20.7265517,17.5678657 21.4671434,18.3083175 22.3806429,18.3083175 L34.7150902,18.3083175 L34.7150902,23.9201395 L29.550356,23.9201395 Z M36.4529346,27.6921155 L36.4529346,10.1018311 C36.4529346,9.07525075 37.2883107,8.24003248 38.3148607,8.24003248 L69.1993194,8.24003248 C70.2260938,8.24003248 71.06147,9.07525075 71.06147,10.1018311 L71.06147,27.6918912 C71.06147,28.7184716 70.2260938,29.5534655 69.1993194,29.5534655 L65.8041875,29.5534655 C64.8745708,29.5534655 64.1213186,30.3067996 64.1213186,31.2360164 L64.1213186,33.7650026 L57.9227515,29.8168408 C57.652595,29.6447719 57.3389082,29.5534655 57.0187144,29.5534655 L38.3150851,29.5534655 C37.2883107,29.5536898 36.4529346,28.7184716 36.4529346,27.6921155 Z" id="Shape"></path>
                                <path d="M43.9756959,17.9095324 L63.5387086,17.9095324 C64.400159,17.9095324 65.0981771,17.2114383 65.0981771,16.3503586 C65.0981771,15.4892789 64.400159,14.7911848 63.5387086,14.7911848 L43.9756959,14.7911848 C43.1142455,14.7911848 42.4162274,15.4892789 42.4162274,16.3503586 C42.4162274,17.2114383 43.1144535,17.9095324 43.9756959,17.9095324 Z" id="Shape"></path>
                                <path d="M65.0981771,22.0752291 C65.0981771,21.2141494 64.400159,20.5160553 63.5387086,20.5160553 L43.9756959,20.5160553 C43.1142455,20.5160553 42.4162274,21.2141494 42.4162274,22.0752291 C42.4162274,22.9363088 43.1142455,23.6344029 43.9756959,23.6344029 L63.5387086,23.6344029 C64.400159,23.6344029 65.0981771,22.9363088 65.0981771,22.0752291 Z" id="Shape"></path>
                                <path d="M76.9607421,66.9900377 C81.1860701,64.1390364 83.9700333,59.3083001 83.9700333,53.8395498 C83.9700333,45.0973662 76.8565697,37.9852467 68.1127337,37.9852467 C59.3688977,37.9852467 52.2552262,45.0973662 52.2552262,53.8395498 C52.2552262,59.3083001 55.0391893,64.1390364 59.2645173,66.9900377 C54.7495441,68.2779153 51.4332823,72.4369595 51.4332823,77.3585436 L51.4332823,96.2401386 C51.4332823,97.1012184 52.1313004,97.7993125 52.9927508,97.7993125 L83.2325086,97.7993125 C84.093959,97.7993125 84.7919771,97.1012184 84.7919771,96.2401386 L84.7919771,77.3585436 C84.7919771,72.4369595 81.4757154,68.2779153 76.9607421,66.9900377 Z M73.6725508,69.693853 C72.4877706,71.5600801 70.4057762,72.7604361 68.1123178,72.7604361 C65.8188595,72.7604361 63.737073,71.5600801 62.5520848,69.693853 L73.6725508,69.693853 Z M54.2357649,53.8395498 C54.2357649,46.1891085 60.4608371,39.9652126 68.1129509,39.9652126 C75.7646116,39.9652126 81.9899104,46.1891085 81.9899104,53.8395498 C81.9899104,61.4899912 75.7648381,67.7138871 68.1129509,67.7138871 C60.4608371,67.7138871 54.2357649,61.4899912 54.2357649,53.8395498 Z M54.5524272,77.3585436 C54.5524272,74.1601584 56.5225558,71.4143493 59.3127568,70.2674211 C60.881998,73.6368996 64.303264,75.8787837 68.1125258,75.8787837 C71.9217875,75.8787837 75.3430535,73.6366918 76.9122947,70.2672132 C79.7027036,71.4141414 81.6732481,74.1601584 81.6732481,77.3585436 L81.6732481,82.892987 L76.2105338,82.892987 L76.2105338,79.2253944 C76.2105338,78.3643147 75.5125157,77.6662206 74.6510653,77.6662206 C73.7896149,77.6662206 73.0915968,78.3643147 73.0915968,79.2253944 L73.0915968,94.6811727 L54.5526352,94.6811727 L54.5526352,77.3585436 L54.5524272,77.3585436 Z M76.2103259,94.6809648 L76.2103259,86.0111268 L81.6730401,86.0111268 L81.6730401,94.6809648 L76.2103259,94.6809648 Z" id="Shape"></path>
                                <path d="M68.669152,52.1311111 C68.9442423,52.7807669 69.6360225,53.1822022 70.3386151,53.0761783 C70.9553329,52.9830437 71.4670465,52.5206967 71.6213299,51.9171925 C71.7833067,51.2837521 71.5161178,50.6010419 70.9750862,50.2372346 C70.3616952,49.8247812 69.5308104,49.9204105 69.0059972,50.4305722 C68.5708016,50.8787827 68.4296177,51.5496432 68.669152,52.1311111 C68.7088665,52.2244537 68.6298534,52.0354818 68.669152,52.1311111 Z" id="Shape"></path>
                                <path d="M61.439664,51.2288692 C61.4022367,51.0288792 61.3171937,50.83866 61.2088626,50.6675666 C60.4220588,49.5164806 58.5783511,49.9220736 58.3695903,51.3053727 C58.179751,52.5618589 59.5722524,53.5210626 60.679475,52.8894933 C61.2564784,52.5601958 61.5727386,51.8828906 61.439664,51.2288692 C61.4209503,51.1290821 61.4602489,51.3307352 61.439664,51.2288692 Z" id="Shape"></path>
                                <path d="M68.4194292,56.8759889 C67.9324591,56.388903 67.1421205,56.388903 66.6553584,56.8759889 C66.2384605,57.2926001 65.6843293,57.5221105 65.0950582,57.5221105 C64.505787,57.5221105 63.9516558,57.2926001 63.5347579,56.8759889 C63.0477879,56.388903 62.2574493,56.388903 61.7706871,56.8759889 C61.2833013,57.3630748 61.2833013,58.1528483 61.7706871,58.6399342 C62.6870308,59.5563127 63.8911485,60.0145019 65.0950582,60.0145019 C66.2989678,60.0145019 67.5030855,59.5563127 68.4194292,58.6399342 C68.906815,58.1528483 68.906815,57.3632827 68.4194292,56.8759889 Z" id="Shape"></path>
                            </g>
                            <rect id="Rectangle-33" x="0" y="93" width="340" height="5"></rect>
                        </g>
                        <g id="Group-2" fill="#358FCA">
                            <g id="Group">
                                <path d="M279.225835,196.82 L1.74781176,196.82 C0.895811765,196.82 0.204188235,196.13 0.204188235,195.28 C0.204188235,194.43 0.895811765,193.74 1.74781176,193.74 L279.225835,193.74 C280.077835,193.74 280.769459,194.43 280.769459,195.28 C280.769459,196.13 280.077835,196.82 279.225835,196.82" id="Fill-907"></path>
                                <path d="M254.952188,204.823333 L26.0214588,204.823333 C25.1694588,204.823333 24.4778353,204.133333 24.4778353,203.283333 C24.4778353,202.433333 25.1694588,201.743333 26.0214588,201.743333 L254.952188,201.743333 C255.804188,201.743333 256.495812,202.433333 256.495812,203.283333 C256.495812,204.133333 255.804188,204.823333 254.952188,204.823333" id="Fill-908"></path>
                                <path d="M70.0280941,194.046667 L210.948894,194.046667 L210.948894,15.38 L70.0280941,15.38 L70.0280941,194.046667 Z M212.181788,196.51 L68.7918588,196.51 C68.1102588,196.51 67.5589647,195.96 67.5589647,195.28 L67.5589647,14.15 C67.5589647,13.47 68.1102588,12.92 68.7918588,12.92 L212.181788,12.92 C212.863388,12.92 213.414682,13.47 213.414682,14.15 L213.414682,195.28 C213.414682,195.96 212.863388,196.51 212.181788,196.51 L212.181788,196.51 Z" id="Fill-909"></path>
                                <text id="LENDER" font-family="TitilliumWeb-SemiBold, Titillium Web" font-size="24" font-weight="500" letter-spacing="0.560000002">
                                    <tspan x="97" y="110.715">LENDER</tspan>
                                </text>
                                <path d="M65.6478118,12.92 L215.325835,12.92 L215.325835,3.38666667 L65.6478118,3.38666667 L65.6478118,12.92 Z M216.562071,15.38 L64.4115765,15.38 C63.7299765,15.38 63.1786824,14.83 63.1786824,14.15 L63.1786824,2.15333333 C63.1786824,1.47333333 63.7299765,0.923333333 64.4115765,0.923333333 L216.562071,0.923333333 C217.243671,0.923333333 217.794965,1.47333333 217.794965,2.15333333 L217.794965,14.15 C217.794965,14.83 217.243671,15.38 216.562071,15.38 L216.562071,15.38 Z" id="Fill-910"></path>
                                <path d="M175.819765,182.966667 L199.375059,182.966667 L199.375059,138.15 L175.819765,138.15 L175.819765,182.966667 Z M200.611294,185.426667 L174.586871,185.426667 C173.905271,185.426667 173.350635,184.876667 173.350635,184.196667 L173.350635,136.92 C173.350635,136.24 173.905271,135.686667 174.586871,135.686667 L200.611294,135.686667 C201.292894,135.686667 201.844188,136.24 201.844188,136.92 L201.844188,184.196667 C201.844188,184.876667 201.292894,185.426667 200.611294,185.426667 L200.611294,185.426667 Z" id="Fill-911"></path>
                                <path d="M171.559765,193.876667 L203.635059,193.876667 L199.812753,185.426667 L175.382071,185.426667 L171.559765,193.876667 Z M205.546212,196.34 L169.648612,196.34 C169.230965,196.34 168.840047,196.13 168.612847,195.776667 C168.382306,195.426667 168.348894,194.983333 168.522635,194.603333 L173.460894,183.69 C173.661365,183.25 174.099059,182.966667 174.586871,182.966667 L200.611294,182.966667 C201.095765,182.966667 201.533459,183.25 201.733929,183.69 L206.672188,194.603333 C206.845929,194.983333 206.812518,195.426667 206.585318,195.776667 C206.358118,196.13 205.9672,196.34 205.546212,196.34 L205.546212,196.34 Z" id="Fill-912"></path>
                                <path d="M179.251153,163.253333 C179.251153,163.923333 178.706541,164.463333 178.038306,164.463333 C177.366729,164.463333 176.825459,163.923333 176.825459,163.253333 C176.825459,162.586667 177.366729,162.043333 178.038306,162.043333 C178.706541,162.043333 179.251153,162.586667 179.251153,163.253333" id="Fill-913"></path>
                                <path d="M87.8532706,59.3433333 L106.400141,59.3433333 L106.400141,40.84 L87.8532706,40.84 L87.8532706,59.3433333 Z M107.636376,61.8066667 L86.6170353,61.8066667 C85.9354353,61.8066667 85.3841412,61.2566667 85.3841412,60.5733333 L85.3841412,39.6066667 C85.3841412,38.9266667 85.9354353,38.3766667 86.6170353,38.3766667 L107.636376,38.3766667 C108.317976,38.3766667 108.869271,38.9266667 108.869271,39.6066667 L108.869271,60.5733333 C108.869271,61.2566667 108.317976,61.8066667 107.636376,61.8066667 L107.636376,61.8066667 Z" id="Fill-914"></path>
                                <path d="M84.6323765,65.01 L109.621035,65.01 L109.621035,61.8066667 L84.6323765,61.8066667 L84.6323765,65.01 Z M110.853929,67.4733333 L83.3994824,67.4733333 C82.7178824,67.4733333 82.1632471,66.9233333 82.1632471,66.2433333 L82.1632471,60.5733333 C82.1632471,59.8966667 82.7178824,59.3433333 83.3994824,59.3433333 L110.853929,59.3433333 C111.535529,59.3433333 112.090165,59.8966667 112.090165,60.5733333 L112.090165,66.2433333 C112.090165,66.9233333 111.535529,67.4733333 110.853929,67.4733333 L110.853929,67.4733333 Z" id="Fill-915"></path>
                                <polygon id="Fill-916" points="86.6170353 51.3233333 107.636376 51.3233333 107.636376 48.86 86.6170353 48.86"></polygon>
                                <path d="M131.211718,59.3433333 L149.761929,59.3433333 L149.761929,40.84 L131.211718,40.84 L131.211718,59.3433333 Z M150.994824,61.8066667 L129.978824,61.8066667 C129.297224,61.8066667 128.742588,61.2566667 128.742588,60.5733333 L128.742588,39.6066667 C128.742588,38.9266667 129.297224,38.3766667 129.978824,38.3766667 L150.994824,38.3766667 C151.676424,38.3766667 152.231059,38.9266667 152.231059,39.6066667 L152.231059,60.5733333 C152.231059,61.2566667 151.676424,61.8066667 150.994824,61.8066667 L150.994824,61.8066667 Z" id="Fill-917"></path>
                                <path d="M127.994165,65.01 L152.979482,65.01 L152.979482,61.8066667 L127.994165,61.8066667 L127.994165,65.01 Z M154.215718,67.4733333 L126.757929,67.4733333 C126.076329,67.4733333 125.525035,66.9233333 125.525035,66.2433333 L125.525035,60.5733333 C125.525035,59.8966667 126.076329,59.3433333 126.757929,59.3433333 L154.215718,59.3433333 C154.897318,59.3433333 155.448612,59.8966667 155.448612,60.5733333 L155.448612,66.2433333 C155.448612,66.9233333 154.897318,67.4733333 154.215718,67.4733333 L154.215718,67.4733333 Z" id="Fill-918"></path>
                                <polygon id="Fill-919" points="129.978824 51.3233333 150.994824 51.3233333 150.994824 48.86 129.978824 48.86"></polygon>
                                <path d="M174.573506,59.3433333 L193.120376,59.3433333 L193.120376,40.84 L174.573506,40.84 L174.573506,59.3433333 Z M194.356612,61.8066667 L173.337271,61.8066667 C172.655671,61.8066667 172.104376,61.2566667 172.104376,60.5733333 L172.104376,39.6066667 C172.104376,38.9266667 172.655671,38.3766667 173.337271,38.3766667 L194.356612,38.3766667 C195.038212,38.3766667 195.589506,38.9266667 195.589506,39.6066667 L195.589506,60.5733333 C195.589506,61.2566667 195.038212,61.8066667 194.356612,61.8066667 L194.356612,61.8066667 Z" id="Fill-920"></path>
                                <path d="M171.355953,65.01 L196.341271,65.01 L196.341271,61.8066667 L171.355953,61.8066667 L171.355953,65.01 Z M197.574165,67.4733333 L170.119718,67.4733333 C169.438118,67.4733333 168.886824,66.9233333 168.886824,66.2433333 L168.886824,60.5733333 C168.886824,59.8966667 169.438118,59.3433333 170.119718,59.3433333 L197.574165,59.3433333 C198.255765,59.3433333 198.8104,59.8966667 198.8104,60.5733333 L198.8104,66.2433333 C198.8104,66.9233333 198.255765,67.4733333 197.574165,67.4733333 L197.574165,67.4733333 Z" id="Fill-921"></path>
                                <polygon id="Fill-922" points="173.337271 51.3233333 194.356612 51.3233333 194.356612 48.86 173.337271 48.86"></polygon>
                                <path d="M87.8532706,160.146667 L106.400141,160.146667 L106.400141,141.64 L87.8532706,141.64 L87.8532706,160.146667 Z M107.636376,162.61 L86.6170353,162.61 C85.9354353,162.61 85.3841412,162.056667 85.3841412,161.376667 L85.3841412,140.41 C85.3841412,139.73 85.9354353,139.176667 86.6170353,139.176667 L107.636376,139.176667 C108.317976,139.176667 108.869271,139.73 108.869271,140.41 L108.869271,161.376667 C108.869271,162.056667 108.317976,162.61 107.636376,162.61 L107.636376,162.61 Z" id="Fill-923"></path>
                                <path d="M84.6323765,165.813333 L109.621035,165.813333 L109.621035,162.61 L84.6323765,162.61 L84.6323765,165.813333 Z M110.853929,168.276667 L83.3994824,168.276667 C82.7178824,168.276667 82.1632471,167.723333 82.1632471,167.043333 L82.1632471,161.376667 C82.1632471,160.696667 82.7178824,160.146667 83.3994824,160.146667 L110.853929,160.146667 C111.535529,160.146667 112.090165,160.696667 112.090165,161.376667 L112.090165,167.043333 C112.090165,167.723333 111.535529,168.276667 110.853929,168.276667 L110.853929,168.276667 Z" id="Fill-924"></path>
                                <polygon id="Fill-925" points="86.6170353 152.123333 107.636376 152.123333 107.636376 149.66 86.6170353 149.66"></polygon>
                                <path d="M131.211718,160.146667 L149.761929,160.146667 L149.761929,141.64 L131.211718,141.64 L131.211718,160.146667 Z M150.994824,162.61 L129.978824,162.61 C129.297224,162.61 128.742588,162.056667 128.742588,161.376667 L128.742588,140.41 C128.742588,139.73 129.297224,139.176667 129.978824,139.176667 L150.994824,139.176667 C151.676424,139.176667 152.231059,139.73 152.231059,140.41 L152.231059,161.376667 C152.231059,162.056667 151.676424,162.61 150.994824,162.61 L150.994824,162.61 Z" id="Fill-926"></path>
                                <path d="M127.994165,165.813333 L152.979482,165.813333 L152.979482,162.61 L127.994165,162.61 L127.994165,165.813333 Z M154.215718,168.276667 L126.757929,168.276667 C126.076329,168.276667 125.525035,167.723333 125.525035,167.043333 L125.525035,161.376667 C125.525035,160.696667 126.076329,160.146667 126.757929,160.146667 L154.215718,160.146667 C154.897318,160.146667 155.448612,160.696667 155.448612,161.376667 L155.448612,167.043333 C155.448612,167.723333 154.897318,168.276667 154.215718,168.276667 L154.215718,168.276667 Z" id="Fill-927"></path>
                                <polygon id="Fill-928" points="129.978824 152.123333 150.994824 152.123333 150.994824 149.66 129.978824 149.66"></polygon>
                                <polygon id="Fill-929" points="173.033224 188.86 202.054682 188.86 202.054682 186.396667 173.033224 186.396667"></polygon>
                                <polygon id="Fill-930" points="170.988424 192.76 204.450306 192.76 204.450306 190.296667 170.988424 190.296667"></polygon>
                                <polygon id="Fill-931" points="68.7918588 185.426667 174.586871 185.426667 174.586871 182.966667 68.7918588 182.966667"></polygon>
                                <polygon id="Fill-932" points="200.250447 185.426667 212.175106 185.426667 212.175106 182.966667 200.250447 182.966667"></polygon>
                                <path d="M86.9411294,190.296667 L95.2740235,190.296667 L95.2740235,189.476667 L86.9411294,189.476667 L86.9411294,190.296667 Z M96.5069176,192.76 L85.7082353,192.76 C85.0266353,192.76 84.472,192.21 84.472,191.53 L84.472,188.246667 C84.472,187.566667 85.0266353,187.013333 85.7082353,187.013333 L96.5069176,187.013333 C97.1885176,187.013333 97.7431529,187.566667 97.7431529,188.246667 L97.7431529,191.53 C97.7431529,192.21 97.1885176,192.76 96.5069176,192.76 L96.5069176,192.76 Z" id="Fill-933"></path>
                                <path d="M139.093553,190.296667 L147.423106,190.296667 L147.423106,189.476667 L139.093553,189.476667 L139.093553,190.296667 Z M148.659341,192.76 L137.857318,192.76 C137.175718,192.76 136.624424,192.21 136.624424,191.53 L136.624424,188.246667 C136.624424,187.566667 137.175718,187.013333 137.857318,187.013333 L148.659341,187.013333 C149.340941,187.013333 149.892235,187.566667 149.892235,188.246667 L149.892235,191.53 C149.892235,192.21 149.340941,192.76 148.659341,192.76 L148.659341,192.76 Z" id="Fill-934"></path>
                            </g>
                        </g>
                        <g id="approve-invoice" transform="translate(250.000000, 25.000000)" fill-rule="nonzero" fill="#3289C7">
                            <path d="M56.8202579,0 L17.1781244,0 C14.9095317,0 13.0637986,1.84843902 13.0637986,4.12035772 L13.0637986,13.3409919 C5.54368552,15.4962602 0.0234615385,22.4431789 0.0234615385,30.6572195 C0.0234615385,38.8712602 5.54354751,45.8181789 13.0637986,47.9734472 L13.0637986,63.8377642 C13.0637986,66.1096829 14.9095317,67.958122 17.1781244,67.958122 L49.5734027,67.958122 C49.9577579,67.958122 50.3262421,67.8052602 50.5981199,67.533122 L60.5100679,57.6065041 C60.7818077,57.3343659 60.9344457,56.9652033 60.9344457,56.5802846 L60.9344457,4.12035772 C60.9344457,1.84843902 59.0888507,0 56.8202579,0 Z M17.1781244,2.90243902 L56.8202579,2.90243902 C57.4907059,2.90243902 58.0362557,3.44878862 58.0362557,4.12035772 L58.0362557,8.50013821 L15.9619887,8.50013821 L15.9619887,4.12035772 C15.9619887,3.44878862 16.5075385,2.90243902 17.1781244,2.90243902 Z M2.92165158,30.6570813 C2.92165158,22.3280488 9.68782127,15.5519593 18.0046606,15.5519593 C26.3215,15.5519593 33.0876697,22.3280488 33.0876697,30.6570813 C33.0876697,38.9861138 26.3215,45.7623415 18.0046606,45.7623415 C9.68782127,45.7623415 2.92165158,38.9861138 2.92165158,30.6570813 Z M15.9619887,63.837626 L15.9619887,48.5478537 C16.6327127,48.6241463 17.3140633,48.6647805 18.0047986,48.6647805 C23.4057828,48.6647805 28.257767,46.2672276 31.5565973,42.4795447 L40.4355475,42.4795447 C41.235862,42.4795447 41.8846425,41.829813 41.8846425,41.0283252 C41.8846425,40.2268374 41.235862,39.5771057 40.4355475,39.5771057 L33.6205226,39.5771057 C34.8809593,37.3726341 35.6884502,34.8772276 35.9175452,32.2184553 L40.4354095,32.2184553 C41.235724,32.2184553 41.8845045,31.5687236 41.8845045,30.7672358 C41.8845045,29.965748 41.235724,29.3160163 40.4354095,29.3160163 L35.9359005,29.3160163 C35.7399276,26.663187 34.9670769,24.168748 33.7434887,21.9575041 L40.4352715,21.9575041 C41.235586,21.9575041 41.8843665,21.3077724 41.8843665,20.5062846 C41.8843665,19.7047967 41.235586,19.055065 40.4352715,19.055065 L31.7442896,19.055065 C28.4433891,15.1405041 23.5092896,12.6493821 18.0043846,12.6493821 C17.3136493,12.6493821 16.6322986,12.6900163 15.9615747,12.7663089 L15.9615747,11.4025772 L58.0358416,11.4025772 L58.0358416,55.1287886 L52.2382195,55.1287886 C49.9694887,55.1287886 48.1240317,56.9772276 48.1240317,59.2490081 L48.1240317,65.0554065 L17.1781244,65.0554065 C16.5075385,65.0554065 15.9619887,64.5091951 15.9619887,63.837626 Z M51.0226357,63.0029675 L51.0226357,59.2491463 C51.0226357,58.5775772 51.5681855,58.0313659 52.2386335,58.0313659 L55.9869593,58.0313659 L51.0226357,63.0029675 Z" id="Shape"></path>
                            <path d="M46.1289729,21.9575041 L50.9413484,21.9575041 C51.7416629,21.9575041 52.3904434,21.3077724 52.3904434,20.5062846 C52.3904434,19.7047967 51.7416629,19.055065 50.9413484,19.055065 L46.1289729,19.055065 C45.3286584,19.055065 44.6798778,19.7047967 44.6798778,20.5062846 C44.6798778,21.3077724 45.3286584,21.9575041 46.1289729,21.9575041 Z" id="Shape"></path>
                            <path d="M46.1289729,32.2184553 L50.9413484,32.2184553 C51.7416629,32.2184553 52.3904434,31.5687236 52.3904434,30.7672358 C52.3904434,29.965748 51.7416629,29.3160163 50.9413484,29.3160163 L46.1289729,29.3160163 C45.3286584,29.3160163 44.6798778,29.965748 44.6798778,30.7672358 C44.6798778,31.5687236 45.3286584,32.2184553 46.1289729,32.2184553 Z" id="Shape"></path>
                            <path d="M46.1289729,42.4795447 L50.9413484,42.4795447 C51.7416629,42.4795447 52.3904434,41.829813 52.3904434,41.0283252 C52.3904434,40.2268374 51.7416629,39.5771057 50.9413484,39.5771057 L46.1289729,39.5771057 C45.3286584,39.5771057 44.6798778,40.2268374 44.6798778,41.0283252 C44.6798778,41.829813 45.3286584,42.4795447 46.1289729,42.4795447 Z" id="Shape"></path>
                            <path d="M50.9413484,52.7404959 C51.7416629,52.7404959 52.3904434,52.0907642 52.3904434,51.2892764 C52.3904434,50.4877886 51.7416629,49.8380569 50.9413484,49.8380569 L37.3854095,49.8380569 C36.585095,49.8380569 35.9363145,50.4877886 35.9363145,51.2892764 C35.9363145,52.0907642 36.585095,52.7404959 37.3854095,52.7404959 L50.9413484,52.7404959 Z" id="Shape"></path>
                            <path d="M29.2554344,23.3363008 L27.4875385,21.565813 C27.0114072,21.089122 26.3784977,20.8265203 25.7051516,20.8265203 C25.0318054,20.8265203 24.3988959,21.089122 23.9227647,21.565813 L14.6499367,30.8522358 L12.0866946,28.2852358 C11.6107014,27.8086829 10.9776538,27.5460813 10.3044457,27.5460813 C9.63123756,27.5460813 8.99819005,27.8086829 8.52219683,28.285374 L6.75388688,30.0561382 C5.77126244,31.0403415 5.77126244,32.6417967 6.75402489,33.626 L12.8674118,39.7482114 C13.343543,40.2251789 13.9765905,40.4877805 14.6499367,40.4877805 L14.6500747,40.4877805 C15.3232828,40.4877805 15.9563303,40.2251789 16.4321855,39.7484878 L29.2555724,26.9063008 C30.2381968,25.9220976 30.2381968,24.3205041 29.2554344,23.3363008 Z M14.6497986,37.4286098 L9.07023077,31.841 L10.3043077,30.6051138 L13.6250814,33.9307561 C14.1910566,34.497561 15.1085407,34.497561 15.6745158,33.9307561 L25.7051516,23.8854146 L26.9392285,25.1213008 L14.6497986,37.4286098 Z" id="Shape"></path>
                        </g>
                    </g>
                </g>
                <g id="Group-3"></g>
            </g>
        </g>
    </g>
</svg>