<?xml version="1.0" encoding="UTF-8"?>
<svg width="298px" height="175px" viewBox="0 0 298 175" version="1.1" xmlns="http://www.w3.org/2000/svg" xmlns:xlink="http://www.w3.org/1999/xlink">
    <!-- Generator: Sketch 43.1 (39012) - http://www.bohemiancoding.com/sketch -->
    <title>Home Value Estimate</title>
    <desc>Home Value Estimate</desc>
    <defs></defs>
    <g id="Page-1" stroke="none" stroke-width="1" fill="none" fill-rule="evenodd">
        <g id="Home-Value-Estimator" transform="translate(-572.000000, -1507.000000)">
            <g id="Group-6" transform="translate(572.000000, 1507.000000)">
                <g id="Group-9" transform="translate(0.000000, 107.000000)" fill="#9B9B9B">
                    <g id="Group-5" transform="translate(0.000000, 4.000000)">
                        <path d="M84.469,51.34 L1.421,51.34 C1.166,51.34 0.959,51.134 0.959,50.879 C0.959,50.624 1.166,50.417 1.421,50.417 L84.469,50.417 C84.724,50.417 84.931,50.624 84.931,50.879 C84.931,51.134 84.724,51.34 84.469,51.34" id="Fill-191"></path>
                        <path d="M77.204,53.742 L8.686,53.742 C8.431,53.742 8.224,53.535 8.224,53.28 C8.224,53.025 8.431,52.818 8.686,52.818 L77.204,52.818 C77.459,52.818 77.666,53.025 77.666,53.28 C77.666,53.535 77.459,53.742 77.204,53.742" id="Fill-192"></path>
                        <path d="M9.148,34.651 L13.822,34.651 L13.822,26.585 L9.148,26.585 L9.148,34.651 Z M14.191,35.39 L8.779,35.39 C8.575,35.39 8.41,35.225 8.41,35.021 L8.41,26.215 C8.41,26.011 8.575,25.846 8.779,25.846 L14.191,25.846 C14.395,25.846 14.56,26.011 14.56,26.215 L14.56,35.021 C14.56,35.225 14.395,35.39 14.191,35.39 L14.191,35.39 Z" id="Fill-193"></path>
                        <path d="M8.113,36.284 L14.857,36.284 L14.857,35.39 L8.113,35.39 L8.113,36.284 Z M15.227,37.022 L7.743,37.022 C7.539,37.022 7.374,36.857 7.374,36.653 L7.374,35.021 C7.374,34.817 7.539,34.651 7.743,34.651 L15.227,34.651 C15.431,34.651 15.596,34.817 15.596,35.021 L15.596,36.653 C15.596,36.857 15.431,37.022 15.227,37.022 L15.227,37.022 Z" id="Fill-194"></path>
                        <path d="M14.191,30.987 L8.779,30.987 C8.575,30.987 8.41,30.822 8.41,30.618 C8.41,30.414 8.575,30.249 8.779,30.249 L14.191,30.249 C14.395,30.249 14.56,30.414 14.56,30.618 C14.56,30.822 14.395,30.987 14.191,30.987" id="Fill-195"></path>
                        <path d="M11.485,35.273 C11.281,35.273 11.116,35.108 11.116,34.904 L11.116,26.332 C11.116,26.128 11.281,25.963 11.485,25.963 C11.689,25.963 11.854,26.128 11.854,26.332 L11.854,34.904 C11.854,35.108 11.689,35.273 11.485,35.273" id="Fill-196"></path>
                        <path d="M21.46,34.651 L26.133,34.651 L26.133,26.585 L21.46,26.585 L21.46,34.651 Z M26.502,35.39 L21.09,35.39 C20.886,35.39 20.721,35.225 20.721,35.021 L20.721,26.215 C20.721,26.011 20.886,25.846 21.09,25.846 L26.502,25.846 C26.706,25.846 26.872,26.011 26.872,26.215 L26.872,35.021 C26.872,35.225 26.706,35.39 26.502,35.39 L26.502,35.39 Z" id="Fill-197"></path>
                        <path d="M20.424,36.284 L27.168,36.284 L27.168,35.39 L20.424,35.39 L20.424,36.284 Z M27.538,37.022 L20.055,37.022 C19.851,37.022 19.685,36.857 19.685,36.653 L19.685,35.021 C19.685,34.817 19.851,34.651 20.055,34.651 L27.538,34.651 C27.742,34.651 27.907,34.817 27.907,35.021 L27.907,36.653 C27.907,36.857 27.742,37.022 27.538,37.022 L27.538,37.022 Z" id="Fill-198"></path>
                        <path d="M26.502,30.987 L21.09,30.987 C20.886,30.987 20.721,30.822 20.721,30.618 C20.721,30.414 20.886,30.249 21.09,30.249 L26.502,30.249 C26.706,30.249 26.872,30.414 26.872,30.618 C26.872,30.822 26.706,30.987 26.502,30.987" id="Fill-199"></path>
                        <path d="M23.796,35.273 C23.592,35.273 23.427,35.108 23.427,34.904 L23.427,26.332 C23.427,26.128 23.592,25.963 23.796,25.963 C24,25.963 24.166,26.128 24.166,26.332 L24.166,34.904 C24.166,35.108 24,35.273 23.796,35.273" id="Fill-200"></path>
                        <path d="M59.757,34.651 L64.43,34.651 L64.43,26.585 L59.757,26.585 L59.757,34.651 Z M64.8,35.39 L59.388,35.39 C59.184,35.39 59.018,35.225 59.018,35.021 L59.018,26.215 C59.018,26.011 59.184,25.846 59.388,25.846 L64.8,25.846 C65.004,25.846 65.169,26.011 65.169,26.215 L65.169,35.021 C65.169,35.225 65.004,35.39 64.8,35.39 L64.8,35.39 Z" id="Fill-201"></path>
                        <path d="M58.722,36.284 L65.466,36.284 L65.466,35.39 L58.722,35.39 L58.722,36.284 Z M65.835,37.022 L58.352,37.022 C58.148,37.022 57.983,36.857 57.983,36.653 L57.983,35.021 C57.983,34.817 58.148,34.651 58.352,34.651 L65.835,34.651 C66.039,34.651 66.205,34.817 66.205,35.021 L66.205,36.653 C66.205,36.857 66.039,37.022 65.835,37.022 L65.835,37.022 Z" id="Fill-202"></path>
                        <path d="M64.8,30.987 L59.388,30.987 C59.184,30.987 59.018,30.822 59.018,30.618 C59.018,30.414 59.184,30.249 59.388,30.249 L64.8,30.249 C65.004,30.249 65.169,30.414 65.169,30.618 C65.169,30.822 65.004,30.987 64.8,30.987" id="Fill-203"></path>
                        <path d="M62.094,35.273 C61.89,35.273 61.724,35.108 61.724,34.904 L61.724,26.332 C61.724,26.128 61.89,25.963 62.094,25.963 C62.298,25.963 62.463,26.128 62.463,26.332 L62.463,34.904 C62.463,35.108 62.298,35.273 62.094,35.273" id="Fill-204"></path>
                        <path d="M72.068,34.651 L76.742,34.651 L76.742,26.585 L72.068,26.585 L72.068,34.651 Z M77.111,35.39 L71.699,35.39 C71.495,35.39 71.33,35.225 71.33,35.021 L71.33,26.215 C71.33,26.011 71.495,25.846 71.699,25.846 L77.111,25.846 C77.315,25.846 77.481,26.011 77.481,26.215 L77.481,35.021 C77.481,35.225 77.315,35.39 77.111,35.39 L77.111,35.39 Z" id="Fill-205"></path>
                        <path d="M71.033,36.284 L77.777,36.284 L77.777,35.39 L71.033,35.39 L71.033,36.284 Z M78.147,37.022 L70.664,37.022 C70.46,37.022 70.294,36.857 70.294,36.653 L70.294,35.021 C70.294,34.817 70.46,34.651 70.664,34.651 L78.147,34.651 C78.351,34.651 78.516,34.817 78.516,35.021 L78.516,36.653 C78.516,36.857 78.351,37.022 78.147,37.022 L78.147,37.022 Z" id="Fill-206"></path>
                        <path d="M77.111,30.987 L71.699,30.987 C71.495,30.987 71.33,30.822 71.33,30.618 C71.33,30.414 71.495,30.249 71.699,30.249 L77.111,30.249 C77.315,30.249 77.481,30.414 77.481,30.618 C77.481,30.822 77.315,30.987 77.111,30.987" id="Fill-207"></path>
                        <path d="M74.405,35.273 C74.201,35.273 74.036,35.108 74.036,34.904 L74.036,26.332 C74.036,26.128 74.201,25.963 74.405,25.963 C74.609,25.963 74.774,26.128 74.774,26.332 L74.774,34.904 C74.774,35.108 74.609,35.273 74.405,35.273" id="Fill-208"></path>
                        <path d="M30.436,50.371 L55.454,50.371 L52.274,45.826 L33.616,45.826 L30.436,50.371 Z M56.163,51.11 L29.727,51.11 C29.589,51.11 29.463,51.033 29.399,50.911 C29.335,50.789 29.345,50.641 29.424,50.529 L33.121,45.245 C33.191,45.146 33.304,45.087 33.424,45.087 L52.466,45.087 C52.586,45.087 52.699,45.146 52.769,45.245 L56.466,50.529 C56.545,50.641 56.555,50.789 56.491,50.911 C56.427,51.033 56.301,51.11 56.163,51.11 L56.163,51.11 Z" id="Fill-209"></path>
                        <polygon id="Fill-210" points="32.378 47.2 53.513 47.2 53.513 46.461 32.378 46.461"></polygon>
                        <polygon id="Fill-211" points="30.879 49.216 55.011 49.216 55.011 48.477 30.879 48.477"></polygon>
                        <path d="M82.834,50.74 L82.096,50.74 L82.096,45.826 L47.496,45.826 L47.496,45.087 L82.465,45.087 C82.669,45.087 82.834,45.253 82.834,45.457 L82.834,50.74" id="Fill-212"></path>
                        <path d="M3.794,50.74 L3.056,50.74 L3.056,45.457 C3.056,45.253 3.221,45.087 3.425,45.087 L38.394,45.087 L38.394,45.826 L3.794,45.826 L3.794,50.74" id="Fill-213"></path>
                        <polygon id="Fill-214" points="52.205 45.457 52.944 45.457 52.944 22.38 52.205 22.38"></polygon>
                        <polygon id="Fill-215" points="54.081 45.457 54.82 45.457 54.82 22.38 54.081 22.38"></polygon>
                        <polygon id="Fill-216" points="31.07 45.457 31.809 45.457 31.809 22.38 31.07 22.38"></polygon>
                        <polygon id="Fill-217" points="32.946 45.457 33.685 45.457 33.685 22.38 32.946 22.38"></polygon>
                        <polygon id="Fill-218" points="80.22 45.457 80.959 45.457 80.959 22.38 80.22 22.38"></polygon>
                        <polygon id="Fill-219" points="82.096 45.457 82.834 45.457 82.834 22.38 82.096 22.38"></polygon>
                        <polygon id="Fill-220" points="3.056 45.457 3.794 45.457 3.794 22.38 3.056 22.38"></polygon>
                        <polygon id="Fill-221" points="4.931 45.457 5.67 45.457 5.67 22.38 4.931 22.38"></polygon>
                        <path d="M48.576,45.457 L47.837,45.457 L47.837,26.854 L38.053,26.854 L38.053,45.457 L37.314,45.457 L37.314,26.484 C37.314,26.28 37.479,26.115 37.683,26.115 L48.207,26.115 C48.411,26.115 48.576,26.28 48.576,26.484 L48.576,45.457" id="Fill-222"></path>
                        <path d="M39.822,35.435 C39.822,35.731 39.582,35.97 39.287,35.97 C38.991,35.97 38.751,35.731 38.751,35.435 C38.751,35.139 38.991,34.9 39.287,34.9 C39.582,34.9 39.822,35.139 39.822,35.435" id="Fill-223"></path>
                        <path d="M80.59,38.451 L54.45,38.451 C54.246,38.451 54.081,38.286 54.081,38.082 C54.081,37.878 54.246,37.712 54.45,37.712 L80.59,37.712 C80.794,37.712 80.959,37.878 80.959,38.082 C80.959,38.286 80.794,38.451 80.59,38.451" id="Fill-224"></path>
                        <path d="M57.202,45.826 C56.998,45.826 56.833,45.66 56.833,45.456 L56.833,38.082 C56.833,37.878 56.998,37.712 57.202,37.712 C57.406,37.712 57.572,37.878 57.572,38.082 L57.572,45.456 C57.572,45.66 57.406,45.826 57.202,45.826" id="Fill-225"></path>
                        <path d="M60.622,45.826 C60.418,45.826 60.253,45.66 60.253,45.456 L60.253,38.082 C60.253,37.878 60.418,37.712 60.622,37.712 C60.826,37.712 60.992,37.878 60.992,38.082 L60.992,45.456 C60.992,45.66 60.826,45.826 60.622,45.826" id="Fill-226"></path>
                        <path d="M64.042,45.826 C63.838,45.826 63.672,45.66 63.672,45.456 L63.672,38.082 C63.672,37.878 63.838,37.712 64.042,37.712 C64.246,37.712 64.411,37.878 64.411,38.082 L64.411,45.456 C64.411,45.66 64.246,45.826 64.042,45.826" id="Fill-227"></path>
                        <path d="M67.462,45.826 C67.258,45.826 67.092,45.66 67.092,45.456 L67.092,38.082 C67.092,37.878 67.258,37.712 67.462,37.712 C67.666,37.712 67.831,37.878 67.831,38.082 L67.831,45.456 C67.831,45.66 67.666,45.826 67.462,45.826" id="Fill-228"></path>
                        <path d="M70.881,45.826 C70.677,45.826 70.512,45.66 70.512,45.456 L70.512,38.082 C70.512,37.878 70.677,37.712 70.881,37.712 C71.086,37.712 71.251,37.878 71.251,38.082 L71.251,45.456 C71.251,45.66 71.086,45.826 70.881,45.826" id="Fill-229"></path>
                        <path d="M74.301,45.826 C74.097,45.826 73.932,45.66 73.932,45.456 L73.932,38.082 C73.932,37.878 74.097,37.712 74.301,37.712 C74.505,37.712 74.671,37.878 74.671,38.082 L74.671,45.456 C74.671,45.66 74.505,45.826 74.301,45.826" id="Fill-230"></path>
                        <path d="M77.721,45.826 C77.517,45.826 77.352,45.66 77.352,45.456 L77.352,38.082 C77.352,37.878 77.517,37.712 77.721,37.712 C77.925,37.712 78.09,37.878 78.09,38.082 L78.09,45.456 C78.09,45.66 77.925,45.826 77.721,45.826" id="Fill-231"></path>
                        <path d="M31.44,38.451 L5.3,38.451 C5.096,38.451 4.931,38.286 4.931,38.082 C4.931,37.878 5.096,37.712 5.3,37.712 L31.44,37.712 C31.644,37.712 31.809,37.878 31.809,38.082 C31.809,38.286 31.644,38.451 31.44,38.451" id="Fill-232"></path>
                        <path d="M8.052,45.826 C7.848,45.826 7.683,45.66 7.683,45.456 L7.683,38.082 C7.683,37.878 7.848,37.712 8.052,37.712 C8.256,37.712 8.422,37.878 8.422,38.082 L8.422,45.456 C8.422,45.66 8.256,45.826 8.052,45.826" id="Fill-233"></path>
                        <path d="M11.472,45.826 C11.268,45.826 11.103,45.66 11.103,45.456 L11.103,38.082 C11.103,37.878 11.268,37.712 11.472,37.712 C11.676,37.712 11.842,37.878 11.842,38.082 L11.842,45.456 C11.842,45.66 11.676,45.826 11.472,45.826" id="Fill-234"></path>
                        <path d="M14.892,45.826 C14.688,45.826 14.523,45.66 14.523,45.456 L14.523,38.082 C14.523,37.878 14.688,37.712 14.892,37.712 C15.096,37.712 15.261,37.878 15.261,38.082 L15.261,45.456 C15.261,45.66 15.096,45.826 14.892,45.826" id="Fill-235"></path>
                        <path d="M18.312,45.826 C18.108,45.826 17.942,45.66 17.942,45.456 L17.942,38.082 C17.942,37.878 18.108,37.712 18.312,37.712 C18.516,37.712 18.681,37.878 18.681,38.082 L18.681,45.456 C18.681,45.66 18.516,45.826 18.312,45.826" id="Fill-236"></path>
                        <path d="M21.732,45.826 C21.528,45.826 21.362,45.66 21.362,45.456 L21.362,38.082 C21.362,37.878 21.528,37.712 21.732,37.712 C21.936,37.712 22.101,37.878 22.101,38.082 L22.101,45.456 C22.101,45.66 21.936,45.826 21.732,45.826" id="Fill-237"></path>
                        <path d="M25.151,45.826 C24.947,45.826 24.782,45.66 24.782,45.456 L24.782,38.082 C24.782,37.878 24.947,37.712 25.151,37.712 C25.355,37.712 25.521,37.878 25.521,38.082 L25.521,45.456 C25.521,45.66 25.355,45.826 25.151,45.826" id="Fill-238"></path>
                        <path d="M28.571,45.826 C28.367,45.826 28.202,45.66 28.202,45.456 L28.202,38.082 C28.202,37.878 28.367,37.712 28.571,37.712 C28.775,37.712 28.941,37.878 28.941,38.082 L28.941,45.456 C28.941,45.66 28.775,45.826 28.571,45.826" id="Fill-239"></path>
                        <path d="M3.5,21.833 L82.391,21.833 L82.391,20.728 L3.5,20.728 L3.5,21.833 Z M82.76,22.572 L3.13,22.572 C2.926,22.572 2.761,22.406 2.761,22.202 L2.761,20.358 C2.761,20.154 2.926,19.989 3.13,19.989 L82.76,19.989 C82.964,19.989 83.129,20.154 83.129,20.358 L83.129,22.202 C83.129,22.406 82.964,22.572 82.76,22.572 L82.76,22.572 Z" id="Fill-240"></path>
                        <path d="M3.832,19.745 L82.058,19.745 L73.462,7.233 L12.428,7.233 L3.832,19.745 Z M82.76,20.484 L3.13,20.484 C2.993,20.484 2.867,20.408 2.803,20.287 C2.739,20.165 2.748,20.019 2.826,19.906 L11.93,6.654 C11.998,6.554 12.112,6.494 12.234,6.494 L73.656,6.494 C73.778,6.494 73.892,6.554 73.961,6.654 L83.064,19.906 C83.142,20.019 83.151,20.165 83.087,20.287 C83.023,20.408 82.897,20.484 82.76,20.484 L82.76,20.484 Z" id="Fill-241"></path>
                        <path d="M70.631,7.006 L69.892,7.006 L69.892,4.699 L64.248,4.699 L64.248,7.006 L63.509,7.006 L63.509,4.33 C63.509,4.126 63.674,3.96 63.878,3.96 L70.262,3.96 C70.466,3.96 70.631,4.126 70.631,4.33 L70.631,7.006" id="Fill-242"></path>
                        <path d="M62.463,3.96 L71.677,3.96 L71.677,1.369 L62.463,1.369 L62.463,3.96 Z M72.046,4.699 L62.094,4.699 C61.89,4.699 61.724,4.534 61.724,4.33 L61.724,0.999 C61.724,0.795 61.89,0.63 62.094,0.63 L72.046,0.63 C72.25,0.63 72.415,0.795 72.415,0.999 L72.415,4.33 C72.415,4.534 72.25,4.699 72.046,4.699 L72.046,4.699 Z" id="Fill-243"></path>
                    </g>
                    <g id="Group-4" transform="translate(199.000000, 0.000000)">
                        <path d="M97.6221529,54.51188 L0.894494118,54.51188 C0.597494118,54.51188 0.3564,54.27176 0.3564,53.97596 C0.3564,53.68016 0.597494118,53.44004 0.894494118,53.44004 L97.6221529,53.44004 C97.9191529,53.44004 98.1602471,53.68016 98.1602471,53.97596 C98.1602471,54.27176 97.9191529,54.51188 97.6221529,54.51188" id="Fill-449"></path>
                        <path d="M89.1594,57.29704 L9.35724706,57.29704 C9.06024706,57.29704 8.81915294,57.05808 8.81915294,56.76228 C8.81915294,56.46532 9.06024706,56.22636 9.35724706,56.22636 L89.1594,56.22636 C89.4564,56.22636 89.6974941,56.46532 89.6974941,56.76228 C89.6974941,57.05808 89.4564,57.29704 89.1594,57.29704" id="Fill-450"></path>
                        <path d="M61.4673529,53.43192 L91.4154353,53.43192 L91.4154353,37.32184 L61.4673529,37.32184 L61.4673529,53.43192 Z M91.8463765,54.28916 L61.0375765,54.28916 C60.7999765,54.28916 60.6078,54.0966 60.6078,53.85996 L60.6078,36.89264 C60.6078,36.656 60.7999765,36.4646 61.0375765,36.4646 L91.8463765,36.4646 C92.0839765,36.4646 92.2761529,36.656 92.2761529,36.89264 L92.2761529,53.85996 C92.2761529,54.0966 92.0839765,54.28916 91.8463765,54.28916 L91.8463765,54.28916 Z" id="Fill-451"></path>
                        <path d="M58.4065059,53.43192 L94.4774471,53.43192 L94.4774471,30.29804 L58.4065059,30.29804 L58.4065059,53.43192 Z M94.9072235,54.28916 L57.9755647,54.28916 C57.7379647,54.28916 57.5457882,54.0966 57.5457882,53.85996 L57.5457882,29.87 C57.5457882,29.63336 57.7379647,29.4408 57.9755647,29.4408 L94.9072235,29.4408 C95.1448235,29.4408 95.3381647,29.63336 95.3381647,29.87 L95.3381647,53.85996 C95.3381647,54.0966 95.1448235,54.28916 94.9072235,54.28916 L94.9072235,54.28916 Z" id="Fill-452"></path>
                        <path d="M91.8463765,38.93424 L61.0375765,38.93424 C60.7999765,38.93424 60.6078,38.74284 60.6078,38.5062 C60.6078,38.26956 60.7999765,38.07816 61.0375765,38.07816 L91.8463765,38.07816 C92.0839765,38.07816 92.2761529,38.26956 92.2761529,38.5062 C92.2761529,38.74284 92.0839765,38.93424 91.8463765,38.93424" id="Fill-453"></path>
                        <path d="M91.8463765,41.14288 L61.0375765,41.14288 C60.7999765,41.14288 60.6078,40.95148 60.6078,40.71484 C60.6078,40.4782 60.7999765,40.2868 61.0375765,40.2868 L91.8463765,40.2868 C92.0839765,40.2868 92.2761529,40.4782 92.2761529,40.71484 C92.2761529,40.95148 92.0839765,41.14288 91.8463765,41.14288" id="Fill-454"></path>
                        <path d="M91.8463765,43.35152 L61.0375765,43.35152 C60.7999765,43.35152 60.6078,43.16012 60.6078,42.92348 C60.6078,42.68684 60.7999765,42.49544 61.0375765,42.49544 L91.8463765,42.49544 C92.0839765,42.49544 92.2761529,42.68684 92.2761529,42.92348 C92.2761529,43.16012 92.0839765,43.35152 91.8463765,43.35152" id="Fill-455"></path>
                        <path d="M91.8463765,45.56132 L61.0375765,45.56132 C60.7999765,45.56132 60.6078,45.36876 60.6078,45.13212 C60.6078,44.89548 60.7999765,44.70408 61.0375765,44.70408 L91.8463765,44.70408 C92.0839765,44.70408 92.2761529,44.89548 92.2761529,45.13212 C92.2761529,45.36876 92.0839765,45.56132 91.8463765,45.56132" id="Fill-456"></path>
                        <path d="M91.8463765,47.76996 L61.0375765,47.76996 C60.7999765,47.76996 60.6078,47.5774 60.6078,47.34076 C60.6078,47.10412 60.7999765,46.91272 61.0375765,46.91272 L91.8463765,46.91272 C92.0839765,46.91272 92.2761529,47.10412 92.2761529,47.34076 C92.2761529,47.5774 92.0839765,47.76996 91.8463765,47.76996" id="Fill-457"></path>
                        <path d="M91.8463765,49.9786 L61.0375765,49.9786 C60.7999765,49.9786 60.6078,49.78604 60.6078,49.5494 C60.6078,49.31276 60.7999765,49.12136 61.0375765,49.12136 L91.8463765,49.12136 C92.0839765,49.12136 92.2761529,49.31276 92.2761529,49.5494 C92.2761529,49.78604 92.0839765,49.9786 91.8463765,49.9786" id="Fill-458"></path>
                        <path d="M91.8463765,52.18724 L61.0375765,52.18724 C60.7999765,52.18724 60.6078,51.99468 60.6078,51.75804 C60.6078,51.5214 60.7999765,51.33 61.0375765,51.33 L91.8463765,51.33 C92.0839765,51.33 92.2761529,51.5214 92.2761529,51.75804 C92.2761529,51.99468 92.0839765,52.18724 91.8463765,52.18724" id="Fill-459"></path>
                        <path d="M8.27872941,53.43192 L57.5457882,53.43192 L57.5457882,29.53592 L8.27872941,29.53592 L8.27872941,53.43192 Z M57.9755647,54.28916 L7.84778824,54.28916 C7.61018824,54.28916 7.41801176,54.0966 7.41801176,53.85996 L7.41801176,29.10788 C7.41801176,28.87124 7.61018824,28.67984 7.84778824,28.67984 L57.9755647,28.67984 C58.2131647,28.67984 58.4065059,28.87124 58.4065059,29.10788 L58.4065059,53.85996 C58.4065059,54.0966 58.2131647,54.28916 57.9755647,54.28916 L57.9755647,54.28916 Z" id="Fill-460"></path>
                        <path d="M8.27872941,22.57592 L57.5457882,22.57592 L57.5457882,16.501 L8.27872941,16.501 L8.27872941,22.57592 Z M57.9755647,23.43316 L7.84778824,23.43316 C7.61018824,23.43316 7.41801176,23.24176 7.41801176,23.00512 L7.41801176,16.07296 C7.41801176,15.83632 7.61018824,15.64492 7.84778824,15.64492 L57.9755647,15.64492 C58.2131647,15.64492 58.4065059,15.83632 58.4065059,16.07296 L58.4065059,23.00512 C58.4065059,23.24176 58.2131647,23.43316 57.9755647,23.43316 L57.9755647,23.43316 Z" id="Fill-461"></path>
                        <path d="M57.9755647,29.7192 C57.7379647,29.7192 57.5457882,29.52664 57.5457882,29.29 L57.5457882,2.68076 C57.5457882,2.44528 57.7379647,2.25272 57.9755647,2.25272 C58.2131647,2.25272 58.4065059,2.44528 58.4065059,2.68076 L58.4065059,29.29 C58.4065059,29.52664 58.2131647,29.7192 57.9755647,29.7192" id="Fill-462"></path>
                        <path d="M7.84778824,29.7192 C7.61018824,29.7192 7.41801176,29.52664 7.41801176,29.29 L7.41801176,2.68076 C7.41801176,2.44528 7.61018824,2.25272 7.84778824,2.25272 C8.08538824,2.25272 8.27872941,2.44528 8.27872941,2.68076 L8.27872941,29.29 C8.27872941,29.52664 8.08538824,29.7192 7.84778824,29.7192" id="Fill-463"></path>
                        <path d="M5.98309412,2.25272 L59.8402588,2.25272 L59.8402588,1.00688 L5.98309412,1.00688 L5.98309412,2.25272 Z M60.2712,3.10996 L5.55331765,3.10996 C5.31571765,3.10996 5.12237647,2.9174 5.12237647,2.68076 L5.12237647,0.57768 C5.12237647,0.34104 5.31571765,0.14964 5.55331765,0.14964 L60.2712,0.14964 C60.5088,0.14964 60.7009765,0.34104 60.7009765,0.57768 L60.7009765,2.68076 C60.7009765,2.9174 60.5088,3.10996 60.2712,3.10996 L60.2712,3.10996 Z" id="Fill-464"></path>
                        <path d="M39.4334471,53.5166 L46.4612824,53.5166 L46.4612824,39.1094 L39.4334471,39.1094 L39.4334471,53.5166 Z M46.8922235,54.37384 L39.0036706,54.37384 C38.7660706,54.37384 38.5727294,54.18128 38.5727294,53.94464 L38.5727294,38.6802 C38.5727294,38.44356 38.7660706,38.25216 39.0036706,38.25216 L46.8922235,38.25216 C47.1298235,38.25216 47.322,38.44356 47.322,38.6802 L47.322,53.94464 C47.322,54.18128 47.1298235,54.37384 46.8922235,54.37384 L46.8922235,54.37384 Z" id="Fill-465"></path>
                        <path d="M20.4336,16.1124 L19.5728824,16.1124 L19.5728824,8.22556 L12.5450471,8.22556 L12.5450471,16.1124 L11.6843294,16.1124 L11.6843294,7.79636 C11.6843294,7.55972 11.8776706,7.36832 12.1152706,7.36832 L20.0038235,7.36832 C20.2414235,7.36832 20.4336,7.55972 20.4336,7.79636 L20.4336,16.1124" id="Fill-466"></path>
                        <path d="M27.7479529,30.53584 L32.8039412,30.53584 L32.8039412,29.46516 L27.7479529,29.46516 L27.7479529,30.53584 Z M33.2348824,31.39308 L27.3181765,31.39308 C27.0805765,31.39308 26.8884,31.20168 26.8884,30.96504 L26.8884,29.03596 C26.8884,28.79932 27.0805765,28.60792 27.3181765,28.60792 L33.2348824,28.60792 C33.4724824,28.60792 33.6646588,28.79932 33.6646588,29.03596 L33.6646588,30.96504 C33.6646588,31.20168 33.4724824,31.39308 33.2348824,31.39308 L33.2348824,31.39308 Z" id="Fill-467"></path>
                        <path d="M29.0396118,51.2314 L31.5134471,51.2314 L31.5134471,31.42904 L29.0396118,31.42904 L29.0396118,51.2314 Z M31.9432235,52.08864 L28.6086706,52.08864 C28.3710706,52.08864 28.1788941,51.89724 28.1788941,51.6606 L28.1788941,31.001 C28.1788941,30.76436 28.3710706,30.5718 28.6086706,30.5718 L31.9432235,30.5718 C32.1808235,30.5718 32.3741647,30.76436 32.3741647,31.001 L32.3741647,51.6606 C32.3741647,51.89724 32.1808235,52.08864 31.9432235,52.08864 L31.9432235,52.08864 Z" id="Fill-468"></path>
                        <path d="M27.7479529,53.25792 L32.8039412,53.25792 L32.8039412,52.18724 L27.7479529,52.18724 L27.7479529,53.25792 Z M33.2348824,54.11516 L27.3181765,54.11516 C27.0805765,54.11516 26.8884,53.92376 26.8884,53.68712 L26.8884,51.75804 C26.8884,51.5214 27.0805765,51.33 27.3181765,51.33 L33.2348824,51.33 C33.4724824,51.33 33.6646588,51.5214 33.6646588,51.75804 L33.6646588,53.68712 C33.6646588,53.92376 33.4724824,54.11516 33.2348824,54.11516 L33.2348824,54.11516 Z" id="Fill-469"></path>
                        <path d="M51.5219294,30.53584 L56.5779176,30.53584 L56.5779176,29.46516 L51.5219294,29.46516 L51.5219294,30.53584 Z M57.0076941,31.39308 L51.0909882,31.39308 C50.8533882,31.39308 50.6612118,31.20168 50.6612118,30.96504 L50.6612118,29.03596 C50.6612118,28.79932 50.8533882,28.60792 51.0909882,28.60792 L57.0076941,28.60792 C57.2452941,28.60792 57.4374706,28.79932 57.4374706,29.03596 L57.4374706,30.96504 C57.4374706,31.20168 57.2452941,31.39308 57.0076941,31.39308 L57.0076941,31.39308 Z" id="Fill-470"></path>
                        <path d="M52.8124235,51.2314 L55.2862588,51.2314 L55.2862588,31.42904 L52.8124235,31.42904 L52.8124235,51.2314 Z M55.7172,52.08864 L52.3826471,52.08864 C52.1450471,52.08864 51.9517059,51.89724 51.9517059,51.6606 L51.9517059,31.001 C51.9517059,30.76436 52.1450471,30.5718 52.3826471,30.5718 L55.7172,30.5718 C55.9548,30.5718 56.1469765,30.76436 56.1469765,31.001 L56.1469765,51.6606 C56.1469765,51.89724 55.9548,52.08864 55.7172,52.08864 L55.7172,52.08864 Z" id="Fill-471"></path>
                        <path d="M51.5219294,53.25792 L56.5779176,53.25792 L56.5779176,52.18724 L51.5219294,52.18724 L51.5219294,53.25792 Z M57.0076941,54.11516 L51.0909882,54.11516 C50.8533882,54.11516 50.6612118,53.92376 50.6612118,53.68712 L50.6612118,51.75804 C50.6612118,51.5214 50.8533882,51.33 51.0909882,51.33 L57.0076941,51.33 C57.2452941,51.33 57.4374706,51.5214 57.4374706,51.75804 L57.4374706,53.68712 C57.4374706,53.92376 57.2452941,54.11516 57.0076941,54.11516 L57.0076941,54.11516 Z" id="Fill-472"></path>
                        <path d="M26.6729294,28.60792 L57.6529412,28.60792 L57.6529412,26.78672 L26.6729294,26.78672 L26.6729294,28.60792 Z M58.0838824,29.46516 L26.2419882,29.46516 C26.0043882,29.46516 25.8122118,29.2726 25.8122118,29.03596 L25.8122118,26.35752 C25.8122118,26.12088 26.0043882,25.92948 26.2419882,25.92948 L58.0838824,25.92948 C58.3214824,25.92948 58.5136588,26.12088 58.5136588,26.35752 L58.5136588,29.03596 C58.5136588,29.2726 58.3214824,29.46516 58.0838824,29.46516 L58.0838824,29.46516 Z" id="Fill-473"></path>
                        <path d="M10.8597176,49.60624 L26.0276824,49.60624 L26.0276824,38.93424 L10.8597176,38.93424 L10.8597176,49.60624 Z M26.4574588,50.46348 L10.4299412,50.46348 C10.1923412,50.46348 9.999,50.27208 9.999,50.03544 L9.999,38.5062 C9.999,38.26956 10.1923412,38.07816 10.4299412,38.07816 L26.4574588,38.07816 C26.6950588,38.07816 26.8884,38.26956 26.8884,38.5062 L26.8884,50.03544 C26.8884,50.27208 26.6950588,50.46348 26.4574588,50.46348 L26.4574588,50.46348 Z" id="Fill-474"></path>
                        <path d="M15.9518118,49.60624 L20.9355882,49.60624 L20.9355882,38.93424 L15.9518118,38.93424 L15.9518118,49.60624 Z M21.3653647,50.46348 L15.5208706,50.46348 C15.2832706,50.46348 15.0910941,50.27208 15.0910941,50.03544 L15.0910941,38.5062 C15.0910941,38.26956 15.2832706,38.07816 15.5208706,38.07816 L21.3653647,38.07816 C21.6029647,38.07816 21.7963059,38.26956 21.7963059,38.5062 L21.7963059,50.03544 C21.7963059,50.27208 21.6029647,50.46348 21.3653647,50.46348 L21.3653647,50.46348 Z" id="Fill-475"></path>
                        <path d="M14.2478471,13.59288 C14.2478471,13.91884 13.9834588,14.18216 13.6573412,14.18216 C13.3300588,14.18216 13.0656706,13.91884 13.0656706,13.59288 C13.0656706,13.26692 13.3300588,13.0036 13.6573412,13.0036 C13.9834588,13.0036 14.2478471,13.26692 14.2478471,13.59288" id="Fill-476"></path>
                        <path d="M40.8182824,46.2318 C40.8182824,46.5566 40.5538941,46.82108 40.2266118,46.82108 C39.8993294,46.82108 39.6349412,46.5566 39.6349412,46.2318 C39.6349412,45.90584 39.8993294,45.64252 40.2266118,45.64252 C40.5538941,45.64252 40.8182824,45.90584 40.8182824,46.2318" id="Fill-477"></path>
                        <path d="M26.0276824,13.43164 L49.4778706,13.43164 L49.4778706,8.35896 L26.0276824,8.35896 L26.0276824,13.43164 Z M49.9076471,14.28888 L25.5967412,14.28888 C25.3591412,14.28888 25.1669647,14.09748 25.1669647,13.86084 L25.1669647,7.93092 C25.1669647,7.69428 25.3591412,7.50172 25.5967412,7.50172 L49.9076471,7.50172 C50.1452471,7.50172 50.3385882,7.69428 50.3385882,7.93092 L50.3385882,13.86084 C50.3385882,14.09748 50.1452471,14.28888 49.9076471,14.28888 L49.9076471,14.28888 Z" id="Fill-478"></path>
                        <path d="M32.5896353,13.43164 L42.9159176,13.43164 L42.9159176,8.35896 L32.5896353,8.35896 L32.5896353,13.43164 Z M43.3456941,14.28888 L32.1586941,14.28888 C31.9210941,14.28888 31.7289176,14.09748 31.7289176,13.86084 L31.7289176,7.93092 C31.7289176,7.69428 31.9210941,7.50172 32.1586941,7.50172 L43.3456941,7.50172 C43.5832941,7.50172 43.7766353,7.69428 43.7766353,7.93092 L43.7766353,13.86084 C43.7766353,14.09748 43.5832941,14.28888 43.3456941,14.28888 L43.3456941,14.28888 Z" id="Fill-479"></path>
                    </g>
                </g>
                <g id="Group-4" transform="translate(49.000000, 62.000000)">
                    <rect id="Rectangle-41" fill="#F7F7F7" x="12" y="49" width="146" height="64"></rect>
                    <g id="Group-3" fill="#358FCA">
                        <path d="M126.721875,98.2527486 L142.145625,98.2527486 L142.145625,65.9902341 L126.721875,65.9902341 L126.721875,98.2527486 Z M142.8375,99.6320947 L126.03,99.6320947 C125.6475,99.6320947 125.33625,99.3222551 125.33625,98.9414884 L125.33625,65.3014943 C125.33625,64.9207276 125.6475,64.610888 126.03,64.610888 L142.8375,64.610888 C143.22,64.610888 143.53125,64.9207276 143.53125,65.3014943 L143.53125,98.9414884 C143.53125,99.3222551 143.22,99.6320947 142.8375,99.6320947 L142.8375,99.6320947 Z" id="Fill-371"></path>
                        <path d="M130.595625,84.914714 C130.595625,85.5399927 130.0875,86.0458151 129.459375,86.0458151 C128.83125,86.0458151 128.323125,85.5399927 128.323125,84.914714 C128.323125,84.2894353 128.83125,83.7836128 129.459375,83.7836128 C130.0875,83.7836128 130.595625,84.2894353 130.595625,84.914714" id="Fill-372"></path>
                        <path d="M149.274375,99.6320947 L60.916875,99.6320947 C60.534375,99.6320947 60.223125,99.3222551 60.223125,98.9414884 L60.223125,57.4883103 L61.60875,57.4883103 L61.60875,98.2527486 L148.580625,98.2527486 L148.580625,57.4883103 L149.96625,57.4883103 L149.96625,98.9414884 C149.96625,99.3222551 149.656875,99.6320947 149.274375,99.6320947" id="Fill-373"></path>
                        <path d="M86.998125,41.190001 L95.409375,41.190001 L95.409375,32.9325892 C95.409375,30.0563072 93.22875,28.7460217 91.20375,28.7460217 C89.176875,28.7460217 86.998125,30.0563072 86.998125,32.9325892 L86.998125,41.190001 Z M96.10125,42.5693472 L86.304375,42.5693472 C85.921875,42.5693472 85.6125,42.2595076 85.6125,41.8787409 L85.6125,32.9325892 C85.6125,29.2779752 88.425,27.3666755 91.20375,27.3666755 C93.980625,27.3666755 96.795,29.2779752 96.795,32.9325892 L96.795,41.8787409 C96.795,42.2595076 96.48375,42.5693472 96.10125,42.5693472 L96.10125,42.5693472 Z" id="Fill-374"></path>
                        <path d="M91.20375,42.3136362 C90.82125,42.3136362 90.51,42.0037966 90.51,41.6230299 L90.51,28.3671214 C90.51,27.9863547 90.82125,27.6783816 91.20375,27.6783816 C91.58625,27.6783816 91.895625,27.9863547 91.895625,28.3671214 L91.895625,41.6230299 C91.895625,42.0037966 91.58625,42.3136362 91.20375,42.3136362" id="Fill-375"></path>
                        <polygon id="Fill-376" points="86.443125 35.956325 95.9625 35.956325 95.9625 34.5769789 86.443125 34.5769789"></polygon>
                        <path d="M86.055,43.6892493 L96.350625,43.6892493 L96.350625,42.5693472 L86.055,42.5693472 L86.055,43.6892493 Z M97.044375,45.0685955 L85.363125,45.0685955 C84.980625,45.0685955 84.669375,44.7587559 84.669375,44.3779892 L84.669375,41.8787409 C84.669375,41.4979741 84.980625,41.190001 85.363125,41.190001 L97.044375,41.190001 C97.426875,41.190001 97.73625,41.4979741 97.73625,41.8787409 L97.73625,44.3779892 C97.73625,44.7587559 97.426875,45.0685955 97.044375,45.0685955 L97.044375,45.0685955 Z" id="Fill-377"></path>
                        <path d="M97.66875,43.8180381 C97.28625,43.8180381 96.976875,43.510065 96.976875,43.1292983 L96.976875,25.6177617 C96.976875,25.2369949 97.28625,24.9271553 97.66875,24.9271553 C98.05125,24.9271553 98.3625,25.2369949 98.3625,25.6177617 L98.3625,43.1292983 C98.3625,43.510065 98.05125,43.8180381 97.66875,43.8180381" id="Fill-378"></path>
                        <path d="M84.736875,43.8180381 C84.354375,43.8180381 84.045,43.510065 84.045,43.1292983 L84.045,25.6177617 C84.045,25.2369949 84.354375,24.9271553 84.736875,24.9271553 C85.119375,24.9271553 85.430625,25.2369949 85.430625,25.6177617 L85.430625,43.1292983 C85.430625,43.510065 85.119375,43.8180381 84.736875,43.8180381" id="Fill-379"></path>
                        <path d="M91.20375,19.7980035 C91.355625,19.7980035 91.505625,19.8483991 91.63125,19.9454573 L99.680625,26.2523729 C99.78375,26.3326325 99.890625,26.3494311 99.961875,26.3494311 C100.1025,26.3494311 100.231875,26.2859699 100.32,26.1758462 C100.393125,26.0806546 100.426875,25.9630648 100.41375,25.8436086 C100.39875,25.7241524 100.33875,25.6158952 100.243125,25.541235 L91.483125,18.6799678 C91.381875,18.6015747 91.275,18.5847762 91.20375,18.5847762 C91.130625,18.5847762 91.02375,18.6015747 90.9225,18.6799678 L82.164375,25.541235 C81.9675,25.6961548 81.931875,25.9798634 82.0875,26.1758462 C82.17375,26.2859699 82.305,26.3494311 82.445625,26.3494311 C82.516875,26.3494311 82.621875,26.3326325 82.725,26.2523729 L90.774375,19.9454573 C90.9,19.8483991 91.051875,19.7980035 91.20375,19.7980035 Z M99.961875,27.7269107 C99.55125,27.7269107 99.148125,27.5887894 98.825625,27.3368115 L91.20375,21.3658665 L83.581875,27.334945 C83.259375,27.5887894 82.854375,27.7269107 82.445625,27.7269107 C81.8775,27.7269107 81.34875,27.4730662 80.998125,27.0288384 C80.371875,26.2355743 80.510625,25.0820751 81.3075,24.4586629 L90.065625,17.5973958 C90.710625,17.0915733 91.695,17.0915733 92.34,17.5973958 L101.1,24.4586629 C101.48625,24.7610365 101.73,25.1940654 101.788125,25.6793563 C101.84625,26.1646472 101.71125,26.6443386 101.4075,27.0288384 C101.056875,27.4730662 100.53,27.7269107 99.961875,27.7269107 L99.961875,27.7269107 Z" id="Fill-380"></path>
                        <path d="M114.515625,41.190001 L122.926875,41.190001 L122.926875,32.9325892 C122.926875,30.0563072 120.74625,28.7460217 118.72125,28.7460217 C116.694375,28.7460217 114.515625,30.0563072 114.515625,32.9325892 L114.515625,41.190001 Z M123.61875,42.5693472 L113.821875,42.5693472 C113.439375,42.5693472 113.13,42.2595076 113.13,41.8787409 L113.13,32.9325892 C113.13,29.2779752 115.9425,27.3666755 118.72125,27.3666755 C121.498125,27.3666755 124.3125,29.2779752 124.3125,32.9325892 L124.3125,41.8787409 C124.3125,42.2595076 124.00125,42.5693472 123.61875,42.5693472 L123.61875,42.5693472 Z" id="Fill-381"></path>
                        <path d="M118.72125,42.3136362 C118.33875,42.3136362 118.0275,42.0037966 118.0275,41.6230299 L118.0275,28.3671214 C118.0275,27.9863547 118.33875,27.6783816 118.72125,27.6783816 C119.10375,27.6783816 119.413125,27.9863547 119.413125,28.3671214 L119.413125,41.6230299 C119.413125,42.0037966 119.10375,42.3136362 118.72125,42.3136362" id="Fill-382"></path>
                        <polygon id="Fill-383" points="113.960625 35.956325 123.48 35.956325 123.48 34.5769789 113.960625 34.5769789"></polygon>
                        <path d="M113.5725,43.6892493 L123.868125,43.6892493 L123.868125,42.5693472 L113.5725,42.5693472 L113.5725,43.6892493 Z M124.56,45.0685955 L112.880625,45.0685955 C112.498125,45.0685955 112.186875,44.7587559 112.186875,44.3779892 L112.186875,41.8787409 C112.186875,41.4979741 112.498125,41.190001 112.880625,41.190001 L124.56,41.190001 C124.944375,41.190001 125.25375,41.4979741 125.25375,41.8787409 L125.25375,44.3779892 C125.25375,44.7587559 124.944375,45.0685955 124.56,45.0685955 L124.56,45.0685955 Z" id="Fill-384"></path>
                        <path d="M125.18625,43.8180381 C124.80375,43.8180381 124.494375,43.510065 124.494375,43.1292983 L124.494375,25.6177617 C124.494375,25.2369949 124.80375,24.9271553 125.18625,24.9271553 C125.56875,24.9271553 125.88,25.2369949 125.88,25.6177617 L125.88,43.1292983 C125.88,43.510065 125.56875,43.8180381 125.18625,43.8180381" id="Fill-385"></path>
                        <path d="M112.254375,43.8180381 C111.871875,43.8180381 111.5625,43.510065 111.5625,43.1292983 L111.5625,25.6177617 C111.5625,25.2369949 111.871875,24.9271553 112.254375,24.9271553 C112.636875,24.9271553 112.948125,25.2369949 112.948125,25.6177617 L112.948125,43.1292983 C112.948125,43.510065 112.636875,43.8180381 112.254375,43.8180381" id="Fill-386"></path>
                        <path d="M118.72125,19.7980035 C118.873125,19.7980035 119.023125,19.8483991 119.14875,19.9454573 L127.198125,26.2523729 C127.30125,26.3326325 127.408125,26.3494311 127.479375,26.3494311 C127.62,26.3494311 127.749375,26.2859699 127.8375,26.1758462 C127.910625,26.0806546 127.944375,25.9630648 127.93125,25.8436086 C127.91625,25.7241524 127.85625,25.6158952 127.760625,25.541235 L119.000625,18.6799678 C118.899375,18.6015747 118.7925,18.5847762 118.72125,18.5847762 C118.648125,18.5847762 118.54125,18.6015747 118.44,18.6799678 L109.68,25.541235 C109.58625,25.6158952 109.52625,25.7241524 109.51125,25.8436086 C109.49625,25.9630648 109.53,26.0806546 109.605,26.1758462 C109.69125,26.2859699 109.8225,26.3494311 109.963125,26.3494311 C110.034375,26.3494311 110.139375,26.3326325 110.2425,26.2523729 L118.291875,19.9454573 C118.4175,19.8483991 118.569375,19.7980035 118.72125,19.7980035 Z M127.479375,27.7269107 C127.06875,27.7269107 126.665625,27.5887894 126.343125,27.3368115 L118.72125,21.3658665 L111.099375,27.334945 C110.776875,27.5887894 110.371875,27.7269107 109.963125,27.7269107 C109.395,27.7269107 108.868125,27.4730662 108.515625,27.0288384 C108.211875,26.6443386 108.076875,26.1665137 108.135,25.6793563 C108.193125,25.1940654 108.43875,24.7610365 108.823125,24.4586629 L117.583125,17.5973958 C118.228125,17.0915733 119.2125,17.0915733 119.8575,17.5973958 L128.6175,24.4586629 C129.00375,24.7610365 129.2475,25.1940654 129.305625,25.6793563 C129.36375,26.1646472 129.22875,26.6443386 128.925,27.0288384 C128.574375,27.4730662 128.0475,27.7269107 127.479375,27.7269107 L127.479375,27.7269107 Z" id="Fill-387"></path>
                        <path d="M85.621875,87.1041227 L99.4725,87.1041227 L99.4725,70.9495342 L85.621875,70.9495342 L85.621875,87.1041227 Z M100.16625,88.4834688 L84.93,88.4834688 C84.5475,88.4834688 84.238125,88.1736292 84.238125,87.7928625 L84.238125,70.2607943 C84.238125,69.8800276 84.5475,69.570188 84.93,69.570188 L100.16625,69.570188 C100.54875,69.570188 100.858125,69.8800276 100.858125,70.2607943 L100.858125,87.7928625 C100.858125,88.1736292 100.54875,88.4834688 100.16625,88.4834688 L100.16625,88.4834688 Z" id="Fill-388"></path>
                        <path d="M100.16625,79.7165015 L84.93,79.7165015 C84.5475,79.7165015 84.238125,79.4085284 84.238125,79.0277617 C84.238125,78.6451284 84.5475,78.3371553 84.93,78.3371553 L100.16625,78.3371553 C100.54875,78.3371553 100.858125,78.6451284 100.858125,79.0277617 C100.858125,79.4085284 100.54875,79.7165015 100.16625,79.7165015" id="Fill-389"></path>
                        <path d="M92.548125,88.2501559 C92.165625,88.2501559 91.854375,87.9403163 91.854375,87.5595495 L91.854375,70.4941073 C91.854375,70.1133406 92.165625,69.803501 92.548125,69.803501 C92.930625,69.803501 93.24,70.1133406 93.24,70.4941073 L93.24,87.5595495 C93.24,87.9403163 92.930625,88.2501559 92.548125,88.2501559" id="Fill-390"></path>
                        <path d="M64.84125,87.1041227 L78.691875,87.1041227 L78.691875,70.9495342 L64.84125,70.9495342 L64.84125,87.1041227 Z M79.385625,88.4834688 L64.149375,88.4834688 C63.766875,88.4834688 63.455625,88.1736292 63.455625,87.7928625 L63.455625,70.2607943 C63.455625,69.8800276 63.766875,69.570188 64.149375,69.570188 L79.385625,69.570188 C79.768125,69.570188 80.0775,69.8800276 80.0775,70.2607943 L80.0775,87.7928625 C80.0775,88.1736292 79.768125,88.4834688 79.385625,88.4834688 L79.385625,88.4834688 Z" id="Fill-391"></path>
                        <path d="M79.385625,79.7165015 L64.149375,79.7165015 C63.766875,79.7165015 63.455625,79.4085284 63.455625,79.0277617 C63.455625,78.6451284 63.766875,78.3371553 64.149375,78.3371553 L79.385625,78.3371553 C79.768125,78.3371553 80.0775,78.6451284 80.0775,79.0277617 C80.0775,79.4085284 79.768125,79.7165015 79.385625,79.7165015" id="Fill-392"></path>
                        <path d="M71.7675,88.2501559 C71.385,88.2501559 71.075625,87.9403163 71.075625,87.5595495 L71.075625,70.4941073 C71.075625,70.1133406 71.385,69.803501 71.7675,69.803501 C72.15,69.803501 72.459375,70.1133406 72.459375,70.4941073 L72.459375,87.5595495 C72.459375,87.9403163 72.15,88.2501559 71.7675,88.2501559" id="Fill-393"></path>
                        <path d="M51.94875,57.0291504 L158.278125,57.0291504 L151.580625,49.0386486 L58.64625,49.0386486 L51.94875,57.0291504 Z M159.759375,58.4084966 L50.469375,58.4084966 C50.199375,58.4084966 49.955625,58.2535768 49.84125,58.0109313 C49.726875,57.7682859 49.764375,57.4827108 49.936875,57.2773954 L57.79125,47.9075474 C57.9225,47.7507611 58.1175,47.6593025 58.321875,47.6593025 L151.905,47.6593025 C152.109375,47.6593025 152.304375,47.7507611 152.435625,47.9075474 L160.29,57.2773954 C160.4625,57.4827108 160.5,57.7682859 160.385625,58.0109313 C160.273125,58.2535768 160.0275,58.4084966 159.759375,58.4084966 L159.759375,58.4084966 Z" id="Fill-394"></path>
                        <path d="M54.2025,98.8817603 L55.81875,98.8817603 L55.81875,58.4084966 L54.2025,58.4084966 L54.2025,98.8817603 Z M56.510625,100.261106 L53.50875,100.261106 C53.12625,100.261106 52.816875,99.9531333 52.816875,99.5723666 L52.816875,57.7178903 C52.816875,57.3371235 53.12625,57.0291504 53.50875,57.0291504 L56.510625,57.0291504 C56.893125,57.0291504 57.204375,57.3371235 57.204375,57.7178903 L57.204375,99.5723666 C57.204375,99.9531333 56.893125,100.261106 56.510625,100.261106 L56.510625,100.261106 Z" id="Fill-395"></path>
                        <path d="M155.10375,98.8817603 L156.72,98.8817603 L156.72,58.4084966 L155.10375,58.4084966 L155.10375,98.8817603 Z M157.41375,100.261106 L154.411875,100.261106 C154.029375,100.261106 153.718125,99.9531333 153.718125,99.5723666 L153.718125,57.7178903 C153.718125,57.3371235 154.029375,57.0291504 154.411875,57.0291504 L157.41375,57.0291504 C157.79625,57.0291504 158.105625,57.3371235 158.105625,57.7178903 L158.105625,99.5723666 C158.105625,99.9531333 157.79625,100.261106 157.41375,100.261106 L157.41375,100.261106 Z" id="Fill-396"></path>
                        <path d="M105.710625,98.8817603 L107.326875,98.8817603 L107.326875,58.4084966 L105.710625,58.4084966 L105.710625,98.8817603 Z M105.01875,100.261106 C104.63625,100.261106 104.325,99.9531333 104.325,99.5723666 L104.325,57.7178903 C104.325,57.3371235 104.63625,57.0291504 105.01875,57.0291504 L108.01875,57.0291504 C108.40125,57.0291504 108.7125,57.3371235 108.7125,57.7178903 L108.7125,99.5723666 C108.7125,99.9531333 108.40125,100.261106 108.01875,100.261106 L105.01875,100.261106 Z" id="Fill-397"></path>
                        <path d="M158.105625,103.057129 L156.72,103.057129 L156.72,100.261106 L54.2025,100.261106 L54.2025,103.057129 L52.816875,103.057129 L52.816875,99.5723666 C52.816875,99.1915999 53.12625,98.8817603 53.50875,98.8817603 L157.41375,98.8817603 C157.79625,98.8817603 158.105625,99.1915999 158.105625,99.5723666 L158.105625,103.057129" id="Fill-398"></path>
                        <polygon id="Fill-399" points="57.63 48.0046056 59.015625 48.0046056 59.015625 23.7680566 57.63 23.7680566"></polygon>
                        <polygon id="Fill-400" points="150.909375 48.0046056 152.293125 48.0046056 152.293125 23.7680566 150.909375 23.7680566"></polygon>
                        <path d="M104.9625,1.44094077 C104.82375,1.44094077 104.690625,1.46893832 104.563125,1.52120042 L51.70875,23.3947559 C51.18,23.6131368 50.926875,24.2197505 51.148125,24.7461045 C51.309375,25.1343372 51.68625,25.3844487 52.108125,25.3844487 C52.245,25.3844487 52.378125,25.3564512 52.505625,25.3041891 L104.9625,3.5967524 L157.4175,25.3041891 C157.545,25.3564512 157.68,25.3844487 157.816875,25.3844487 C158.236875,25.3844487 158.61375,25.1324707 158.776875,24.7461045 C158.99625,24.2197505 158.745,23.6131368 158.21625,23.3947559 L105.36,1.52120042 C105.234375,1.46893832 105.099375,1.44094077 104.9625,1.44094077 Z M52.108125,26.7619284 C51.12375,26.7637949 50.244375,26.1795792 49.8675,25.274325 C49.355625,24.0461656 49.9425,22.6313559 51.17625,22.119934 L104.0325,0.248244976 C104.625,0.00186650358 105.3,0.00186650358 105.8925,0.248244976 L158.746875,22.119934 C159.9825,22.6313559 160.569375,24.0461656 160.055625,25.2761915 C159.67875,26.1795792 158.799375,26.7619284 157.816875,26.7619284 C157.49625,26.7619284 157.183125,26.7003337 156.885,26.5771445 L104.9625,5.08995527 L53.038125,26.5771445 C52.74,26.7003337 52.426875,26.7619284 52.108125,26.7619284 L52.108125,26.7619284 Z" id="Fill-401"></path>
                        <path d="M18.25875,102.960071 L49.775625,102.960071 L49.775625,68.4614849 L18.25875,68.4614849 L18.25875,102.960071 Z M50.469375,104.339417 L17.566875,104.339417 C17.1825,104.339417 16.873125,104.029577 16.873125,103.64881 L16.873125,67.7727451 C16.873125,67.3901118 17.1825,67.0821387 17.566875,67.0821387 L50.469375,67.0821387 C50.851875,67.0821387 51.16125,67.3901118 51.16125,67.7727451 L51.16125,103.64881 C51.16125,104.029577 50.851875,104.339417 50.469375,104.339417 L50.469375,104.339417 Z" id="Fill-402"></path>
                        <polygon id="Fill-403" points="11.505 103.057129 12.890625 103.057129 12.890625 62.9627653 11.505 62.9627653"></polygon>
                        <path d="M3.020625,66.968282 C2.015625,66.968282 1.1025,66.3392703 0.75,65.4022855 C0.279375,64.1573276 0.915,62.7630494 2.1675,62.2945571 L58.078125,41.2347971 L58.5675,42.5245511 L2.655,63.584311 C2.116875,63.7858934 1.845,64.3831746 2.0475,64.9188611 C2.1975,65.3182929 2.589375,65.5889359 3.020625,65.5889359 C3.144375,65.5889359 3.268125,65.5665378 3.384375,65.5217417 L58.08,45.062996 L58.565625,46.3546165 L3.871875,66.8133622 C3.598125,66.9160199 3.31125,66.968282 3.020625,66.968282" id="Fill-404"></path>
                        <polygon id="Fill-405" points="12.196875 96.9573951 16.875 96.9573951 16.875 95.5780489 12.196875 95.5780489"></polygon>
                        <polygon id="Fill-406" points="12.196875 88.3658791 16.875 88.3658791 16.875 86.9865329 12.196875 86.9865329"></polygon>
                        <polygon id="Fill-407" points="56.510625 96.9573951 61.18875 96.9573951 61.18875 95.5780489 56.510625 95.5780489"></polygon>
                        <polygon id="Fill-408" points="56.510625 88.3658791 61.18875 88.3658791 61.18875 86.9865329 56.510625 86.9865329"></polygon>
                        <polygon id="Fill-409" points="12.196875 79.7743631 16.875 79.7743631 16.875 78.3950169 12.196875 78.3950169"></polygon>
                        <polygon id="Fill-410" points="56.375625 79.7743631 61.051875 79.7743631 61.051875 78.3950169 56.375625 78.3950169"></polygon>
                        <polygon id="Fill-411" points="50.55375 96.9573951 53.50875 96.9573951 53.50875 95.5780489 50.55375 95.5780489"></polygon>
                        <polygon id="Fill-412" points="50.55375 88.3658791 53.50875 88.3658791 53.50875 86.9865329 50.55375 86.9865329"></polygon>
                        <polygon id="Fill-413" points="50.469375 79.7743631 53.424375 79.7743631 53.424375 78.3950169 50.469375 78.3950169"></polygon>
                        <polygon id="Fill-414" points="12.196875 71.1828471 16.875 71.1828471 16.875 69.803501 12.196875 69.803501"></polygon>
                        <polygon id="Fill-415" points="50.469375 71.1828471 53.50875 71.1828471 53.50875 69.803501 50.469375 69.803501"></polygon>
                        <polygon id="Fill-416" points="56.510625 71.1828471 60.916875 71.1828471 60.916875 69.803501 56.510625 69.803501"></polygon>
                        <polygon id="Fill-417" points="15.03375 62.5913311 53.50875 62.5913311 53.50875 61.211985 15.03375 61.211985"></polygon>
                        <polygon id="Fill-418" points="56.510625 62.5913311 60.916875 62.5913311 60.916875 61.211985 56.510625 61.211985"></polygon>
                        <polygon id="Fill-419" points="38.000625 53.9998151 54.2025 53.9998151 54.2025 52.620469 38.000625 52.620469"></polygon>
                        <polygon id="Fill-420" points="58.321875 42.0317942 84.93 42.0317942 84.93 40.6543145 58.321875 40.6543145"></polygon>
                        <polygon id="Fill-421" points="97.66875 42.0317942 112.254375 42.0317942 112.254375 40.6543145 97.66875 40.6543145"></polygon>
                        <polygon id="Fill-422" points="125.18625 42.0317942 151.60125 42.0317942 151.60125 40.6543145 125.18625 40.6543145"></polygon>
                        <polygon id="Fill-423" points="125.18625 33.4421447 151.60125 33.4421447 151.60125 32.0627985 125.18625 32.0627985"></polygon>
                        <polygon id="Fill-424" points="57.823125 33.4421447 84.238125 33.4421447 84.238125 32.0627985 57.823125 32.0627985"></polygon>
                        <polygon id="Fill-425" points="97.66875 33.4421447 112.254375 33.4421447 112.254375 32.0627985 97.66875 32.0627985"></polygon>
                        <polygon id="Fill-426" points="126.9525 24.8487622 151.60125 24.8487622 151.60125 23.469416 126.9525 23.469416"></polygon>
                        <polygon id="Fill-427" points="99.945 24.8487622 110.3475 24.8487622 110.3475 23.469416 99.945 23.469416"></polygon>
                        <polygon id="Fill-428" points="58.321875 24.8487622 82.695 24.8487622 82.695 23.469416 58.321875 23.469416"></polygon>
                        <polygon id="Fill-429" points="77.836875 16.2572462 132.088125 16.2572462 132.088125 14.8779001 77.836875 14.8779001"></polygon>
                        <polygon id="Fill-430" points="98.596875 7.66573021 111.32625 7.66573021 111.32625 6.28638406 98.596875 6.28638406"></polygon>
                        <polygon id="Fill-431" points="142.8375 93.7600744 149.274375 93.7600744 149.274375 92.3825948 142.8375 92.3825948"></polygon>
                        <polygon id="Fill-432" points="142.8375 85.1685584 149.274375 85.1685584 149.274375 83.7910788 142.8375 83.7910788"></polygon>
                        <polygon id="Fill-433" points="142.8375 76.5770425 149.255625 76.5770425 149.255625 75.1995628 142.8375 75.1995628"></polygon>
                        <polygon id="Fill-434" points="142.8375 67.9855265 149.255625 67.9855265 149.255625 66.6080468 142.8375 66.6080468"></polygon>
                        <polygon id="Fill-435" points="108.04875 93.7600744 126.03 93.7600744 126.03 92.3825948 108.04875 92.3825948"></polygon>
                        <polygon id="Fill-436" points="108.04875 85.1685584 126.03 85.1685584 126.03 83.7910788 108.04875 83.7910788"></polygon>
                        <polygon id="Fill-437" points="108.04875 76.5770425 125.98125 76.5770425 125.98125 75.1995628 108.04875 75.1995628"></polygon>
                        <polygon id="Fill-438" points="108.04875 67.9855265 125.98125 67.9855265 125.98125 66.6080468 108.04875 66.6080468"></polygon>
                        <polygon id="Fill-439" points="60.916875 93.7600744 105.091875 93.7600744 105.091875 92.3825948 60.916875 92.3825948"></polygon>
                        <polygon id="Fill-440" points="100.16625 85.1685584 105.091875 85.1685584 105.091875 83.7910788 100.16625 83.7910788"></polygon>
                        <polygon id="Fill-441" points="79.441875 85.1685584 84.3675 85.1685584 84.3675 83.7910788 79.441875 83.7910788"></polygon>
                        <polygon id="Fill-442" points="60.916875 85.1685584 64.149375 85.1685584 64.149375 83.7910788 60.916875 83.7910788"></polygon>
                        <polygon id="Fill-443" points="100.03875 76.5770425 105.07875 76.5770425 105.07875 75.1995628 100.03875 75.1995628"></polygon>
                        <polygon id="Fill-444" points="79.385625 76.5770425 84.425625 76.5770425 84.425625 75.1995628 79.385625 75.1995628"></polygon>
                        <polygon id="Fill-445" points="60.916875 76.5770425 64.149375 76.5770425 64.149375 75.1995628 60.916875 75.1995628"></polygon>
                        <polygon id="Fill-446" points="60.916875 67.9855265 105.07875 67.9855265 105.07875 66.6080468 60.916875 66.6080468"></polygon>
                        <path d="M160.4325,104.511135 L4.7175,104.511135 C4.239375,104.511135 3.85125,104.124769 3.85125,103.64881 C3.85125,103.172852 4.239375,102.786486 4.7175,102.786486 L160.4325,102.786486 C160.910625,102.786486 161.29875,103.172852 161.29875,103.64881 C161.29875,104.124769 160.910625,104.511135 160.4325,104.511135" id="Fill-447"></path>
                        <path d="M146.810625,108.99261 L18.339375,108.99261 C17.86125,108.99261 17.473125,108.60811 17.473125,108.132152 C17.473125,107.654327 17.86125,107.269827 18.339375,107.269827 L146.810625,107.269827 C147.28875,107.269827 147.676875,107.654327 147.676875,108.132152 C147.676875,108.60811 147.28875,108.99261 146.810625,108.99261" id="Fill-448"></path>
                    </g>
                </g>
                <g id="dollar" transform="translate(139.000000, 0.000000)" fill-rule="nonzero" fill="#3388C4">
                    <path d="M12.072761,6.18349054 C21.6746341,6.18349054 22.074439,14.7039319 22.088078,15.065145 C22.1071024,15.5853569 22.5722341,15.9870013 23.0673366,15.9788802 C23.5923512,15.9626961 24.0057366,15.5287415 23.9894634,15.0084716 C23.9867122,14.9060303 23.5352195,4.89230013 12.9513951,4.3477831 L12.9513951,0.943435057 C12.9513366,0.423165195 12.5270049,0 11.9992976,0 C11.4743415,0 11.0472585,0.423165195 11.0472585,0.943435057 L11.0472585,4.35863052 C7.37789268,4.6658966 4.21715122,6.57701387 2.65580488,9.53940227 C1.18425366,12.3319445 1.39369756,15.5530467 3.21886829,18.1542219 C4.94341463,20.6179193 8.23738537,22.1650971 11.7245854,23.8013165 C14.1672585,24.9468499 16.6941659,26.1328726 18.5737756,27.6342825 C20.9782829,29.5480681 21.9221854,32.4457201 20.9782829,35.0118588 C19.8684878,38.0308045 16.4548098,39.774802 11.9013659,39.6778134 C8.64275122,39.6077402 6.12936585,38.64 4.43203902,36.8016822 C1.65758049,33.7961942 1.9241561,29.3836747 1.92684878,29.340575 C1.96220488,28.8203632 1.56778537,28.3701665 1.04282927,28.3351879 C0.504234146,28.2731778 0.0635707317,28.6882799 0.0255219512,29.2085498 C0.0091902439,29.4187692 -0.311765854,34.4431526 3.00942439,38.0578361 C4.91619512,40.1333468 7.63902439,41.254691 11.0472585,41.4838209 L11.0472585,44.9987894 C11.0472585,45.5190013 11.4742829,45.9422245 11.9992976,45.9422245 C12.5243122,45.9422245 12.9513366,45.5190013 12.9513366,44.9987894 L12.9513366,41.5323733 C17.8230439,41.3436747 21.462439,39.2061538 22.7653463,35.6588752 C23.9921561,32.3191475 22.8143415,28.5940177 19.7678634,26.1653569 C17.7114732,24.5238008 15.0811902,23.2892837 12.5378927,22.09514 C9.2873561,20.569483 6.21910244,19.1300832 4.78290732,17.0788197 C3.3467122,15.0329508 3.1889561,12.60429 4.3422439,10.4128802 C5.72136585,7.80346784 8.6808,6.18349054 12.072761,6.18349054 Z" id="Shape"></path>
                </g>
            </g>
        </g>
    </g>
</svg>