<?xml version="1.0" encoding="UTF-8"?>
<svg width="24px" height="11px" viewBox="0 0 24 11" version="1.1" xmlns="http://www.w3.org/2000/svg" xmlns:xlink="http://www.w3.org/1999/xlink">
    <!-- Generator: Sketch 43.1 (39012) - http://www.bohemiancoding.com/sketch -->
    <title>334998</title>
    <desc>Created with Sketch.</desc>
    <defs></defs>
    <g id="Page-1" stroke="none" stroke-width="1" fill="none" fill-rule="evenodd">
        <g id="Listing-Page-Copy" transform="translate(-946.000000, -1304.000000)" fill-rule="nonzero" fill="#000000">
            <g id="334998" transform="translate(946.000000, 1304.000000)">
                <path d="M18.8000156,6.98378814 C17.6972344,6.98378814 16.8,7.87590678 16.8,8.97250424 C16.8,10.0690551 17.6971875,10.9612203 18.8000156,10.9612203 C19.9027969,10.9612203 20.8000313,10.0691017 20.8000313,8.97250424 C20.7999844,7.87595339 19.9027969,6.98378814 18.8000156,6.98378814 Z M18.8000156,10.1657246 C18.1384219,10.1657246 17.6000156,9.63036017 17.6000156,8.97250424 C17.6000156,8.31464831 18.1384219,7.7792839 18.8000156,7.7792839 C19.4616094,7.7792839 20.0000156,8.31464831 20.0000156,8.97250424 C20.0000156,9.63036017 19.4616094,10.1657246 18.8000156,10.1657246 Z" id="Shape"></path>
                <path d="M5.19998438,6.98378814 C4.09720313,6.98378814 3.19996875,7.87590678 3.19996875,8.97250424 C3.19996875,10.0690551 4.09715625,10.9612203 5.19998438,10.9612203 C6.30276563,10.9612203 7.2,10.0691017 7.2,8.97250424 C7.2,7.87595339 6.3028125,6.98378814 5.19998438,6.98378814 Z M5.19998438,10.1657246 C4.53839063,10.1657246 3.99998438,9.63036017 3.99998438,8.97250424 C3.99998438,8.31464831 4.53839063,7.7792839 5.19998438,7.7792839 C5.86157813,7.7792839 6.39998438,8.31464831 6.39998438,8.97250424 C6.39998438,9.63036017 5.86157813,10.1657246 5.19998438,10.1657246 Z" id="Shape"></path>
                <path d="M23.6000156,6.98378814 L23.6000156,4.59734746 C23.6000156,4.42591525 23.49,4.2739661 23.3264063,4.21989831 L21.0691875,3.47175847 C20.2192031,2.04031356 19.0507969,0.678038136 16.4687813,0.22820339 C16.464,0.227411017 16.4591719,0.226618644 16.4543906,0.225826271 C11.6864063,-0.429652542 8.106375,0.639864407 5.808,3.40575847 C3.15079688,3.4439322 0.399984375,4.2771822 0.399984375,5.7905678 L0.399984375,6.98378814 C0.179203125,6.98378814 0,7.16197881 0,7.38151271 L0,8.97245763 C0,9.19199153 0.179203125,9.3701822 0.399984375,9.3701822 L1.99996875,9.3701822 C2.22075,9.3701822 2.39995313,9.19199153 2.39995313,8.97245763 C2.39995313,7.43716525 3.65596875,6.18829237 5.1999375,6.18829237 C6.74390625,6.18829237 7.99992188,7.43721186 7.99992188,8.97245763 C7.99992188,9.19199153 8.179125,9.3701822 8.39990625,9.3701822 L15.5999063,9.3701822 C15.8206875,9.3701822 15.9998906,9.19199153 15.9998906,8.97245763 C15.9998906,7.43716525 17.2559063,6.18829237 18.799875,6.18829237 C20.3438906,6.18829237 21.5998594,7.43721186 21.5998594,8.97245763 C21.5998594,9.19199153 21.7790625,9.3701822 21.9998438,9.3701822 L23.5998281,9.3701822 C23.8206094,9.3701822 23.9998125,9.19199153 23.9998125,8.97245763 L23.9998125,7.38151271 C24,7.16197881 23.8207969,6.98378814 23.6000156,6.98378814 Z M18.4195781,1.75589831 C19.1143594,2.17949153 19.632,2.73872034 20.0811562,3.40412712 L18.4039687,3.40412712 L18.4195781,1.75589831 Z M13.5999844,0.834322034 C14.4555937,0.822809322 15.3655781,0.879673729 16.338,1.01330508 C16.8195937,1.09762288 17.2427812,1.21736441 17.6235937,1.36609746 L17.604,3.4045 L13.5999844,3.4045 L13.5999844,0.834322034 Z M12.8000156,0.868161017 L12.8000156,3.40454661 L6.88879688,3.40454661 C8.37159375,1.88356356 10.3267969,1.04313559 12.8000156,0.868161017 Z M23.1999844,8.57477966 L22.3779844,8.57477966 C22.1783906,6.78732627 20.6499844,5.39284322 18.7999688,5.39284322 C16.9499531,5.39284322 15.4215469,6.78732627 15.2219531,8.57477966 L8.778,8.57477966 C8.57840625,6.78732627 7.05,5.39284322 5.19998438,5.39284322 C3.34996875,5.39284322 1.8215625,6.78732627 1.62196875,8.57477966 L0.800015625,8.57477966 L0.800015625,7.7792839 C1.02079688,7.7792839 1.2,7.60109322 1.2,7.38155932 L1.2,6.18833898 L1.59998438,6.18833898 C1.82076563,6.18833898 1.99996875,6.01014831 1.99996875,5.79061441 C1.99996875,5.57108051 1.82076563,5.39288983 1.59998438,5.39288983 L1.39279688,5.39288983 C1.93401563,4.80863136 3.58959375,4.19966949 6,4.19966949 L20.7347813,4.19966949 L22.8,4.88418644 L22.8,5.39288983 L22.4000156,5.39288983 C22.1792344,5.39288983 22.0000313,5.57108051 22.0000313,5.79061441 C22.0000313,6.01014831 22.1792344,6.18833898 22.4000156,6.18833898 L22.8,6.18833898 L22.8,7.38155932 C22.8,7.60109322 22.9792031,7.7792839 23.1999844,7.7792839 L23.1999844,8.57477966 Z" id="Shape"></path>
            </g>
        </g>
    </g>
</svg>