<?xml version="1.0" encoding="UTF-8"?>
<svg width="100px" height="86px" viewBox="0 0 100 86" version="1.1" xmlns="http://www.w3.org/2000/svg" xmlns:xlink="http://www.w3.org/1999/xlink">
    <!-- Generator: Sketch 43.1 (39012) - http://www.bohemiancoding.com/sketch -->
    <title>person-with-a-huge-clock-outlines-in-a-circle</title>
    <desc>Created with Sketch.</desc>
    <defs></defs>
    <g id="Page-1" stroke="none" stroke-width="1" fill="none" fill-rule="evenodd">
        <g id="Careers" transform="translate(-649.000000, -4007.000000)" fill-rule="nonzero" fill="#3589C4">
            <g id="Group-3-Copy-7" transform="translate(539.000000, 3940.000000)">
                <g id="Group-9">
                    <g id="Group-8" transform="translate(41.128527, 67.000000)">
                        <g id="Group-2">
                            <g id="Group-4">
                                <g id="Group-5">
                                    <g id="person-with-a-huge-clock-outlines-in-a-circle" transform="translate(68.000000, 0.000000)">
                                        <path d="M24.6272727,14.5340909 C28.6068182,14.5340909 31.8431818,11.2954545 31.8431818,7.31590909 C31.8431818,3.33636364 28.6068182,0.1 24.6272727,0.1 C20.6477273,0.1 17.4113636,3.33636364 17.4113636,7.31590909 C17.4113636,11.2954545 20.65,14.5340909 24.6272727,14.5340909 Z M24.6272727,4.64545455 C26.0977273,4.64545455 27.2977273,5.84318182 27.2977273,7.31590909 C27.2977273,8.78863636 26.1,9.98863636 24.6272727,9.98863636 C23.1545455,9.98863636 21.9568182,8.79090909 21.9568182,7.31590909 C21.9568182,5.84545455 23.1590909,4.64545455 24.6272727,4.64545455 Z" id="Shape"></path>
                                        <path d="M21.7045455,18.7681818 L21.7045455,34.9045455 C21.7045455,36.1613636 22.7204545,37.1772727 23.9772727,37.1772727 C25.2340909,37.1772727 26.25,36.1613636 26.25,34.9045455 L26.25,18.7681818 C26.25,17.5113636 25.2340909,16.4954545 23.9772727,16.4954545 C22.7204545,16.4954545 21.7045455,17.5136364 21.7045455,18.7681818 Z" id="Shape"></path>
                                        <path d="M32,16.6704545 C31.4454545,16.4386364 30.8181818,16.4386364 30.2636364,16.6704545 C29.7068182,16.9022727 29.2659091,17.3431818 29.0340909,17.9 C28.9181818,18.1772727 28.8590909,18.4727273 28.8590909,18.7681818 L28.8590909,73.9409091 C28.8590909,75.1977273 29.875,76.2136364 31.1318182,76.2136364 C32.3886364,76.2136364 33.4045455,75.1977273 33.4045455,73.9409091 L33.4045455,44.3772727 C33.8272727,44.2931818 34.2340909,44.1272727 34.5613636,43.8 L45.3590909,33 C46.2477273,32.1113636 46.2477273,30.675 45.3590909,29.7863636 L32.7409091,17.1636364 C32.5340909,16.9522727 32.2795455,16.7863636 32,16.6704545 Z M33.4045455,38.5295455 L33.4045455,24.2590909 L40.5386364,31.3954545 L33.4045455,38.5295455 Z" id="Shape"></path>
                                        <path d="M1.66590909,33 L12.4636364,43.8 C12.7931818,44.1295455 13.2,44.2931818 13.6227273,44.3772727 L13.6227273,73.9409091 C13.6227273,75.1977273 14.6386364,76.2136364 15.8954545,76.2136364 C17.1522727,76.2136364 18.1681818,75.1977273 18.1681818,73.9409091 L18.1681818,18.7681818 C18.1681818,18.4727273 18.1090909,18.1772727 17.9931818,17.9 C17.7613636,17.3431818 17.3204545,16.9022727 16.7636364,16.6704545 C16.2090909,16.4386364 15.5818182,16.4386364 15.0272727,16.6704545 C14.7477273,16.7863636 14.4954545,16.9522727 14.2863636,17.1636364 L1.66590909,29.7863636 C0.777272727,30.675 0.777272727,32.1113636 1.66590909,33 Z M6.48863636,31.3931818 L13.625,24.2545455 L13.625,38.5295455 L6.48863636,31.3931818 Z" id="Shape"></path>
                                        <path d="M70.8545455,26.6477273 C54.6045455,26.6477273 41.3818182,39.8659091 41.3818182,56.1181818 C41.3818182,72.3681818 54.6,85.5886364 70.8545455,85.5886364 C87.1045455,85.5886364 100.325,72.3704545 100.325,56.1181818 C100.325,39.8659091 87.1045455,26.6477273 70.8545455,26.6477273 Z M73.1272727,80.9272727 L73.1272727,76.9363636 C73.1272727,75.6772727 72.1113636,74.6636364 70.8545455,74.6636364 C69.5954545,74.6636364 68.5818182,75.6772727 68.5818182,76.9363636 L68.5818182,80.9272727 C56.65,79.8386364 47.1295455,70.3227273 46.0431818,58.3909091 L50.0363636,58.3909091 C51.2931818,58.3909091 52.3090909,57.375 52.3090909,56.1181818 C52.3090909,54.8613636 51.2931818,53.8454545 50.0363636,53.8454545 L46.0431818,53.8454545 C47.1295455,41.9136364 56.65,32.3954545 68.5818182,31.3068182 L68.5818182,35.2977273 C68.5818182,36.5545455 69.5954545,37.5704545 70.8545455,37.5704545 C72.1113636,37.5704545 73.1272727,36.5545455 73.1272727,35.2977273 L73.1272727,31.3068182 C85.0590909,32.3931818 94.5772727,41.9113636 95.6636364,53.8454545 L91.6727273,53.8454545 C90.4136364,53.8454545 89.4,54.8613636 89.4,56.1181818 C89.4,57.375 90.4136364,58.3909091 91.6727273,58.3909091 L95.6636364,58.3909091 C94.5772727,70.3227273 85.0590909,79.8409091 73.1272727,80.9272727 Z" id="Shape"></path>
                                        <path d="M76.0568182,53.8454545 L73.1272727,53.8454545 L73.1272727,44.7977273 C73.1272727,43.5409091 72.1113636,42.525 70.8545455,42.525 C69.5954545,42.525 68.5818182,43.5409091 68.5818182,44.7977273 L68.5818182,56.1181818 C68.5818182,57.375 69.5954545,58.3909091 70.8545455,58.3909091 L76.0568182,58.3909091 C77.3136364,58.3909091 78.3295455,57.375 78.3295455,56.1181818 C78.3295455,54.8613636 77.3136364,53.8454545 76.0568182,53.8454545 Z" id="Shape"></path>
                                    </g>
                                </g>
                            </g>
                        </g>
                    </g>
                </g>
            </g>
        </g>
    </g>
</svg>