<?xml version="1.0" encoding="UTF-8"?>
<svg width="115px" height="92px" viewBox="0 0 115 92" version="1.1" xmlns="http://www.w3.org/2000/svg" xmlns:xlink="http://www.w3.org/1999/xlink">
    <!-- Generator: Sketch 43.1 (39012) - http://www.bohemiancoding.com/sketch -->
    <title>program-interface</title>
    <desc>Created with Sketch.</desc>
    <defs></defs>
    <g id="Page-1" stroke="none" stroke-width="1" fill="none" fill-rule="evenodd">
        <g id="Careers" transform="translate(-1043.000000, -1520.000000)" fill-rule="nonzero" fill="#3187C4">
            <g id="Group-3-Copy-5" transform="translate(941.000000, 1461.000000)">
                <g id="Group-9">
                    <g id="Group-8" transform="translate(41.128527, 59.000000)">
                        <g id="Group-2">
                            <g id="Group-4">
                                <g id="Group-5">
                                    <g id="program-interface" transform="translate(61.000000, 0.000000)">
                                        <path d="M109.013463,0.223393743 L5.25500797,0.223393743 C2.35737422,0.223393743 0,2.58076796 0,5.47840172 L0,73.4580793 C0,76.3557131 2.35737422,78.7130873 5.25500797,78.7130873 L40.5992971,78.7130873 L37.9798434,87.8813991 L30.3001524,87.8813991 C29.3739293,87.8813991 28.6230222,88.6323062 28.6230222,89.5585293 C28.6230222,90.4847524 29.3739293,91.2356595 30.3001524,91.2356595 L39.23948,91.2356595 C39.2414925,91.2356595 39.2437287,91.2361067 39.2457413,91.2361067 C39.2475302,91.2361067 39.2493191,91.2356595 39.2511081,91.2356595 L75.0173632,91.2356595 C75.0191521,91.2356595 75.0209411,91.2361067 75.02273,91.2361067 C75.0247426,91.2361067 75.0269787,91.2356595 75.0289913,91.2356595 L83.9683189,91.2356595 C84.894542,91.2356595 85.6454491,90.4847524 85.6454491,89.5585293 C85.6454491,88.6323062 84.894542,87.8813991 83.9683189,87.8813991 L76.2886279,87.8813991 L73.6691741,78.7130873 L109.013463,78.7130873 C111.911097,78.7130873 114.268471,76.3557131 114.268471,73.4580793 L114.268471,5.47840172 C114.268471,2.58076796 111.911097,0.223393743 109.013463,0.223393743 Z M72.8001971,87.8813991 L41.4682742,87.8813991 L44.087728,78.7130873 L70.1807433,78.7130873 L72.8001971,87.8813991 Z M110.914211,73.4580793 C110.914211,74.5061739 110.061558,75.3588269 109.013463,75.3588269 L71.485327,75.3588269 L71.4846561,75.3588269 L5.25500797,75.3588269 C4.20691341,75.3588269 3.35426041,74.5061739 3.35426041,73.4580793 L3.35426041,5.47840172 C3.35426041,4.43030715 4.20691341,3.57765415 5.25500797,3.57765415 L109.013463,3.57765415 C110.061558,3.57765415 110.914211,4.43030715 110.914211,5.47840172 L110.914211,73.4580793 Z" id="Shape"></path>
                                        <path d="M105.435586,7.37914928 L8.83288574,7.37914928 C7.90666264,7.37914928 7.15575554,8.13005638 7.15575554,9.05627949 L7.15575554,69.8802016 C7.15575554,70.8064247 7.90666264,71.5573318 8.83288574,71.5573318 L105.435586,71.5573318 C106.361809,71.5573318 107.112716,70.8064247 107.112716,69.8802016 L107.112716,9.05627949 C107.112716,8.13005638 106.361809,7.37914928 105.435586,7.37914928 Z M103.758455,10.7334097 L103.758455,21.6906604 L10.5100159,21.6906604 L10.5100159,10.7334097 L103.758455,10.7334097 Z M10.5100159,25.0449208 L33.9898388,25.0449208 L33.9898388,68.2030714 L10.5100159,68.2030714 L10.5100159,25.0449208 Z M37.3440992,68.2030714 L37.3440992,25.0449208 L103.758455,25.0449208 L103.758455,68.2030714 L37.3440992,68.2030714 Z" id="Shape"></path>
                                        <path d="M15.9886413,17.8891652 L21.3554579,17.8891652 C22.281681,17.8891652 23.0325881,17.1382581 23.0325881,16.212035 C23.0325881,15.2858119 22.281681,14.5349048 21.3554579,14.5349048 L15.9886413,14.5349048 C15.0624182,14.5349048 14.3115111,15.2858119 14.3115111,16.212035 C14.3115111,17.1382581 15.0624182,17.8891652 15.9886413,17.8891652 Z" id="Shape"></path>
                                        <path d="M28.5112135,17.8891652 L33.8780301,17.8891652 C34.8042532,17.8891652 35.5551603,17.1382581 35.5551603,16.212035 C35.5551603,15.2858119 34.8042532,14.5349048 33.8780301,14.5349048 L28.5112135,14.5349048 C27.5849904,14.5349048 26.8340833,15.2858119 26.8340833,16.212035 C26.8340833,17.1382581 27.5849904,17.8891652 28.5112135,17.8891652 Z" id="Shape"></path>
                                        <path d="M41.0337857,17.8891652 L46.4006023,17.8891652 C47.3268254,17.8891652 48.0777325,17.1382581 48.0777325,16.212035 C48.0777325,15.2858119 47.3268254,14.5349048 46.4006023,14.5349048 L41.0337857,14.5349048 C40.1075626,14.5349048 39.3566555,15.2858119 39.3566555,16.212035 C39.3566555,17.1382581 40.1075626,17.8891652 41.0337857,17.8891652 Z" id="Shape"></path>
                                        <path d="M53.5563579,17.8891652 L58.9231745,17.8891652 C59.8493976,17.8891652 60.6003047,17.1382581 60.6003047,16.212035 C60.6003047,15.2858119 59.8493976,14.5349048 58.9231745,14.5349048 L53.5563579,14.5349048 C52.6301348,14.5349048 51.8792277,15.2858119 51.8792277,16.212035 C51.8792277,17.1382581 52.6301348,17.8891652 53.5563579,17.8891652 Z" id="Shape"></path>
                                        <path d="M66.0789301,17.8891652 L83.9683189,17.8891652 C84.894542,17.8891652 85.6454491,17.1382581 85.6454491,16.212035 C85.6454491,15.2858119 84.894542,14.5349048 83.9683189,14.5349048 L66.0789301,14.5349048 C65.152707,14.5349048 64.4017999,15.2858119 64.4017999,16.212035 C64.4017999,17.1382581 65.152707,17.8891652 66.0789301,17.8891652 Z" id="Shape"></path>
                                        <path d="M98.27983,17.8891652 C98.7203562,17.8891652 99.1541739,17.7102713 99.465002,17.397207 C99.7780663,17.0841427 99.9569602,16.6525612 99.9569602,16.212035 C99.9569602,15.7715088 99.7780663,15.3376911 99.465002,15.026863 C99.1541739,14.7137987 98.7225924,14.5349048 98.27983,14.5349048 C97.8370676,14.5349048 97.4054861,14.7137987 97.094658,15.026863 C96.7815937,15.3376911 96.6026998,15.7715088 96.6026998,16.212035 C96.6026998,16.6525612 96.7815937,17.0863789 97.094658,17.397207 C97.4054861,17.7102713 97.8393038,17.8891652 98.27983,17.8891652 Z" id="Shape"></path>
                                        <path d="M91.1240744,17.8891652 C91.5646006,17.8891652 91.9984183,17.7102713 92.3092465,17.397207 C92.6223108,17.0863789 92.8012047,16.6525612 92.8012047,16.212035 C92.8012047,15.7692727 92.6223108,15.3376911 92.3092465,15.026863 C91.9984183,14.7137987 91.5646006,14.5349048 91.1240744,14.5349048 C90.6835482,14.5349048 90.2497306,14.7137987 89.9389024,15.026863 C89.6258381,15.3376911 89.4469442,15.7692727 89.4469442,16.212035 C89.4469442,16.6525612 89.6258381,17.0863789 89.9389024,17.397207 C90.2497306,17.7102713 90.6835482,17.8891652 91.1240744,17.8891652 Z" id="Shape"></path>
                                        <path d="M15.9886413,32.2006763 L28.5112135,32.2006763 C29.4374366,32.2006763 30.1883437,31.4497692 30.1883437,30.5235461 C30.1883437,29.597323 29.4374366,28.8464159 28.5112135,28.8464159 L15.9886413,28.8464159 C15.0624182,28.8464159 14.3115111,29.597323 14.3115111,30.5235461 C14.3115111,31.4497692 15.0624182,32.2006763 15.9886413,32.2006763 Z" id="Shape"></path>
                                        <path d="M42.8227246,32.2006763 L55.3452968,32.2006763 C56.2715199,32.2006763 57.022427,31.4497692 57.022427,30.5235461 C57.022427,29.597323 56.2715199,28.8464159 55.3452968,28.8464159 L42.8227246,28.8464159 C41.8965014,28.8464159 41.1455944,29.597323 41.1455944,30.5235461 C41.1455944,31.4497692 41.8965014,32.2006763 42.8227246,32.2006763 Z" id="Shape"></path>
                                        <path d="M62.5010523,32.2006763 L69.6568078,32.2006763 C70.5830309,32.2006763 71.333938,31.4497692 71.333938,30.5235461 C71.333938,29.597323 70.5830309,28.8464159 69.6568078,28.8464159 L62.5010523,28.8464159 C61.5748292,28.8464159 60.8239221,29.597323 60.8239221,30.5235461 C60.8239221,31.4497692 61.5748292,32.2006763 62.5010523,32.2006763 Z" id="Shape"></path>
                                        <path d="M42.8227246,39.3564319 L55.3452968,39.3564319 C56.2715199,39.3564319 57.022427,38.6055248 57.022427,37.6793016 C57.022427,36.7530785 56.2715199,36.0021714 55.3452968,36.0021714 L42.8227246,36.0021714 C41.8965014,36.0021714 41.1455944,36.7530785 41.1455944,37.6793016 C41.1455944,38.6055248 41.8965014,39.3564319 42.8227246,39.3564319 Z" id="Shape"></path>
                                        <path d="M78.6015023,43.157927 L48.1895412,43.157927 C47.2633181,43.157927 46.512411,43.9088341 46.512411,44.8350572 C46.512411,45.7612803 47.2633181,46.5121874 48.1895412,46.5121874 L78.6015023,46.5121874 C79.5277254,46.5121874 80.2786325,45.7612803 80.2786325,44.8350572 C80.2786325,43.9088341 79.5277254,43.157927 78.6015023,43.157927 Z" id="Shape"></path>
                                        <path d="M91.1240744,43.157927 L85.7572578,43.157927 C84.8310347,43.157927 84.0801276,43.9088341 84.0801276,44.8350572 C84.0801276,45.7612803 84.8310347,46.5121874 85.7572578,46.5121874 L91.1240744,46.5121874 C92.0502976,46.5121874 92.8012047,45.7612803 92.8012047,44.8350572 C92.8012047,43.9088341 92.0502976,43.157927 91.1240744,43.157927 Z" id="Shape"></path>
                                        <path d="M69.6568078,57.4694381 L62.5010523,57.4694381 C61.5748292,57.4694381 60.8239221,58.2203452 60.8239221,59.1465683 C60.8239221,60.0727914 61.5748292,60.8236985 62.5010523,60.8236985 L69.6568078,60.8236985 C70.5830309,60.8236985 71.333938,60.0727914 71.333938,59.1465683 C71.333938,58.2203452 70.5830309,57.4694381 69.6568078,57.4694381 Z" id="Shape"></path>
                                        <path d="M62.5010523,39.3564319 L69.6568078,39.3564319 C70.5830309,39.3564319 71.333938,38.6055248 71.333938,37.6793016 C71.333938,36.7530785 70.5830309,36.0021714 69.6568078,36.0021714 L62.5010523,36.0021714 C61.5748292,36.0021714 60.8239221,36.7530785 60.8239221,37.6793016 C60.8239221,38.6055248 61.5748292,39.3564319 62.5010523,39.3564319 Z" id="Shape"></path>
                                        <path d="M55.3452968,50.3136825 L42.8227246,50.3136825 C41.8965014,50.3136825 41.1455944,51.0645896 41.1455944,51.9908127 C41.1455944,52.9170358 41.8965014,53.6679429 42.8227246,53.6679429 L55.3452968,53.6679429 C56.2715199,53.6679429 57.022427,52.9170358 57.022427,51.9908127 C57.022427,51.0645896 56.2715199,50.3136825 55.3452968,50.3136825 Z" id="Shape"></path>
                                        <path d="M69.6568078,50.3136825 L62.5010523,50.3136825 C61.5748292,50.3136825 60.8239221,51.0645896 60.8239221,51.9908127 C60.8239221,52.9170358 61.5748292,53.6679429 62.5010523,53.6679429 L69.6568078,53.6679429 C70.5830309,53.6679429 71.333938,52.9170358 71.333938,51.9908127 C71.333938,51.0645896 70.5830309,50.3136825 69.6568078,50.3136825 Z" id="Shape"></path>
                                        <path d="M28.5112135,50.3136825 L15.9886413,50.3136825 C15.0624182,50.3136825 14.3115111,51.0645896 14.3115111,51.9908127 C14.3115111,52.9170358 15.0624182,53.6679429 15.9886413,53.6679429 L28.5112135,53.6679429 C29.4374366,53.6679429 30.1883437,52.9170358 30.1883437,51.9908127 C30.1883437,51.0645896 29.4374366,50.3136825 28.5112135,50.3136825 Z" id="Shape"></path>
                                        <path d="M28.5112135,36.0021714 L21.3554579,36.0021714 C20.4292348,36.0021714 19.6783277,36.7530785 19.6783277,37.6793016 C19.6783277,38.6055248 20.4292348,39.3564319 21.3554579,39.3564319 L28.5112135,39.3564319 C29.4374366,39.3564319 30.1883437,38.6055248 30.1883437,37.6793016 C30.1883437,36.7530785 29.4374366,36.0021714 28.5112135,36.0021714 Z" id="Shape"></path>
                                        <path d="M28.5112135,43.157927 L21.3554579,43.157927 C20.4292348,43.157927 19.6783277,43.9088341 19.6783277,44.8350572 C19.6783277,45.7612803 20.4292348,46.5121874 21.3554579,46.5121874 L28.5112135,46.5121874 C29.4374366,46.5121874 30.1883437,45.7612803 30.1883437,44.8350572 C30.1883437,43.9088341 29.4374366,43.157927 28.5112135,43.157927 Z" id="Shape"></path>
                                        <path d="M28.5112135,57.4694381 L21.3554579,57.4694381 C20.4292348,57.4694381 19.6783277,58.2203452 19.6783277,59.1465683 C19.6783277,60.0727914 20.4292348,60.8236985 21.3554579,60.8236985 L28.5112135,60.8236985 C29.4374366,60.8236985 30.1883437,60.0727914 30.1883437,59.1465683 C30.1883437,58.2203452 29.4374366,57.4694381 28.5112135,57.4694381 Z" id="Shape"></path>
                                    </g>
                                </g>
                            </g>
                        </g>
                    </g>
                </g>
            </g>
        </g>
    </g>
</svg>