<?xml version="1.0" encoding="UTF-8"?>
<svg width="100px" height="86px" viewBox="0 0 100 86" version="1.1" xmlns="http://www.w3.org/2000/svg" xmlns:xlink="http://www.w3.org/1999/xlink">
    <!-- Generator: Sketch 43.1 (39012) - http://www.bohemiancoding.com/sketch -->
    <title>goal</title>
    <desc>Created with Sketch.</desc>
    <defs></defs>
    <g id="Page-1" stroke="none" stroke-width="1" fill="none" fill-rule="evenodd">
        <g id="Careers" transform="translate(-251.000000, -4004.000000)" fill-rule="nonzero" fill="#3289C7">
            <g id="Group-3-Copy-6" transform="translate(141.000000, 3940.000000)">
                <g id="Group-9">
                    <g id="Group-8" transform="translate(41.128527, 64.000000)">
                        <g id="goal" transform="translate(69.000000, 0.000000)">
                            <path d="M99.6180873,83.7078586 L71.5432432,46.9048649 L71.5432432,28.6678586 L73.2064449,28.6678586 C75.9621622,28.6678586 78.1960499,26.7467152 78.1960499,24.3767983 C78.1960499,22.0068815 75.9621622,20.085738 73.2064449,20.085738 L71.5432432,20.085738 L71.5432432,12.4333472 L85.5307692,7.08382536 C86.368815,6.76038669 86.7434511,5.91397505 86.3673597,5.19325572 C86.1777547,4.82958836 85.8201663,4.55066944 85.3810811,4.42336798 L70.4122661,0.132307692 C69.9047817,-0.0116216216 69.3480249,0.0629355509 68.9153846,0.332557173 C68.47921,0.599496881 68.2193347,1.03074844 68.2168399,1.49114345 L68.2168399,20.085738 L64.8904366,20.085738 L64.8904366,15.7946778 C64.8904366,13.4247609 62.6565489,11.5036175 59.9008316,11.5036175 L55.6430353,11.5036175 C56.2476091,10.639684 56.5694387,9.65130977 56.5744283,8.6429106 L56.5744283,4.35185031 C56.5744283,1.98193347 54.3405405,0.0607900208 51.5848233,0.0607900208 L43.268815,0.0607900208 C42.3503119,0.0631143451 41.6079002,0.70552183 41.6106029,1.49543451 C41.6114345,1.71749688 41.6723493,1.93634096 41.7885655,2.13480249 L43.268815,4.69513514 L43.268815,8.6429106 C43.2738046,9.65130977 43.5956341,10.639684 44.2002079,11.5036175 L38.27921,11.5036175 L38.27921,4.50918919 C38.3413721,2.35239501 36.5839917,0.472016632 34.1212058,0.0607900208 C31.404158,-0.334345114 28.8288981,1.23940125 28.3694387,3.57624116 C28.3191268,3.83245322 28.295842,4.09206237 28.3,4.35185031 L28.3,14.3643243 C28.3,17.5241538 31.2785863,20.085738 34.9528067,20.085738 L41.6056133,20.085738 L41.6056133,45.8320998 L39.9424116,45.8320998 C39.4189189,45.8320998 38.9259875,46.0441497 38.6118503,46.4042412 L29.1316008,57.2749272 L23.310395,57.2749272 C22.7781705,57.2736757 22.2773389,57.4918046 21.9632017,57.8613721 L0.341580042,83.6077339 C-0.0305613306,84.0461372 -0.0821205821,84.6277547 0.208523909,85.109605 C0.495010395,85.5850187 1.06611227,85.8830686 1.68877339,85.8819958 L98.1544699,85.8819958 C98.7640333,85.8834262 99.3255717,85.5980707 99.6180873,85.1382121 C99.9151767,84.6956965 99.9151767,84.1503742 99.6180873,83.7078586 Z M71.5432432,3.47933472 L80.25842,5.96814969 L71.5432432,9.30087318 L71.5432432,3.47933472 Z M71.5432432,22.9464449 L73.2064449,22.9464449 C74.124948,22.9464449 74.8696466,23.5868857 74.8696466,24.3767983 C74.8696466,25.166711 74.124948,25.8071518 73.2064449,25.8071518 L71.5432432,25.8071518 L71.5432432,22.9464449 Z M51.5848233,2.92149688 C52.5033264,2.92149688 53.2480249,3.56193763 53.2480249,4.35185031 L53.2480249,8.6429106 C53.2480249,10.2229148 51.7588358,11.5036175 49.9216216,11.5036175 C48.0844075,11.5036175 46.5952183,10.2229148 46.5952183,8.6429106 L46.5952183,4.35185031 C46.5935551,4.128 46.5309771,3.90754678 46.4122661,3.70819127 L45.9632017,2.92149688 L51.5848233,2.92149688 L51.5848233,2.92149688 Z M34.9528067,17.2250312 C33.1155925,17.2250312 31.6264033,15.9443285 31.6264033,14.3643243 L31.6264033,4.35185031 C31.6264033,3.93365073 31.8390852,3.53654886 32.2085239,3.2647817 C32.5844075,2.97656549 33.0920998,2.8503368 33.5889813,2.92149688 C34.424948,3.10440333 34.9952183,3.76826611 34.9528067,4.50918919 L34.9528067,12.9339709 C34.9528067,13.7238836 35.6975052,14.3643243 36.6160083,14.3643243 L59.9008316,14.3643243 C60.8193347,14.3643243 61.5640333,15.0047651 61.5640333,15.7946778 L61.5640333,21.5160915 C61.5640333,22.3060042 62.3087318,22.9464449 63.2272349,22.9464449 L68.2168399,22.9464449 L68.2168399,25.8071518 L61.5640333,25.8071518 C59.7268191,25.8071518 58.2376299,24.5264491 58.2376299,22.9464449 L58.2376299,17.2250312 L54.9112266,17.2250312 L54.9112266,25.8071518 L44.9320166,25.8071518 L44.9320166,18.6553846 C44.9320166,17.8654719 44.1873181,17.2250312 43.268815,17.2250312 L34.9528067,17.2250312 Z M68.2168399,28.6678586 L68.2168399,42.5422869 L67.9507277,42.1846985 C67.64158,41.7808025 67.1158004,41.5387152 66.5536383,41.5410395 L63.2272349,41.5410395 C62.4819127,41.507605 61.8018711,41.9052432 61.5640333,42.5136798 L60.333264,45.6890644 L58.2376299,43.8153015 L58.2376299,27.8954678 C59.2482328,28.3996674 60.3956341,28.6660707 61.5640333,28.6678586 L68.2168399,28.6678586 L68.2168399,28.6678586 Z M48.25842,31.5285655 L48.25842,44.4017464 C48.2559252,44.7818628 48.4295218,45.1473181 48.7407484,45.4172973 L49.2397089,45.8320998 L44.9320166,45.8320998 L44.9320166,28.6678586 L54.9112266,28.6678586 L54.9112266,44.4017464 C54.9087318,44.7818628 55.0823285,45.1473181 55.3935551,45.4172973 L55.8925156,45.8320998 L53.9299376,45.8320998 L51.5848233,43.8153015 L51.5848233,31.5285655 L48.25842,31.5285655 L48.25842,31.5285655 Z M5.01517672,83.021289 L15.8259875,70.1481081 L25.8051975,70.1481081 L31.9756757,78.0865696 L34.7365904,76.5131809 L28.0837838,67.9310603 C27.7650728,67.5141123 27.216632,67.270237 26.6367983,67.2874012 L18.1544699,67.2874012 L24.1586279,60.1356341 L40.6409563,60.1356341 L46.8114345,69.4329314 C47.1097713,69.8772349 47.6619543,70.1500748 48.25842,70.1481081 L57.256341,70.1481081 L65.4226611,83.021289 L5.01517672,83.021289 L5.01517672,83.021289 Z M69.264657,83.021289 L63.8259875,74.4391684 L70.7116424,74.4391684 L75.2022869,79.5884407 L77.8634096,77.8720166 L72.8738046,72.1506029 C72.5596674,71.7905114 72.066736,71.5784615 71.5432432,71.5784615 L61.9465696,71.5784615 L59.7012474,68.031185 C59.4087318,67.5713264 58.8471933,67.2859709 58.2376299,67.2874012 L49.2230769,67.2874012 L43.0525988,57.990104 C42.754262,57.5458004 42.202079,57.2729605 41.6056133,57.2749272 L33.289605,57.2749272 L40.7740125,48.6928067 L61.5640333,48.6928067 C62.3093555,48.7262412 62.9893971,48.3286029 63.2272349,47.7201663 L64.4247401,44.4017464 L65.6555094,44.4017464 L95.0775468,83.021289 L69.264657,83.021289 Z" id="Shape"></path>
                            <path d="M18.32079,20.085738 C17.5259875,20.0853805 16.7357588,20.186578 15.9756757,20.3861123 C14.2600832,19.2613181 12.1619543,18.6532391 10.0047817,18.6553846 C4.49334719,18.6553846 0.0255717256,22.4976715 0.0255717256,27.2375052 L0.0255717256,28.6678586 L26.6367983,28.6678586 L26.6367983,27.2375052 C26.6367983,23.287763 22.9137214,20.085738 18.32079,20.085738 Z M3.56819127,25.8071518 C4.32619543,23.282578 6.97297297,21.5180582 10.0047817,21.5160915 C11.6798337,21.5246736 13.2893971,22.0762536 14.5120582,23.0608732 L15.310395,23.6902287 L16.308316,23.3183368 C18.8426195,22.3875343 21.7744283,23.3996881 22.8567568,25.5791892 C22.8939709,25.6542827 22.9288981,25.7304491 22.9611227,25.8071518 L3.56819127,25.8071518 L3.56819127,25.8071518 Z" id="Shape"></path>
                            <path d="M91.5016632,31.5285655 C91.1399168,31.531605 90.7785863,31.5555634 90.4205821,31.6000832 C88.7858628,30.6206486 86.8411642,30.0964241 84.8488565,30.0982121 C79.337422,30.0982121 74.8696466,33.940499 74.8696466,38.6803326 L74.8696466,40.1106861 L99.8176715,40.1106861 L99.8176715,38.6803326 C99.8176715,34.7305904 96.0945946,31.5285655 91.5016632,31.5285655 Z M78.4122661,37.2499792 C79.354262,34.195817 82.9968815,32.3764075 86.5482328,33.1865239 C87.4316008,33.3880249 88.2571726,33.7438254 88.9735967,34.2319335 L89.6056133,34.6610395 L90.3873181,34.5037006 C90.7532225,34.4328981 91.1266112,34.3946362 91.5016632,34.3892723 C93.6170478,34.3883784 95.5033264,35.5346279 96.2085239,37.2499792 L78.4122661,37.2499792 L78.4122661,37.2499792 Z" id="Shape"></path>
                            <path d="M23.310395,35.8196258 C18.7176715,35.8196258 14.9943867,39.0216507 14.9943867,42.9713929 L14.9943867,44.4017464 L31.6264033,44.4017464 L31.6264033,42.9713929 C31.6264033,39.0216507 27.9033264,35.8196258 23.310395,35.8196258 Z M18.6035343,41.5410395 C19.5180873,39.3053971 22.366736,38.1307193 24.9661123,38.9170561 C26.3931393,39.3486653 27.5151767,40.3137963 28.0172557,41.5410395 L18.6035343,41.5410395 Z" id="Shape"></path>
                        </g>
                    </g>
                </g>
            </g>
        </g>
    </g>
</svg>