<?xml version="1.0" encoding="UTF-8"?>
<svg width="101px" height="101px" viewBox="0 0 101 101" version="1.1" xmlns="http://www.w3.org/2000/svg" xmlns:xlink="http://www.w3.org/1999/xlink">
    <!-- Generator: Sketch 43.1 (39012) - http://www.bohemiancoding.com/sketch -->
    <title>growth</title>
    <desc>Created with Sketch.</desc>
    <defs></defs>
    <g id="Page-1" stroke="none" stroke-width="1" fill="none" fill-rule="evenodd">
        <g id="Careers" transform="translate(-830.000000, -4421.000000)" fill-rule="nonzero" fill="#3289C7">
            <g id="Group-3-Copy-10" transform="translate(720.000000, 4370.000000)">
                <g id="Group-9">
                    <g id="growth" transform="translate(110.000000, 51.000000)">
                        <path d="M17.3291934,55.2548906 C17.3291934,60.7445957 19.328875,66.3039355 22.8153477,70.507666 C26.4817266,74.9281914 31.2679824,77.3628438 36.2921406,77.3628438 C41.315707,77.3628438 46.0960449,74.9295723 49.7529551,70.5114141 C53.2279863,66.3128125 55.2209609,60.7556426 55.2209609,55.2645566 L55.2209609,55.2363477 C55.2209609,54.3648281 54.5143555,53.6582227 53.6428359,53.6582227 C52.7713164,53.6582227 52.0647109,54.3648281 52.0647109,55.2363477 L52.0647109,55.2645566 C52.0647109,60.0332559 50.335875,64.8567949 47.321459,68.4989102 C44.2752832,72.1794922 40.3581797,74.2065938 36.2921406,74.2065938 C32.2239316,74.2065938 28.3005156,72.1773223 25.2446738,68.4927949 C22.22,64.8459453 20.4854434,60.0208281 20.4854434,55.2548906 L20.4854434,53.362127 C20.4854434,49.458043 23.1076953,44.1506113 24.1019141,42.2783633 C30.4367051,41.551834 36.5454297,41.8205098 42.2698809,43.0839961 C42.3844922,43.1092461 42.4989063,43.1212793 42.6115449,43.1212793 C43.335707,43.1212793 43.988459,42.6194355 44.1510059,41.883043 C44.3388027,41.0320391 43.8012539,40.1897148 42.9500527,40.001918 C36.6704961,38.6159297 29.97175,38.3555391 23.0378633,39.2254805 C22.5194492,39.2501387 22.023918,39.5284805 21.7451816,40.0111895 C21.6441816,40.1859668 20.2708184,42.5839277 19.0820957,45.6508164 C18.5425742,42.7281289 18.0480293,39.4412891 18.0480293,37.211793 C18.0480293,31.6907227 21.5433789,29.2193789 25.0075605,29.2193789 C25.1219746,29.2193789 25.2332324,29.2065566 25.3405449,29.1834766 C25.4492383,29.2067539 25.5601016,29.2195762 25.6713594,29.2195762 C26.0039492,29.2195762 26.339498,29.1148281 26.6247441,28.8980332 C30.085375,26.2694688 34.7086895,26.6119219 39.1893809,27.3735645 C40.0486699,27.5197383 40.8637715,26.9415527 41.009748,26.0822637 C41.1559219,25.2229746 40.5777363,24.4080703 39.7184473,24.2618965 C34.9450137,23.450543 29.5097539,23.046543 25.1491973,26.0702305 C25.1024453,26.0660879 25.0554961,26.0631289 25.0075605,26.0631289 C22.012082,26.0631289 19.3525469,27.2601367 17.5187656,29.4336094 C15.8248457,31.4413789 14.8917793,34.2036895 14.8917793,37.211793 C14.8917793,42.138502 16.9875293,51.2432969 17.3287988,52.6933965 L17.3287988,55.2548906 L17.3291934,55.2548906 Z" id="Shape"></path>
                        <path d="M63.4708066,80.856418 C63.436877,80.8469492 63.4025527,80.8386641 63.3680312,80.8313652 L53.9787793,78.8673887 L51.4965859,75.1033633 C51.4790293,75.0767324 51.4606836,75.0506934 51.4415488,75.0252461 C50.9902051,74.4233887 50.3031289,74.0264902 49.5562812,73.935748 C48.8102227,73.8454004 48.0473965,74.0663379 47.4650684,74.5427344 C47.4550078,74.5510195 47.44475,74.559502 47.4348867,74.5681816 L36.2708359,84.1781738 L25.1069824,74.5681816 C25.0969219,74.5596992 25.0868613,74.5512168 25.0768008,74.5427344 C24.4944727,74.0663379 23.7326328,73.8450059 22.9855879,73.935748 C22.2387402,74.0264902 21.5516641,74.4235859 21.1003203,75.0252461 C21.0811855,75.0506934 21.0628398,75.0767324 21.0452832,75.1033633 L18.5630898,78.8673887 L9.17383789,80.8313652 C9.13931641,80.8386641 9.10499219,80.8469492 9.0710625,80.856418 C6.34090625,81.6212168 4.01830078,83.3139531 2.3539707,85.7515645 C0.836011719,87.9753398 0,90.6597305 0,93.3103887 L0,96.2774609 C0,98.8803809 2.31787109,100.998225 5.16697852,100.998225 L32.6776426,100.998225 C32.6796152,100.998225 32.6815879,100.998422 32.6835605,100.998422 C32.6857305,100.998422 32.6879004,100.998225 32.6900703,100.998225 L39.8514043,100.998225 C39.8535742,100.998225 39.8557441,100.998422 39.8579141,100.998422 C39.8598867,100.998422 39.8618594,100.998225 39.863832,100.998225 L67.3746934,100.998225 C70.2238008,100.998225 72.5416719,98.8805781 72.5416719,96.2774609 L72.5416719,93.3103887 C72.5416719,90.6597305 71.7056602,87.9753398 70.1875039,85.7517617 C68.5235684,83.3141504 66.2009629,81.6214141 63.4708066,80.856418 Z M49.1408398,77.2644082 L51.0998848,80.2352285 L43.2587734,91.016584 L38.5892988,86.3473066 L49.1408398,77.2644082 Z M35.2357832,94.6985469 L37.3062832,94.6985469 L37.9349687,97.8419746 L34.6070977,97.8419746 L35.2357832,94.6985469 Z M37.8491582,90.6776816 C37.8491582,91.1972793 37.5325469,91.5420996 37.3230508,91.5420996 L35.2188184,91.5420996 C35.0093223,91.5420996 34.6927109,91.1972793 34.6927109,90.6776816 L34.6927109,90.0703008 L36.2708359,88.4921758 L37.8489609,90.0703008 L37.8489609,90.6776816 L37.8491582,90.6776816 Z M23.4012266,77.2644082 L33.9525703,86.3471094 L29.283293,91.0163867 L21.4421816,80.2350312 L23.4012266,77.2644082 Z M3.15625,96.2774609 L3.15625,93.3103887 C3.15625,89.5875918 5.46346875,85.1727871 9.87413086,83.909498 L18.8469551,82.0327129 L27.8170176,94.3665488 C28.0884551,94.7399727 28.5096172,94.9755078 28.9698379,95.0118047 C29.0110664,95.0151582 29.0522949,95.0165391 29.0933262,95.0165391 C29.5101484,95.0165391 29.9119785,94.8514277 30.2090605,94.5543457 L32.0491543,92.7140547 C32.1325977,92.8683164 32.2243262,93.0160684 32.3253262,93.1563242 L31.3883145,97.8417773 L5.16697852,97.8417773 C4.07708594,97.8417773 3.15625,97.1253086 3.15625,96.2774609 Z M69.3858164,96.2774609 C69.3858164,97.1255059 68.4649805,97.8419746 67.3750879,97.8419746 L41.1535547,97.8419746 L40.216543,93.1565215 C40.317543,93.0164629 40.4092715,92.8685137 40.4927148,92.714252 L42.3330059,94.554543 C42.6300879,94.851625 43.031918,95.0167363 43.4487402,95.0167363 C43.4897715,95.0167363 43.531,95.0151582 43.5722285,95.012002 C44.0324492,94.9759023 44.4536113,94.7401699 44.7250488,94.3667461 L53.6951113,82.0329102 L62.6679355,83.9096953 C67.0784004,85.1729844 69.3858164,89.5877891 69.3858164,93.3105859 L69.3858164,96.2774609 Z" id="Shape"></path>
                        <path d="M72.59375,0.00177539062 C56.9304648,0.00177539062 44.1875,12.7447402 44.1875,28.4080254 C44.1875,44.0713105 56.9304648,56.8142754 72.59375,56.8142754 C88.2570352,56.8142754 101,44.0713105 101,28.4080254 C101,12.7447402 88.2570352,0.00177539062 72.59375,0.00177539062 Z M72.59375,53.6580254 C58.6707422,53.6580254 47.34375,42.3308359 47.34375,28.4080254 C47.34375,14.4852148 58.6707422,3.15802539 72.59375,3.15802539 C86.5167578,3.15802539 97.84375,14.4852148 97.84375,28.4080254 C97.84375,42.3308359 86.5167578,53.6580254 72.59375,53.6580254 Z" id="Shape"></path>
                        <path d="M89.9452344,15.6269883 C89.9430645,15.6045 89.9387246,15.5826035 89.9355684,15.5605098 C89.9314258,15.531709 89.9280723,15.5029082 89.9223516,15.4743047 C89.9172227,15.4482656 89.9101211,15.4230156 89.9036113,15.3975684 C89.8974961,15.3731074 89.8921699,15.3486465 89.8848711,15.3245801 C89.8771777,15.2995273 89.867709,15.2752637 89.8590293,15.2506055 C89.8505469,15.2267363 89.8426562,15.2024727 89.832793,15.178998 C89.823127,15.1557207 89.8118828,15.133627 89.8012305,15.1109414 C89.7899863,15.086875 89.779334,15.0626113 89.766709,15.0391367 C89.754873,15.017043 89.741459,14.9961328 89.7286367,14.9746309 C89.7150254,14.9519453 89.7022031,14.9290625 89.6874082,14.9069688 C89.6712324,14.8829023 89.6532812,14.8602168 89.6359219,14.8369395 C89.6223105,14.8189883 89.6098828,14.8004453 89.5954824,14.7828887 C89.5293984,14.7024043 89.4556211,14.6284297 89.3749395,14.5623457 C89.3573828,14.5479453 89.3388398,14.5355176 89.3208887,14.5219063 C89.2978086,14.5045469 89.2749258,14.4865957 89.2508594,14.4704199 C89.2287656,14.455625 89.2058828,14.4428027 89.1833945,14.4293887 C89.1618926,14.4165664 89.1407852,14.4029551 89.1186914,14.3911191 C89.0952168,14.3786914 89.0709531,14.3678418 89.047084,14.3565977 C89.0243984,14.3459453 89.0021074,14.3345039 88.9788301,14.3248379 C88.9551582,14.3151719 88.9310918,14.3072813 88.9072227,14.2986016 C88.8825645,14.2897246 88.8583008,14.2802559 88.833248,14.2727598 C88.8091816,14.2654609 88.7845234,14.2601348 88.7600625,14.2540195 C88.7346152,14.247707 88.7093652,14.2404082 88.6833262,14.2352793 C88.6549199,14.2295586 88.6261191,14.2262051 88.5975156,14.2222598 C88.5752246,14.2191035 88.5533281,14.2147637 88.5308398,14.2125938 C88.4787617,14.2074648 88.4266836,14.2047031 88.3744082,14.2047031 L78.90625,14.2047031 C78.0347305,14.2047031 77.328125,14.9113086 77.328125,15.7828281 C77.328125,16.6543477 78.0347305,17.3609531 78.90625,17.3609531 L84.565209,17.3609531 L72.59375,29.3324121 L68.9753066,25.7137715 C68.3590488,25.0975137 67.3598984,25.0975137 66.7436406,25.7137715 L54.1186406,38.3387715 C53.5021855,38.9552266 53.5021855,39.954377 54.1186406,40.5706348 C54.4267695,40.8787637 54.8305723,41.0328281 55.2345723,41.0328281 C55.6385723,41.0328281 56.042375,40.8787637 56.3505039,40.5706348 L67.859375,29.0615664 L71.4778184,32.680207 C71.7090137,32.9112051 71.9938652,33.0556035 72.2923281,33.1134023 C72.39175,33.1327344 72.49275,33.1422031 72.59375,33.1422031 C72.69475,33.1422031 72.79575,33.1325371 72.8951719,33.1134023 C73.1936348,33.0556035 73.4784863,32.9112051 73.7096816,32.680207 C73.7098789,32.6800098 73.7100762,32.6798125 73.7100762,32.6796152 L86.796875,19.5928164 L86.796875,25.2517754 C86.796875,26.1232949 87.5034805,26.8299004 88.375,26.8299004 C89.2465195,26.8299004 89.953125,26.1232949 89.953125,25.2517754 L89.953125,15.7834199 C89.953125,15.7313418 89.9503633,15.6790664 89.9452344,15.6269883 Z" id="Shape"></path>
                    </g>
                </g>
            </g>
        </g>
    </g>
</svg>