<?xml version="1.0" encoding="UTF-8"?>
<svg width="340px" height="246px" viewBox="0 0 340 246" version="1.1" xmlns="http://www.w3.org/2000/svg" xmlns:xlink="http://www.w3.org/1999/xlink">
    <!-- Generator: Sketch 43.1 (39012) - http://www.bohemiancoding.com/sketch -->
    <title>Group 9</title>
    <desc>Created with Sketch.</desc>
    <defs>
        <rect id="path-1" x="0" y="241" width="340" height="5"></rect>
    </defs>
    <g id="Page-1" stroke="none" stroke-width="1" fill="none" fill-rule="evenodd">
        <g id="HomeBuying-Copy" transform="translate(-335.000000, -1584.000000)">
            <g id="Group-9" transform="translate(335.000000, 1584.000000)">
                <g id="House3-Copy" transform="translate(16.000000, 0.000000)" fill="#358FCA">
                    <path d="M216.94091,190.379401 L1.19922995,190.379401 C0.536800194,190.379401 0.00166086534,189.84175 0.00166086534,189.179426 C0.00166086534,188.517102 0.536800194,187.97945 1.19922995,187.97945 L216.94091,187.97945 C217.60334,187.97945 218.141077,188.517102 218.141077,189.179426 C218.141077,189.84175 217.60334,190.379401 216.94091,190.379401" id="Fill-315"></path>
                    <path d="M198.065559,196.615636 L20.0745812,196.615636 C19.4121515,196.615636 18.8744144,196.077984 18.8744144,195.41566 C18.8744144,194.753336 19.4121515,194.215685 20.0745812,194.215685 L198.065559,194.215685 C198.730586,194.215685 199.265726,194.753336 199.265726,195.41566 C199.265726,196.077984 198.730586,196.615636 198.065559,196.615636" id="Fill-316"></path>
                    <path d="M99.5739448,166.712357 L118.568793,166.712357 L118.568793,126.443059 L99.5739448,126.443059 L99.5739448,166.712357 Z M119.527368,168.631798 L98.6127722,168.631798 C98.0828284,168.631798 97.6541974,168.203236 97.6541974,167.673376 L97.6541974,125.48204 C97.6541974,124.954779 98.0828284,124.523619 98.6127722,124.523619 L119.527368,124.523619 C120.057312,124.523619 120.488541,124.954779 120.488541,125.48204 L120.488541,167.673376 C120.488541,168.203236 120.057312,168.631798 119.527368,168.631798 L119.527368,168.631798 Z" id="Fill-317"></path>
                    <path d="M103.525143,148.151702 C103.525143,149.021814 102.821149,149.728293 101.950899,149.728293 C101.080648,149.728293 100.376654,149.021814 100.376654,148.151702 C100.376654,147.28159 101.080648,146.577708 101.950899,146.577708 C102.821149,146.577708 103.525143,147.28159 103.525143,148.151702" id="Fill-318"></path>
                    <path d="M192.844054,168.631798 L25.2986841,168.631798 C24.7687403,168.631798 24.3375115,168.203236 24.3375115,167.673376 L24.3375115,109.986257 L26.2572589,109.986257 L26.2572589,166.712357 L191.882881,166.712357 L191.882881,109.986257 L193.802629,109.986257 L193.802629,167.673376 C193.802629,168.203236 193.373998,168.631798 192.844054,168.631798" id="Fill-319"></path>
                    <path d="M12.644977,103.446132 L205.497761,103.446132 L198.720195,94.0229501 L19.4199448,94.0229501 L12.644977,103.446132 Z M207.370749,105.362976 L10.7719893,105.362976 C10.4109001,105.362976 10.0809842,105.16298 9.91732504,104.840908 C9.75366592,104.521434 9.78224132,104.137027 9.99266018,103.843526 L18.1496383,92.503501 C18.3314818,92.2541555 18.6198335,92.1035092 18.9289674,92.1035092 L199.211173,92.1035092 C199.520307,92.1035092 199.811256,92.2541555 199.990502,92.503501 L208.14748,103.843526 C208.357899,104.137027 208.389072,104.521434 208.222815,104.840908 C208.059156,105.16298 207.72924,105.362976 207.370749,105.362976 L207.370749,105.362976 Z" id="Fill-320"></path>
                    <path d="M143.821654,146.302389 L182.728362,146.302389 L182.728362,128.718337 L143.821654,128.718337 L143.821654,146.302389 Z M183.686937,148.22183 L142.860482,148.22183 C142.330538,148.22183 141.901907,147.79067 141.901907,147.260811 L141.901907,127.759915 C141.901907,127.230056 142.330538,126.798896 142.860482,126.798896 L183.686937,126.798896 C184.216881,126.798896 184.648109,127.230056 184.648109,127.759915 L184.648109,147.260811 C184.648109,147.79067 184.216881,148.22183 183.686937,148.22183 L183.686937,148.22183 Z" id="Fill-321"></path>
                    <path d="M154.807597,146.302389 L171.739821,146.302389 L171.739821,128.718337 L154.807597,128.718337 L154.807597,146.302389 Z M172.700994,148.22183 L153.849022,148.22183 C153.319079,148.22183 152.890448,147.79067 152.890448,147.260811 L152.890448,127.759915 C152.890448,127.230056 153.319079,126.798896 153.849022,126.798896 L172.700994,126.798896 C173.230938,126.798896 173.659569,127.230056 173.659569,127.759915 L173.659569,147.260811 C173.659569,147.79067 173.230938,148.22183 172.700994,148.22183 L172.700994,148.22183 Z" id="Fill-322"></path>
                    <path d="M35.4117783,146.302389 L74.3184858,146.302389 L74.3184858,128.718337 L35.4117783,128.718337 L35.4117783,146.302389 Z M75.2796583,148.22183 L34.4532035,148.22183 C33.9232597,148.22183 33.4946287,147.79067 33.4946287,147.260811 L33.4946287,127.759915 C33.4946287,127.230056 33.9232597,126.798896 34.4532035,126.798896 L75.2796583,126.798896 C75.8096021,126.798896 76.2408309,127.230056 76.2408309,127.759915 L76.2408309,147.260811 C76.2408309,147.79067 75.8096021,148.22183 75.2796583,148.22183 L75.2796583,148.22183 Z" id="Fill-323"></path>
                    <path d="M46.4003189,146.302389 L63.3325429,146.302389 L63.3325429,128.718337 L46.4003189,128.718337 L46.4003189,146.302389 Z M64.2937155,148.22183 L45.4417441,148.22183 C44.9118003,148.22183 44.4805715,147.79067 44.4805715,147.260811 L44.4805715,127.759915 C44.4805715,127.230056 44.9118003,126.798896 45.4417441,126.798896 L64.2937155,126.798896 C64.8236593,126.798896 65.2522903,127.230056 65.2522903,127.759915 L65.2522903,147.260811 C65.2522903,147.79067 64.8236593,148.22183 64.2937155,148.22183 L64.2937155,148.22183 Z" id="Fill-324"></path>
                    <path d="M11.7305641,109.347309 L206.409576,109.347309 L206.409576,105.362976 L11.7305641,105.362976 L11.7305641,109.347309 Z M207.370749,111.26675 L10.7719893,111.26675 C10.2420455,111.26675 9.81081672,110.838187 9.81081672,110.308328 L9.81081672,104.404554 C9.81081672,103.874695 10.2420455,103.446132 10.7719893,103.446132 L207.370749,103.446132 C207.900692,103.446132 208.329323,103.874695 208.329323,104.404554 L208.329323,110.308328 C208.329323,110.838187 207.900692,111.26675 207.370749,111.26675 L207.370749,111.26675 Z" id="Fill-325"></path>
                    <path d="M25.0233211,29.8112898 C24.9168128,29.8112898 24.8077068,29.7931084 24.6986007,29.7541481 C24.19983,29.574931 23.9426514,29.0242931 24.1218971,28.5256021 L33.4946287,2.47159493 C33.6323102,2.09238199 33.9933993,1.83784179 34.3986505,1.83784179 L59.2670427,1.83784179 C59.7969865,1.83784179 60.2282153,2.26640437 60.2282153,2.79626355 C60.2282153,3.32612273 59.7969865,3.75728266 59.2670427,3.75728266 L35.074069,3.75728266 L25.9273429,29.1749393 C25.7870637,29.567139 25.4181812,29.8112898 25.0233211,29.8112898" id="Fill-326"></path>
                    <path d="M152.144889,3.75728266 L66.2160607,3.75728266 C65.6861169,3.75728266 65.2574859,3.32612273 65.2574859,2.79626355 C65.2574859,2.26640437 65.6861169,1.83784179 66.2160607,1.83784179 L152.144889,1.83784179 C152.674833,1.83784179 153.103464,2.26640437 153.103464,2.79626355 C153.103464,3.32612273 152.674833,3.75728266 152.144889,3.75728266" id="Fill-327"></path>
                    <path d="M193.116819,29.8112898 C192.724557,29.8112898 192.355674,29.567139 192.212797,29.1749393 L183.068669,3.75728266 L158.304187,3.75728266 C157.774243,3.75728266 157.345612,3.32612273 157.345612,2.79626355 C157.345612,2.26640437 157.774243,1.83784179 158.304187,1.83784179 L183.744088,1.83784179 C184.149339,1.83784179 184.510428,2.09238199 184.645512,2.47159493 L194.020841,28.5256021 C194.200087,29.0242931 193.94031,29.574931 193.44154,29.7541481 C193.335031,29.7931084 193.225925,29.8112898 193.116819,29.8112898" id="Fill-328"></path>
                    <polygon id="Fill-329" points="101.576821 30.9281498 116.565917 30.9281498 116.565917 29.008709 101.576821 29.008709"></polygon>
                    <path d="M13.1385521,167.587664 L15.3778244,167.587664 L15.3778244,111.26675 L13.1385521,111.26675 L13.1385521,167.587664 Z M16.338997,169.507105 L12.1799772,169.507105 C11.6500334,169.507105 11.2188047,169.078542 11.2188047,168.548683 L11.2188047,110.308328 C11.2188047,109.778469 11.6500334,109.347309 12.1799772,109.347309 L16.338997,109.347309 C16.8689408,109.347309 17.2975718,109.778469 17.2975718,110.308328 L17.2975718,168.548683 C17.2975718,169.078542 16.8689408,169.507105 16.338997,169.507105 L16.338997,169.507105 Z" id="Fill-330"></path>
                    <path d="M200.920501,167.587664 L203.159774,167.587664 L203.159774,111.26675 L200.920501,111.26675 L200.920501,167.587664 Z M204.118348,169.507105 L199.961926,169.507105 C199.429385,169.507105 199.000754,169.078542 199.000754,168.548683 L199.000754,110.308328 C199.000754,109.778469 199.429385,109.347309 199.961926,109.347309 L204.118348,109.347309 C204.648292,109.347309 205.079521,109.778469 205.079521,110.308328 L205.079521,168.548683 C205.079521,169.078542 204.648292,169.507105 204.118348,169.507105 L204.118348,169.507105 Z" id="Fill-331"></path>
                    <path d="M126.933592,167.587664 L129.172865,167.587664 L129.172865,111.26675 L126.933592,111.26675 L126.933592,167.587664 Z M130.13144,169.507105 L125.97242,169.507105 C125.442476,169.507105 125.013845,169.078542 125.013845,168.548683 L125.013845,110.308328 C125.013845,109.778469 125.442476,109.347309 125.97242,109.347309 L130.13144,109.347309 C130.661383,109.347309 131.092612,109.778469 131.092612,110.308328 L131.092612,168.548683 C131.092612,169.078542 130.661383,169.507105 130.13144,169.507105 L130.13144,169.507105 Z" id="Fill-332"></path>
                    <path d="M88.9698732,167.587664 L91.2091456,167.587664 L91.2091456,111.26675 L88.9698732,111.26675 L88.9698732,167.587664 Z M92.1677204,169.507105 L88.0087006,169.507105 C87.4787568,169.507105 87.0501258,169.078542 87.0501258,168.548683 L87.0501258,110.308328 C87.0501258,109.778469 87.4787568,109.347309 88.0087006,109.347309 L92.1677204,109.347309 C92.6976642,109.347309 93.128893,109.778469 93.128893,110.308328 L93.128893,168.548683 C93.128893,169.078542 92.6976642,169.507105 92.1677204,169.507105 L92.1677204,169.507105 Z" id="Fill-333"></path>
                    <path d="M205.079521,173.397933 L203.159774,173.397933 L203.159774,169.507105 L13.1385521,169.507105 L13.1385521,173.397933 L11.2188047,173.397933 L11.2188047,168.548683 C11.2188047,168.018824 11.6500334,167.587664 12.1799772,167.587664 L204.118348,167.587664 C204.648292,167.587664 205.079521,168.018824 205.079521,168.548683 L205.079521,173.397933" id="Fill-334"></path>
                    <path d="M205.079521,189.179426 L203.159774,189.179426 L203.159774,174.356355 L128.053229,174.356355 L128.053229,172.436914 L204.118348,172.436914 C204.648292,172.436914 205.079521,172.868074 205.079521,173.397933 L205.079521,189.179426" id="Fill-335"></path>
                    <path d="M13.1385521,189.179426 L11.2188047,189.179426 L11.2188047,173.397933 C11.2188047,172.868074 11.6500334,172.436914 12.1799772,172.436914 L90.4220231,172.436914 L90.4220231,174.356355 L13.1385521,174.356355 L13.1385521,189.179426" id="Fill-336"></path>
                    <polygon id="Fill-337" points="16.338997 152.538624 88.0112984 152.538624 88.0112984 150.619183 16.338997 150.619183"></polygon>
                    <polygon id="Fill-338" points="129.505379 152.538624 200.439915 152.538624 200.439915 150.619183 129.505379 150.619183"></polygon>
                    <polygon id="Fill-339" points="82.5585923 167.673376 84.4783397 167.673376 84.4783397 151.580202 82.5585923 151.580202"></polygon>
                    <polygon id="Fill-340" points="74.8588206 167.673376 76.778568 167.673376 76.778568 151.580202 74.8588206 151.580202"></polygon>
                    <polygon id="Fill-341" points="67.1616467 167.673376 69.0813941 167.673376 69.0813941 151.580202 67.1616467 151.580202"></polygon>
                    <polygon id="Fill-342" points="59.4644727 167.673376 61.3842201 167.673376 61.3842201 151.580202 59.4644727 151.580202"></polygon>
                    <polygon id="Fill-343" points="51.7672988 167.673376 53.6870462 167.673376 53.6870462 151.580202 51.7672988 151.580202"></polygon>
                    <polygon id="Fill-344" points="44.0701248 167.673376 45.9898722 167.673376 45.9898722 151.580202 44.0701248 151.580202"></polygon>
                    <polygon id="Fill-345" points="36.3729509 167.673376 38.2926983 167.673376 38.2926983 151.580202 36.3729509 151.580202"></polygon>
                    <polygon id="Fill-346" points="28.6731792 167.673376 30.5929266 167.673376 30.5929266 151.580202 28.6731792 151.580202"></polygon>
                    <polygon id="Fill-347" points="20.9760053 167.673376 22.8957526 167.673376 22.8957526 151.580202 20.9760053 151.580202"></polygon>
                    <polygon id="Fill-348" points="195.244388 167.673376 197.164135 167.673376 197.164135 151.580202 195.244388 151.580202"></polygon>
                    <polygon id="Fill-349" points="187.547214 167.673376 189.466961 167.673376 189.466961 151.580202 187.547214 151.580202"></polygon>
                    <polygon id="Fill-350" points="179.85004 167.673376 181.769787 167.673376 181.769787 151.580202 179.85004 151.580202"></polygon>
                    <polygon id="Fill-351" points="172.152866 167.673376 174.072613 167.673376 174.072613 151.580202 172.152866 151.580202"></polygon>
                    <polygon id="Fill-352" points="164.455692 167.673376 166.375439 167.673376 166.375439 151.580202 164.455692 151.580202"></polygon>
                    <polygon id="Fill-353" points="156.758518 167.673376 158.678265 167.673376 158.678265 151.580202 156.758518 151.580202"></polygon>
                    <polygon id="Fill-354" points="149.058746 167.673376 150.978494 167.673376 150.978494 151.580202 149.058746 151.580202"></polygon>
                    <polygon id="Fill-355" points="141.361572 167.673376 143.28132 167.673376 143.28132 151.580202 141.361572 151.580202"></polygon>
                    <polygon id="Fill-356" points="133.664398 167.673376 135.584146 167.673376 135.584146 151.580202 133.664398 151.580202"></polygon>
                    <path d="M86.7435897,188.218406 L131.399148,188.218406 L125.203482,168.631798 L92.9366584,168.631798 L86.7435897,188.218406 Z M132.708421,190.137847 L85.431719,190.137847 C85.1277807,190.137847 84.8394289,189.992396 84.6575854,189.745648 C84.4783397,189.498899 84.4263844,189.182023 84.5173062,188.888522 L91.3182516,167.382473 C91.4455421,166.985079 91.8144245,166.712357 92.2326645,166.712357 L125.907476,166.712357 C126.325716,166.712357 126.697196,166.985079 126.821889,167.382473 L133.622834,188.888522 C133.716354,189.182023 133.664398,189.498899 133.482555,189.745648 C133.303309,189.992396 133.014957,190.137847 132.708421,190.137847 L132.708421,190.137847 Z" id="Fill-357"></path>
                    <polygon id="Fill-358" points="91.1104305 171.933029 127.02971 171.933029 127.02971 170.013588 91.1104305 170.013588"></polygon>
                    <polygon id="Fill-359" points="89.9518279 175.657627 128.188312 175.657627 128.188312 173.738186 89.9518279 173.738186"></polygon>
                    <polygon id="Fill-360" points="88.7932253 179.382225 129.346915 179.382225 129.346915 177.462785 88.7932253 177.462785"></polygon>
                    <polygon id="Fill-361" points="87.6372204 183.106824 130.505518 183.106824 130.505518 181.187383 87.6372204 181.187383"></polygon>
                    <polygon id="Fill-362" points="86.4786178 186.831422 131.66412 186.831422 131.66412 184.911981 86.4786178 184.911981"></polygon>
                    <path d="M39.9864403,85.0517069 L87.0553213,85.0517069 L87.0553213,46.0161498 L39.9864403,46.0161498 L39.9864403,85.0517069 Z M88.0138962,86.9711477 L39.0252677,86.9711477 C38.4953239,86.9711477 38.0666929,86.5425852 38.0666929,86.012726 L38.0666929,45.057728 C38.0666929,44.5278688 38.4953239,44.0967089 39.0252677,44.0967089 L88.0138962,44.0967089 C88.54384,44.0967089 88.972471,44.5278688 88.972471,45.057728 L88.972471,86.012726 C88.972471,86.5425852 88.54384,86.9711477 88.0138962,86.9711477 L88.0138962,86.9711477 Z" id="Fill-363"></path>
                    <path d="M44.0649293,81.5452858 L82.9716368,81.5452858 L82.9716368,49.5225708 L44.0649293,49.5225708 L44.0649293,81.5452858 Z M83.9328093,83.4647267 L43.1063545,83.4647267 C42.5764107,83.4647267 42.1477797,83.0361641 42.1477797,82.5063049 L42.1477797,48.5641491 C42.1477797,48.0342899 42.5764107,47.60313 43.1063545,47.60313 L83.9328093,47.60313 C84.4627531,47.60313 84.8939819,48.0342899 84.8939819,48.5641491 L84.8939819,82.5063049 C84.8939819,83.0361641 84.4627531,83.4647267 83.9328093,83.4647267 L83.9328093,83.4647267 Z" id="Fill-364"></path>
                    <path d="M55.0534699,81.5452858 L71.9856939,81.5452858 L71.9856939,49.5225708 L55.0534699,49.5225708 L55.0534699,81.5452858 Z M72.9468665,83.4647267 L54.0948951,83.4647267 C53.5649513,83.4647267 53.1337225,83.0361641 53.1337225,82.5063049 L53.1337225,48.5641491 C53.1337225,48.0342899 53.5649513,47.60313 54.0948951,47.60313 L72.9468665,47.60313 C73.4768103,47.60313 73.9054413,48.0342899 73.9054413,48.5641491 L73.9054413,82.5063049 C73.9054413,83.0361641 73.4768103,83.4647267 72.9468665,83.4647267 L72.9468665,83.4647267 Z" id="Fill-365"></path>
                    <path d="M131.087417,85.0517069 L178.156298,85.0517069 L178.156298,46.0161498 L131.087417,46.0161498 L131.087417,85.0517069 Z M179.114873,86.9711477 L130.126244,86.9711477 C129.5963,86.9711477 129.167669,86.5425852 129.167669,86.012726 L129.167669,45.057728 C129.167669,44.5278688 129.5963,44.0967089 130.126244,44.0967089 L179.114873,44.0967089 C179.644816,44.0967089 180.076045,44.5278688 180.076045,45.057728 L180.076045,86.012726 C180.076045,86.5425852 179.644816,86.9711477 179.114873,86.9711477 L179.114873,86.9711477 Z" id="Fill-366"></path>
                    <path d="M135.168503,81.5452858 L174.075211,81.5452858 L174.075211,49.5225708 L135.168503,49.5225708 L135.168503,81.5452858 Z M175.033786,83.4647267 L134.207331,83.4647267 C133.677387,83.4647267 133.248756,83.0361641 133.248756,82.5063049 L133.248756,48.5641491 C133.248756,48.0342899 133.677387,47.60313 134.207331,47.60313 L175.033786,47.60313 C175.56373,47.60313 175.994958,48.0342899 175.994958,48.5641491 L175.994958,82.5063049 C175.994958,83.0361641 175.56373,83.4647267 175.033786,83.4647267 L175.033786,83.4647267 Z" id="Fill-367"></path>
                    <path d="M146.154446,81.5452858 L163.08667,81.5452858 L163.08667,49.5225708 L146.154446,49.5225708 L146.154446,81.5452858 Z M164.047843,83.4647267 L145.195871,83.4647267 C144.665928,83.4647267 144.237297,83.0361641 144.237297,82.5063049 L144.237297,48.5641491 C144.237297,48.0342899 144.665928,47.60313 145.195871,47.60313 L164.047843,47.60313 C164.577787,47.60313 165.006418,48.0342899 165.006418,48.5641491 L165.006418,82.5063049 C165.006418,83.0361641 164.577787,83.4647267 164.047843,83.4647267 L164.047843,83.4647267 Z" id="Fill-368"></path>
                    <path d="M62.9169007,6.48190169 L104.309668,38.0942355 C104.642182,38.3487757 105.055226,38.4890326 105.476064,38.4890326 L112.666674,38.4890326 C113.084914,38.4890326 113.500556,38.3487757 113.83307,38.0942355 L155.223239,6.48190169 L195.854862,37.5124294 L198.185056,34.4605444 L156.389635,2.54172336 C155.714217,2.02485092 154.73486,2.02485092 154.059441,2.54172336 L112.017233,34.6501509 L106.122907,34.6501509 L105.865729,34.4527523 L64.0832966,2.54172336 C63.4078781,2.02485092 62.4285211,2.02485092 61.7531026,2.54172336 L19.9576819,34.4605444 L22.2878759,37.5124294 L62.9169007,6.48190169 Z M112.666674,40.4058761 L105.476064,40.4058761 C104.636986,40.4058761 103.810897,40.1279598 103.143272,39.6188794 L62.9169007,8.89743619 L21.9267868,40.2006855 L17.2663986,34.1021102 L60.5867067,1.01707953 C61.2517342,0.507999141 62.0804208,0.227485457 62.9169007,0.227485457 C63.7533807,0.227485457 64.5820673,0.507999141 65.2470948,1.01707953 L106.772348,32.73071 L111.367792,32.73071 L152.893045,1.01707953 C153.560671,0.507999141 154.38676,0.227485457 155.223239,0.227485457 C156.062317,0.227485457 156.888406,0.507999141 157.556031,1.01707953 L200.873742,34.1021102 L196.213353,40.2006855 L155.223239,8.89743619 L114.996868,39.6188794 C114.331841,40.1279598 113.503154,40.4058761 112.666674,40.4058761 L112.666674,40.4058761 Z" id="Fill-369"></path>
                    <path d="M192.844054,93.9684058 L25.2986841,93.9684058 C24.7687403,93.9684058 24.3375115,93.5372458 24.3375115,93.0073867 L24.3375115,36.7617955 L26.2572589,36.7617955 L26.2572589,92.0489649 L191.882881,92.0489649 L191.882881,36.7617955 L193.802629,36.7617955 L193.802629,93.0073867 C193.802629,93.5372458 193.373998,93.9684058 192.844054,93.9684058" id="Fill-370"></path>
                </g>
                <g id="conversation" transform="translate(235.000000, 147.534653)" fill-rule="nonzero" fill="#358FCA">
                    <path d="M25.9447052,66.9900377 C30.1700331,64.1390364 32.9539963,59.3083001 32.9539963,53.8395498 C32.9539963,45.0973662 25.8405327,37.9852467 17.0966967,37.9852467 C8.35286074,37.9852467 1.23939711,45.0973662 1.23939711,53.8395498 C1.23939711,59.3083001 4.02336029,64.1390364 8.24868824,66.9900377 C3.73392294,68.2779153 0.41745324,72.4369595 0.41745324,77.3585436 L0.41745324,96.2401386 C0.41745324,97.1012184 1.11567927,97.7993125 1.97692175,97.7993125 L32.2164717,97.7993125 C33.0777141,97.7993125 33.7759402,97.1012184 33.7759402,96.2401386 L33.7759402,77.3585436 C33.7759402,72.4369595 30.4596784,68.2779153 25.9447052,66.9900377 Z M20.6924152,71.8505022 L18.7983887,69.693853 L22.5864417,69.693853 L20.6924152,71.8505022 Z M14.6477074,69.693853 L18.4062344,73.9732654 L14.8878655,76.597251 L13.1915796,69.693853 L14.6477074,69.693853 Z M26.1403665,70.3734449 C26.3387309,70.4632533 26.5327288,70.5605457 26.7217363,70.6661538 L26.1667735,76.3509015 L22.978804,73.9732654 L26.1403665,70.3734449 Z M3.21973723,53.8395498 C3.21973723,46.1891085 9.44480946,39.9652126 17.0966967,39.9652126 C24.7485839,39.9652126 30.9736562,46.1891085 30.9736562,53.8395498 C30.9736562,61.4899912 24.7485839,67.7138871 17.0966967,67.7138871 C9.44480946,67.7138871 3.21973723,61.4899912 3.21973723,53.8395498 Z M3.53639026,77.3585436 C3.53639026,73.5402309 6.34384944,70.365753 10.0031943,69.788235 L12.4203705,79.6251666 C12.5451279,80.1328336 12.9158656,80.5440397 13.4080339,80.7207461 C13.5793675,80.7822814 13.7573548,80.8124255 13.9345104,80.8124255 C14.2659495,80.8124255 14.5938537,80.7068174 14.8670726,80.5030854 L19.1329467,77.3215392 L19.1329467,94.6809648 L11.236422,94.6809648 L11.236422,79.2251865 C11.236422,78.3641068 10.5381959,77.6660127 9.67695346,77.6660127 C8.81571099,77.6660127 8.11748496,78.3641068 8.11748496,79.2251865 L8.11748496,94.6809648 L3.53639026,94.6809648 L3.53639026,77.3585436 Z M30.6570032,94.6809648 L22.2520917,94.6809648 L22.2520917,77.3215392 L26.5179658,80.5030854 C26.7920164,80.7074411 27.1199206,80.8124255 27.450528,80.8124255 C27.6640712,80.8124255 27.878862,80.7685607 28.0809691,80.6791681 C28.5955937,80.4517366 28.9478257,79.9646507 29.002511,79.4045955 L29.583673,73.4527092 C30.2646409,74.5973507 30.6572111,75.9326272 30.6572111,77.3585436 L30.6572111,94.6809648 L30.6570032,94.6809648 Z" id="Shape"></path>
                    <path d="M25.7359443,81.7367037 C25.4878849,81.1487912 24.8988216,80.7587899 24.2577761,80.7752132 C23.5770161,80.7926759 22.9775564,81.2631307 22.7941629,81.9175679 C22.6153439,82.555166 22.8779584,83.2640704 23.4300102,83.6307881 C23.9760321,83.993348 24.7148043,83.972559 25.2369144,83.5765288 C25.7937486,83.1536809 26.0102029,82.3838648 25.7359443,81.7367037 C25.6964378,81.6431533 25.7756588,81.8302541 25.7359443,81.7367037 Z" id="Shape"></path>
                    <path d="M16.5392387,50.9376155 C16.2961695,50.3623843 15.7274834,49.9750855 15.0993294,49.9750855 C14.4734627,49.9750855 13.8997863,50.3621764 13.6594202,50.9376155 C13.4032515,51.5510985 13.5795754,52.2886916 14.0865066,52.7194394 C14.6021709,53.1574633 15.3615281,53.2119304 15.9329173,52.8497863 C16.5629426,52.4508457 16.8307553,51.6282256 16.5392387,50.9376155 C16.4997322,50.844273 16.5787452,51.0313738 16.5392387,50.9376155 Z" id="Shape"></path>
                    <path d="M23.8585522,52.1311111 C24.1066116,52.718192 24.6965066,53.1090249 25.3373442,53.0926016 C26.0291244,53.074931 26.6433471,52.5841031 26.81073,51.912411 C26.9600231,51.3130646 26.7313011,50.664864 26.2395487,50.2914939 C25.6993488,49.8815351 24.9302189,49.8732195 24.3823257,50.2727838 C23.8042827,50.6941765 23.5853333,51.4700214 23.8585522,52.1311111 C23.8978508,52.2244537 23.8190456,52.0354818 23.8585522,52.1311111 Z" id="Shape"></path>
                    <path d="M64.083275,36.986336 C64.3381961,37.148698 64.6292969,37.2303987 64.9210215,37.2303987 C65.1788536,37.2303987 65.4368936,37.1665765 65.6710219,37.0381006 C66.1700518,36.7643097 66.48049,36.2404273 66.48049,35.6712249 L66.48049,32.0450023 L68.0671972,32.0450023 C70.7384628,32.0450023 72.9117381,29.8721377 72.9117381,27.2015848 L72.9117381,10.90115 C72.9117381,8.23038921 70.7384628,6.05752456 68.0671972,6.05752456 L51.9115193,6.05752456 L51.9115193,5.41535284 C51.9115193,2.74438413 49.738244,0.571519484 47.0667705,0.571519484 L18.4474044,0.571519484 C15.7759308,0.571519484 13.6026555,2.74459202 13.6026555,5.41535284 L13.6026555,21.7139166 C13.6026555,24.3848853 15.7761388,26.5577499 18.4474044,26.5577499 L20.0339037,26.5577499 L20.0339037,30.1854277 C20.0339037,30.7546301 20.3441339,31.2787204 20.8433718,31.5525113 C21.0775,31.6809872 21.33554,31.7446015 21.5931642,31.7446015 C21.8850967,31.7446015 22.1764055,31.6626929 22.4313266,31.5003309 L30.1883309,26.5577499 L34.6028743,26.5577499 L34.6028743,27.2015848 C34.6028743,29.8723456 36.7761497,32.0450023 39.4472073,32.0450023 L56.3250231,32.0450023 L64.083275,36.986336 Z M29.550356,23.9201395 C29.2354171,23.9201395 28.926874,24.010105 28.6613372,24.1792314 L22.5700914,28.0605395 L22.5700914,25.573918 C22.5700914,24.6605913 21.8294997,23.9201395 20.9160003,23.9201395 L17.5791471,23.9201395 C16.5697104,23.9201395 15.7486195,23.0992038 15.7486195,22.0899578 L15.7486195,4.8024591 C15.7486195,3.79321316 16.5699309,2.97227747 17.5791471,2.97227747 L47.9350277,2.97227747 C48.9442439,2.97227747 49.7655553,3.79343366 49.7655553,4.8024591 L49.7655553,5.48359537 L39.853359,5.48359537 C37.6132785,5.48359537 35.7046778,6.92480827 35.0031226,8.92808539 L22.3806429,8.92808539 C21.4671434,8.92808539 20.7265517,9.66853719 20.7265517,10.581864 C20.7265517,11.4951908 21.4671434,12.2356425 22.3806429,12.2356425 L34.7150902,12.2356425 L34.7150902,15.0007603 L22.3806429,15.0007603 C21.4671434,15.0007603 20.7265517,15.7412121 20.7265517,16.6545389 C20.7265517,17.5678657 21.4671434,18.3083175 22.3806429,18.3083175 L34.7150902,18.3083175 L34.7150902,23.9201395 L29.550356,23.9201395 Z M36.4529346,27.6921155 L36.4529346,10.1018311 C36.4529346,9.07525075 37.2883107,8.24003248 38.3148607,8.24003248 L69.1993194,8.24003248 C70.2260938,8.24003248 71.06147,9.07525075 71.06147,10.1018311 L71.06147,27.6918912 C71.06147,28.7184716 70.2260938,29.5534655 69.1993194,29.5534655 L65.8041875,29.5534655 C64.8745708,29.5534655 64.1213186,30.3067996 64.1213186,31.2360164 L64.1213186,33.7650026 L57.9227515,29.8168408 C57.652595,29.6447719 57.3389082,29.5534655 57.0187144,29.5534655 L38.3150851,29.5534655 C37.2883107,29.5536898 36.4529346,28.7184716 36.4529346,27.6921155 Z" id="Shape"></path>
                    <path d="M43.9756959,17.9095324 L63.5387086,17.9095324 C64.400159,17.9095324 65.0981771,17.2114383 65.0981771,16.3503586 C65.0981771,15.4892789 64.400159,14.7911848 63.5387086,14.7911848 L43.9756959,14.7911848 C43.1142455,14.7911848 42.4162274,15.4892789 42.4162274,16.3503586 C42.4162274,17.2114383 43.1144535,17.9095324 43.9756959,17.9095324 Z" id="Shape"></path>
                    <path d="M65.0981771,22.0752291 C65.0981771,21.2141494 64.400159,20.5160553 63.5387086,20.5160553 L43.9756959,20.5160553 C43.1142455,20.5160553 42.4162274,21.2141494 42.4162274,22.0752291 C42.4162274,22.9363088 43.1142455,23.6344029 43.9756959,23.6344029 L63.5387086,23.6344029 C64.400159,23.6344029 65.0981771,22.9363088 65.0981771,22.0752291 Z" id="Shape"></path>
                    <path d="M76.9607421,66.9900377 C81.1860701,64.1390364 83.9700333,59.3083001 83.9700333,53.8395498 C83.9700333,45.0973662 76.8565697,37.9852467 68.1127337,37.9852467 C59.3688977,37.9852467 52.2552262,45.0973662 52.2552262,53.8395498 C52.2552262,59.3083001 55.0391893,64.1390364 59.2645173,66.9900377 C54.7495441,68.2779153 51.4332823,72.4369595 51.4332823,77.3585436 L51.4332823,96.2401386 C51.4332823,97.1012184 52.1313004,97.7993125 52.9927508,97.7993125 L83.2325086,97.7993125 C84.093959,97.7993125 84.7919771,97.1012184 84.7919771,96.2401386 L84.7919771,77.3585436 C84.7919771,72.4369595 81.4757154,68.2779153 76.9607421,66.9900377 Z M73.6725508,69.693853 C72.4877706,71.5600801 70.4057762,72.7604361 68.1123178,72.7604361 C65.8188595,72.7604361 63.737073,71.5600801 62.5520848,69.693853 L73.6725508,69.693853 Z M54.2357649,53.8395498 C54.2357649,46.1891085 60.4608371,39.9652126 68.1129509,39.9652126 C75.7646116,39.9652126 81.9899104,46.1891085 81.9899104,53.8395498 C81.9899104,61.4899912 75.7648381,67.7138871 68.1129509,67.7138871 C60.4608371,67.7138871 54.2357649,61.4899912 54.2357649,53.8395498 Z M54.5524272,77.3585436 C54.5524272,74.1601584 56.5225558,71.4143493 59.3127568,70.2674211 C60.881998,73.6368996 64.303264,75.8787837 68.1125258,75.8787837 C71.9217875,75.8787837 75.3430535,73.6366918 76.9122947,70.2672132 C79.7027036,71.4141414 81.6732481,74.1601584 81.6732481,77.3585436 L81.6732481,82.892987 L76.2105338,82.892987 L76.2105338,79.2253944 C76.2105338,78.3643147 75.5125157,77.6662206 74.6510653,77.6662206 C73.7896149,77.6662206 73.0915968,78.3643147 73.0915968,79.2253944 L73.0915968,94.6811727 L54.5526352,94.6811727 L54.5526352,77.3585436 L54.5524272,77.3585436 Z M76.2103259,94.6809648 L76.2103259,86.0111268 L81.6730401,86.0111268 L81.6730401,94.6809648 L76.2103259,94.6809648 Z" id="Shape"></path>
                    <path d="M68.669152,52.1311111 C68.9442423,52.7807669 69.6360225,53.1822022 70.3386151,53.0761783 C70.9553329,52.9830437 71.4670465,52.5206967 71.6213299,51.9171925 C71.7833067,51.2837521 71.5161178,50.6010419 70.9750862,50.2372346 C70.3616952,49.8247812 69.5308104,49.9204105 69.0059972,50.4305722 C68.5708016,50.8787827 68.4296177,51.5496432 68.669152,52.1311111 C68.7088665,52.2244537 68.6298534,52.0354818 68.669152,52.1311111 Z" id="Shape"></path>
                    <path d="M61.439664,51.2288692 C61.4022367,51.0288792 61.3171937,50.83866 61.2088626,50.6675666 C60.4220588,49.5164806 58.5783511,49.9220736 58.3695903,51.3053727 C58.179751,52.5618589 59.5722524,53.5210626 60.679475,52.8894933 C61.2564784,52.5601958 61.5727386,51.8828906 61.439664,51.2288692 C61.4209503,51.1290821 61.4602489,51.3307352 61.439664,51.2288692 Z" id="Shape"></path>
                    <path d="M68.4194292,56.8759889 C67.9324591,56.388903 67.1421205,56.388903 66.6553584,56.8759889 C66.2384605,57.2926001 65.6843293,57.5221105 65.0950582,57.5221105 C64.505787,57.5221105 63.9516558,57.2926001 63.5347579,56.8759889 C63.0477879,56.388903 62.2574493,56.388903 61.7706871,56.8759889 C61.2833013,57.3630748 61.2833013,58.1528483 61.7706871,58.6399342 C62.6870308,59.5563127 63.8911485,60.0145019 65.0950582,60.0145019 C66.2989678,60.0145019 67.5030855,59.5563127 68.4194292,58.6399342 C68.906815,58.1528483 68.906815,57.3632827 68.4194292,56.8759889 Z" id="Shape"></path>
                </g>
                <g id="Rectangle-33">
                    <use fill="#358FCA" fill-rule="evenodd" xlink:href="#path-1"></use>
                    <rect stroke="#979797" stroke-width="1" x="0.5" y="241.5" width="339" height="4"></rect>
                </g>
            </g>
        </g>
    </g>
</svg>