<?xml version="1.0" encoding="UTF-8"?>
<svg width="355px" height="411px" viewBox="0 0 355 411" version="1.1" xmlns="http://www.w3.org/2000/svg" xmlns:xlink="http://www.w3.org/1999/xlink">
    <!-- Generator: Sketch 43.1 (39012) - http://www.bohemiancoding.com/sketch -->
    <title>Group 16</title>
    <desc>Created with Sketch.</desc>
    <defs></defs>
    <g id="Page-1" stroke="none" stroke-width="1" fill="none" fill-rule="evenodd">
        <g id="HomeBuying-Copy-2" transform="translate(-188.000000, -288.000000)">
            <g id="Group-16" transform="translate(188.000000, 288.000000)">
                <g id="Group" transform="translate(0.000000, 119.000000)" fill="#358FCA">
                    <g id="House-3">
                        <path d="M352.760481,281.633285 L2.50133616,281.633285 C1.42586075,281.633285 0.552827772,280.759479 0.552827772,279.683051 C0.552827772,278.606623 1.42586075,277.732817 2.50133616,277.732817 L352.760481,277.732817 C353.840174,277.732817 354.708989,278.606623 354.708989,279.683051 C354.708989,280.759479 353.840174,281.633285 352.760481,281.633285" id="Fill-480"></path>
                        <path d="M322.119975,291.768594 L33.1418415,291.768594 C32.0663661,291.768594 31.1975506,290.899009 31.1975506,289.822581 C31.1975506,288.741931 32.0663661,287.872346 33.1418415,287.872346 L322.119975,287.872346 C323.195451,287.872346 324.068484,288.741931 324.068484,289.822581 C324.068484,290.899009 323.195451,291.768594 322.119975,291.768594" id="Fill-481"></path>
                        <polygon id="Fill-482" points="325.578367 280.463989 328.690919 280.463989 328.690919 162.360841 325.578367 162.360841"></polygon>
                        <path d="M325.620542,155.585677 L319.003205,128.210635 L221.383779,128.210635 L221.383779,125.095326 L320.230513,125.095326 C320.947496,125.095326 321.575911,125.584995 321.744613,126.285729 L328.648744,154.851173 L325.620542,155.585677" id="Fill-483"></path>
                        <path d="M29.6412744,155.585677 L26.6130731,154.851173 L33.5172035,126.285729 C33.6859055,125.584995 34.3143205,125.095326 35.0313041,125.095326 L133.869603,125.095326 L133.869603,128.210635 L36.2586114,128.210635 L29.6412744,155.585677" id="Fill-484"></path>
                        <polygon id="Fill-485" points="26.5708976 280.463989 29.68345 280.463989 29.68345 162.360841 26.5708976 162.360841"></polygon>
                        <path d="M335.291386,163.918496 L266.549528,163.918496 L266.549528,160.798966 L333.73511,160.798966 L333.73511,156.77608 L250.767454,156.77608 L250.767454,153.66077 L335.291386,153.66077 C336.151766,153.66077 336.85188,154.357283 336.85188,155.218425 L336.85188,162.360841 C336.85188,163.221984 336.151766,163.918496 335.291386,163.918496" id="Fill-486"></path>
                        <polygon id="Fill-487" points="109.525901 163.918496 246.326373 163.918496 246.326373 160.798966 109.525901 160.798966"></polygon>
                        <path d="M88.4465828,163.918496 L19.9704309,163.918496 C19.1100505,163.918496 18.4141547,163.221984 18.4141547,162.360841 L18.4141547,155.218425 C18.4141547,154.357283 19.1100505,153.66077 19.9704309,153.66077 L104.266615,153.66077 L104.266615,156.77608 L21.5309246,156.77608 L21.5309246,160.798966 L88.4465828,160.798966 L88.4465828,163.918496" id="Fill-488"></path>
                        <polygon id="Fill-489" points="124.801869 156.77608 230.839527 156.77608 230.839527 153.66077 124.801869 153.66077"></polygon>
                        <path d="M194.547504,279.636617 C193.687124,279.636617 192.98701,278.940105 192.98701,278.078962 L192.98701,217.364202 L162.274807,217.364202 L162.274807,278.078962 C162.274807,278.940105 161.574693,279.636617 160.714313,279.636617 C159.853932,279.636617 159.158037,278.940105 159.158037,278.078962 L159.158037,215.802326 C159.158037,214.945405 159.853932,214.244671 160.714313,214.244671 L194.547504,214.244671 C195.407884,214.244671 196.10378,214.945405 196.10378,215.802326 L196.10378,278.078962 C196.10378,278.940105 195.407884,279.636617 194.547504,279.636617" id="Fill-490"></path>
                        <path d="M168.499911,244.836333 C168.499911,246.2378 167.36539,247.377547 165.960946,247.377547 C164.560719,247.377547 163.426198,246.2378 163.426198,244.836333 C163.426198,243.434866 164.560719,242.295118 165.960946,242.295118 C167.36539,242.295118 168.499911,243.434866 168.499911,244.836333" id="Fill-491"></path>
                        <path d="M117.513942,171.981153 L98.872368,171.981153 C98.0119877,171.981153 97.3160918,171.284641 97.3160918,170.423498 L97.3160918,166.85229 L100.432862,166.85229 L100.432862,168.861622 L115.953448,168.861622 L115.953448,163.918496 L108.142544,163.918496 L108.142544,160.798966 L117.513942,160.798966 C118.374322,160.798966 119.070218,161.499699 119.070218,162.360841 L119.070218,170.423498 C119.070218,171.284641 118.374322,171.981153 117.513942,171.981153" id="Fill-492"></path>
                        <path d="M102.988697,177.61657 L113.397612,177.61657 L113.397612,171.981153 L102.988697,171.981153 L102.988697,177.61657 Z M114.953889,180.736101 L101.432421,180.736101 C100.572041,180.736101 99.8719275,180.039588 99.8719275,179.174225 L99.8719275,170.423498 C99.8719275,169.562356 100.572041,168.861622 101.432421,168.861622 L114.953889,168.861622 C115.814269,168.861622 116.510165,169.562356 116.510165,170.423498 L116.510165,179.174225 C116.510165,180.039588 115.814269,180.736101 114.953889,180.736101 L114.953889,180.736101 Z" id="Fill-493"></path>
                        <path d="M113.055991,264.815681 L103.330319,264.815681 C102.469939,264.815681 101.774043,264.119169 101.774043,263.258026 L101.774043,178.714104 L104.890813,178.714104 L104.890813,261.700372 L111.495497,261.700372 L111.495497,178.714104 L114.612267,178.714104 L114.612267,263.258026 C114.612267,264.119169 113.916371,264.815681 113.055991,264.815681" id="Fill-494"></path>
                        <path d="M100.432862,278.112733 L115.953448,278.112733 L115.953448,273.169606 L100.432862,273.169606 L100.432862,278.112733 Z M117.513942,281.232263 L98.872368,281.232263 C98.0119877,281.232263 97.3160918,280.53153 97.3160918,279.670387 L97.3160918,271.60773 C97.3160918,270.746588 98.0119877,270.050076 98.872368,270.050076 L117.513942,270.050076 C118.374322,270.050076 119.070218,270.746588 119.070218,271.60773 L119.070218,279.670387 C119.070218,280.53153 118.374322,281.232263 117.513942,281.232263 L117.513942,281.232263 Z" id="Fill-495"></path>
                        <path d="M102.988697,270.050076 L113.397612,270.050076 L113.397612,264.414659 L102.988697,264.414659 L102.988697,270.050076 Z M114.953889,273.169606 L101.432421,273.169606 C100.572041,273.169606 99.8719275,272.468873 99.8719275,271.60773 L99.8719275,262.852783 C99.8719275,261.995862 100.572041,261.295128 101.432421,261.295128 L114.953889,261.295128 C115.814269,261.295128 116.510165,261.995862 116.510165,262.852783 L116.510165,271.60773 C116.510165,272.468873 115.814269,273.169606 114.953889,273.169606 L114.953889,273.169606 Z" id="Fill-496"></path>
                        <path d="M256.389449,171.981153 L237.752093,171.981153 C236.891712,171.981153 236.191599,171.284641 236.191599,170.423498 L236.191599,162.360841 C236.191599,161.499699 236.891712,160.798966 237.752093,160.798966 L246.326373,160.798966 C247.186753,160.798966 247.886867,161.499699 247.886867,162.360841 C247.886867,163.221984 247.186753,163.918496 246.326373,163.918496 L239.308369,163.918496 L239.308369,168.861622 L254.828955,168.861622 L254.828955,167.198436 C254.828955,166.337293 255.529068,165.63656 256.389449,165.63656 C257.249829,165.63656 257.945725,166.337293 257.945725,167.198436 L257.945725,170.423498 C257.945725,171.284641 257.249829,171.981153 256.389449,171.981153" id="Fill-497"></path>
                        <path d="M241.868422,177.61657 L252.273119,177.61657 L252.273119,171.981153 L241.868422,171.981153 L241.868422,177.61657 Z M253.829396,180.736101 L240.307928,180.736101 C239.447548,180.736101 238.751652,180.039588 238.751652,179.174225 L238.751652,170.423498 C238.751652,169.562356 239.447548,168.861622 240.307928,168.861622 L253.829396,168.861622 C254.689776,168.861622 255.389889,169.562356 255.389889,170.423498 L255.389889,179.174225 C255.389889,180.039588 254.689776,180.736101 253.829396,180.736101 L253.829396,180.736101 Z" id="Fill-498"></path>
                        <path d="M251.931498,264.815681 L242.205826,264.815681 C241.345446,264.815681 240.64955,264.119169 240.64955,263.258026 L240.64955,178.714104 L243.76632,178.714104 L243.76632,261.700372 L250.371004,261.700372 L250.371004,178.714104 L253.487774,178.714104 L253.487774,263.258026 C253.487774,264.119169 252.791878,264.815681 251.931498,264.815681" id="Fill-499"></path>
                        <path d="M239.308369,278.112733 L254.828955,278.112733 L254.828955,273.169606 L239.308369,273.169606 L239.308369,278.112733 Z M256.389449,281.232263 L237.752093,281.232263 C236.891712,281.232263 236.191599,280.53153 236.191599,279.670387 L236.191599,271.60773 C236.191599,270.746588 236.891712,270.050076 237.752093,270.050076 L256.389449,270.050076 C257.249829,270.050076 257.945725,270.746588 257.945725,271.60773 L257.945725,279.670387 C257.945725,280.53153 257.249829,281.232263 256.389449,281.232263 L256.389449,281.232263 Z" id="Fill-500"></path>
                        <path d="M241.868422,270.050076 L252.273119,270.050076 L252.273119,264.414659 L241.868422,264.414659 L241.868422,270.050076 Z M253.829396,273.169606 L240.307928,273.169606 C239.447548,273.169606 238.751652,272.468873 238.751652,271.60773 L238.751652,262.852783 C238.751652,261.995862 239.447548,261.295128 240.307928,261.295128 L253.829396,261.295128 C254.689776,261.295128 255.389889,261.995862 255.389889,262.852783 L255.389889,271.60773 C255.389889,272.468873 254.689776,273.169606 253.829396,273.169606 L253.829396,273.169606 Z" id="Fill-501"></path>
                        <path d="M125.388109,258.770799 L150.811504,258.770799 L150.811504,229.280893 C150.811504,220.538609 144.22369,216.557936 138.099806,216.557936 C131.98014,216.557936 125.388109,220.538609 125.388109,229.280893 L125.388109,258.770799 Z M152.371998,261.890329 L123.831833,261.890329 C123.418513,261.890329 123.022063,261.725699 122.731052,261.430209 C122.435823,261.13894 122.271339,260.74214 122.271339,260.328454 L122.271339,229.280893 C122.271339,218.879643 130.234074,213.438405 138.099806,213.438405 C145.965538,213.438405 153.928274,218.879643 153.928274,229.280893 L153.928274,260.328454 C153.928274,261.189596 153.232378,261.890329 152.371998,261.890329 L152.371998,261.890329 Z" id="Fill-502"></path>
                        <polygon id="Fill-503" points="123.831833 242.907205 152.371998 242.907205 152.371998 239.787674 123.831833 239.787674"></polygon>
                        <path d="M138.099806,261.890329 C137.239426,261.890329 136.54353,261.189596 136.54353,260.328454 L136.54353,214.99606 C136.54353,214.134918 137.239426,213.438405 138.099806,213.438405 C138.960187,213.438405 139.6603,214.134918 139.6603,214.99606 L139.6603,260.328454 C139.6603,261.189596 138.960187,261.890329 138.099806,261.890329" id="Fill-504"></path>
                        <path d="M204.450313,258.770799 L229.873708,258.770799 L229.873708,229.280893 C229.873708,220.538609 223.285894,216.557936 217.16201,216.557936 C211.038127,216.557936 204.450313,220.538609 204.450313,229.280893 L204.450313,258.770799 Z M231.429984,261.890329 L202.889819,261.890329 C202.029439,261.890329 201.333543,261.189596 201.333543,260.328454 L201.333543,229.280893 C201.333543,218.879643 209.296278,213.438405 217.16201,213.438405 C225.027742,213.438405 232.990478,218.879643 232.990478,229.280893 L232.990478,260.328454 C232.990478,261.189596 232.290365,261.890329 231.429984,261.890329 L231.429984,261.890329 Z" id="Fill-505"></path>
                        <polygon id="Fill-506" points="202.889819 242.907205 231.429984 242.907205 231.429984 239.787674 202.889819 239.787674"></polygon>
                        <path d="M217.16201,261.890329 C216.30163,261.890329 215.601517,261.189596 215.601517,260.328454 L215.601517,214.99606 C215.601517,214.134918 216.30163,213.438405 217.16201,213.438405 C218.022391,213.438405 218.718287,214.134918 218.718287,214.99606 L218.718287,260.328454 C218.718287,261.189596 218.022391,261.890329 217.16201,261.890329" id="Fill-507"></path>
                        <path d="M264.887813,254.790126 L317.008304,254.790126 L317.008304,213.679019 L264.887813,213.679019 L264.887813,254.790126 Z M318.568798,257.909656 L263.331537,257.909656 C262.471157,257.909656 261.771043,257.208923 261.771043,256.347781 L261.771043,212.117143 C261.771043,211.256 262.471157,210.559488 263.331537,210.559488 L318.568798,210.559488 C319.429178,210.559488 320.125074,211.256 320.125074,212.117143 L320.125074,256.347781 C320.125074,257.208923 319.429178,257.909656 318.568798,257.909656 L318.568798,257.909656 Z" id="Fill-508"></path>
                        <path d="M283.719177,254.790126 L298.17694,254.790126 L298.17694,213.679019 L283.719177,213.679019 L283.719177,254.790126 Z M299.737434,257.909656 L282.162901,257.909656 C281.30252,257.909656 280.602407,257.208923 280.602407,256.347781 L280.602407,212.117143 C280.602407,211.256 281.30252,210.559488 282.162901,210.559488 L299.737434,210.559488 C300.597814,210.559488 301.29371,211.256 301.29371,212.117143 L301.29371,256.347781 C301.29371,257.208923 300.597814,257.909656 299.737434,257.909656 L299.737434,257.909656 Z" id="Fill-509"></path>
                        <path d="M38.2535128,254.790126 L90.3740035,254.790126 L90.3740035,213.679019 L38.2535128,213.679019 L38.2535128,254.790126 Z M91.9344972,257.909656 L36.6930191,257.909656 C35.8326388,257.909656 35.1367429,257.208923 35.1367429,256.347781 L35.1367429,212.117143 C35.1367429,211.256 35.8326388,210.559488 36.6930191,210.559488 L91.9344972,210.559488 C92.7948775,210.559488 93.4907734,211.256 93.4907734,212.117143 L93.4907734,256.347781 C93.4907734,257.208923 92.7948775,257.909656 91.9344972,257.909656 L91.9344972,257.909656 Z" id="Fill-510"></path>
                        <path d="M57.0848764,254.790126 L71.5426399,254.790126 L71.5426399,213.679019 L57.0848764,213.679019 L57.0848764,254.790126 Z M73.0989161,257.909656 L55.5243826,257.909656 C54.6640023,257.909656 53.9681065,257.208923 53.9681065,256.347781 L53.9681065,212.117143 C53.9681065,211.256 54.6640023,210.559488 55.5243826,210.559488 L73.0989161,210.559488 C73.9592964,210.559488 74.6594098,211.256 74.6594098,212.117143 L74.6594098,256.347781 C74.6594098,257.208923 73.9592964,257.909656 73.0989161,257.909656 L73.0989161,257.909656 Z" id="Fill-511"></path>
                        <path d="M254.529509,103.672298 L306.654217,103.672298 L306.654217,62.5569698 L254.529509,62.5569698 L254.529509,103.672298 Z M308.210493,106.787608 L252.973233,106.787608 C252.112852,106.787608 251.412739,106.091095 251.412739,105.229953 L251.412739,60.9993152 C251.412739,60.1381728 252.112852,59.4416606 252.973233,59.4416606 L308.210493,59.4416606 C309.070874,59.4416606 309.76677,60.1381728 309.76677,60.9993152 L309.76677,105.229953 C309.76677,106.091095 309.070874,106.787608 308.210493,106.787608 L308.210493,106.787608 Z" id="Fill-512"></path>
                        <path d="M273.360873,103.672298 L287.822854,103.672298 L287.822854,62.5569698 L273.360873,62.5569698 L273.360873,103.672298 Z M289.37913,106.787608 L271.804596,106.787608 C270.944216,106.787608 270.244103,106.091095 270.244103,105.229953 L270.244103,60.9993152 C270.244103,60.1381728 270.944216,59.4416606 271.804596,59.4416606 L289.37913,59.4416606 C290.23951,59.4416606 290.935406,60.1381728 290.935406,60.9993152 L290.935406,105.229953 C290.935406,106.091095 290.23951,106.787608 289.37913,106.787608 L289.37913,106.787608 Z" id="Fill-513"></path>
                        <path d="M151.570663,103.672298 L203.691154,103.672298 L203.691154,62.5569698 L151.570663,62.5569698 L151.570663,103.672298 Z M205.251647,106.787608 L150.010169,106.787608 C149.149789,106.787608 148.453893,106.091095 148.453893,105.229953 L148.453893,60.9993152 C148.453893,60.1381728 149.149789,59.4416606 150.010169,59.4416606 L205.251647,59.4416606 C206.112028,59.4416606 206.807924,60.1381728 206.807924,60.9993152 L206.807924,105.229953 C206.807924,106.091095 206.112028,106.787608 205.251647,106.787608 L205.251647,106.787608 Z" id="Fill-514"></path>
                        <path d="M170.402027,103.672298 L184.85979,103.672298 L184.85979,62.5569698 L170.402027,62.5569698 L170.402027,103.672298 Z M186.420284,106.787608 L168.84575,106.787608 C167.98537,106.787608 167.285257,106.091095 167.285257,105.229953 L167.285257,60.9993152 C167.285257,60.1381728 167.98537,59.4416606 168.84575,59.4416606 L186.420284,59.4416606 C187.280664,59.4416606 187.97656,60.1381728 187.97656,60.9993152 L187.97656,105.229953 C187.97656,106.091095 187.280664,106.787608 186.420284,106.787608 L186.420284,106.787608 Z" id="Fill-515"></path>
                        <path d="M48.6075996,103.672298 L100.732308,103.672298 L100.732308,62.5569698 L48.6075996,62.5569698 L48.6075996,103.672298 Z M102.288584,106.787608 L47.0513234,106.787608 C46.1909431,106.787608 45.4950473,106.091095 45.4950473,105.229953 L45.4950473,60.9993152 C45.4950473,60.1381728 46.1909431,59.4416606 47.0513234,59.4416606 L102.288584,59.4416606 C103.148964,59.4416606 103.849078,60.1381728 103.849078,60.9993152 L103.849078,105.229953 C103.849078,106.091095 103.148964,106.787608 102.288584,106.787608 L102.288584,106.787608 Z" id="Fill-516"></path>
                        <path d="M67.4431807,103.672298 L81.9009443,103.672298 L81.9009443,62.5569698 L67.4431807,62.5569698 L67.4431807,103.672298 Z M83.4572204,106.787608 L65.882687,106.787608 C65.0223067,106.787608 64.3264108,106.091095 64.3264108,105.229953 L64.3264108,60.9993152 C64.3264108,60.1381728 65.0223067,59.4416606 65.882687,59.4416606 L83.4572204,59.4416606 C84.3176008,59.4416606 85.0177142,60.1381728 85.0177142,60.9993152 L85.0177142,105.229953 C85.0177142,106.091095 84.3176008,106.787608 83.4572204,106.787608 L83.4572204,106.787608 Z" id="Fill-517"></path>
                        <path d="M320.365474,128.210635 L187.107745,128.210635 L187.107745,125.095326 L318.804981,125.095326 L318.804981,49.774915 L36.4568363,49.774915 L36.4568363,125.095326 L167.550962,125.095326 L167.550962,128.210635 L34.9005601,128.210635 C34.0401797,128.210635 33.3400663,127.514123 33.3400663,126.652981 L33.3400663,48.213039 C33.3400663,47.3518966 34.0401797,46.6553844 34.9005601,46.6553844 L320.365474,46.6553844 C321.225855,46.6553844 321.92175,47.3518966 321.92175,48.213039 L321.92175,126.652981 C321.92175,127.514123 321.225855,128.210635 320.365474,128.210635" id="Fill-518"></path>
                        <path d="M28.7302835,46.6553844 L326.531533,46.6553844 L326.531533,42.6324986 L28.7302835,42.6324986 L28.7302835,46.6553844 Z M328.092027,49.774915 L27.1697898,49.774915 C26.3094095,49.774915 25.6135136,49.0741814 25.6135136,48.213039 L25.6135136,41.0706227 C25.6135136,40.2094803 26.3094095,39.512968 27.1697898,39.512968 L328.092027,39.512968 C328.952407,39.512968 329.648303,40.2094803 329.648303,41.0706227 L329.648303,48.213039 C329.648303,49.0741814 328.952407,49.774915 328.092027,49.774915 L328.092027,49.774915 Z" id="Fill-519"></path>
                        <path d="M29.1984316,39.512968 L326.063385,39.512968 L316.535938,3.58560046 L38.7258785,3.58560046 L29.1984316,39.512968 Z M328.092027,42.6324986 L27.1697898,42.6324986 C26.688989,42.6324986 26.229276,42.4087704 25.938265,42.0246334 C25.6430365,41.6404963 25.5418152,41.1423845 25.6641242,40.6738217 L36.0224285,1.62692362 C36.2037832,0.943075242 36.8237632,0.466069892 37.5280941,0.466069892 L317.733723,0.466069892 C318.438054,0.466069892 319.058034,0.943075242 319.239388,1.62692362 L329.597693,40.6738217 C329.720002,41.1423845 329.61878,41.6404963 329.323552,42.0246334 C329.032541,42.4087704 328.572828,42.6324986 328.092027,42.6324986 L328.092027,42.6324986 Z" id="Fill-520"></path>
                        <path d="M177.630908,129.641651 C177.850221,129.641651 178.069534,129.688086 178.271976,129.780954 L273.53801,172.783197 C273.875414,172.935164 274.233905,173.011147 274.596615,173.011147 C275.613045,173.011147 276.540906,172.411724 276.954226,171.487262 C277.241019,170.858291 277.262107,170.153336 277.017489,169.507479 C276.772871,168.861622 276.29207,168.346625 275.663655,168.063799 L177.630908,123.816276 L79.5981616,168.063799 C78.299156,168.650558 77.7213516,170.187106 78.3075911,171.487262 C78.7209111,172.411724 79.6487722,173.011147 80.6652019,173.011147 C81.0321288,173.011147 81.3864031,172.930942 81.7280247,172.778976 L176.989841,129.780954 C177.192283,129.688086 177.411596,129.641651 177.630908,129.641651 Z M274.596615,176.130677 C273.786845,176.130677 272.998163,175.961826 272.255874,175.624123 L177.630908,132.913148 L83.0059425,175.624123 C82.2636536,175.961826 81.4749716,176.130677 80.6652019,176.130677 C78.4256825,176.130677 76.384388,174.809415 75.464962,172.770533 C74.1743915,169.900059 75.4523094,166.514587 78.3160262,165.222874 L176.989841,120.684082 C177.398943,120.498345 177.862874,120.498345 178.271976,120.684082 L276.945791,165.222874 C278.333365,165.847624 279.39197,166.978929 279.931816,168.405723 C280.471663,169.828297 280.42527,171.38173 279.796855,172.770533 C278.877429,174.809415 276.836134,176.130677 274.596615,176.130677 L274.596615,176.130677 Z" id="Fill-521"></path>
                        <polyline id="Fill-522" points="315.456245 41.4716448 305.097941 2.42474673 308.109272 1.62692362 318.467576 40.6738217 315.456245 41.4716448"></polyline>
                        <polyline id="Fill-523" points="301.513023 41.4336533 292.192236 2.38675515 295.220437 1.6649152 304.545442 40.7118133 301.513023 41.4336533"></polyline>
                        <polyline id="Fill-524" points="287.569801 41.3956617 279.286531 2.34876357 282.331603 1.70290677 290.61909 40.7498049 287.569801 41.3956617"></polyline>
                        <polyline id="Fill-525" points="273.630796 41.3576701 266.380826 2.310772 269.442768 1.74089835 276.692738 40.7877965 273.630796 41.3576701"></polyline>
                        <polyline id="Fill-526" points="259.691791 41.3196785 253.475121 2.27278042 256.553933 1.77888993 262.766385 40.825788 259.691791 41.3196785"></polyline>
                        <polyline id="Fill-527" points="245.752786 41.2774657 240.573634 2.23056756 243.660881 1.82110279 248.840033 40.8680009 245.752786 41.2774657"></polyline>
                        <polyline id="Fill-528" points="231.813781 41.2352528 227.672147 2.19257598 230.772046 1.86331565 234.913681 40.9059925 231.813781 41.2352528"></polyline>
                        <polyline id="Fill-529" points="217.874776 41.1972612 214.770659 2.15036312 217.874776 1.90130723 220.983111 40.9482054 217.874776 41.1972612"></polyline>
                        <polyline id="Fill-530" points="203.939989 41.1550484 201.869172 2.10815026 204.981724 1.94352009 207.052542 40.9904182 203.939989 41.1550484"></polyline>
                        <polyline id="Fill-531" points="190.005202 41.1128355 188.971902 2.06593739 192.084454 1.98573295 193.121972 41.0326311 190.005202 41.1128355"></polyline>
                        <polygon id="Fill-532" points="176.074632 41.0706227 179.187185 41.0706227 179.187185 2.02372453 176.074632 2.02372453"></polygon>
                        <polyline id="Fill-533" points="165.256615 41.1128355 162.139845 41.0326311 163.177362 1.98573295 166.289915 2.06593739 165.256615 41.1128355"></polyline>
                        <polyline id="Fill-534" points="151.321828 41.1550484 148.209275 40.9904182 150.280093 1.94352009 153.392645 2.10815026 151.321828 41.1550484"></polyline>
                        <polyline id="Fill-535" points="137.38704 41.1972612 134.278705 40.9482054 137.38704 1.90130723 140.491158 2.15036312 137.38704 41.1972612"></polyline>
                        <polyline id="Fill-536" points="123.448035 41.2394741 120.348136 40.9059925 124.493988 1.85909437 127.593888 2.19257598 123.448035 41.2394741"></polyline>
                        <polyline id="Fill-537" points="109.509031 41.2774657 106.421784 40.8680009 111.600936 1.82110279 114.688183 2.23056756 109.509031 41.2774657"></polyline>
                        <polyline id="Fill-538" points="95.5742434 41.3196785 92.4954314 40.825788 98.7078835 1.77888993 101.786695 2.27278042 95.5742434 41.3196785"></polyline>
                        <polyline id="Fill-539" points="81.631021 41.3576701 78.5690793 40.7877965 85.8190488 1.74089835 88.8809905 2.310772 81.631021 41.3576701"></polyline>
                        <polyline id="Fill-540" points="67.6920162 41.3956617 64.6427271 40.7498049 72.9302141 1.70290677 75.9752856 2.34876357 67.6920162 41.3956617"></polyline>
                        <polyline id="Fill-541" points="53.7487938 41.4336533 50.7205925 40.7118133 60.0413794 1.6649152 63.0695807 2.38675515 53.7487938 41.4336533"></polyline>
                        <polyline id="Fill-542" points="39.8055715 41.4716448 36.7942403 40.6738217 47.1525446 1.62692362 50.1638758 2.42474673 39.8055715 41.4716448"></polyline>
                        <polyline id="Fill-543" points="313.402298 155.577234 306.633129 127.01179 309.665548 126.294171 316.434717 154.859616 313.402298 155.577234"></polyline>
                        <polyline id="Fill-544" points="300.319456 155.547685 294.195573 126.982241 297.240644 126.327942 303.368745 154.889165 300.319456 155.547685"></polyline>
                        <polyline id="Fill-545" points="287.240832 155.513915 281.758016 126.948471 284.81574 126.361712 290.298556 154.922935 287.240832 155.513915"></polyline>
                        <polyline id="Fill-546" points="274.15799 155.480145 269.320459 126.914701 272.395053 126.391261 277.228366 154.956705 274.15799 155.480145"></polyline>
                        <polyline id="Fill-547" points="261.075148 155.446375 256.88712 126.88093 259.970149 126.425031 264.158177 154.990476 261.075148 155.446375"></polyline>
                        <polyline id="Fill-548" points="247.996523 155.412604 244.449563 126.84716 247.541028 126.458802 251.087988 155.024246 247.996523 155.412604"></polyline>
                        <polyline id="Fill-549" points="234.200915 148.493916 232.016224 126.809168 235.116123 126.496793 237.300815 148.181541 234.200915 148.493916"></polyline>
                        <polyline id="Fill-550" points="220.818627 142.423706 219.582884 126.775398 222.691219 126.530563 223.926962 142.178872 220.818627 142.423706"></polyline>
                        <polyline id="Fill-551" points="207.697827 136.467471 207.149545 126.741628 210.262098 126.564334 210.810379 136.290177 207.697827 136.467471"></polyline>
                        <polyline id="Fill-552" points="195.213877 130.920701 194.728859 126.838717 197.824541 126.471465 198.309559 130.553449 195.213877 130.920701"></polyline>
                        <polyline id="Fill-553" points="147.302502 136.623659 144.198385 136.366161 145.003937 126.526342 148.108054 126.779619 147.302502 136.623659"></polyline>
                        <polyline id="Fill-554" points="134.44319 142.423706 131.334855 142.178872 132.570597 126.530563 135.678932 126.775398 134.44319 142.423706"></polyline>
                        <polyline id="Fill-555" points="121.044032 148.493916 117.944132 148.181541 120.145693 126.496793 123.245593 126.809168 121.044032 148.493916"></polyline>
                        <polyline id="Fill-556" points="107.265294 155.412604 104.173829 155.024246 107.720789 126.458802 110.812254 126.84716 107.265294 155.412604"></polyline>
                        <polyline id="Fill-557" points="94.1866692 155.446375 91.1036397 154.990476 95.2958851 126.425031 98.374697 126.88093 94.1866692 155.446375"></polyline>
                        <polyline id="Fill-558" points="81.1038272 155.480145 78.0334503 154.956705 82.8667634 126.391261 85.9413578 126.914701 81.1038272 155.480145"></polyline>
                        <polyline id="Fill-559" points="68.0252027 155.513915 64.9632609 154.922935 70.4460768 126.361712 73.503801 126.948471 68.0252027 155.513915"></polyline>
                        <polyline id="Fill-560" points="54.9423607 155.547685 51.8972891 154.889165 58.0211726 126.327942 61.0662442 126.982241 54.9423607 155.547685"></polyline>
                        <polyline id="Fill-561" points="41.8595186 155.577234 38.8270997 154.859616 45.5962685 126.294171 48.6286874 127.01179 41.8595186 155.577234"></polyline>
                    </g>
                </g>
                <g id="dollar" transform="translate(160.000000, 0.000000)" fill-rule="nonzero" fill="#3388C4">
                    <path d="M18.1091415,9.14081211 C32.5119512,9.14081211 33.1116585,21.7362472 33.1321171,22.2702144 C33.1606537,23.0392232 33.8583512,23.6329584 34.6010049,23.6209533 C35.3885268,23.597029 36.0086049,22.9555309 35.9841951,22.1864363 C35.9800683,22.0350013 35.3028293,7.23209584 19.4270927,6.42715763 L19.4270927,1.39464313 C19.4270049,0.62554855 18.7905073,0 17.9989463,0 C17.2115122,0 16.5708878,0.62554855 16.5708878,1.39464313 L16.5708878,6.44319294 C11.066839,6.89741236 6.32572683,9.72254224 3.98370732,14.1017251 C1.77638049,18.229831 2.09054634,22.9914603 4.82830244,26.8366759 C7.41512195,30.4786633 12.356078,32.7657957 17.586878,35.1845549 C21.2508878,36.8779521 25.0412488,38.631203 27.8606634,40.8506784 C31.4674244,43.6797528 32.883278,47.9632383 31.4674244,51.7566608 C29.8027317,56.2194502 24.6822146,58.7975334 17.8520488,58.6541589 C12.9641268,58.5505725 9.19404878,57.12 6.64805854,54.4024868 C2.48637073,49.9595914 2.88623415,43.4367364 2.89027317,43.373024 C2.94330732,42.6040151 2.35167805,41.9385069 1.5642439,41.8867995 C0.75635122,41.7951324 0.0953560976,42.4087617 0.0382829268,43.1778562 C0.0137853659,43.4886154 -0.46764878,50.9159647 4.51413659,56.2594098 C7.37429268,59.3275561 11.4585366,60.9851955 16.5708878,61.3239092 L16.5708878,66.5199496 C16.5708878,67.2889584 17.2114244,67.9145927 17.9989463,67.9145927 C18.7864683,67.9145927 19.4270049,67.2889584 19.4270049,66.5199496 L19.4270049,61.3956822 C26.7345659,61.1167364 32.1936585,57.9569231 34.1480195,52.7131198 C35.9882341,47.7761311 34.2215122,42.2694174 29.6517951,38.6792232 C26.5672098,36.252575 22.6217854,34.4276368 18.806839,32.6623808 C13.9310341,30.4070618 9.32865366,28.2792535 7.17436098,25.2469508 C5.02006829,22.222623 4.78343415,18.6324288 6.51336585,15.3929533 C8.58204878,11.5355612 13.0212,9.14081211 18.1091415,9.14081211 Z" id="Shape"></path>
                </g>
            </g>
        </g>
    </g>
</svg>