<?xml version="1.0" encoding="UTF-8"?>
<svg width="85px" height="54px" viewBox="0 0 85 54" version="1.1" xmlns="http://www.w3.org/2000/svg" xmlns:xlink="http://www.w3.org/1999/xlink">
    <!-- Generator: Sketch 43.1 (39012) - http://www.bohemiancoding.com/sketch -->
    <title>Group 10</title>
    <desc>Created with Sketch.</desc>
    <defs></defs>
    <g id="Page-1" stroke="none" stroke-width="1" fill="none" fill-rule="evenodd">
        <g id="Group-10" fill="#4990E2">
            <g id="Group-5">
                <path d="M84.469,51.34 L1.421,51.34 C1.166,51.34 0.959,51.134 0.959,50.879 C0.959,50.624 1.166,50.417 1.421,50.417 L84.469,50.417 C84.724,50.417 84.931,50.624 84.931,50.879 C84.931,51.134 84.724,51.34 84.469,51.34" id="Fill-191"></path>
                <path d="M77.204,53.742 L8.686,53.742 C8.431,53.742 8.224,53.535 8.224,53.28 C8.224,53.025 8.431,52.818 8.686,52.818 L77.204,52.818 C77.459,52.818 77.666,53.025 77.666,53.28 C77.666,53.535 77.459,53.742 77.204,53.742" id="Fill-192"></path>
                <path d="M9.148,34.651 L13.822,34.651 L13.822,26.585 L9.148,26.585 L9.148,34.651 Z M14.191,35.39 L8.779,35.39 C8.575,35.39 8.41,35.225 8.41,35.021 L8.41,26.215 C8.41,26.011 8.575,25.846 8.779,25.846 L14.191,25.846 C14.395,25.846 14.56,26.011 14.56,26.215 L14.56,35.021 C14.56,35.225 14.395,35.39 14.191,35.39 L14.191,35.39 Z" id="Fill-193"></path>
                <path d="M8.113,36.284 L14.857,36.284 L14.857,35.39 L8.113,35.39 L8.113,36.284 Z M15.227,37.022 L7.743,37.022 C7.539,37.022 7.374,36.857 7.374,36.653 L7.374,35.021 C7.374,34.817 7.539,34.651 7.743,34.651 L15.227,34.651 C15.431,34.651 15.596,34.817 15.596,35.021 L15.596,36.653 C15.596,36.857 15.431,37.022 15.227,37.022 L15.227,37.022 Z" id="Fill-194"></path>
                <path d="M14.191,30.987 L8.779,30.987 C8.575,30.987 8.41,30.822 8.41,30.618 C8.41,30.414 8.575,30.249 8.779,30.249 L14.191,30.249 C14.395,30.249 14.56,30.414 14.56,30.618 C14.56,30.822 14.395,30.987 14.191,30.987" id="Fill-195"></path>
                <path d="M11.485,35.273 C11.281,35.273 11.116,35.108 11.116,34.904 L11.116,26.332 C11.116,26.128 11.281,25.963 11.485,25.963 C11.689,25.963 11.854,26.128 11.854,26.332 L11.854,34.904 C11.854,35.108 11.689,35.273 11.485,35.273" id="Fill-196"></path>
                <path d="M21.46,34.651 L26.133,34.651 L26.133,26.585 L21.46,26.585 L21.46,34.651 Z M26.502,35.39 L21.09,35.39 C20.886,35.39 20.721,35.225 20.721,35.021 L20.721,26.215 C20.721,26.011 20.886,25.846 21.09,25.846 L26.502,25.846 C26.706,25.846 26.872,26.011 26.872,26.215 L26.872,35.021 C26.872,35.225 26.706,35.39 26.502,35.39 L26.502,35.39 Z" id="Fill-197"></path>
                <path d="M20.424,36.284 L27.168,36.284 L27.168,35.39 L20.424,35.39 L20.424,36.284 Z M27.538,37.022 L20.055,37.022 C19.851,37.022 19.685,36.857 19.685,36.653 L19.685,35.021 C19.685,34.817 19.851,34.651 20.055,34.651 L27.538,34.651 C27.742,34.651 27.907,34.817 27.907,35.021 L27.907,36.653 C27.907,36.857 27.742,37.022 27.538,37.022 L27.538,37.022 Z" id="Fill-198"></path>
                <path d="M26.502,30.987 L21.09,30.987 C20.886,30.987 20.721,30.822 20.721,30.618 C20.721,30.414 20.886,30.249 21.09,30.249 L26.502,30.249 C26.706,30.249 26.872,30.414 26.872,30.618 C26.872,30.822 26.706,30.987 26.502,30.987" id="Fill-199"></path>
                <path d="M23.796,35.273 C23.592,35.273 23.427,35.108 23.427,34.904 L23.427,26.332 C23.427,26.128 23.592,25.963 23.796,25.963 C24,25.963 24.166,26.128 24.166,26.332 L24.166,34.904 C24.166,35.108 24,35.273 23.796,35.273" id="Fill-200"></path>
                <path d="M59.757,34.651 L64.43,34.651 L64.43,26.585 L59.757,26.585 L59.757,34.651 Z M64.8,35.39 L59.388,35.39 C59.184,35.39 59.018,35.225 59.018,35.021 L59.018,26.215 C59.018,26.011 59.184,25.846 59.388,25.846 L64.8,25.846 C65.004,25.846 65.169,26.011 65.169,26.215 L65.169,35.021 C65.169,35.225 65.004,35.39 64.8,35.39 L64.8,35.39 Z" id="Fill-201"></path>
                <path d="M58.722,36.284 L65.466,36.284 L65.466,35.39 L58.722,35.39 L58.722,36.284 Z M65.835,37.022 L58.352,37.022 C58.148,37.022 57.983,36.857 57.983,36.653 L57.983,35.021 C57.983,34.817 58.148,34.651 58.352,34.651 L65.835,34.651 C66.039,34.651 66.205,34.817 66.205,35.021 L66.205,36.653 C66.205,36.857 66.039,37.022 65.835,37.022 L65.835,37.022 Z" id="Fill-202"></path>
                <path d="M64.8,30.987 L59.388,30.987 C59.184,30.987 59.018,30.822 59.018,30.618 C59.018,30.414 59.184,30.249 59.388,30.249 L64.8,30.249 C65.004,30.249 65.169,30.414 65.169,30.618 C65.169,30.822 65.004,30.987 64.8,30.987" id="Fill-203"></path>
                <path d="M62.094,35.273 C61.89,35.273 61.724,35.108 61.724,34.904 L61.724,26.332 C61.724,26.128 61.89,25.963 62.094,25.963 C62.298,25.963 62.463,26.128 62.463,26.332 L62.463,34.904 C62.463,35.108 62.298,35.273 62.094,35.273" id="Fill-204"></path>
                <path d="M72.068,34.651 L76.742,34.651 L76.742,26.585 L72.068,26.585 L72.068,34.651 Z M77.111,35.39 L71.699,35.39 C71.495,35.39 71.33,35.225 71.33,35.021 L71.33,26.215 C71.33,26.011 71.495,25.846 71.699,25.846 L77.111,25.846 C77.315,25.846 77.481,26.011 77.481,26.215 L77.481,35.021 C77.481,35.225 77.315,35.39 77.111,35.39 L77.111,35.39 Z" id="Fill-205"></path>
                <path d="M71.033,36.284 L77.777,36.284 L77.777,35.39 L71.033,35.39 L71.033,36.284 Z M78.147,37.022 L70.664,37.022 C70.46,37.022 70.294,36.857 70.294,36.653 L70.294,35.021 C70.294,34.817 70.46,34.651 70.664,34.651 L78.147,34.651 C78.351,34.651 78.516,34.817 78.516,35.021 L78.516,36.653 C78.516,36.857 78.351,37.022 78.147,37.022 L78.147,37.022 Z" id="Fill-206"></path>
                <path d="M77.111,30.987 L71.699,30.987 C71.495,30.987 71.33,30.822 71.33,30.618 C71.33,30.414 71.495,30.249 71.699,30.249 L77.111,30.249 C77.315,30.249 77.481,30.414 77.481,30.618 C77.481,30.822 77.315,30.987 77.111,30.987" id="Fill-207"></path>
                <path d="M74.405,35.273 C74.201,35.273 74.036,35.108 74.036,34.904 L74.036,26.332 C74.036,26.128 74.201,25.963 74.405,25.963 C74.609,25.963 74.774,26.128 74.774,26.332 L74.774,34.904 C74.774,35.108 74.609,35.273 74.405,35.273" id="Fill-208"></path>
                <path d="M30.436,50.371 L55.454,50.371 L52.274,45.826 L33.616,45.826 L30.436,50.371 Z M56.163,51.11 L29.727,51.11 C29.589,51.11 29.463,51.033 29.399,50.911 C29.335,50.789 29.345,50.641 29.424,50.529 L33.121,45.245 C33.191,45.146 33.304,45.087 33.424,45.087 L52.466,45.087 C52.586,45.087 52.699,45.146 52.769,45.245 L56.466,50.529 C56.545,50.641 56.555,50.789 56.491,50.911 C56.427,51.033 56.301,51.11 56.163,51.11 L56.163,51.11 Z" id="Fill-209"></path>
                <polygon id="Fill-210" points="32.378 47.2 53.513 47.2 53.513 46.461 32.378 46.461"></polygon>
                <polygon id="Fill-211" points="30.879 49.216 55.011 49.216 55.011 48.477 30.879 48.477"></polygon>
                <path d="M82.834,50.74 L82.096,50.74 L82.096,45.826 L47.496,45.826 L47.496,45.087 L82.465,45.087 C82.669,45.087 82.834,45.253 82.834,45.457 L82.834,50.74" id="Fill-212"></path>
                <path d="M3.794,50.74 L3.056,50.74 L3.056,45.457 C3.056,45.253 3.221,45.087 3.425,45.087 L38.394,45.087 L38.394,45.826 L3.794,45.826 L3.794,50.74" id="Fill-213"></path>
                <polygon id="Fill-214" points="52.205 45.457 52.944 45.457 52.944 22.38 52.205 22.38"></polygon>
                <polygon id="Fill-215" points="54.081 45.457 54.82 45.457 54.82 22.38 54.081 22.38"></polygon>
                <polygon id="Fill-216" points="31.07 45.457 31.809 45.457 31.809 22.38 31.07 22.38"></polygon>
                <polygon id="Fill-217" points="32.946 45.457 33.685 45.457 33.685 22.38 32.946 22.38"></polygon>
                <polygon id="Fill-218" points="80.22 45.457 80.959 45.457 80.959 22.38 80.22 22.38"></polygon>
                <polygon id="Fill-219" points="82.096 45.457 82.834 45.457 82.834 22.38 82.096 22.38"></polygon>
                <polygon id="Fill-220" points="3.056 45.457 3.794 45.457 3.794 22.38 3.056 22.38"></polygon>
                <polygon id="Fill-221" points="4.931 45.457 5.67 45.457 5.67 22.38 4.931 22.38"></polygon>
                <path d="M48.576,45.457 L47.837,45.457 L47.837,26.854 L38.053,26.854 L38.053,45.457 L37.314,45.457 L37.314,26.484 C37.314,26.28 37.479,26.115 37.683,26.115 L48.207,26.115 C48.411,26.115 48.576,26.28 48.576,26.484 L48.576,45.457" id="Fill-222"></path>
                <path d="M39.822,35.435 C39.822,35.731 39.582,35.97 39.287,35.97 C38.991,35.97 38.751,35.731 38.751,35.435 C38.751,35.139 38.991,34.9 39.287,34.9 C39.582,34.9 39.822,35.139 39.822,35.435" id="Fill-223"></path>
                <path d="M80.59,38.451 L54.45,38.451 C54.246,38.451 54.081,38.286 54.081,38.082 C54.081,37.878 54.246,37.712 54.45,37.712 L80.59,37.712 C80.794,37.712 80.959,37.878 80.959,38.082 C80.959,38.286 80.794,38.451 80.59,38.451" id="Fill-224"></path>
                <path d="M57.202,45.826 C56.998,45.826 56.833,45.66 56.833,45.456 L56.833,38.082 C56.833,37.878 56.998,37.712 57.202,37.712 C57.406,37.712 57.572,37.878 57.572,38.082 L57.572,45.456 C57.572,45.66 57.406,45.826 57.202,45.826" id="Fill-225"></path>
                <path d="M60.622,45.826 C60.418,45.826 60.253,45.66 60.253,45.456 L60.253,38.082 C60.253,37.878 60.418,37.712 60.622,37.712 C60.826,37.712 60.992,37.878 60.992,38.082 L60.992,45.456 C60.992,45.66 60.826,45.826 60.622,45.826" id="Fill-226"></path>
                <path d="M64.042,45.826 C63.838,45.826 63.672,45.66 63.672,45.456 L63.672,38.082 C63.672,37.878 63.838,37.712 64.042,37.712 C64.246,37.712 64.411,37.878 64.411,38.082 L64.411,45.456 C64.411,45.66 64.246,45.826 64.042,45.826" id="Fill-227"></path>
                <path d="M67.462,45.826 C67.258,45.826 67.092,45.66 67.092,45.456 L67.092,38.082 C67.092,37.878 67.258,37.712 67.462,37.712 C67.666,37.712 67.831,37.878 67.831,38.082 L67.831,45.456 C67.831,45.66 67.666,45.826 67.462,45.826" id="Fill-228"></path>
                <path d="M70.881,45.826 C70.677,45.826 70.512,45.66 70.512,45.456 L70.512,38.082 C70.512,37.878 70.677,37.712 70.881,37.712 C71.086,37.712 71.251,37.878 71.251,38.082 L71.251,45.456 C71.251,45.66 71.086,45.826 70.881,45.826" id="Fill-229"></path>
                <path d="M74.301,45.826 C74.097,45.826 73.932,45.66 73.932,45.456 L73.932,38.082 C73.932,37.878 74.097,37.712 74.301,37.712 C74.505,37.712 74.671,37.878 74.671,38.082 L74.671,45.456 C74.671,45.66 74.505,45.826 74.301,45.826" id="Fill-230"></path>
                <path d="M77.721,45.826 C77.517,45.826 77.352,45.66 77.352,45.456 L77.352,38.082 C77.352,37.878 77.517,37.712 77.721,37.712 C77.925,37.712 78.09,37.878 78.09,38.082 L78.09,45.456 C78.09,45.66 77.925,45.826 77.721,45.826" id="Fill-231"></path>
                <path d="M31.44,38.451 L5.3,38.451 C5.096,38.451 4.931,38.286 4.931,38.082 C4.931,37.878 5.096,37.712 5.3,37.712 L31.44,37.712 C31.644,37.712 31.809,37.878 31.809,38.082 C31.809,38.286 31.644,38.451 31.44,38.451" id="Fill-232"></path>
                <path d="M8.052,45.826 C7.848,45.826 7.683,45.66 7.683,45.456 L7.683,38.082 C7.683,37.878 7.848,37.712 8.052,37.712 C8.256,37.712 8.422,37.878 8.422,38.082 L8.422,45.456 C8.422,45.66 8.256,45.826 8.052,45.826" id="Fill-233"></path>
                <path d="M11.472,45.826 C11.268,45.826 11.103,45.66 11.103,45.456 L11.103,38.082 C11.103,37.878 11.268,37.712 11.472,37.712 C11.676,37.712 11.842,37.878 11.842,38.082 L11.842,45.456 C11.842,45.66 11.676,45.826 11.472,45.826" id="Fill-234"></path>
                <path d="M14.892,45.826 C14.688,45.826 14.523,45.66 14.523,45.456 L14.523,38.082 C14.523,37.878 14.688,37.712 14.892,37.712 C15.096,37.712 15.261,37.878 15.261,38.082 L15.261,45.456 C15.261,45.66 15.096,45.826 14.892,45.826" id="Fill-235"></path>
                <path d="M18.312,45.826 C18.108,45.826 17.942,45.66 17.942,45.456 L17.942,38.082 C17.942,37.878 18.108,37.712 18.312,37.712 C18.516,37.712 18.681,37.878 18.681,38.082 L18.681,45.456 C18.681,45.66 18.516,45.826 18.312,45.826" id="Fill-236"></path>
                <path d="M21.732,45.826 C21.528,45.826 21.362,45.66 21.362,45.456 L21.362,38.082 C21.362,37.878 21.528,37.712 21.732,37.712 C21.936,37.712 22.101,37.878 22.101,38.082 L22.101,45.456 C22.101,45.66 21.936,45.826 21.732,45.826" id="Fill-237"></path>
                <path d="M25.151,45.826 C24.947,45.826 24.782,45.66 24.782,45.456 L24.782,38.082 C24.782,37.878 24.947,37.712 25.151,37.712 C25.355,37.712 25.521,37.878 25.521,38.082 L25.521,45.456 C25.521,45.66 25.355,45.826 25.151,45.826" id="Fill-238"></path>
                <path d="M28.571,45.826 C28.367,45.826 28.202,45.66 28.202,45.456 L28.202,38.082 C28.202,37.878 28.367,37.712 28.571,37.712 C28.775,37.712 28.941,37.878 28.941,38.082 L28.941,45.456 C28.941,45.66 28.775,45.826 28.571,45.826" id="Fill-239"></path>
                <path d="M3.5,21.833 L82.391,21.833 L82.391,20.728 L3.5,20.728 L3.5,21.833 Z M82.76,22.572 L3.13,22.572 C2.926,22.572 2.761,22.406 2.761,22.202 L2.761,20.358 C2.761,20.154 2.926,19.989 3.13,19.989 L82.76,19.989 C82.964,19.989 83.129,20.154 83.129,20.358 L83.129,22.202 C83.129,22.406 82.964,22.572 82.76,22.572 L82.76,22.572 Z" id="Fill-240"></path>
                <path d="M3.832,19.745 L82.058,19.745 L73.462,7.233 L12.428,7.233 L3.832,19.745 Z M82.76,20.484 L3.13,20.484 C2.993,20.484 2.867,20.408 2.803,20.287 C2.739,20.165 2.748,20.019 2.826,19.906 L11.93,6.654 C11.998,6.554 12.112,6.494 12.234,6.494 L73.656,6.494 C73.778,6.494 73.892,6.554 73.961,6.654 L83.064,19.906 C83.142,20.019 83.151,20.165 83.087,20.287 C83.023,20.408 82.897,20.484 82.76,20.484 L82.76,20.484 Z" id="Fill-241"></path>
                <path d="M70.631,7.006 L69.892,7.006 L69.892,4.699 L64.248,4.699 L64.248,7.006 L63.509,7.006 L63.509,4.33 C63.509,4.126 63.674,3.96 63.878,3.96 L70.262,3.96 C70.466,3.96 70.631,4.126 70.631,4.33 L70.631,7.006" id="Fill-242"></path>
                <path d="M62.463,3.96 L71.677,3.96 L71.677,1.369 L62.463,1.369 L62.463,3.96 Z M72.046,4.699 L62.094,4.699 C61.89,4.699 61.724,4.534 61.724,4.33 L61.724,0.999 C61.724,0.795 61.89,0.63 62.094,0.63 L72.046,0.63 C72.25,0.63 72.415,0.795 72.415,0.999 L72.415,4.33 C72.415,4.534 72.25,4.699 72.046,4.699 L72.046,4.699 Z" id="Fill-243"></path>
            </g>
        </g>
    </g>
</svg>