<?xml version="1.0" encoding="UTF-8"?>
<svg width="100px" height="100px" viewBox="0 0 100 100" version="1.1" xmlns="http://www.w3.org/2000/svg" xmlns:xlink="http://www.w3.org/1999/xlink">
    <!-- Generator: Sketch 43.1 (39012) - http://www.bohemiancoding.com/sketch -->
    <title>Group 12</title>
    <desc>Created with Sketch.</desc>
    <defs>
        <rect id="path-1" x="0" y="0" width="100" height="100"></rect>
        <mask id="mask-2" maskContentUnits="userSpaceOnUse" maskUnits="objectBoundingBox" x="0" y="0" width="100" height="100" fill="white">
            <use xlink:href="#path-1"></use>
        </mask>
    </defs>
    <g id="Page-1" stroke="none" stroke-width="1" fill="none" fill-rule="evenodd">
        <g id="Group-12">
            <g id="Group-11" transform="translate(8.000000, 26.000000)" fill="#358FCA">
                <path d="M84.469,44.688 L1.421,44.688 C1.166,44.688 0.959,44.481 0.959,44.226 C0.959,43.971 1.166,43.764 1.421,43.764 L84.469,43.764 C84.725,43.764 84.931,43.971 84.931,44.226 C84.931,44.481 84.725,44.688 84.469,44.688" id="Fill-1"></path>
                <path d="M77.204,47.089 L8.686,47.089 C8.431,47.089 8.224,46.882 8.224,46.627 C8.224,46.372 8.431,46.166 8.686,46.166 L77.204,46.166 C77.459,46.166 77.666,46.372 77.666,46.627 C77.666,46.882 77.459,47.089 77.204,47.089" id="Fill-2"></path>
                <path d="M39.289,43.519 L46.601,43.519 L46.601,28.015 L39.289,28.015 L39.289,43.519 Z M46.97,44.258 L38.92,44.258 C38.716,44.258 38.55,44.093 38.55,43.889 L38.55,27.645 C38.55,27.441 38.716,27.276 38.92,27.276 L46.97,27.276 C47.174,27.276 47.34,27.441 47.34,27.645 L47.34,43.889 C47.34,44.093 47.174,44.258 46.97,44.258 L46.97,44.258 Z" id="Fill-3"></path>
                <path d="M41.745,37.535 C41.745,37.96 41.4,38.305 40.975,38.305 C40.549,38.305 40.204,37.96 40.204,37.535 C40.204,37.11 40.549,36.765 40.975,36.765 C41.4,36.765 41.745,37.11 41.745,37.535" id="Fill-4"></path>
                <polyline id="Fill-5" points="78.938 44.258 6.952 44.258 6.952 21.679 7.691 21.679 7.691 43.519 78.199 43.519 78.199 21.679 78.938 21.679 78.938 44.258"></polyline>
                <path d="M80.785,21.747 L5.105,21.747 C4.995,21.747 4.89,21.697 4.82,21.612 C4.75,21.527 4.721,21.415 4.743,21.307 L7.883,5.119 C7.916,4.945 8.068,4.82 8.245,4.82 L15.789,4.82 C15.993,4.82 16.158,4.985 16.158,5.189 C16.158,5.393 15.993,5.559 15.789,5.559 L8.55,5.559 L5.553,21.008 L80.337,21.008 L77.34,5.559 L70.102,5.559 C69.897,5.559 69.732,5.393 69.732,5.189 C69.732,4.985 69.897,4.82 70.102,4.82 L77.645,4.82 C77.822,4.82 77.974,4.945 78.007,5.119 L81.147,21.307 C81.169,21.415 81.14,21.527 81.07,21.612 C81,21.697 80.895,21.747 80.785,21.747" id="Fill-6"></path>
                <path d="M59.012,5.559 L26.878,5.559 C26.674,5.559 26.508,5.393 26.508,5.189 C26.508,4.985 26.674,4.82 26.878,4.82 L59.012,4.82 C59.216,4.82 59.382,4.985 59.382,5.189 C59.382,5.393 59.216,5.559 59.012,5.559" id="Fill-7"></path>
                <path d="M18.546,16.185 L24.12,16.185 L24.12,10.763 C24.12,8.848 22.676,7.976 21.333,7.976 C19.991,7.976 18.546,8.848 18.546,10.763 L18.546,16.185 Z M24.49,16.924 L18.177,16.924 C17.973,16.924 17.807,16.758 17.807,16.554 L17.807,10.763 C17.807,8.448 19.581,7.237 21.333,7.237 C23.085,7.237 24.859,8.448 24.859,10.763 L24.859,16.554 C24.859,16.758 24.694,16.924 24.49,16.924 L24.49,16.924 Z" id="Fill-8"></path>
                <path d="M21.333,16.758 C21.129,16.758 20.964,16.593 20.964,16.389 L20.964,7.807 C20.964,7.603 21.129,7.438 21.333,7.438 C21.537,7.438 21.703,7.603 21.703,7.807 L21.703,16.389 C21.703,16.593 21.537,16.758 21.333,16.758" id="Fill-9"></path>
                <polygon id="Fill-10" points="18.266 12.643 24.4 12.643 24.4 11.904 18.266 11.904"></polygon>
                <path d="M17.939,17.803 L24.727,17.803 L24.727,16.924 L17.939,16.924 L17.939,17.803 Z M25.097,18.542 L17.57,18.542 C17.366,18.542 17.2,18.376 17.2,18.172 L17.2,16.554 C17.2,16.35 17.366,16.185 17.57,16.185 L25.097,16.185 C25.301,16.185 25.466,16.35 25.466,16.554 L25.466,18.172 C25.466,18.376 25.301,18.542 25.097,18.542 L25.097,18.542 Z" id="Fill-11"></path>
                <path d="M25.5,17.733 C25.296,17.733 25.13,17.567 25.13,17.363 L25.13,6.027 C25.13,5.823 25.296,5.658 25.5,5.658 C25.704,5.658 25.869,5.823 25.869,6.027 L25.869,17.363 C25.869,17.567 25.704,17.733 25.5,17.733" id="Fill-12"></path>
                <path d="M17.167,17.733 C16.963,17.733 16.797,17.567 16.797,17.363 L16.797,6.027 C16.797,5.823 16.963,5.658 17.167,5.658 C17.371,5.658 17.536,5.823 17.536,6.027 L17.536,17.363 C17.536,17.567 17.371,17.733 17.167,17.733" id="Fill-13"></path>
                <path d="M21.333,1.397 C21.249,1.397 21.17,1.424 21.105,1.476 L15.46,5.918 C15.3,6.044 15.272,6.276 15.398,6.436 C15.469,6.526 15.575,6.577 15.689,6.577 C15.747,6.577 15.834,6.564 15.917,6.498 L21.105,2.416 C21.239,2.311 21.428,2.311 21.562,2.416 L26.749,6.498 C26.832,6.564 26.919,6.577 26.977,6.577 C27.091,6.577 27.198,6.526 27.268,6.436 C27.394,6.276 27.366,6.044 27.206,5.918 L21.562,1.476 C21.496,1.424 21.417,1.397 21.333,1.397 Z M15.689,7.316 C15.347,7.316 15.029,7.162 14.818,6.893 C14.44,6.413 14.523,5.715 15.003,5.337 L20.648,0.895 C21.037,0.59 21.63,0.59 22.018,0.895 L27.663,5.337 C28.143,5.715 28.226,6.413 27.849,6.893 C27.637,7.162 27.319,7.316 26.977,7.316 C26.73,7.316 26.487,7.232 26.292,7.079 L21.333,3.177 L16.374,7.079 C16.18,7.232 15.936,7.316 15.689,7.316 L15.689,7.316 Z" id="Fill-14"></path>
                <path d="M61.77,16.185 L67.344,16.185 L67.344,10.763 C67.344,8.848 65.899,7.976 64.557,7.976 C63.215,7.976 61.77,8.848 61.77,10.763 L61.77,16.185 Z M67.714,16.924 L61.4,16.924 C61.196,16.924 61.031,16.758 61.031,16.554 L61.031,10.763 C61.031,8.448 62.805,7.237 64.557,7.237 C66.309,7.237 68.083,8.448 68.083,10.763 L68.083,16.554 C68.083,16.758 67.917,16.924 67.714,16.924 L67.714,16.924 Z" id="Fill-15"></path>
                <path d="M64.557,16.758 C64.353,16.758 64.188,16.593 64.188,16.389 L64.188,7.807 C64.188,7.603 64.353,7.438 64.557,7.438 C64.761,7.438 64.926,7.603 64.926,7.807 L64.926,16.389 C64.926,16.593 64.761,16.758 64.557,16.758" id="Fill-16"></path>
                <polygon id="Fill-17" points="61.49 12.643 67.624 12.643 67.624 11.904 61.49 11.904"></polygon>
                <path d="M61.163,17.803 L67.951,17.803 L67.951,16.924 L61.163,16.924 L61.163,17.803 Z M68.32,18.542 L60.793,18.542 C60.589,18.542 60.424,18.376 60.424,18.172 L60.424,16.554 C60.424,16.35 60.589,16.185 60.793,16.185 L68.32,16.185 C68.524,16.185 68.69,16.35 68.69,16.554 L68.69,18.172 C68.69,18.376 68.524,18.542 68.32,18.542 L68.32,18.542 Z" id="Fill-18"></path>
                <path d="M68.724,17.733 C68.52,17.733 68.354,17.567 68.354,17.363 L68.354,6.027 C68.354,5.823 68.52,5.658 68.724,5.658 C68.928,5.658 69.093,5.823 69.093,6.027 L69.093,17.363 C69.093,17.567 68.928,17.733 68.724,17.733" id="Fill-19"></path>
                <path d="M60.39,17.733 C60.186,17.733 60.021,17.567 60.021,17.363 L60.021,6.027 C60.021,5.823 60.186,5.658 60.39,5.658 C60.594,5.658 60.76,5.823 60.76,6.027 L60.76,17.363 C60.76,17.567 60.594,17.733 60.39,17.733" id="Fill-20"></path>
                <path d="M64.557,1.397 C64.473,1.397 64.394,1.424 64.328,1.476 L58.684,5.918 C58.524,6.044 58.496,6.276 58.622,6.436 C58.693,6.526 58.799,6.577 58.913,6.577 C58.971,6.577 59.058,6.564 59.141,6.498 L64.329,2.416 C64.462,2.311 64.651,2.311 64.785,2.416 L69.973,6.498 C70.056,6.564 70.143,6.577 70.201,6.577 C70.315,6.577 70.421,6.526 70.492,6.436 C70.618,6.276 70.59,6.044 70.43,5.918 L64.785,1.476 C64.72,1.424 64.641,1.397 64.557,1.397 Z M58.913,7.316 C58.571,7.316 58.253,7.162 58.041,6.893 C57.664,6.413 57.747,5.715 58.227,5.337 L63.872,0.895 C64.26,0.59 64.853,0.59 65.242,0.895 L70.887,5.337 C71.367,5.715 71.45,6.413 71.072,6.893 C70.861,7.162 70.543,7.316 70.201,7.316 C69.954,7.316 69.711,7.232 69.516,7.079 L64.557,3.177 L59.598,7.079 C59.403,7.232 59.16,7.316 58.913,7.316 L58.913,7.316 Z" id="Fill-21"></path>
                <path d="M12.806,37.323 L18.101,37.323 L18.101,28.245 L12.806,28.245 L12.806,37.323 Z M18.471,38.062 L12.437,38.062 C12.233,38.062 12.067,37.897 12.067,37.693 L12.067,27.875 C12.067,27.671 12.233,27.506 12.437,27.506 L18.471,27.506 C18.675,27.506 18.84,27.671 18.84,27.875 L18.84,37.693 C18.84,37.897 18.675,38.062 18.471,38.062 L18.471,38.062 Z" id="Fill-22"></path>
                <path d="M11.652,39.143 L19.256,39.143 L19.256,38.062 L11.652,38.062 L11.652,39.143 Z M19.625,39.882 L11.282,39.882 C11.078,39.882 10.913,39.717 10.913,39.513 L10.913,37.693 C10.913,37.489 11.078,37.323 11.282,37.323 L19.625,37.323 C19.829,37.323 19.995,37.489 19.995,37.693 L19.995,39.513 C19.995,39.717 19.829,39.882 19.625,39.882 L19.625,39.882 Z" id="Fill-23"></path>
                <path d="M18.471,33.154 L12.437,33.154 C12.233,33.154 12.067,32.988 12.067,32.784 C12.067,32.58 12.233,32.415 12.437,32.415 L18.471,32.415 C18.675,32.415 18.84,32.58 18.84,32.784 C18.84,32.988 18.675,33.154 18.471,33.154" id="Fill-24"></path>
                <path d="M15.454,37.932 C15.25,37.932 15.084,37.766 15.084,37.562 L15.084,28.006 C15.084,27.802 15.25,27.637 15.454,27.637 C15.658,27.637 15.823,27.802 15.823,28.006 L15.823,37.562 C15.823,37.766 15.658,37.932 15.454,37.932" id="Fill-25"></path>
                <path d="M28.906,37.323 L34.201,37.323 L34.201,28.245 L28.906,28.245 L28.906,37.323 Z M34.57,38.062 L28.536,38.062 C28.332,38.062 28.167,37.897 28.167,37.693 L28.167,27.875 C28.167,27.671 28.332,27.506 28.536,27.506 L34.57,27.506 C34.774,27.506 34.94,27.671 34.94,27.875 L34.94,37.693 C34.94,37.897 34.774,38.062 34.57,38.062 L34.57,38.062 Z" id="Fill-26"></path>
                <path d="M27.751,39.143 L35.355,39.143 L35.355,38.062 L27.751,38.062 L27.751,39.143 Z M35.725,39.882 L27.382,39.882 C27.178,39.882 27.012,39.717 27.012,39.513 L27.012,37.693 C27.012,37.489 27.178,37.323 27.382,37.323 L35.725,37.323 C35.929,37.323 36.094,37.489 36.094,37.693 L36.094,39.513 C36.094,39.717 35.929,39.882 35.725,39.882 L35.725,39.882 Z" id="Fill-27"></path>
                <path d="M34.57,33.154 L28.536,33.154 C28.332,33.154 28.167,32.988 28.167,32.784 C28.167,32.58 28.332,32.415 28.536,32.415 L34.57,32.415 C34.774,32.415 34.94,32.58 34.94,32.784 C34.94,32.988 34.774,33.154 34.57,33.154" id="Fill-28"></path>
                <path d="M31.553,37.932 C31.349,37.932 31.184,37.766 31.184,37.562 L31.184,28.006 C31.184,27.802 31.349,27.637 31.553,27.637 C31.757,27.637 31.923,27.802 31.923,28.006 L31.923,37.562 C31.923,37.766 31.757,37.932 31.553,37.932" id="Fill-29"></path>
                <path d="M51.689,37.323 L56.984,37.323 L56.984,28.245 L51.689,28.245 L51.689,37.323 Z M57.354,38.062 L51.32,38.062 C51.116,38.062 50.95,37.897 50.95,37.693 L50.95,27.875 C50.95,27.671 51.116,27.506 51.32,27.506 L57.354,27.506 C57.558,27.506 57.723,27.671 57.723,27.875 L57.723,37.693 C57.723,37.897 57.558,38.062 57.354,38.062 L57.354,38.062 Z" id="Fill-30"></path>
                <path d="M50.535,39.143 L58.139,39.143 L58.139,38.062 L50.535,38.062 L50.535,39.143 Z M58.508,39.882 L50.165,39.882 C49.961,39.882 49.796,39.717 49.796,39.513 L49.796,37.693 C49.796,37.489 49.961,37.323 50.165,37.323 L58.508,37.323 C58.712,37.323 58.878,37.489 58.878,37.693 L58.878,39.513 C58.878,39.717 58.712,39.882 58.508,39.882 L58.508,39.882 Z" id="Fill-31"></path>
                <path d="M57.354,33.154 L51.32,33.154 C51.116,33.154 50.95,32.988 50.95,32.784 C50.95,32.58 51.116,32.415 51.32,32.415 L57.354,32.415 C57.558,32.415 57.723,32.58 57.723,32.784 C57.723,32.988 57.558,33.154 57.354,33.154" id="Fill-32"></path>
                <path d="M54.337,37.932 C54.133,37.932 53.967,37.766 53.967,37.562 L53.967,28.006 C53.967,27.802 54.133,27.637 54.337,27.637 C54.541,27.637 54.706,27.802 54.706,28.006 L54.706,37.562 C54.706,37.766 54.541,37.932 54.337,37.932" id="Fill-33"></path>
                <path d="M67.789,37.323 L73.084,37.323 L73.084,28.245 L67.789,28.245 L67.789,37.323 Z M73.453,38.062 L67.419,38.062 C67.215,38.062 67.05,37.897 67.05,37.693 L67.05,27.875 C67.05,27.671 67.215,27.506 67.419,27.506 L73.453,27.506 C73.657,27.506 73.823,27.671 73.823,27.875 L73.823,37.693 C73.823,37.897 73.657,38.062 73.453,38.062 L73.453,38.062 Z" id="Fill-34"></path>
                <path d="M66.634,39.143 L74.238,39.143 L74.238,38.062 L66.634,38.062 L66.634,39.143 Z M74.608,39.882 L66.265,39.882 C66.061,39.882 65.895,39.717 65.895,39.513 L65.895,37.693 C65.895,37.489 66.061,37.323 66.265,37.323 L74.608,37.323 C74.812,37.323 74.977,37.489 74.977,37.693 L74.977,39.513 C74.977,39.717 74.812,39.882 74.608,39.882 L74.608,39.882 Z" id="Fill-35"></path>
                <path d="M73.453,33.154 L67.419,33.154 C67.215,33.154 67.05,32.988 67.05,32.784 C67.05,32.58 67.215,32.415 67.419,32.415 L73.453,32.415 C73.657,32.415 73.823,32.58 73.823,32.784 C73.823,32.988 73.657,33.154 73.453,33.154" id="Fill-36"></path>
                <path d="M70.436,37.932 C70.232,37.932 70.067,37.766 70.067,37.562 L70.067,28.006 C70.067,27.802 70.232,27.637 70.436,27.637 C70.64,27.637 70.806,27.802 70.806,28.006 L70.806,37.562 C70.806,37.766 70.64,37.932 70.436,37.932" id="Fill-37"></path>
            </g>
            <use id="Rectangle" stroke="#358FCA" mask="url(#mask-2)" stroke-width="4" stroke-dasharray="5,2" xlink:href="#path-1"></use>
        </g>
    </g>
</svg>