<?xml version="1.0" encoding="iso-8859-1"?>
<!-- Generator: Adobe Illustrator 19.0.0, SVG Export Plug-In . SVG Version: 6.00 Build 0)  -->
<svg xmlns="http://www.w3.org/2000/svg" xmlns:xlink="http://www.w3.org/1999/xlink" version="1.1" id="Capa_1" x="0px" y="0px" viewBox="0 0 464 464" style="enable-background:new 0 0 464 464;" xml:space="preserve" width="512px" height="512px">
<g>
	<g>
		<path d="M432,244.808V126.456V98.528c9.288-3.312,16-12.112,16-22.528c0-13.232-10.768-24-24-24s-24,10.768-24,24    c0,10.416,6.712,19.216,16,22.528v21.928l-12.424-4.656c-110.664-41.496-232.52-41.496-343.152,0L48,120.456V98.528    C57.288,95.216,64,86.416,64,76c0-13.232-10.768-24-24-24S16,62.768,16,76c0,10.416,6.712,19.216,16,22.528v27.928v118.352    C13.768,248.528,0,264.688,0,284v56v16v32h32v24h16v-24h368v24h16v-24h32v-32v-16v-56C464,264.688,450.232,248.528,432,244.808z     M424,68c4.416,0,8,3.592,8,8s-3.584,8-8,8c-4.416,0-8-3.592-8-8S419.584,68,424,68z M66.04,130.784    c107.008-40.128,224.88-40.136,331.92,0l18.04,6.76V244h-32v-16c0-22.056-17.944-40-40-40h-64c-22.056,0-40,17.944-40,40v16h-16    v-16c0-22.056-17.944-40-40-40h-64c-22.056,0-40,17.944-40,40v16H48V137.544L66.04,130.784z M368,228v16H256v-16    c0-13.232,10.768-24,24-24h64C357.232,204,368,214.768,368,228z M208,228v16H96v-16c0-13.232,10.768-24,24-24h64    C197.232,204,208,214.768,208,228z M40,68c4.408,0,8,3.592,8,8s-3.592,8-8,8s-8-3.592-8-8S35.592,68,40,68z M448,372H16v-16h432    V372z M448,340H16v-56c0-13.232,10.768-24,24-24h40h144h16h144h40c13.232,0,24,10.768,24,24V340z" fill="#348bc9"/>
	</g>
</g>
<g>
	<g>
		<rect x="384" y="284" width="16" height="16" fill="#348bc9"/>
	</g>
</g>
<g>
	<g>
		<rect x="352" y="300" width="16" height="16" fill="#348bc9"/>
	</g>
</g>
<g>
	<g>
		<rect x="224" y="124" width="16" height="16" fill="#348bc9"/>
	</g>
</g>
<g>
	<g>
		<rect x="256" y="156" width="16" height="16" fill="#348bc9"/>
	</g>
</g>
<g>
	<g>
		<rect x="192" y="156" width="16" height="16" fill="#348bc9"/>
	</g>
</g>
<g>
	<g>
		<rect x="160" y="124" width="16" height="16" fill="#348bc9"/>
	</g>
</g>
<g>
	<g>
		<rect x="128" y="156" width="16" height="16" fill="#348bc9"/>
	</g>
</g>
<g>
	<g>
		<rect x="288" y="124" width="16" height="16" fill="#348bc9"/>
	</g>
</g>
<g>
	<g>
		<rect x="320" y="156" width="16" height="16" fill="#348bc9"/>
	</g>
</g>
<g>
	<g>
		<rect x="88" y="140" width="16" height="16" fill="#348bc9"/>
	</g>
</g>
<g>
	<g>
		<rect x="360" y="140" width="16" height="16" fill="#348bc9"/>
	</g>
</g>
<g>
</g>
<g>
</g>
<g>
</g>
<g>
</g>
<g>
</g>
<g>
</g>
<g>
</g>
<g>
</g>
<g>
</g>
<g>
</g>
<g>
</g>
<g>
</g>
<g>
</g>
<g>
</g>
<g>
</g>
</svg>
