<?xml version="1.0" encoding="UTF-8"?>
<svg width="90px" height="102px" viewBox="0 0 90 102" version="1.1" xmlns="http://www.w3.org/2000/svg" xmlns:xlink="http://www.w3.org/1999/xlink">
    <!-- Generator: Sketch 43.1 (39012) - http://www.bohemiancoding.com/sketch -->
    <title>idea</title>
    <desc>Created with Sketch.</desc>
    <defs></defs>
    <g id="Page-1" stroke="none" stroke-width="1" fill="none" fill-rule="evenodd">
        <g id="Careers" transform="translate(-1042.000000, -3996.000000)" fill-rule="nonzero" fill="#3589C4">
            <g id="Group-3-Copy-8" transform="translate(927.000000, 3940.000000)">
                <g id="Group-9">
                    <g id="idea" transform="translate(115.000000, 56.000000)">
                        <path d="M50.9205727,0 C29.467467,0 12.0132159,17.4542511 12.0132159,38.9075551 L12.0132159,45.1411454 L0.477951542,61.6210573 C0.115969163,62.1386564 0.0719603524,62.8118722 0.362973568,63.3718943 C0.653986784,63.9319163 1.23244493,64.2820044 1.86343612,64.2820044 L12.0132159,64.2820044 L12.0132159,76.123348 C12.0132159,82.6513216 17.325,87.9646916 23.8545595,87.9646916 L30.6210132,87.9646916 L30.6210132,99.8060352 C30.6210132,100.74152 31.3788767,101.497599 32.3125771,101.497599 L76.295022,101.497599 C77.2305066,101.497599 77.9865859,100.74152 77.9865859,99.8060352 L77.9865859,97.6999559 C78.0609251,85.000837 80.5071806,72.5927313 85.2522026,60.8308811 C88.1262555,53.8529075 89.6655727,46.489163 89.8281278,38.9428414 L89.8281278,38.9073568 C89.8281278,17.4542511 72.3756608,0 50.9205727,0 Z M82.1176652,59.5556167 C77.2102863,71.7268282 74.6811674,84.5528194 74.6034581,97.69163 L74.6034581,98.1144714 L34.0043392,98.1144714 L34.0043392,86.2731278 C34.0043392,85.3376432 33.2464758,84.5815639 32.3127753,84.5815639 L23.8545595,84.5815639 C19.190815,84.5815639 15.3963436,80.7872907 15.3963436,76.123348 L15.3963436,62.5902423 C15.3963436,61.6547577 14.6384802,60.8986784 13.7047797,60.8986784 L5.11136564,60.8986784 L15.0902643,46.6433921 C15.2898899,46.3591189 15.3965419,46.0209251 15.3965419,45.6740088 L15.3965419,38.9075551 C15.3965419,19.3184802 31.331696,3.38332599 50.9207709,3.38332599 C70.5031057,3.38332599 86.4348899,19.3099559 86.445,38.8889207 C86.289185,46.0090308 84.8343172,52.9598458 82.1176652,59.5556167 Z" id="Shape"></path>
                        <path d="M50.9663656,18.5639868 L50.9207709,18.5639868 C39.7492731,18.5639868 30.64837,27.6412996 30.6212115,38.8179515 C30.6077313,44.9179295 33.2974229,50.6424449 37.9712775,54.4975771 C39.8168722,56.0961674 40.8385903,58.4119824 40.7709912,60.8986784 L40.7709912,69.3568943 C40.7709912,72.1548238 43.0479515,74.4317841 45.8458811,74.4317841 L55.9956608,74.4317841 C58.7935903,74.4317841 61.0705507,72.1548238 61.0705507,69.3568943 L61.0705507,60.4859471 C61.1111894,58.107489 62.1903965,55.8796916 64.0579956,54.3572247 C68.6152863,50.5070485 71.2270705,44.8757048 71.2203304,38.9093392 C71.2439207,27.7174229 62.1580837,18.5909471 50.9663656,18.5639868 Z M61.8942291,51.7553524 C59.2755066,53.8919604 57.7413436,57.0534581 57.6854405,60.4605727 L57.6854405,69.3584802 C57.6854405,70.2921806 56.9275771,71.0500441 55.9938767,71.0500441 L45.8440969,71.0500441 C44.9119824,71.0500441 44.152533,70.2921806 44.152533,69.3584802 L44.152533,60.9460573 C44.2455066,57.4883921 42.8009471,54.204978 40.1552643,51.9143392 C36.2357048,48.681674 33.9926432,43.9112775 34.0045374,38.8278634 C34.0265419,29.5120705 41.6117181,21.9487004 50.9207709,21.9487004 L50.9580396,21.9487004 C60.2857269,21.9707048 67.8574229,29.5762996 67.8354185,38.9039868 L67.8354185,38.909141 C67.8419604,43.879163 65.6664978,48.5682819 61.8942291,51.7553524 Z" id="Shape"></path>
                        <rect id="Rectangle-path" x="42.4625551" y="60.8986784" width="16.9162335" height="3.38332599"></rect>
                        <path d="M59.179163,38.1090529 C58.8847797,37.5593392 58.3112775,37.215793 57.6872247,37.215793 L44.1541189,37.215793 C43.5298678,37.215793 42.9581498,37.559141 42.6621806,38.1106388 C42.3677974,38.6603524 42.3999119,39.3268282 42.7468282,39.8462115 L45.8458811,44.4948899 L45.8458811,62.5902423 L49.229207,62.5902423 L49.229207,43.9822467 C49.229207,43.6490088 49.1294934,43.3207269 48.9449339,43.0433921 L47.3142291,40.5989207 L54.5273128,40.5989207 L52.8966079,43.0433921 C52.7122467,43.3207269 52.6123348,43.6490088 52.6123348,43.9822467 L52.6123348,62.5902423 L55.9956608,62.5902423 L55.9956608,44.4948899 L59.0947137,39.8446256 C59.4396476,39.3270264 59.4735463,38.6587665 59.179163,38.1090529 Z" id="Shape"></path>
                        <rect id="Rectangle-path" x="49.2290088" y="8.45821586" width="3.38332599" height="6.76645374"></rect>
                        <rect id="Rectangle-path" x="20.4712335" y="37.215793" width="6.76645374" height="3.38332599"></rect>
                        <rect id="Rectangle-path" x="74.6034581" y="35.5242291" width="6.76645374" height="3.38332599"></rect>
                        <rect id="Rectangle-path" transform="translate(31.466897, 19.455380) rotate(-45.000000) translate(-31.466897, -19.455380) " x="29.77525" y="15.8666147" width="3.38329354" height="7.17753029"></rect>
                        <rect id="Rectangle-path" transform="translate(70.376172, 19.457071) rotate(-45.000000) translate(-70.376172, -19.457071) " x="66.7874068" y="17.765523" width="7.17753029" height="3.38309531"></rect>
                        <rect id="Rectangle-path" transform="translate(29.775183, 56.668298) rotate(-45.000000) translate(-29.775183, -56.668298) " x="26.1864174" y="54.9766508" width="7.17753029" height="3.38329354"></rect>
                        <rect id="Rectangle-path" transform="translate(72.064849, 56.672678) rotate(-45.000000) translate(-72.064849, -56.672678) " x="70.3732018" y="53.0839133" width="3.38329354" height="7.17753029"></rect>
                    </g>
                </g>
            </g>
        </g>
    </g>
</svg>