<?xml version="1.0" encoding="UTF-8"?>
<svg width="340px" height="228px" viewBox="0 0 340 228" version="1.1" xmlns="http://www.w3.org/2000/svg" xmlns:xlink="http://www.w3.org/1999/xlink">
    <!-- Generator: Sketch 43.1 (39012) - http://www.bohemiancoding.com/sketch -->
    <title>Group 15</title>
    <desc>Created with Sketch.</desc>
    <defs></defs>
    <g id="Page-1" stroke="none" stroke-width="1" fill="none" fill-rule="evenodd">
        <g id="HomeBuying-Copy" transform="translate(-335.000000, -2693.000000)">
            <g id="Group-15" transform="translate(335.000000, 2693.000000)">
                <g id="Group-6" fill="#358FCA">
                    <g id="Group-13-Copy">
                        <g id="Group-12">
                            <g id="Group-11-Copy" transform="translate(28.000000, 0.000000)">
                                <g id="House-3" transform="translate(0.000000, 0.135177)">
                                    <path d="M226.625166,180.810764 L1.53603289,180.810764 C0.844893678,180.810764 0.283851261,180.248991 0.283851261,179.556953 C0.283851261,178.864914 0.844893678,178.303141 1.53603289,178.303141 L226.625166,178.303141 C227.319016,178.303141 227.877348,178.864914 227.877348,179.556953 C227.877348,180.248991 227.319016,180.810764 226.625166,180.810764" id="Fill-480"></path>
                                    <path d="M206.934475,187.326782 L21.2267245,187.326782 C20.5355853,187.326782 19.9772532,186.767724 19.9772532,186.075685 C19.9772532,185.380933 20.5355853,184.821874 21.2267245,184.821874 L206.934475,184.821874 C207.625614,184.821874 208.186656,185.380933 208.186656,186.075685 C208.186656,186.767724 207.625614,187.326782 206.934475,187.326782" id="Fill-481"></path>
                                    <polygon id="Fill-482" points="209.156962 180.05902 211.1572 180.05902 211.1572 104.130168 209.156962 104.130168"></polygon>
                                    <path d="M209.184065,99.7743957 L204.931526,82.1749032 L142.197769,82.1749032 L142.197769,80.1720619 L205.720238,80.1720619 C206.180997,80.1720619 206.58484,80.4868716 206.693254,80.9373752 L211.130096,99.3021811 L209.184065,99.7743957" id="Fill-483"></path>
                                    <path d="M18.9771341,99.7743957 L17.0311029,99.3021811 L21.4679456,80.9373752 C21.5763596,80.4868716 21.9802017,80.1720619 22.4409612,80.1720619 L85.9580097,80.1720619 L85.9580097,82.1749032 L23.229673,82.1749032 L18.9771341,99.7743957" id="Fill-484"></path>
                                    <polygon id="Fill-485" points="17.0039994 180.05902 19.0042376 180.05902 19.0042376 104.130168 17.0039994 104.130168"></polygon>
                                    <path d="M215.398897,105.131589 L171.222905,105.131589 L171.222905,103.126034 L214.398778,103.126034 L214.398778,100.539709 L161.080776,100.539709 L161.080776,98.5368678 L215.398897,98.5368678 C215.951809,98.5368678 216.401727,98.9846575 216.401727,99.5382884 L216.401727,104.130168 C216.401727,104.683799 215.951809,105.131589 215.398897,105.131589" id="Fill-486"></path>
                                    <polygon id="Fill-487" points="70.3138704 105.131589 158.226778 105.131589 158.226778 103.126034 70.3138704 103.126034"></polygon>
                                    <path d="M56.7675419,105.131589 L12.7623019,105.131589 C12.2093906,105.131589 11.7621828,104.683799 11.7621828,104.130168 L11.7621828,99.5382884 C11.7621828,98.9846575 12.2093906,98.5368678 12.7623019,98.5368678 L66.9340642,98.5368678 L66.9340642,100.539709 L13.7651314,100.539709 L13.7651314,103.126034 L56.7675419,103.126034 L56.7675419,105.131589" id="Fill-488"></path>
                                    <polygon id="Fill-489" points="80.1307575 100.539709 148.274373 100.539709 148.274373 98.5368678 80.1307575 98.5368678"></polygon>
                                    <path d="M124.951813,179.5271 C124.398901,179.5271 123.948983,179.07931 123.948983,178.525679 L123.948983,139.491986 L104.212216,139.491986 L104.212216,178.525679 C104.212216,179.07931 103.762298,179.5271 103.209386,179.5271 C102.656475,179.5271 102.209267,179.07931 102.209267,178.525679 L102.209267,138.487851 C102.209267,137.936934 102.656475,137.486431 103.209386,137.486431 L124.951813,137.486431 C125.504724,137.486431 125.951932,137.936934 125.951932,138.487851 L125.951932,178.525679 C125.951932,179.07931 125.504724,179.5271 124.951813,179.5271" id="Fill-490"></path>
                                    <path d="M108.212692,157.153898 C108.212692,158.054905 107.483608,158.787652 106.581062,158.787652 C105.681225,158.787652 104.952141,158.054905 104.952141,157.153898 C104.952141,156.252891 105.681225,155.520144 106.581062,155.520144 C107.483608,155.520144 108.212692,156.252891 108.212692,157.153898" id="Fill-491"></path>
                                    <path d="M75.447273,110.315094 L63.4675267,110.315094 C62.9146153,110.315094 62.4674076,109.867304 62.4674076,109.313673 L62.4674076,107.017733 L64.4703562,107.017733 L64.4703562,108.309539 L74.4444436,108.309539 L74.4444436,105.131589 L69.4248757,105.131589 L69.4248757,103.126034 L75.447273,103.126034 C76.0001844,103.126034 76.4473921,103.576537 76.4473921,104.130168 L76.4473921,109.313673 C76.4473921,109.867304 76.0001844,110.315094 75.447273,110.315094" id="Fill-492"></path>
                                    <path d="M66.1128282,113.93812 L72.8019716,113.93812 L72.8019716,110.315094 L66.1128282,110.315094 L66.1128282,113.93812 Z M73.8020906,115.943675 L65.1127091,115.943675 C64.5597977,115.943675 64.1098796,115.495885 64.1098796,114.939541 L64.1098796,109.313673 C64.1098796,108.760043 64.5597977,108.309539 65.1127091,108.309539 L73.8020906,108.309539 C74.355002,108.309539 74.8022097,108.760043 74.8022097,109.313673 L74.8022097,114.939541 C74.8022097,115.495885 74.355002,115.943675 73.8020906,115.943675 L73.8020906,115.943675 Z" id="Fill-493"></path>
                                    <path d="M72.5824332,169.998678 L66.3323665,169.998678 C65.7794551,169.998678 65.3322474,169.550888 65.3322474,168.997257 L65.3322474,114.643728 L67.3351959,114.643728 L67.3351959,167.995836 L71.5796038,167.995836 L71.5796038,114.643728 L73.5825523,114.643728 L73.5825523,168.997257 C73.5825523,169.550888 73.1353446,169.998678 72.5824332,169.998678" id="Fill-494"></path>
                                    <path d="M64.4703562,178.54739 L74.4444436,178.54739 L74.4444436,175.36944 L64.4703562,175.36944 L64.4703562,178.54739 Z M75.447273,180.552945 L63.4675267,180.552945 C62.9146153,180.552945 62.4674076,180.102442 62.4674076,179.548811 L62.4674076,174.365306 C62.4674076,173.811675 62.9146153,173.363885 63.4675267,173.363885 L75.447273,173.363885 C76.0001844,173.363885 76.4473921,173.811675 76.4473921,174.365306 L76.4473921,179.548811 C76.4473921,180.102442 76.0001844,180.552945 75.447273,180.552945 L75.447273,180.552945 Z" id="Fill-495"></path>
                                    <path d="M66.1128282,173.363885 L72.8019716,173.363885 L72.8019716,169.740859 L66.1128282,169.740859 L66.1128282,173.363885 Z M73.8020906,175.36944 L65.1127091,175.36944 C64.5597977,175.36944 64.1098796,174.918937 64.1098796,174.365306 L64.1098796,168.736725 C64.1098796,168.185808 64.5597977,167.735304 65.1127091,167.735304 L73.8020906,167.735304 C74.355002,167.735304 74.8022097,168.185808 74.8022097,168.736725 L74.8022097,174.365306 C74.8022097,174.918937 74.355002,175.36944 73.8020906,175.36944 L73.8020906,175.36944 Z" id="Fill-496"></path>
                                    <path d="M164.693673,110.315094 L152.716637,110.315094 C152.163725,110.315094 151.713807,109.867304 151.713807,109.313673 L151.713807,104.130168 C151.713807,103.576537 152.163725,103.126034 152.716637,103.126034 L158.226778,103.126034 C158.779689,103.126034 159.229607,103.576537 159.229607,104.130168 C159.229607,104.683799 158.779689,105.131589 158.226778,105.131589 L153.716756,105.131589 L153.716756,108.309539 L163.690843,108.309539 L163.690843,107.240271 C163.690843,106.68664 164.140761,106.236137 164.693673,106.236137 C165.246584,106.236137 165.693792,106.68664 165.693792,107.240271 L165.693792,109.313673 C165.693792,109.867304 165.246584,110.315094 164.693673,110.315094" id="Fill-497"></path>
                                    <path d="M155.361938,113.93812 L162.048371,113.93812 L162.048371,110.315094 L155.361938,110.315094 L155.361938,113.93812 Z M163.04849,115.943675 L154.359109,115.943675 C153.806197,115.943675 153.358989,115.495885 153.358989,114.939541 L153.358989,109.313673 C153.358989,108.760043 153.806197,108.309539 154.359109,108.309539 L163.04849,108.309539 C163.601402,108.309539 164.05132,108.760043 164.05132,109.313673 L164.05132,114.939541 C164.05132,115.495885 163.601402,115.943675 163.04849,115.943675 L163.04849,115.943675 Z" id="Fill-498"></path>
                                    <path d="M161.828833,169.998678 L155.578766,169.998678 C155.025855,169.998678 154.578647,169.550888 154.578647,168.997257 L154.578647,114.643728 L156.581595,114.643728 L156.581595,167.995836 L160.826003,167.995836 L160.826003,114.643728 L162.828952,114.643728 L162.828952,168.997257 C162.828952,169.550888 162.381744,169.998678 161.828833,169.998678" id="Fill-499"></path>
                                    <path d="M153.716756,178.54739 L163.690843,178.54739 L163.690843,175.36944 L153.716756,175.36944 L153.716756,178.54739 Z M164.693673,180.552945 L152.716637,180.552945 C152.163725,180.552945 151.713807,180.102442 151.713807,179.548811 L151.713807,174.365306 C151.713807,173.811675 152.163725,173.363885 152.716637,173.363885 L164.693673,173.363885 C165.246584,173.363885 165.693792,173.811675 165.693792,174.365306 L165.693792,179.548811 C165.693792,180.102442 165.246584,180.552945 164.693673,180.552945 L164.693673,180.552945 Z" id="Fill-500"></path>
                                    <path d="M155.361938,173.363885 L162.048371,173.363885 L162.048371,169.740859 L155.361938,169.740859 L155.361938,173.363885 Z M163.04849,175.36944 L154.359109,175.36944 C153.806197,175.36944 153.358989,174.918937 153.358989,174.365306 L153.358989,168.736725 C153.358989,168.185808 153.806197,167.735304 154.359109,167.735304 L163.04849,167.735304 C163.601402,167.735304 164.05132,168.185808 164.05132,168.736725 L164.05132,174.365306 C164.05132,174.918937 163.601402,175.36944 163.04849,175.36944 L163.04849,175.36944 Z" id="Fill-501"></path>
                                    <path d="M80.5074961,166.112406 L96.845485,166.112406 L96.845485,147.153261 C96.845485,141.532822 92.6119185,138.973635 88.6764906,138.973635 C84.7437729,138.973635 80.5074961,141.532822 80.5074961,147.153261 L80.5074961,166.112406 Z M97.8483144,168.117961 L79.5073771,168.117961 C79.2417628,168.117961 78.9869899,168.01212 78.7999758,167.822148 C78.6102513,167.634891 78.5045476,167.379786 78.5045476,167.113826 L78.5045476,147.153261 C78.5045476,140.466268 83.6216881,136.96808 88.6764906,136.96808 C93.731293,136.96808 98.8484335,140.466268 98.8484335,147.153261 L98.8484335,167.113826 C98.8484335,167.667457 98.4012258,168.117961 97.8483144,168.117961 L97.8483144,168.117961 Z" id="Fill-502"></path>
                                    <polygon id="Fill-503" points="79.5073771 155.913656 97.8483144 155.913656 97.8483144 153.908101 79.5073771 153.908101"></polygon>
                                    <path d="M88.6764906,168.117961 C88.1235792,168.117961 87.6763715,167.667457 87.6763715,167.113826 L87.6763715,137.969501 C87.6763715,137.41587 88.1235792,136.96808 88.6764906,136.96808 C89.2294019,136.96808 89.67932,137.41587 89.67932,137.969501 L89.67932,167.113826 C89.67932,167.667457 89.2294019,168.117961 88.6764906,168.117961" id="Fill-504"></path>
                                    <path d="M131.315714,166.112406 L147.653703,166.112406 L147.653703,147.153261 C147.653703,141.532822 143.420137,138.973635 139.484709,138.973635 C135.549281,138.973635 131.315714,141.532822 131.315714,147.153261 L131.315714,166.112406 Z M148.653822,168.117961 L130.312885,168.117961 C129.759973,168.117961 129.312766,167.667457 129.312766,167.113826 L129.312766,147.153261 C129.312766,140.466268 134.429906,136.96808 139.484709,136.96808 C144.539511,136.96808 149.656652,140.466268 149.656652,147.153261 L149.656652,167.113826 C149.656652,167.667457 149.206734,168.117961 148.653822,168.117961 L148.653822,168.117961 Z" id="Fill-505"></path>
                                    <polygon id="Fill-506" points="130.312885 155.913656 148.653822 155.913656 148.653822 153.908101 130.312885 153.908101"></polygon>
                                    <path d="M139.484709,168.117961 C138.931797,168.117961 138.481879,167.667457 138.481879,167.113826 L138.481879,137.969501 C138.481879,137.41587 138.931797,136.96808 139.484709,136.96808 C140.03762,136.96808 140.484828,137.41587 140.484828,137.969501 L140.484828,167.113826 C140.484828,167.667457 140.03762,168.117961 139.484709,168.117961" id="Fill-507"></path>
                                    <path d="M170.155027,163.55322 L203.649531,163.55322 L203.649531,137.122771 L170.155027,137.122771 L170.155027,163.55322 Z M204.65236,165.558775 L169.154908,165.558775 C168.601997,165.558775 168.152079,165.108271 168.152079,164.55464 L168.152079,136.118637 C168.152079,135.565006 168.601997,135.117216 169.154908,135.117216 L204.65236,135.117216 C205.205272,135.117216 205.652479,135.565006 205.652479,136.118637 L205.652479,164.55464 C205.652479,165.108271 205.205272,165.558775 204.65236,165.558775 L204.65236,165.558775 Z" id="Fill-508"></path>
                                    <path d="M182.256739,163.55322 L191.547819,163.55322 L191.547819,137.122771 L182.256739,137.122771 L182.256739,163.55322 Z M192.550648,165.558775 L181.25662,165.558775 C180.703709,165.558775 180.253791,165.108271 180.253791,164.55464 L180.253791,136.118637 C180.253791,135.565006 180.703709,135.117216 181.25662,135.117216 L192.550648,135.117216 C193.10356,135.117216 193.550767,135.565006 193.550767,136.118637 L193.550767,164.55464 C193.550767,165.108271 193.10356,165.558775 192.550648,165.558775 L192.550648,165.558775 Z" id="Fill-509"></path>
                                    <path d="M24.5116685,163.55322 L58.0061718,163.55322 L58.0061718,137.122771 L24.5116685,137.122771 L24.5116685,163.55322 Z M59.0090012,165.558775 L23.508839,165.558775 C22.9559277,165.558775 22.5087199,165.108271 22.5087199,164.55464 L22.5087199,136.118637 C22.5087199,135.565006 22.9559277,135.117216 23.508839,135.117216 L59.0090012,135.117216 C59.5619126,135.117216 60.0091203,135.565006 60.0091203,136.118637 L60.0091203,164.55464 C60.0091203,165.108271 59.5619126,165.558775 59.0090012,165.558775 L59.0090012,165.558775 Z" id="Fill-510"></path>
                                    <path d="M36.6133805,163.55322 L45.9044598,163.55322 L45.9044598,137.122771 L36.6133805,137.122771 L36.6133805,163.55322 Z M46.9045788,165.558775 L35.6105511,165.558775 C35.0576397,165.558775 34.610432,165.108271 34.610432,164.55464 L34.610432,136.118637 C34.610432,135.565006 35.0576397,135.117216 35.6105511,135.117216 L46.9045788,135.117216 C47.4574902,135.117216 47.9074083,135.565006 47.9074083,136.118637 L47.9074083,164.55464 C47.9074083,165.108271 47.4574902,165.558775 46.9045788,165.558775 L46.9045788,165.558775 Z" id="Fill-511"></path>
                                    <path d="M163.498408,66.399136 L196.995622,66.399136 L196.995622,39.9659737 L163.498408,39.9659737 L163.498408,66.399136 Z M197.995741,68.4019772 L162.498289,68.4019772 C161.945378,68.4019772 161.49546,67.9541875 161.49546,67.4005566 L161.49546,38.9645531 C161.49546,38.4109222 161.945378,37.9631325 162.498289,37.9631325 L197.995741,37.9631325 C198.548652,37.9631325 198.99586,38.4109222 198.99586,38.9645531 L198.99586,67.4005566 C198.99586,67.9541875 198.548652,68.4019772 197.995741,68.4019772 L197.995741,68.4019772 Z" id="Fill-512"></path>
                                    <path d="M175.60012,66.399136 L184.89391,66.399136 L184.89391,39.9659737 L175.60012,39.9659737 L175.60012,66.399136 Z M185.894029,68.4019772 L174.600001,68.4019772 C174.04709,68.4019772 173.597172,67.9541875 173.597172,67.4005566 L173.597172,38.9645531 C173.597172,38.4109222 174.04709,37.9631325 174.600001,37.9631325 L185.894029,37.9631325 C186.44694,37.9631325 186.894148,38.4109222 186.894148,38.9645531 L186.894148,67.4005566 C186.894148,67.9541875 186.44694,68.4019772 185.894029,68.4019772 L185.894029,68.4019772 Z" id="Fill-513"></path>
                                    <path d="M97.3333479,66.399136 L130.827851,66.399136 L130.827851,39.9659737 L97.3333479,39.9659737 L97.3333479,66.399136 Z M131.830681,68.4019772 L96.3305185,68.4019772 C95.7776071,68.4019772 95.3303994,67.9541875 95.3303994,67.4005566 L95.3303994,38.9645531 C95.3303994,38.4109222 95.7776071,37.9631325 96.3305185,37.9631325 L131.830681,37.9631325 C132.383592,37.9631325 132.8308,38.4109222 132.8308,38.9645531 L132.8308,67.4005566 C132.8308,67.9541875 132.383592,68.4019772 131.830681,68.4019772 L131.830681,68.4019772 Z" id="Fill-514"></path>
                                    <path d="M109.43506,66.399136 L118.726139,66.399136 L118.726139,39.9659737 L109.43506,39.9659737 L109.43506,66.399136 Z M119.728969,68.4019772 L108.434941,68.4019772 C107.88203,68.4019772 107.432111,67.9541875 107.432111,67.4005566 L107.432111,38.9645531 C107.432111,38.4109222 107.88203,37.9631325 108.434941,37.9631325 L119.728969,37.9631325 C120.28188,37.9631325 120.729088,38.4109222 120.729088,38.9645531 L120.729088,67.4005566 C120.729088,67.9541875 120.28188,68.4019772 119.728969,68.4019772 L119.728969,68.4019772 Z" id="Fill-515"></path>
                                    <path d="M31.1655773,66.399136 L64.662791,66.399136 L64.662791,39.9659737 L31.1655773,39.9659737 L31.1655773,66.399136 Z M65.6629101,68.4019772 L30.1654582,68.4019772 C29.6125469,68.4019772 29.1653391,67.9541875 29.1653391,67.4005566 L29.1653391,38.9645531 C29.1653391,38.4109222 29.6125469,37.9631325 30.1654582,37.9631325 L65.6629101,37.9631325 C66.2158214,37.9631325 66.6657395,38.4109222 66.6657395,38.9645531 L66.6657395,67.4005566 C66.6657395,67.9541875 66.2158214,68.4019772 65.6629101,68.4019772 L65.6629101,68.4019772 Z" id="Fill-516"></path>
                                    <path d="M43.2699997,66.399136 L52.561079,66.399136 L52.561079,39.9659737 L43.2699997,39.9659737 L43.2699997,66.399136 Z M53.561198,68.4019772 L42.2671703,68.4019772 C41.7142589,68.4019772 41.2670512,67.9541875 41.2670512,67.4005566 L41.2670512,38.9645531 C41.2670512,38.4109222 41.7142589,37.9631325 42.2671703,37.9631325 L53.561198,37.9631325 C54.1141094,37.9631325 54.5640275,38.4109222 54.5640275,38.9645531 L54.5640275,67.4005566 C54.5640275,67.9541875 54.1141094,68.4019772 53.561198,68.4019772 L53.561198,68.4019772 Z" id="Fill-517"></path>
                                    <path d="M205.806969,82.1749032 L120.170756,82.1749032 L120.170756,80.1720619 L204.80414,80.1720619 L204.80414,31.7483541 L23.3570594,31.7483541 L23.3570594,80.1720619 L107.602863,80.1720619 L107.602863,82.1749032 L22.3569404,82.1749032 C21.804029,82.1749032 21.3541109,81.7271134 21.3541109,81.1734825 L21.3541109,30.7442196 C21.3541109,30.1905887 21.804029,29.742799 22.3569404,29.742799 L205.806969,29.742799 C206.359881,29.742799 206.807088,30.1905887 206.807088,30.7442196 L206.807088,81.1734825 C206.807088,81.7271134 206.359881,82.1749032 205.806969,82.1749032" id="Fill-518"></path>
                                    <path d="M18.3916985,29.742799 L209.769501,29.742799 L209.769501,27.1564742 L18.3916985,27.1564742 L18.3916985,29.742799 Z M210.77233,31.7483541 L17.3888691,31.7483541 C16.8359577,31.7483541 16.38875,31.2978505 16.38875,30.7442196 L16.38875,26.1523397 C16.38875,25.5987088 16.8359577,25.150919 17.3888691,25.150919 L210.77233,25.150919 C211.325241,25.150919 211.772449,25.5987088 211.772449,26.1523397 L211.772449,30.7442196 C211.772449,31.2978505 211.325241,31.7483541 210.77233,31.7483541 L210.77233,31.7483541 Z" id="Fill-519"></path>
                                    <path d="M18.6925474,25.150919 L209.468652,25.150919 L203.345972,2.05311166 L24.8152277,2.05311166 L18.6925474,25.150919 Z M210.77233,27.1564742 L17.3888691,27.1564742 C17.0798892,27.1564742 16.7844611,27.0126387 16.5974469,26.7656759 C16.4077225,26.5187131 16.3426741,26.1984756 16.4212742,25.8972352 L23.0778934,0.793872716 C23.1944385,0.354224637 23.5928599,0.0475565328 24.0454883,0.0475565328 L204.115711,0.0475565328 C204.568339,0.0475565328 204.966761,0.354224637 205.083306,0.793872716 L211.739925,25.8972352 C211.818525,26.1984756 211.753477,26.5187131 211.563752,26.7656759 C211.376738,27.0126387 211.08131,27.1564742 210.77233,27.1564742 L210.77233,27.1564742 Z" id="Fill-520"></path>
                                    <path d="M114.0806,83.0949075 C114.221538,83.0949075 114.362476,83.1247601 114.492573,83.1844654 L175.713955,110.830731 C175.930783,110.92843 176.161163,110.97728 176.394253,110.97728 C177.047447,110.97728 177.643724,110.59191 177.909338,109.99757 C178.093642,109.593203 178.107194,109.139985 177.949994,108.724762 C177.792793,108.309539 177.483813,107.978446 177.079971,107.796616 L114.0806,79.3497572 L51.0812279,107.796616 C50.2464402,108.173845 49.8751223,109.161696 50.2518609,109.99757 C50.5174752,110.59191 51.1137521,110.97728 51.7669465,110.97728 C52.0027469,110.97728 52.2304163,110.925716 52.4499546,110.828017 L113.668626,83.1844654 C113.798723,83.1247601 113.939661,83.0949075 114.0806,83.0949075 Z M176.394253,112.982835 C175.873866,112.982835 175.36703,112.87428 174.890009,112.65717 L114.0806,85.1981622 L53.2711906,112.65717 C52.794169,112.87428 52.2873336,112.982835 51.7669465,112.982835 C50.3277507,112.982835 49.0159414,112.133392 48.4250851,110.822589 C47.5957181,108.977153 48.4169541,106.800623 50.2572816,105.970177 L113.668626,77.3360604 C113.93153,77.2166498 114.229669,77.2166498 114.492573,77.3360604 L177.903918,105.970177 C178.795623,106.371831 179.475921,107.09915 179.822845,108.01644 C180.16977,108.931017 180.139956,109.929724 179.736114,110.822589 C179.145258,112.133392 177.833449,112.982835 176.394253,112.982835 L176.394253,112.982835 Z" id="Fill-521"></path>
                                    <polyline id="Fill-522" points="202.652122 26.410158 195.995503 1.30679547 197.930693 0.793872716 204.587312 25.8972352 202.652122 26.410158"></polyline>
                                    <polyline id="Fill-523" points="193.691705 26.3857331 187.701832 1.28237058 189.647863 0.818297609 195.640447 25.9216601 193.691705 26.3857331"></polyline>
                                    <polyline id="Fill-524" points="184.731289 26.3613082 179.408162 1.25794569 181.365034 0.842722502 186.690872 25.946085 184.731289 26.3613082"></polyline>
                                    <polyline id="Fill-525" points="175.773583 26.3368833 171.114491 1.23352079 173.082205 0.867147395 177.741297 25.9705099 175.773583 26.3368833"></polyline>
                                    <polyline id="Fill-526" points="166.815876 26.3124584 162.820821 1.2090959 164.799376 0.891572289 168.791721 25.9949348 166.815876 26.3124584"></polyline>
                                    <polyline id="Fill-527" points="157.85817 26.2853196 154.529861 1.18195713 156.513837 0.918711059 159.842146 26.0220736 157.85817 26.2853196"></polyline>
                                    <polyline id="Fill-528" points="148.900464 26.2581809 146.2389 1.15753224 148.231008 0.945849829 150.892571 26.0464985 148.900464 26.2581809"></polyline>
                                    <polyline id="Fill-529" points="139.942758 26.233756 137.94794 1.13039347 139.942758 0.970274722 141.940286 26.0736372 139.942758 26.233756"></polyline>
                                    <polyline id="Fill-530" points="130.987762 26.2066172 129.65698 1.1032547 131.657218 0.997413493 132.988 26.100776 130.987762 26.2066172"></polyline>
                                    <polyline id="Fill-531" points="122.032766 26.1794784 121.36873 1.07611593 123.368969 1.02455226 124.035715 26.1279148 122.032766 26.1794784"></polyline>
                                    <polygon id="Fill-532" points="113.080481 26.1523397 115.080719 26.1523397 115.080719 1.04897716 113.080481 1.04897716"></polygon>
                                    <polyline id="Fill-533" points="106.128433 26.1794784 104.125485 26.1279148 104.792231 1.02455226 106.792469 1.07611593 106.128433 26.1794784"></polyline>
                                    <polyline id="Fill-534" points="97.1734373 26.2066172 95.1731991 26.100776 96.5039809 0.997413493 98.5042191 1.1032547 97.1734373 26.2066172"></polyline>
                                    <polyline id="Fill-535" points="88.2184414 26.233756 86.2209136 26.0736372 88.2184414 0.970274722 90.2132589 1.13039347 88.2184414 26.233756"></polyline>
                                    <polyline id="Fill-536" points="79.2607352 26.2608947 77.2686281 26.0464985 79.932902 0.943135952 81.9250091 1.15753224 79.2607352 26.2608947"></polyline>
                                    <polyline id="Fill-537" points="70.303029 26.2853196 68.3190529 26.0220736 71.6473625 0.918711059 73.6313386 1.18195713 70.303029 26.2853196"></polyline>
                                    <polyline id="Fill-538" points="61.3480331 26.3124584 59.3694778 25.9949348 63.3618231 0.891572289 65.3403784 1.2090959 61.3480331 26.3124584"></polyline>
                                    <polyline id="Fill-539" points="52.3876166 26.3368833 50.4199026 25.9705099 55.078994 0.867147395 57.0467079 1.23352079 52.3876166 26.3368833"></polyline>
                                    <polyline id="Fill-540" points="43.4299103 26.3613082 41.4703274 25.946085 46.7961648 0.842722502 48.7530374 1.25794569 43.4299103 26.3613082"></polyline>
                                    <polyline id="Fill-541" points="34.4694938 26.3857331 32.5234626 25.9216601 38.5133357 0.818297609 40.4593669 1.28237058 34.4694938 26.3857331"></polyline>
                                    <polyline id="Fill-542" points="25.5090772 26.410158 23.5738874 25.8972352 30.2305066 0.793872716 32.1656964 1.30679547 25.5090772 26.410158"></polyline>
                                    <polyline id="Fill-543" points="201.332182 99.7689679 196.98207 81.4041621 198.930812 80.942803 203.280923 99.3076088 201.332182 99.7689679"></polyline>
                                    <polyline id="Fill-544" points="192.924676 99.7499708 188.989248 81.3851649 190.946121 80.964514 194.884259 99.326606 192.924676 99.7499708"></polyline>
                                    <polyline id="Fill-545" points="184.519882 99.7282598 180.996427 81.3634539 182.96143 80.986225 186.484885 99.348317 184.519882 99.7282598"></polyline>
                                    <polyline id="Fill-546" points="176.112376 99.7065488 173.003605 81.3417429 174.97945 81.0052222 178.085511 99.370028 176.112376 99.7065488"></polyline>
                                    <polyline id="Fill-547" points="167.704871 99.6848377 165.013494 81.3200319 166.99476 81.0269332 169.686137 99.391739 167.704871 99.6848377"></polyline>
                                    <polyline id="Fill-548" points="159.300076 99.6631267 157.020672 81.2983209 159.007359 81.0486442 161.286763 99.41345 159.300076 99.6631267"></polyline>
                                    <polyline id="Fill-549" points="150.434522 95.2150823 149.030561 81.273896 151.022668 81.0730691 152.426629 95.0142554 150.434522 95.2150823"></polyline>
                                    <polyline id="Fill-550" points="141.834582 91.3125271 141.040449 81.252185 143.037977 81.0947801 143.83211 91.1551222 141.834582 91.3125271"></polyline>
                                    <polyline id="Fill-551" points="133.402684 87.4832466 133.050338 81.230474 135.050576 81.1164911 135.402922 87.3692638 133.402684 87.4832466"></polyline>
                                    <polyline id="Fill-552" points="125.380048 83.9172122 125.068358 81.2928931 127.057755 81.0567858 127.369445 83.6811049 125.380048 83.9172122"></polyline>
                                    <polyline id="Fill-553" points="94.5904739 87.5836601 92.5956564 87.4181136 93.1133333 81.0920662 95.1081507 81.2548988 94.5904739 87.5836601"></polyline>
                                    <polyline id="Fill-554" points="86.3266173 91.3125271 84.3290894 91.1551222 85.1232219 81.0947801 87.1207498 81.252185 86.3266173 91.3125271"></polyline>
                                    <polyline id="Fill-555" points="77.7158358 95.2150823 75.7237287 95.0142554 77.1385313 81.0730691 79.1306384 81.273896 77.7158358 95.2150823"></polyline>
                                    <polyline id="Fill-556" points="68.8611229 99.6631267 66.8744365 99.41345 69.1538407 81.0486442 71.1405271 81.2983209 68.8611229 99.6631267"></polyline>
                                    <polyline id="Fill-557" points="60.456328 99.6848377 58.4750623 99.391739 61.16915 81.0269332 63.1477054 81.3200319 60.456328 99.6848377"></polyline>
                                    <polyline id="Fill-558" points="52.0488228 99.7065488 50.0756882 99.370028 53.1817491 81.0052222 55.1575941 81.3417429 52.0488228 99.7065488"></polyline>
                                    <polyline id="Fill-559" points="43.644028 99.7282598 41.676314 99.348317 45.1997688 80.986225 47.1647724 81.3634539 43.644028 99.7282598"></polyline>
                                    <polyline id="Fill-560" points="35.2365228 99.7499708 33.2796502 99.326606 37.2150782 80.964514 39.1719508 81.3851649 35.2365228 99.7499708"></polyline>
                                    <polyline id="Fill-561" points="26.8290176 99.7689679 24.8802761 99.3076088 29.2303875 80.942803 31.1791291 81.4041621 26.8290176 99.7689679"></polyline>
                                </g>
                            </g>
                            <g id="conversation" transform="translate(252.000000, 130.000000)" fill-rule="nonzero">
                                <path d="M25.9447052,66.9900377 C30.1700331,64.1390364 32.9539963,59.3083001 32.9539963,53.8395498 C32.9539963,45.0973662 25.8405327,37.9852467 17.0966967,37.9852467 C8.35286074,37.9852467 1.23939711,45.0973662 1.23939711,53.8395498 C1.23939711,59.3083001 4.02336029,64.1390364 8.24868824,66.9900377 C3.73392294,68.2779153 0.41745324,72.4369595 0.41745324,77.3585436 L0.41745324,96.2401386 C0.41745324,97.1012184 1.11567927,97.7993125 1.97692175,97.7993125 L32.2164717,97.7993125 C33.0777141,97.7993125 33.7759402,97.1012184 33.7759402,96.2401386 L33.7759402,77.3585436 C33.7759402,72.4369595 30.4596784,68.2779153 25.9447052,66.9900377 Z M20.6924152,71.8505022 L18.7983887,69.693853 L22.5864417,69.693853 L20.6924152,71.8505022 Z M14.6477074,69.693853 L18.4062344,73.9732654 L14.8878655,76.597251 L13.1915796,69.693853 L14.6477074,69.693853 Z M26.1403665,70.3734449 C26.3387309,70.4632533 26.5327288,70.5605457 26.7217363,70.6661538 L26.1667735,76.3509015 L22.978804,73.9732654 L26.1403665,70.3734449 Z M3.21973723,53.8395498 C3.21973723,46.1891085 9.44480946,39.9652126 17.0966967,39.9652126 C24.7485839,39.9652126 30.9736562,46.1891085 30.9736562,53.8395498 C30.9736562,61.4899912 24.7485839,67.7138871 17.0966967,67.7138871 C9.44480946,67.7138871 3.21973723,61.4899912 3.21973723,53.8395498 Z M3.53639026,77.3585436 C3.53639026,73.5402309 6.34384944,70.365753 10.0031943,69.788235 L12.4203705,79.6251666 C12.5451279,80.1328336 12.9158656,80.5440397 13.4080339,80.7207461 C13.5793675,80.7822814 13.7573548,80.8124255 13.9345104,80.8124255 C14.2659495,80.8124255 14.5938537,80.7068174 14.8670726,80.5030854 L19.1329467,77.3215392 L19.1329467,94.6809648 L11.236422,94.6809648 L11.236422,79.2251865 C11.236422,78.3641068 10.5381959,77.6660127 9.67695346,77.6660127 C8.81571099,77.6660127 8.11748496,78.3641068 8.11748496,79.2251865 L8.11748496,94.6809648 L3.53639026,94.6809648 L3.53639026,77.3585436 Z M30.6570032,94.6809648 L22.2520917,94.6809648 L22.2520917,77.3215392 L26.5179658,80.5030854 C26.7920164,80.7074411 27.1199206,80.8124255 27.450528,80.8124255 C27.6640712,80.8124255 27.878862,80.7685607 28.0809691,80.6791681 C28.5955937,80.4517366 28.9478257,79.9646507 29.002511,79.4045955 L29.583673,73.4527092 C30.2646409,74.5973507 30.6572111,75.9326272 30.6572111,77.3585436 L30.6572111,94.6809648 L30.6570032,94.6809648 Z" id="Shape"></path>
                                <path d="M25.7359443,81.7367037 C25.4878849,81.1487912 24.8988216,80.7587899 24.2577761,80.7752132 C23.5770161,80.7926759 22.9775564,81.2631307 22.7941629,81.9175679 C22.6153439,82.555166 22.8779584,83.2640704 23.4300102,83.6307881 C23.9760321,83.993348 24.7148043,83.972559 25.2369144,83.5765288 C25.7937486,83.1536809 26.0102029,82.3838648 25.7359443,81.7367037 C25.6964378,81.6431533 25.7756588,81.8302541 25.7359443,81.7367037 Z" id="Shape"></path>
                                <path d="M16.5392387,50.9376155 C16.2961695,50.3623843 15.7274834,49.9750855 15.0993294,49.9750855 C14.4734627,49.9750855 13.8997863,50.3621764 13.6594202,50.9376155 C13.4032515,51.5510985 13.5795754,52.2886916 14.0865066,52.7194394 C14.6021709,53.1574633 15.3615281,53.2119304 15.9329173,52.8497863 C16.5629426,52.4508457 16.8307553,51.6282256 16.5392387,50.9376155 C16.4997322,50.844273 16.5787452,51.0313738 16.5392387,50.9376155 Z" id="Shape"></path>
                                <path d="M23.8585522,52.1311111 C24.1066116,52.718192 24.6965066,53.1090249 25.3373442,53.0926016 C26.0291244,53.074931 26.6433471,52.5841031 26.81073,51.912411 C26.9600231,51.3130646 26.7313011,50.664864 26.2395487,50.2914939 C25.6993488,49.8815351 24.9302189,49.8732195 24.3823257,50.2727838 C23.8042827,50.6941765 23.5853333,51.4700214 23.8585522,52.1311111 C23.8978508,52.2244537 23.8190456,52.0354818 23.8585522,52.1311111 Z" id="Shape"></path>
                                <path d="M64.083275,36.986336 C64.3381961,37.148698 64.6292969,37.2303987 64.9210215,37.2303987 C65.1788536,37.2303987 65.4368936,37.1665765 65.6710219,37.0381006 C66.1700518,36.7643097 66.48049,36.2404273 66.48049,35.6712249 L66.48049,32.0450023 L68.0671972,32.0450023 C70.7384628,32.0450023 72.9117381,29.8721377 72.9117381,27.2015848 L72.9117381,10.90115 C72.9117381,8.23038921 70.7384628,6.05752456 68.0671972,6.05752456 L51.9115193,6.05752456 L51.9115193,5.41535284 C51.9115193,2.74438413 49.738244,0.571519484 47.0667705,0.571519484 L18.4474044,0.571519484 C15.7759308,0.571519484 13.6026555,2.74459202 13.6026555,5.41535284 L13.6026555,21.7139166 C13.6026555,24.3848853 15.7761388,26.5577499 18.4474044,26.5577499 L20.0339037,26.5577499 L20.0339037,30.1854277 C20.0339037,30.7546301 20.3441339,31.2787204 20.8433718,31.5525113 C21.0775,31.6809872 21.33554,31.7446015 21.5931642,31.7446015 C21.8850967,31.7446015 22.1764055,31.6626929 22.4313266,31.5003309 L30.1883309,26.5577499 L34.6028743,26.5577499 L34.6028743,27.2015848 C34.6028743,29.8723456 36.7761497,32.0450023 39.4472073,32.0450023 L56.3250231,32.0450023 L64.083275,36.986336 Z M29.550356,23.9201395 C29.2354171,23.9201395 28.926874,24.010105 28.6613372,24.1792314 L22.5700914,28.0605395 L22.5700914,25.573918 C22.5700914,24.6605913 21.8294997,23.9201395 20.9160003,23.9201395 L17.5791471,23.9201395 C16.5697104,23.9201395 15.7486195,23.0992038 15.7486195,22.0899578 L15.7486195,4.8024591 C15.7486195,3.79321316 16.5699309,2.97227747 17.5791471,2.97227747 L47.9350277,2.97227747 C48.9442439,2.97227747 49.7655553,3.79343366 49.7655553,4.8024591 L49.7655553,5.48359537 L39.853359,5.48359537 C37.6132785,5.48359537 35.7046778,6.92480827 35.0031226,8.92808539 L22.3806429,8.92808539 C21.4671434,8.92808539 20.7265517,9.66853719 20.7265517,10.581864 C20.7265517,11.4951908 21.4671434,12.2356425 22.3806429,12.2356425 L34.7150902,12.2356425 L34.7150902,15.0007603 L22.3806429,15.0007603 C21.4671434,15.0007603 20.7265517,15.7412121 20.7265517,16.6545389 C20.7265517,17.5678657 21.4671434,18.3083175 22.3806429,18.3083175 L34.7150902,18.3083175 L34.7150902,23.9201395 L29.550356,23.9201395 Z M36.4529346,27.6921155 L36.4529346,10.1018311 C36.4529346,9.07525075 37.2883107,8.24003248 38.3148607,8.24003248 L69.1993194,8.24003248 C70.2260938,8.24003248 71.06147,9.07525075 71.06147,10.1018311 L71.06147,27.6918912 C71.06147,28.7184716 70.2260938,29.5534655 69.1993194,29.5534655 L65.8041875,29.5534655 C64.8745708,29.5534655 64.1213186,30.3067996 64.1213186,31.2360164 L64.1213186,33.7650026 L57.9227515,29.8168408 C57.652595,29.6447719 57.3389082,29.5534655 57.0187144,29.5534655 L38.3150851,29.5534655 C37.2883107,29.5536898 36.4529346,28.7184716 36.4529346,27.6921155 Z" id="Shape"></path>
                                <path d="M43.9756959,17.9095324 L63.5387086,17.9095324 C64.400159,17.9095324 65.0981771,17.2114383 65.0981771,16.3503586 C65.0981771,15.4892789 64.400159,14.7911848 63.5387086,14.7911848 L43.9756959,14.7911848 C43.1142455,14.7911848 42.4162274,15.4892789 42.4162274,16.3503586 C42.4162274,17.2114383 43.1144535,17.9095324 43.9756959,17.9095324 Z" id="Shape"></path>
                                <path d="M65.0981771,22.0752291 C65.0981771,21.2141494 64.400159,20.5160553 63.5387086,20.5160553 L43.9756959,20.5160553 C43.1142455,20.5160553 42.4162274,21.2141494 42.4162274,22.0752291 C42.4162274,22.9363088 43.1142455,23.6344029 43.9756959,23.6344029 L63.5387086,23.6344029 C64.400159,23.6344029 65.0981771,22.9363088 65.0981771,22.0752291 Z" id="Shape"></path>
                                <path d="M76.9607421,66.9900377 C81.1860701,64.1390364 83.9700333,59.3083001 83.9700333,53.8395498 C83.9700333,45.0973662 76.8565697,37.9852467 68.1127337,37.9852467 C59.3688977,37.9852467 52.2552262,45.0973662 52.2552262,53.8395498 C52.2552262,59.3083001 55.0391893,64.1390364 59.2645173,66.9900377 C54.7495441,68.2779153 51.4332823,72.4369595 51.4332823,77.3585436 L51.4332823,96.2401386 C51.4332823,97.1012184 52.1313004,97.7993125 52.9927508,97.7993125 L83.2325086,97.7993125 C84.093959,97.7993125 84.7919771,97.1012184 84.7919771,96.2401386 L84.7919771,77.3585436 C84.7919771,72.4369595 81.4757154,68.2779153 76.9607421,66.9900377 Z M73.6725508,69.693853 C72.4877706,71.5600801 70.4057762,72.7604361 68.1123178,72.7604361 C65.8188595,72.7604361 63.737073,71.5600801 62.5520848,69.693853 L73.6725508,69.693853 Z M54.2357649,53.8395498 C54.2357649,46.1891085 60.4608371,39.9652126 68.1129509,39.9652126 C75.7646116,39.9652126 81.9899104,46.1891085 81.9899104,53.8395498 C81.9899104,61.4899912 75.7648381,67.7138871 68.1129509,67.7138871 C60.4608371,67.7138871 54.2357649,61.4899912 54.2357649,53.8395498 Z M54.5524272,77.3585436 C54.5524272,74.1601584 56.5225558,71.4143493 59.3127568,70.2674211 C60.881998,73.6368996 64.303264,75.8787837 68.1125258,75.8787837 C71.9217875,75.8787837 75.3430535,73.6366918 76.9122947,70.2672132 C79.7027036,71.4141414 81.6732481,74.1601584 81.6732481,77.3585436 L81.6732481,82.892987 L76.2105338,82.892987 L76.2105338,79.2253944 C76.2105338,78.3643147 75.5125157,77.6662206 74.6510653,77.6662206 C73.7896149,77.6662206 73.0915968,78.3643147 73.0915968,79.2253944 L73.0915968,94.6811727 L54.5526352,94.6811727 L54.5526352,77.3585436 L54.5524272,77.3585436 Z M76.2103259,94.6809648 L76.2103259,86.0111268 L81.6730401,86.0111268 L81.6730401,94.6809648 L76.2103259,94.6809648 Z" id="Shape"></path>
                                <path d="M68.669152,52.1311111 C68.9442423,52.7807669 69.6360225,53.1822022 70.3386151,53.0761783 C70.9553329,52.9830437 71.4670465,52.5206967 71.6213299,51.9171925 C71.7833067,51.2837521 71.5161178,50.6010419 70.9750862,50.2372346 C70.3616952,49.8247812 69.5308104,49.9204105 69.0059972,50.4305722 C68.5708016,50.8787827 68.4296177,51.5496432 68.669152,52.1311111 C68.7088665,52.2244537 68.6298534,52.0354818 68.669152,52.1311111 Z" id="Shape"></path>
                                <path d="M61.439664,51.2288692 C61.4022367,51.0288792 61.3171937,50.83866 61.2088626,50.6675666 C60.4220588,49.5164806 58.5783511,49.9220736 58.3695903,51.3053727 C58.179751,52.5618589 59.5722524,53.5210626 60.679475,52.8894933 C61.2564784,52.5601958 61.5727386,51.8828906 61.439664,51.2288692 C61.4209503,51.1290821 61.4602489,51.3307352 61.439664,51.2288692 Z" id="Shape"></path>
                                <path d="M68.4194292,56.8759889 C67.9324591,56.388903 67.1421205,56.388903 66.6553584,56.8759889 C66.2384605,57.2926001 65.6843293,57.5221105 65.0950582,57.5221105 C64.505787,57.5221105 63.9516558,57.2926001 63.5347579,56.8759889 C63.0477879,56.388903 62.2574493,56.388903 61.7706871,56.8759889 C61.2833013,57.3630748 61.2833013,58.1528483 61.7706871,58.6399342 C62.6870308,59.5563127 63.8911485,60.0145019 65.0950582,60.0145019 C66.2989678,60.0145019 67.5030855,59.5563127 68.4194292,58.6399342 C68.906815,58.1528483 68.906815,57.3632827 68.4194292,56.8759889 Z" id="Shape"></path>
                            </g>
                            <rect id="Rectangle-33" x="0" y="223" width="340" height="5"></rect>
                        </g>
                    </g>
                </g>
                <g id="list" transform="translate(274.000000, 13.000000)" fill-rule="nonzero" fill="#3289C7">
                    <path d="M55.7910448,2.86825054 L52.8358209,2.86825054 L52.8358209,1.34449244 C52.8358209,0.601794816 52.2345672,0 51.4925373,0 C50.7505075,0 50.1492537,0.601794816 50.1492537,1.34449244 L50.1492537,2.86825054 L44.238806,2.86825054 L44.238806,1.34449244 C44.238806,0.601794816 43.6375522,0 42.8955224,0 C42.1534925,0 41.5522388,0.601794816 41.5522388,1.34449244 L41.5522388,2.86825054 L35.641791,2.86825054 L35.641791,1.34449244 C35.641791,0.601794816 35.0405373,0 34.2985075,0 C33.5564776,0 32.9552239,0.601794816 32.9552239,1.34449244 L32.9552239,2.86825054 L27.0447761,2.86825054 L27.0447761,1.34449244 C27.0447761,0.601794816 26.4435224,0 25.7014925,0 C24.9594627,0 24.358209,0.601794816 24.358209,1.34449244 L24.358209,2.86825054 L18.4477612,2.86825054 L18.4477612,1.34449244 C18.4477612,0.601794816 17.8465075,0 17.1044776,0 C16.3624478,0 15.761194,0.601794816 15.761194,1.34449244 L15.761194,2.86825054 L9.85074627,2.86825054 L9.85074627,1.34449244 C9.85074627,0.601794816 9.24949254,0 8.50746269,0 C7.76543284,0 7.1641791,0.601794816 7.1641791,1.34449244 L7.1641791,2.86825054 L4.20895522,2.86825054 C1.8881194,2.86825054 0,4.75806911 0,7.08099352 L0,78.787257 C0,81.1101814 1.8881194,83 4.20895522,83 L55.7910448,83 C58.1118806,83 60,81.1101814 60,78.787257 L60,7.08099352 C60,4.75806911 58.1118806,2.86825054 55.7910448,2.86825054 Z M57.3134328,78.787257 C57.3134328,79.6274752 56.6305075,80.3110151 55.7910448,80.3110151 L4.20895522,80.3110151 C3.36949254,80.3110151 2.68656716,79.6274752 2.68656716,78.787257 L2.68656716,7.08099352 C2.68656716,6.24077538 3.36949254,5.55723542 4.20895522,5.55723542 L7.1641791,5.55723542 L7.1641791,7.08099352 C7.1641791,7.82369114 7.76543284,8.42548596 8.50746269,8.42548596 C9.24949254,8.42548596 9.85074627,7.82369114 9.85074627,7.08099352 L9.85074627,5.55723542 L15.761194,5.55723542 L15.761194,7.08099352 C15.761194,7.82369114 16.3624478,8.42548596 17.1044776,8.42548596 C17.8465075,8.42548596 18.4477612,7.82369114 18.4477612,7.08099352 L18.4477612,5.55723542 L24.358209,5.55723542 L24.358209,7.08099352 C24.358209,7.82369114 24.9594627,8.42548596 25.7014925,8.42548596 C26.4435224,8.42548596 27.0447761,7.82369114 27.0447761,7.08099352 L27.0447761,5.55723542 L32.9552239,5.55723542 L32.9552239,7.08099352 C32.9552239,7.82369114 33.5564776,8.42548596 34.2985075,8.42548596 C35.0405373,8.42548596 35.641791,7.82369114 35.641791,7.08099352 L35.641791,5.55723542 L41.5522388,5.55723542 L41.5522388,7.08099352 C41.5522388,7.82369114 42.1534925,8.42548596 42.8955224,8.42548596 C43.6375522,8.42548596 44.238806,7.82369114 44.238806,7.08099352 L44.238806,5.55723542 L50.1492537,5.55723542 L50.1492537,7.08099352 C50.1492537,7.82369114 50.7505075,8.42548596 51.4925373,8.42548596 C52.2345672,8.42548596 52.8358209,7.82369114 52.8358209,7.08099352 L52.8358209,5.55723542 L55.7910448,5.55723542 C56.6305075,5.55723542 57.3134328,6.24077538 57.3134328,7.08099352 L57.3134328,78.787257 Z" id="Shape"></path>
                    <path d="M25.7014925,21.3326134 L45.761194,21.3326134 C46.5032239,21.3326134 47.1044776,20.7308186 47.1044776,19.988121 C47.1044776,19.2454233 46.5032239,18.6436285 45.761194,18.6436285 L25.7014925,18.6436285 C24.9594627,18.6436285 24.358209,19.2454233 24.358209,19.988121 C24.358209,20.7308186 24.9594627,21.3326134 25.7014925,21.3326134 Z" id="Shape"></path>
                    <path d="M51.4925373,24.3801296 L25.7014925,24.3801296 C24.9594627,24.3801296 24.358209,24.9819244 24.358209,25.724622 C24.358209,26.4673197 24.9594627,27.0691145 25.7014925,27.0691145 L51.4925373,27.0691145 C52.2345672,27.0691145 52.8358209,26.4673197 52.8358209,25.724622 C52.8358209,24.9819244 52.2345672,24.3801296 51.4925373,24.3801296 Z" id="Shape"></path>
                    <path d="M19.0201791,17.6031706 L12.8059701,23.8233305 L9.45743284,20.4716004 C8.93265672,19.9467106 8.08226866,19.9467106 7.55767164,20.4716004 C7.03307463,20.9968488 7.03307463,21.8480022 7.55767164,22.3730713 L11.8561791,26.6754471 C12.1185672,26.937892 12.4624478,27.0691145 12.8061493,27.0691145 C13.1498507,27.0691145 13.4937313,26.937892 13.7561194,26.6754471 L20.9202985,19.5048207 C21.4448955,18.9795724 21.4448955,18.128419 20.9202985,17.6033499 C20.3953433,17.07846 19.5449552,17.07846 19.0201791,17.6031706 Z" id="Shape"></path>
                    <path d="M25.7014925,35.6738661 L45.761194,35.6738661 C46.5032239,35.6738661 47.1044776,35.0720713 47.1044776,34.3293737 C47.1044776,33.586676 46.5032239,32.9848812 45.761194,32.9848812 L25.7014925,32.9848812 C24.9594627,32.9848812 24.358209,33.586676 24.358209,34.3293737 C24.358209,35.0720713 24.9594627,35.6738661 25.7014925,35.6738661 Z" id="Shape"></path>
                    <path d="M51.4925373,38.7213823 L25.7014925,38.7213823 C24.9594627,38.7213823 24.358209,39.3231771 24.358209,40.0658747 C24.358209,40.8085724 24.9594627,41.4103672 25.7014925,41.4103672 L51.4925373,41.4103672 C52.2345672,41.4103672 52.8358209,40.8085724 52.8358209,40.0658747 C52.8358209,39.3231771 52.2345672,38.7213823 51.4925373,38.7213823 Z" id="Shape"></path>
                    <path d="M19.0201791,31.9444233 L12.8059701,38.1645832 L9.45743284,34.8128531 C8.93265672,34.2879633 8.08226866,34.2879633 7.55767164,34.8128531 C7.03307463,35.3381015 7.03307463,36.1892549 7.55767164,36.714324 L11.8561791,41.0166998 C12.1185672,41.2791447 12.4624478,41.4103672 12.8061493,41.4103672 C13.1498507,41.4103672 13.4937313,41.2791447 13.7561194,41.0166998 L20.9202985,33.8460734 C21.4448955,33.3208251 21.4448955,32.4696717 20.9202985,31.9446026 C20.3953433,31.4197127 19.5449552,31.4197127 19.0201791,31.9444233 Z" id="Shape"></path>
                    <path d="M25.7014925,50.0151188 L45.761194,50.0151188 C46.5032239,50.0151188 47.1044776,49.413324 47.1044776,48.6706263 C47.1044776,47.9279287 46.5032239,47.3261339 45.761194,47.3261339 L25.7014925,47.3261339 C24.9594627,47.3261339 24.358209,47.9279287 24.358209,48.6706263 C24.358209,49.413324 24.9594627,50.0151188 25.7014925,50.0151188 Z" id="Shape"></path>
                    <path d="M51.4925373,53.062635 L25.7014925,53.062635 C24.9594627,53.062635 24.358209,53.6644298 24.358209,54.4071274 C24.358209,55.1498251 24.9594627,55.7516199 25.7014925,55.7516199 L51.4925373,55.7516199 C52.2345672,55.7516199 52.8358209,55.1498251 52.8358209,54.4071274 C52.8358209,53.6644298 52.2345672,53.062635 51.4925373,53.062635 Z" id="Shape"></path>
                    <path d="M19.0201791,46.285676 L12.8059701,52.5058359 L9.45743284,49.1541058 C8.93265672,48.629216 8.08226866,48.629216 7.55767164,49.1541058 C7.03307463,49.6793542 7.03307463,50.5305076 7.55767164,51.0555767 L11.8561791,55.3579525 C12.1185672,55.6203974 12.4624478,55.7516199 12.8061493,55.7516199 C13.1498507,55.7516199 13.4937313,55.6203974 13.7561194,55.3579525 L20.9202985,48.1873261 C21.4448955,47.6620778 21.4448955,46.8109244 20.9202985,46.2858553 C20.3953433,45.7609654 19.5449552,45.7609654 19.0201791,46.285676 Z" id="Shape"></path>
                    <path d="M25.7014925,64.3563715 L45.761194,64.3563715 C46.5032239,64.3563715 47.1044776,63.7545767 47.1044776,63.011879 C47.1044776,62.2691814 46.5032239,61.6673866 45.761194,61.6673866 L25.7014925,61.6673866 C24.9594627,61.6673866 24.358209,62.2691814 24.358209,63.011879 C24.358209,63.7545767 24.9594627,64.3563715 25.7014925,64.3563715 Z" id="Shape"></path>
                    <path d="M51.4925373,67.4038877 L25.7014925,67.4038877 C24.9594627,67.4038877 24.358209,68.0056825 24.358209,68.7483801 C24.358209,69.4910778 24.9594627,70.0928726 25.7014925,70.0928726 L51.4925373,70.0928726 C52.2345672,70.0928726 52.8358209,69.4910778 52.8358209,68.7483801 C52.8358209,68.0056825 52.2345672,67.4038877 51.4925373,67.4038877 Z" id="Shape"></path>
                    <path d="M19.0201791,60.6269287 L12.8059701,66.8470886 L9.45743284,63.4953585 C8.93265672,62.9704687 8.08226866,62.9704687 7.55767164,63.4953585 C7.03307463,64.0206069 7.03307463,64.8717603 7.55767164,65.3968294 L11.8561791,69.6992052 C12.1185672,69.9616501 12.4624478,70.0928726 12.8061493,70.0928726 C13.1498507,70.0928726 13.4937313,69.9616501 13.7561194,69.6992052 L20.9202985,62.5285788 C21.4448955,62.0033305 21.4448955,61.1521771 20.9202985,60.627108 C20.3953433,60.1022181 19.5449552,60.1022181 19.0201791,60.6269287 Z" id="Shape"></path>
                </g>
            </g>
        </g>
    </g>
</svg>