<?xml version="1.0" encoding="UTF-8"?>
<svg width="101px" height="100px" viewBox="0 0 101 100" version="1.1" xmlns="http://www.w3.org/2000/svg" xmlns:xlink="http://www.w3.org/1999/xlink">
    <!-- Generator: Sketch 43.1 (39012) - http://www.bohemiancoding.com/sketch -->
    <title>leadership</title>
    <desc>Created with Sketch.</desc>
    <defs></defs>
    <g id="Page-1" stroke="none" stroke-width="1" fill="none" fill-rule="evenodd">
        <g id="Careers" transform="translate(-289.000000, -1517.000000)" fill-rule="nonzero" fill="#348AC7">
            <g id="Group-3-Copy-3" transform="translate(179.000000, 1461.000000)">
                <g id="Group-9">
                    <g id="Group-8" transform="translate(41.128527, 56.000000)">
                        <g id="leadership" transform="translate(69.216301, 0.000000)">
                            <path d="M68.6355387,22.8087719 C74.4590002,22.8087719 79.1948523,18.0877193 79.1948523,12.2824561 C79.1948523,6.47719298 74.4590002,1.75614035 68.6355387,1.75614035 C62.8120772,1.75614035 58.076225,6.47719298 58.076225,12.2824561 C58.076225,18.0877193 62.8120772,22.8087719 68.6355387,22.8087719 Z M68.6355387,5.26491228 C72.5178463,5.26491228 75.6750811,8.4122807 75.6750811,12.2824561 C75.6750811,16.1526316 72.5178463,19.3 68.6355387,19.3 C68.4296321,19.3 68.2378045,19.2561404 68.0371776,19.2403509 C69.4732442,17.954386 70.3954243,16.1087719 70.3954243,14.0368421 L66.8756531,14.0368421 C66.8756531,15.7666667 65.6102953,17.2 63.954243,17.4859649 C62.5181763,16.2 61.5959963,14.354386 61.5959963,12.2824561 C61.5959963,8.4122807 64.753231,5.26491228 68.6355387,5.26491228 Z" id="Shape"></path>
                            <path d="M14.0790849,43.8614035 C19.9025463,43.8614035 24.6383985,39.1403509 24.6383985,33.3350877 C24.6383985,27.5298246 19.9025463,22.8087719 14.0790849,22.8087719 C8.25562338,22.8087719 3.51977121,27.5298246 3.51977121,33.3350877 C3.51977121,39.1403509 8.25562338,43.8614035 14.0790849,43.8614035 Z M14.0790849,26.3175439 C17.9613925,26.3175439 21.1186273,29.4649123 21.1186273,33.3350877 C21.1186273,35.4070175 20.1964472,37.2526316 18.7603806,38.5385965 C17.1043282,38.2526316 15.8389705,36.8192982 15.8389705,35.0894737 L12.3191993,35.0894737 C12.3191993,37.1614035 13.2413793,39.0070175 14.677446,40.2929825 C14.476819,40.3087719 14.2849915,40.3526316 14.0790849,40.3526316 C10.1967772,40.3526316 7.03954243,37.2052632 7.03954243,33.3350877 C7.03954243,29.4649123 10.1967772,26.3175439 14.0790849,26.3175439 Z" id="Shape"></path>
                            <path d="M99.1097179,3.60175439 L88.5504042,0.0929824561 C88.0118792,-0.0894736842 87.4258373,0.00175438596 86.9647473,0.331578947 C86.5054171,0.663157895 86.2343948,1.19298246 86.2343948,1.75614035 L86.2343948,15.7912281 L86.2343948,24.5631579 L61.5959963,24.5631579 C61.184183,24.5631579 60.784689,24.7070175 60.4679096,24.9684211 L49.9085959,33.7403509 C49.723808,33.8964912 49.5706979,34.0877193 49.461585,34.3035088 L44.4705494,44.2561404 L33.3586317,49.0017544 L23.4346367,45.7052632 C23.2551284,45.6473684 23.0668207,45.6157895 22.8785129,45.6157895 L8.79942804,45.6157895 C3.94742342,45.6157895 0,49.5508772 0,54.3877193 L0,73.6859649 C0,74.6561404 0.786668867,75.4403509 1.75988561,75.4403509 L7.03954243,75.4403509 L7.03954243,96.4929825 L0,96.4929825 L0,100.001754 L8.79942804,100.001754 L17.5988561,100.001754 L24.6383985,100.001754 C25.6116152,100.001754 26.3982841,99.2175439 26.3982841,98.2473684 L26.3982841,89.4754386 L29.9180553,89.4754386 L38.7174834,89.4754386 L51.0366826,89.4754386 C52.0098994,89.4754386 52.7965682,88.6912281 52.7965682,87.7210526 L52.7965682,78.9491228 L63.3558819,78.9491228 L72.1553099,78.9491228 C73.1285266,78.9491228 73.9151955,78.1649123 73.9151955,77.1947368 L73.9151955,68.422807 L84.4745092,68.422807 L93.2739372,68.422807 L98.553594,68.422807 L98.553594,64.9140351 L95.0338228,64.9140351 L95.0338228,50.8789474 C95.0338228,46.0421053 91.0863994,42.1070175 86.2343948,42.1070175 L79.1948523,42.1070175 L79.1948523,35.0894737 L87.9942804,35.0894737 C92.846285,35.0894737 96.7937084,31.154386 96.7937084,26.3175439 L96.7937084,15.7912281 C96.7937084,14.8210526 96.0070395,14.0368421 95.0338228,14.0368421 L89.754166,14.0368421 L89.754166,10.0385965 L99.1097179,6.92982456 C99.8295111,6.68947368 100.31348,6.02105263 100.31348,5.26491228 C100.31348,4.50877193 99.8295111,3.84035088 99.1097179,3.60175439 Z M71.3158445,28.0719298 L70.3954243,30.3666667 L69.4750041,28.0719298 L71.3158445,28.0719298 Z M24.6383985,85.9666667 C23.6651818,85.9666667 22.8785129,86.7508772 22.8785129,87.7210526 L22.8785129,96.4929825 L19.3587417,96.4929825 L19.3587417,75.4403509 L28.1581697,75.4403509 L28.1581697,85.9666667 L24.6383985,85.9666667 Z M31.6779409,85.9666667 L31.6779409,73.6859649 C31.6779409,72.7157895 30.8912721,71.9315789 29.9180553,71.9315789 L17.5988561,71.9315789 C16.6256393,71.9315789 15.8389705,72.7157895 15.8389705,73.6859649 L15.8389705,96.4929825 L10.5593136,96.4929825 L10.5593136,56.1421053 L7.03954243,56.1421053 L7.03954243,71.9315789 L3.51977121,71.9315789 L3.51977121,54.3877193 C3.51977121,51.4859649 5.88857724,49.1245614 8.79942804,49.1245614 L14.0790849,49.1245614 L14.0790849,61.4052632 L17.5988561,61.4052632 L17.5988561,49.1245614 L22.5934114,49.1245614 L32.8817027,52.5421053 C33.2899962,52.6807018 33.7370071,52.6578947 34.1312215,52.4912281 L45.1041082,47.8035088 L46.1723588,49.4 L46.7056041,50.1982456 L34.9002915,56.0807018 L23.1266568,54.4035088 C22.6215696,54.3298246 22.1094429,54.4824561 21.7240279,54.8140351 C21.3403729,55.1508772 21.1186273,55.6333333 21.1186273,56.1421053 L21.1186273,64.9140351 C21.1186273,65.8842105 21.9052962,66.6684211 22.8785129,66.6684211 L31.6779409,66.6684211 C34.5887917,66.6684211 36.9575978,69.0298246 36.9575978,71.9315789 L36.9575978,85.9666667 L31.6779409,85.9666667 Z M51.0366826,75.4403509 C50.0634659,75.4403509 49.276797,76.2245614 49.276797,77.1947368 L49.276797,85.9666667 L40.477369,85.9666667 L40.477369,71.9315789 C40.477369,67.0947368 36.5299456,63.1596491 31.6779409,63.1596491 L24.6383985,63.1596491 L24.6383985,58.1649123 L34.9478084,59.6333333 C35.3033053,59.6842105 35.6623219,59.6245614 35.984381,59.4649123 L50.0634659,52.4473684 C50.3204092,52.3192982 50.522796,52.1245614 50.6864654,51.8982456 C50.7005445,51.8789474 50.7269427,51.8719298 50.7410218,51.8526316 L57.6133751,41.577193 L61.5959963,38.5982456 L61.5959963,75.4403509 L51.0366826,75.4403509 L51.0366826,75.4403509 Z M82.7146235,64.9140351 L73.9151955,64.9140351 L73.9151955,54.3877193 L82.7146235,54.3877193 L82.7146235,64.9140351 Z M93.2739372,26.3175439 C93.2739372,29.2192982 90.9051312,31.5807018 87.9942804,31.5807018 L77.4349667,31.5807018 C76.46175,31.5807018 75.6750811,32.3649123 75.6750811,33.3350877 L75.6750811,43.8614035 C75.6750811,44.8315789 76.46175,45.6157895 77.4349667,45.6157895 L86.2343948,45.6157895 C89.1452456,45.6157895 91.5140516,47.977193 91.5140516,50.8789474 L91.5140516,64.9140351 L86.2343948,64.9140351 L86.2343948,52.6333333 C86.2343948,51.6631579 85.4477259,50.8789474 84.4745092,50.8789474 L72.1553099,50.8789474 C71.1820932,50.8789474 70.3954243,51.6631579 70.3954243,52.6333333 L70.3954243,66.6684211 L70.3954243,75.4403509 L65.1157675,75.4403509 L65.1157675,35.0894737 C65.1157675,34.4245614 64.739152,33.8175439 64.1425507,33.5192982 C63.5477094,33.2245614 62.831436,33.2859649 62.2999505,33.6859649 L55.2604081,38.9491228 C55.1002585,39.0666667 54.9612275,39.2122807 54.8521146,39.3789474 L49.276797,47.7157895 L47.7879338,45.4877193 L52.4445911,36.2017544 L62.2330749,28.0719298 L65.6842105,28.0719298 L68.7604906,35.7403509 C69.0297531,36.4070175 69.6756311,36.8438596 70.3954243,36.8438596 C71.1152175,36.8438596 71.7610955,36.4070175 72.030358,35.7403509 L75.1066381,28.0719298 L87.9942804,28.0719298 C88.9674971,28.0719298 89.754166,27.2877193 89.754166,26.3175439 L89.754166,17.545614 L93.2739372,17.545614 L93.2739372,26.3175439 Z M89.754166,6.33859649 L89.754166,4.19122807 L92.9888357,5.26491228 L89.754166,6.33859649 Z" id="Shape"></path>
                            <rect id="Rectangle-path" x="42.2372546" y="8.77368421" width="3.51977121" height="3.50877193"></rect>
                            <rect id="Rectangle-path" x="35.1977121" y="8.77368421" width="3.51977121" height="3.50877193"></rect>
                            <rect id="Rectangle-path" x="28.1581697" y="8.77368421" width="3.51977121" height="3.50877193"></rect>
                        </g>
                    </g>
                </g>
            </g>
        </g>
    </g>
</svg>