<?xml version="1.0" encoding="UTF-8"?>
<svg width="109px" height="99px" viewBox="0 0 109 99" version="1.1" xmlns="http://www.w3.org/2000/svg" xmlns:xlink="http://www.w3.org/1999/xlink">
    <!-- Generator: Sketch 43.1 (39012) - http://www.bohemiancoding.com/sketch -->
    <title>family</title>
    <desc>Created with Sketch.</desc>
    <defs></defs>
    <g id="Page-1" stroke="none" stroke-width="1" fill="none" fill-rule="evenodd">
        <g id="Careers" transform="translate(-285.000000, -1068.000000)" fill-rule="nonzero" fill="#348AC7">
            <g id="Group-3" transform="translate(179.000000, 1012.000000)">
                <g id="Group-2" transform="translate(31.097179, 56.000000)">
                    <g id="family" transform="translate(75.235110, 0.000000)">
                        <path d="M33.4108072,34.7355191 C32.730094,34.1859638 31.7309248,34.2895979 31.178652,34.9674319 C30.5375078,35.7543766 29.6875157,36.1876596 28.7848354,36.1876596 C27.8821552,36.1876596 27.032163,35.754166 26.3910188,34.9674319 C25.8389577,34.2898085 24.8393652,34.1861745 24.1588636,34.7355191 C23.4781505,35.2850745 23.3738323,36.2799191 23.9258934,36.9575426 C25.1631113,38.4762447 26.9341928,39.347234 28.7848354,39.347234 C30.6354781,39.347234 32.406348,38.4762447 33.6437774,36.9575426 C34.1958386,36.2799191 34.0915204,35.2850745 33.4108072,34.7355191 Z" id="Shape"></path>
                        <path d="M21.5320768,25.3579021 C20.6556348,25.3579021 19.9450862,26.0652255 19.9450862,26.9376894 L19.9450862,28.7426489 C19.9450862,29.6151128 20.6556348,30.3224362 21.5320768,30.3224362 C22.4085188,30.3224362 23.1190674,29.6151128 23.1190674,28.7426489 L23.1190674,26.9376894 C23.1190674,26.0652255 22.4085188,25.3579021 21.5320768,25.3579021 Z" id="Shape"></path>
                        <path d="M36.037594,25.3579021 C35.161152,25.3579021 34.4506034,26.0652255 34.4506034,26.9376894 L34.4506034,28.7426489 C34.4506034,29.6151128 35.1609404,30.3224362 36.037594,30.3224362 C36.9140361,30.3224362 37.6245846,29.6151128 37.6245846,28.7426489 L37.6245846,26.9376894 C37.6245846,26.0652255 36.9140361,25.3579021 36.037594,25.3579021 Z" id="Shape"></path>
                        <path d="M85.9930956,43.7601064 C85.3123824,43.2105511 84.3130016,43.3141851 83.7609404,43.9920191 C83.1197962,44.7787532 82.2695925,45.2122468 81.3671238,45.2122468 C80.4644436,45.2122468 79.6144514,44.7787532 78.9733072,43.9920191 C78.4214577,43.3143957 77.4218652,43.2105511 76.741152,43.7601064 C76.0604389,44.3096617 75.9563323,45.3045064 76.5083934,45.9821298 C77.7453997,47.5010426 79.5164812,48.3718213 81.3671238,48.3718213 C83.2177665,48.3718213 84.9886364,47.5008319 86.2258542,45.9821298 C86.7779154,45.3045064 86.6738088,44.3096617 85.9930956,43.7601064 Z" id="Shape"></path>
                        <path d="M74.1143652,34.3827 C73.2379232,34.3827 72.5273746,35.0900234 72.5273746,35.9624872 L72.5273746,37.7674468 C72.5273746,38.6399106 73.2379232,39.347234 74.1143652,39.347234 C74.9908072,39.347234 75.7013558,38.6399106 75.7013558,37.7674468 L75.7013558,35.9624872 C75.7013558,35.0900234 74.9908072,34.3827 74.1143652,34.3827 Z" id="Shape"></path>
                        <path d="M88.6198824,34.3827 C87.7434404,34.3827 87.0328918,35.0900234 87.0328918,35.9624872 L87.0328918,37.7674468 C87.0328918,38.6399106 87.7432288,39.347234 88.6198824,39.347234 C89.4963245,39.347234 90.206873,38.6399106 90.206873,37.7674468 L90.206873,35.9624872 C90.206873,35.0900234 89.4963245,34.3827 88.6198824,34.3827 Z" id="Shape"></path>
                        <path d="M103.921646,65.6233085 L91.4887382,60.6726766 C91.4214498,60.6459255 91.3592398,60.6118021 91.2961834,60.5789426 C99.8834953,58.6339085 103.950423,55.3812319 104.130917,55.2339957 C104.560251,54.8837043 104.7746,54.3356234 104.696097,53.7885957 C104.678111,53.6634766 102.898777,41.1218617 102.898777,28.7428596 C102.898777,16.9239447 93.2395063,7.30851702 81.3667006,7.30851702 C69.493895,7.30851702 59.8348354,16.923734 59.8348354,28.7428596 C59.8348354,31.9812128 59.6871395,35.9420553 59.4467633,39.6916277 L55.9822571,41.4161234 L45.8128213,36.3546957 C45.7836207,36.3401617 45.7529389,36.3296298 45.7231034,36.3169915 C46.2068182,34.9135085 46.5231583,33.4335638 46.639326,31.8978 C48.7665282,31.2435574 50.316489,29.2675596 50.316489,26.9379 C50.316489,25.3688553 49.6122884,23.9613702 48.5032994,23.0088638 L48.5032994,12.4980128 C48.5032994,9.59436383 47.0295141,6.87755106 44.6126332,5.24510426 C43.7937461,2.21612553 41.0598903,0.0884680851 37.8503605,0.0884680851 L23.3448433,0.0884680851 C15.4712539,0.0884680851 9.06552508,6.46512128 9.06552508,14.3029723 L9.06552508,23.0086532 C7.95653605,23.9609489 7.25233542,25.3686447 7.25233542,26.9376894 C7.25233542,29.2673489 8.80229624,31.2433468 10.9294984,31.8975894 C11.3302665,37.2012511 14.0759718,41.8612021 18.1314734,44.8602702 L18.1314734,49.2268021 L5.00727273,53.1461489 C2.01230408,54.0407298 0,56.7328979 0,59.8457106 L0,77.4763468 C0,78.3488106 0.710548589,79.056134 1.5869906,79.056134 L1.81318966,79.056134 L1.81318966,97.3309021 C1.81318966,98.203366 2.52373824,98.9106894 3.40018025,98.9106894 C4.27662226,98.9106894 4.98717085,98.203366 4.98717085,97.3309021 L4.98717085,79.056134 L10.8791379,79.056134 L10.8791379,97.3309021 C10.8791379,98.203366 11.5896865,98.9106894 12.4661285,98.9106894 C13.3425705,98.9106894 14.0531191,98.203366 14.0531191,97.3309021 L14.0531191,70.0911574 C14.0531191,68.7055787 13.6449451,67.3638128 12.8730329,66.2112 L10.160337,62.1606255 C9.67408307,61.4345553 8.68866771,61.2386617 7.95971003,61.7222872 C7.23032915,62.2061234 7.03333072,63.187066 7.51958464,63.9131362 L10.2322806,67.9639213 C10.6554781,68.5958362 10.8793495,69.3313851 10.8793495,70.0911574 L10.8793495,75.8965596 L3.40018025,75.8965596 L3.17398119,75.8965596 L3.17398119,59.8457106 C3.17398119,58.1389085 4.27725705,56.662966 5.91968652,56.1723894 L11.3677194,54.5454191 C13.2649138,62.4532021 20.4700627,68.2263766 28.7848354,68.2263766 C31.7719749,68.2263766 34.6729937,67.4931447 37.2707915,66.0978766 C38.2202351,67.3871936 39.7515752,68.2263766 41.4769514,68.2263766 L41.7031505,68.2263766 L41.7031505,68.4515489 C41.7031505,73.7476277 44.6299843,78.3732447 48.9559091,80.8185447 L48.9559091,83.395283 C48.9559091,83.4921766 48.8936991,83.578117 48.8012304,83.6088702 L42.8813323,85.573283 C40.0076097,86.5268426 38.0767712,89.1935234 38.0767712,92.2090213 L38.0767712,97.3309021 C38.0767712,98.203366 38.7873197,98.9106894 39.6637618,98.9106894 C40.5402038,98.9106894 41.2507524,98.203366 41.2507524,97.3309021 L41.2507524,92.2090213 C41.2507524,90.5557213 42.3093809,89.0934702 43.8849451,88.5708766 L45.625768,87.9930957 C47.9288088,91.4121766 51.8021238,93.4960213 55.9822571,93.4960213 C60.1668339,93.4960213 64.0365517,91.4134404 66.3391693,87.9933064 L68.079569,88.5708766 C69.6551332,89.0936809 70.7137618,90.5557213 70.7137618,92.2090213 L70.7137618,97.3309021 C70.7137618,98.203366 71.4243103,98.9106894 72.3007524,98.9106894 C73.1771944,98.9106894 73.8877429,98.203366 73.8877429,97.3309021 L73.8877429,92.2090213 C73.8877429,89.1935234 71.9569044,86.5268426 69.0831818,85.5734936 L63.1632837,83.6090809 C63.070815,83.5783277 63.008605,83.4925979 63.008605,83.3954936 L63.008605,80.8187553 C66.247547,78.9878872 68.6991301,75.9344745 69.7275,72.2919064 C72.726489,75.4156723 76.9150862,77.2515957 81.366489,77.2515957 C88.3941066,77.2515957 94.5603056,72.7294021 96.6843339,66.1450596 L102.742194,68.5570787 C104.21344,69.1428638 105.163942,70.5406596 105.163942,72.1177085 L105.163942,79.5066894 L104.937743,79.5066894 L99.2719749,79.5066894 L99.2719749,77.4765574 C99.2719749,76.6040936 98.5614263,75.8967702 97.6849843,75.8967702 C96.8085423,75.8967702 96.0979937,76.6040936 96.0979937,77.4765574 L96.0979937,97.3311128 C96.0979937,98.2035766 96.8085423,98.9109 97.6849843,98.9109 C98.5614263,98.9109 99.2719749,98.2035766 99.2719749,97.3311128 L99.2719749,82.6662638 L103.350752,82.6662638 L103.350752,97.3311128 C103.350752,98.2035766 104.061301,98.9109 104.937743,98.9109 C105.814185,98.9109 106.524734,98.2035766 106.524734,97.3311128 L106.524734,82.6662638 L106.750933,82.6662638 C107.171803,82.6662638 107.575321,82.4998596 107.873041,82.2037021 C108.17076,81.907334 108.337923,81.5056468 108.337923,81.0864766 L108.337923,72.1177085 C108.338558,69.2408106 106.604929,66.691666 103.921646,65.6233085 Z M63.0090282,28.7426489 C63.0090282,18.6659234 71.2444514,10.4678809 81.3671238,10.4678809 C91.4897962,10.4678809 99.7250078,18.6659234 99.7250078,28.7426489 C99.7250078,39.3510255 101.008354,50.0748319 101.425415,53.2775872 C100.00326,54.2037638 96.362069,56.2435851 90.206873,57.5840872 L90.206873,55.0701191 C91.0498824,54.5944979 91.8569201,54.051683 92.6157132,53.4412532 C95.7384875,50.9285489 97.9452508,47.4094149 98.8288871,43.5324064 C99.1234326,42.2405617 99.2728213,40.9082745 99.2728213,39.572617 C99.2728213,30.6434489 92.7858386,29.3615043 86.5123589,28.1216872 C82.5205486,27.3328468 78.3928918,26.5170447 75.1059169,23.8994426 C74.6296082,23.520083 73.9770376,23.4461489 73.4270925,23.7092362 C72.8771473,23.9723234 72.5275862,24.5256702 72.5275862,25.1331511 C72.5275862,25.1750681 72.4583934,29.3318043 66.4769201,30.8203851 C65.6265047,31.0320766 65.109569,31.8897957 65.3222257,32.7363511 C65.5346708,33.5829064 66.3965125,34.0970745 67.2467163,33.8858043 C72.2531426,32.6398787 74.2954937,29.8440766 75.1283464,27.7435915 C78.5697884,29.7737234 82.424906,30.5353915 85.894279,31.2210191 C92.5996317,32.5461447 96.0988401,33.5195043 96.0988401,39.5728277 C96.0988401,40.6736234 95.9759013,41.7706277 95.7336207,42.8335085 C95.006779,46.0213085 93.1910502,48.9159 90.620337,50.9843681 C87.9753527,53.1126574 84.7755564,54.237466 81.3671238,54.237466 C78.2600078,54.237466 75.3029154,53.2887511 72.7933542,51.4960085 C71.8739577,48.9980489 70.39721,46.7126234 68.4485972,44.829517 L68.4485972,37.7678681 C68.4485972,37.2202085 68.1637853,36.7117277 67.6959404,36.4239957 C67.2280956,36.1362638 66.6440831,36.109934 66.1519044,36.3549064 L62.7254859,38.060234 C62.9133856,34.7702745 63.0090282,31.6422957 63.0090282,28.7426489 Z M65.274616,40.3235426 L65.274616,46.0408979 L59.5309796,43.1823255 L65.274616,40.3235426 Z M46.6903213,40.3235426 L52.4337461,43.1823255 L46.6903213,46.0408979 L46.6903213,40.3235426 Z M38.0767712,57.6217915 L38.0767712,59.1221681 C36.9404859,60.0988979 36.2635815,61.5282894 36.2635815,63.0364596 C34.0032837,64.3657979 31.4355329,65.0668021 28.7846238,65.0668021 C21.8814263,65.0668021 15.9090517,60.2309681 14.414953,53.6354617 L18.3356661,52.4645234 C19.302884,57.3277404 23.61971,61.0065383 28.7848354,61.0065383 C32.8862539,61.0065383 36.4512696,58.6859362 38.230815,55.2957128 C38.1290361,56.0628574 38.0767712,56.8396915 38.0767712,57.6217915 Z M21.3058777,50.3994255 L21.3058777,46.7400064 C23.5831034,47.7868787 26.1163636,48.3718213 28.7848354,48.3718213 C31.4530956,48.3718213 33.9865674,47.7866681 36.2637931,46.740217 L36.2637931,50.4017426 C36.2637931,54.5068723 32.908895,57.8467532 28.7848354,57.8467532 C24.6677586,57.8467532 21.3175157,54.5178255 21.3063009,50.4219638 C21.3063009,50.4143809 21.3058777,50.4067979 21.3058777,50.3994255 Z M28.7848354,45.2122468 C20.6615596,45.2122468 14.0531191,38.6338021 14.0531191,30.5476085 C14.0531191,29.6751447 13.3425705,28.9678213 12.4661285,28.9678213 C11.3416928,28.9678213 10.4267398,28.0570213 10.4267398,26.9376894 C10.4267398,25.8183574 11.3414812,24.9075574 12.4661285,24.9075574 L16.0925078,24.9075574 C16.7755486,24.9075574 17.3819906,24.4725894 17.5980329,23.8274043 L19.0546787,19.4773021 C22.7015831,19.3953638 34.0070925,18.8849872 40.3734639,15.7161447 C41.1574373,15.3258319 41.4752586,14.377117 41.0831661,13.5967021 C40.6912853,12.8162872 39.7382445,12.4999085 38.9540596,12.8902213 C32.1234404,16.2899234 18.0466223,16.3333149 17.9052743,16.3333149 C17.2222335,16.3335255 16.6157915,16.7684936 16.3999608,17.4136787 L14.948605,21.7481936 L12.4661285,21.7481936 C12.3903762,21.7481936 12.315047,21.7507213 12.2399295,21.7538809 L12.2399295,14.3029723 C12.2399295,8.20731064 17.2218103,3.24804255 23.3452665,3.24804255 L37.8507837,3.24804255 C39.7458621,3.24804255 41.337931,4.60771277 41.6369201,6.48070851 C41.712884,6.95675106 42.0029859,7.37212979 42.4247022,7.60888723 C44.2165204,8.61489574 45.3297414,10.4881021 45.3297414,12.4978021 L45.3297414,21.7534596 C45.2546238,21.7500894 45.1795063,21.7477723 45.1035423,21.7477723 L43.2903527,21.7477723 C42.4139107,21.7477723 41.7033621,22.4550957 41.7033621,23.3275596 C41.7033621,24.2000234 42.4139107,24.9073468 43.2903527,24.9073468 L45.1035423,24.9073468 C46.2279781,24.9073468 47.142931,25.8179362 47.142931,26.9374787 C47.142931,28.0570213 46.2281897,28.9676106 45.1035423,28.9676106 C44.2271003,28.9676106 43.5165517,29.674934 43.5165517,30.5473979 C43.5165517,38.6335915 36.9081113,45.2122468 28.7848354,45.2122468 Z M39.4375627,50.4021638 L39.4375627,44.8602702 C41.0163009,43.6927021 42.3961364,42.2744745 43.5163401,40.6626702 L43.5163401,44.8293064 C41.7391223,46.5468511 40.3537853,48.5986787 39.426348,50.8415553 C39.4324843,50.695583 39.4375627,50.5494 39.4375627,50.4021638 Z M63.1723824,86.9422213 C61.4252116,89.0669298 58.8005408,90.3362362 55.9824687,90.3362362 C53.1677821,90.3362362 50.5414185,89.0660872 48.7936129,86.9420106 L49.8050549,86.6064638 C51.1956818,86.145166 52.1301019,84.8545851 52.1301019,83.3954936 L52.1301019,82.1362979 C53.3565282,82.4790064 54.6477038,82.6662638 55.9826803,82.6662638 C57.3176567,82.6662638 58.6088323,82.4790064 59.8352586,82.1362979 L59.8352586,83.3954936 C59.835047,84.8543745 60.7692555,86.1449553 62.160094,86.6062532 L63.1723824,86.9422213 Z M68.6750078,65.0668021 C67.7985658,65.0668021 67.0880172,65.7741255 67.0880172,66.6465894 L67.0880172,68.2173191 C67.0880172,68.2310106 67.0878056,68.2447021 67.0880172,68.2583936 L67.0880172,68.4515489 C67.0878056,74.5472106 62.1059248,79.5064787 55.9824687,79.5064787 C49.8590125,79.5064787 44.8773433,74.5472106 44.8773433,68.4515489 L44.8773433,66.6465894 C44.8773433,65.7741255 44.1667947,65.0668021 43.2903527,65.0668021 L41.477163,65.0668021 C40.3527273,65.0668021 39.4377743,64.1562128 39.4377743,63.0366702 C39.4377743,62.3162872 39.820768,61.6643617 40.4621238,61.2927957 C40.6053762,61.2098043 40.7300078,61.1046957 40.8379232,60.9858957 C44.7609639,60.872783 57.477837,60.137866 65.8357759,55.3835489 C66.596685,54.9506872 66.8611834,53.9857532 66.426348,53.2280872 C65.9915125,52.4704213 65.0217555,52.207334 64.261058,52.6401957 C56.9393182,56.8049362 45.4342712,57.6388532 41.2509639,57.8054681 L41.2509639,57.6217915 C41.2509639,54.6835979 42.1447571,51.8380851 43.7643339,49.4391255 C43.8910815,49.6390213 44.0605721,49.8125872 44.2692085,49.940866 C44.524185,50.0975809 44.8134404,50.1767809 45.1035423,50.1767809 C45.3460345,50.1767809 45.5891614,50.121383 45.8132445,50.0099553 L55.9826803,44.948317 L66.152116,50.0099553 C66.3761991,50.121383 66.619326,50.1767809 66.8618182,50.1767809 C67.1521317,50.1767809 67.4413871,50.0975809 67.696152,49.940866 C67.9045768,49.8125872 68.0740674,49.6388106 68.200815,49.4391255 C69.8203918,51.8380851 70.714185,54.6835979 70.714185,57.6217915 L70.714185,59.9274383 C70.714185,60.4898426 71.0144436,61.0099085 71.5030251,61.2927957 C72.1445925,61.6645723 72.5275862,62.3162872 72.5275862,63.0366702 C72.5275862,64.1560021 71.6126332,65.0668021 70.4881975,65.0668021 L68.6750078,65.0668021 L68.6750078,65.0668021 Z M81.3671238,74.0916 C76.9734875,74.0916 72.8972492,71.8649426 70.5243809,68.225534 C73.3822335,68.2059447 75.7013558,65.8861851 75.7013558,63.0368809 C75.7013558,61.5287106 75.0244514,60.0991085 73.8881661,59.1223787 L73.8881661,57.6220021 C73.8881661,56.9860851 73.8536755,56.3537489 73.7861755,55.7273106 C76.1393652,56.8255787 78.7085972,57.3966191 81.3671238,57.3966191 C83.3021944,57.3966191 85.2158934,57.0775021 87.0328918,56.474234 L87.0328918,58.7876745 C87.0328918,60.9220723 88.3192006,62.8136043 90.3099216,63.6062362 L93.7321082,64.9688553 C92.0920063,70.3670936 87.0834639,74.0916 81.3671238,74.0916 Z" id="Shape"></path>
                        <path d="M60.608652,70.8345 C59.9279389,70.2849447 58.928558,70.3885787 58.3764969,71.0664128 C57.7351411,71.8533574 56.8851489,72.2866404 55.9826803,72.2866404 C55.0802116,72.2866404 54.2300078,71.8533574 53.5888636,71.0664128 C53.0368025,70.3887894 52.03721,70.2849447 51.3567085,70.8345 C50.6759953,71.3840553 50.5716771,72.3789 51.1237382,73.0565234 C52.3611677,74.5750149 54.1320376,75.4462149 55.9826803,75.4462149 C57.8333229,75.4462149 59.6041928,74.5752255 60.8416223,73.056734 C61.3934718,72.3791106 61.2891536,71.3840553 60.608652,70.8345 Z" id="Shape"></path>
                        <ellipse id="Oval" cx="50.5721003" cy="64.8487915" rx="1.5869906" ry="1.57978723"></ellipse>
                        <ellipse id="Oval" cx="61.3636364" cy="64.8487915" rx="1.5869906" ry="1.57978723"></ellipse>
                    </g>
                </g>
            </g>
        </g>
    </g>
</svg>