<?xml version="1.0" encoding="UTF-8"?>
<svg width="281px" height="270px" viewBox="0 0 281 270" version="1.1" xmlns="http://www.w3.org/2000/svg" xmlns:xlink="http://www.w3.org/1999/xlink">
    <!-- Generator: Sketch 43.1 (39012) - http://www.bohemiancoding.com/sketch -->
    <title>Group 3</title>
    <desc>Created with Sketch.</desc>
    <defs></defs>
    <g id="Page-1" stroke="none" stroke-width="1" fill="none" fill-rule="evenodd">
        <g id="HomeBuying-Copy" transform="translate(-394.000000, -1178.000000)" fill="#358FCA">
            <g id="Group-3" transform="translate(394.000000, 1178.000000)">
                <g id="Group-8" transform="translate(179.000000, 0.000000)" fill-rule="nonzero">
                    <path d="M14.452286,39.9315895 C10.2694634,39.9315895 6.87640449,36.6497762 6.87640449,32.6040926 C6.87640449,28.558409 10.2694634,25.2765957 14.452286,25.2765957 C18.6351086,25.2765957 22.0281675,28.558409 22.0281675,32.6040926 C22.057418,36.6497762 18.6351086,39.9315895 14.452286,39.9315895 Z M14.452286,27.2287088 C11.3809827,27.2287088 8.89468952,29.6334858 8.89468952,32.6040926 C8.89468952,35.5746994 11.3809827,37.9794764 14.452286,37.9794764 C17.5235893,37.9794764 20.0098824,35.5746994 20.0098824,32.6040926 C20.0098824,29.6334858 17.5235893,27.2287088 14.452286,27.2287088 Z" id="Shape"></path>
                    <path d="M79.2067745,71.0174488 L79.2067745,71.0174488 C78.2122572,71.0174488 77.2469904,70.6496594 76.5157278,69.9989551 L76.2232227,69.7443316 C76.0769701,69.6028741 75.9307176,69.4614167 75.7844651,69.2916677 C75.725964,69.2350847 75.6382125,69.1502102 75.5797115,69.0936273 L68.5303392,61.398341 C67.2140663,59.9554748 67.3310683,57.7487383 68.8228442,56.4473296 C69.4956059,55.8814997 70.3438706,55.5702933 71.2213859,55.5702933 C72.2451536,55.5702933 73.2396709,55.9946657 73.9416831,56.7302445 L78.7095158,61.9075879 L94.680293,44.9326917 C95.4408062,44.1405299 96.523075,43.6595745 97.6638448,43.6595745 C98.658362,43.6595745 99.6236288,44.0273639 100.354891,44.6780682 C101.144655,45.3853556 101.612663,46.3189749 101.671164,47.3657601 C101.729665,48.4125454 101.349409,49.4027477 100.647397,50.166618 L82.2488272,69.7443316 C81.4005625,70.5364934 80.3182937,71.0174488 79.2067745,71.0174488 Z M71.1921354,57.5506979 C70.8118788,57.5506979 70.4316222,57.6921553 70.1391171,57.9467788 C69.4956059,58.5126086 69.4371049,59.4745194 70.0221151,60.0969323 L77.0714874,67.7922186 C77.1007379,67.82051 77.1592389,67.877093 77.1884894,67.9053845 L77.2762409,67.990259 L77.334742,68.0751335 C77.393243,68.160008 77.4809945,68.2448825 77.568746,68.3014654 L77.8612511,68.5560889 C78.2122572,68.8672953 78.7095158,69.0653358 79.2067745,69.0653358 C79.7625341,69.0653358 80.2890432,68.8390038 80.6692998,68.4429229 L99.0678691,48.8652093 C99.7991318,48.0730475 99.7406308,46.8565133 98.9216166,46.1492259 C98.5706105,45.8380195 98.0733519,45.639979 97.5760933,45.639979 C97.0203336,45.639979 96.4938245,45.866311 96.1135679,46.2623919 L79.6747826,63.746535 C79.411528,64.0294499 79.0312714,64.1991989 78.6217643,64.1991989 C78.2122572,64.1991989 77.8320006,64.0294499 77.568746,63.746535 L72.3621557,58.0882362 C72.0989011,57.7204468 71.6601435,57.5506979 71.1921354,57.5506979 Z" id="Shape"></path>
                    <g id="2019914" transform="translate(51.000000, 41.000000) rotate(-360.000000) translate(-51.000000, -41.000000) ">
                        <g id="Group" transform="translate(-0.000000, 0.000000)">
                            <path d="M72.775263,52.6898559 L8.0438896,52.6898559 C3.65631346,52.6898559 0.0877515229,49.2382937 0.0877515229,44.9945696 L0.0877515229,7.87612994 C0.0877515229,3.63240589 3.65631346,0.180843665 8.0438896,0.180843665 L72.8045135,0.180843665 C77.1920897,0.180843665 80.7606516,3.63240589 80.7606516,7.87612994 L80.7606516,44.9945696 C80.7314011,49.2382937 77.1628392,52.6898559 72.775263,52.6898559 Z M8.0438896,2.16124822 C4.79708325,2.16124822 2.13528706,4.73577414 2.13528706,7.87612994 L2.13528706,44.9945696 C2.13528706,48.1349254 4.79708325,50.7094513 8.0438896,50.7094513 L72.8045135,50.7094513 C76.0513199,50.7094513 78.7131161,48.1349254 78.7131161,44.9945696 L78.7131161,7.87612994 C78.7131161,4.73577414 76.0513199,2.16124822 72.8045135,2.16124822 L8.0438896,2.16124822 L8.0438896,2.16124822 Z" id="Shape"></path>
                            <rect id="Rectangle-path" x="1.57952741" y="9.74336852" width="77.6600978" height="1.98040456"></rect>
                            <rect id="Rectangle-path" x="1.57952741" y="17.0142824" width="77.6600978" height="1.98040456"></rect>
                            <path d="M71.3712387,38.5724006 L64.7313734,38.5724006 C62.8300904,38.5724006 61.2798135,37.0729514 61.2798135,35.2340043 L61.2798135,28.8118352 C61.2798135,26.9728882 62.8300904,25.473439 64.7313734,25.473439 L71.3712387,25.473439 C73.2725216,25.473439 74.8227986,26.9728882 74.8227986,28.8118352 L74.8227986,35.2340043 C74.8520491,37.0729514 73.3017722,38.5724006 71.3712387,38.5724006 Z M64.7313734,27.4255521 C63.9416097,27.4255521 63.2980985,28.0479649 63.2980985,28.8118352 L63.2980985,35.2340043 C63.2980985,35.9978746 63.9416097,36.6202875 64.7313734,36.6202875 L71.3712387,36.6202875 C72.1610024,36.6202875 72.8045135,35.9978746 72.8045135,35.2340043 L72.8045135,28.8118352 C72.8045135,28.0479649 72.1610024,27.4255521 71.3712387,27.4255521 L64.7313734,27.4255521 Z" id="Shape"></path>
                            <path d="M24.6289274,46.5506018 L17.8135592,46.5506018 C17.2577995,46.5506018 16.7897914,46.0979379 16.7897914,45.5603995 C16.7897914,45.0228611 17.2577995,44.5701972 17.8135592,44.5701972 L24.6289274,44.5701972 C25.1846871,44.5701972 25.6526952,45.0228611 25.6526952,45.5603995 C25.6526952,46.0979379 25.2139376,46.5506018 24.6289274,46.5506018 Z" id="Shape"></path>
                            <path d="M34.7496031,46.5506018 L27.9342348,46.5506018 C27.3784752,46.5506018 26.910467,46.0979379 26.910467,45.5603995 C26.910467,45.0228611 27.3784752,44.5701972 27.9342348,44.5701972 L34.7496031,44.5701972 C35.3053627,44.5701972 35.7733708,45.0228611 35.7733708,45.5603995 C35.7733708,46.0979379 35.3346132,46.5506018 34.7496031,46.5506018 Z" id="Shape"></path>
                            <path d="M44.8702787,46.5506018 L38.0549104,46.5506018 C37.4991508,46.5506018 37.0311427,46.0979379 37.0311427,45.5603995 C37.0311427,45.0228611 37.4991508,44.5701972 38.0549104,44.5701972 L44.8702787,44.5701972 C45.4260384,44.5701972 45.8940465,45.0228611 45.8940465,45.5603995 C45.8940465,46.0979379 45.4260384,46.5506018 44.8702787,46.5506018 Z" id="Shape"></path>
                            <path d="M54.9909544,46.5506018 L48.1755861,46.5506018 C47.6198264,46.5506018 47.1518183,46.0979379 47.1518183,45.5603995 C47.1518183,45.0228611 47.6198264,44.5701972 48.1755861,44.5701972 L54.9909544,44.5701972 C55.546714,44.5701972 56.0147221,45.0228611 56.0147221,45.5603995 C56.0147221,46.0979379 55.546714,46.5506018 54.9909544,46.5506018 Z" id="Shape"></path>
                            <path d="M65.11163,46.5506018 L58.2962617,46.5506018 C57.7405021,46.5506018 57.272494,46.0979379 57.272494,45.5603995 C57.272494,45.0228611 57.7405021,44.5701972 58.2962617,44.5701972 L65.11163,44.5701972 C65.6673897,44.5701972 66.1353978,45.0228611 66.1353978,45.5603995 C66.1353978,46.0979379 65.6673897,46.5506018 65.11163,46.5506018 Z" id="Shape"></path>
                            <path d="M22.4058889,39.7606433 C18.2230663,39.7606433 14.8300074,36.47883 14.8300074,32.4331464 C14.8300074,28.3874628 18.2230663,25.1056496 22.4058889,25.1056496 C26.5887114,25.1056496 29.9817703,28.3874628 29.9817703,32.4331464 C30.0110208,36.47883 26.5887114,39.7606433 22.4058889,39.7606433 Z M22.4058889,27.0577626 C19.3345856,27.0577626 16.8482924,29.4625396 16.8482924,32.4331464 C16.8482924,35.4037533 19.3345856,37.8085302 22.4058889,37.8085302 C25.4771922,37.8085302 27.9634853,35.4037533 27.9634853,32.4331464 C27.9634853,29.4625396 25.4771922,27.0577626 22.4058889,27.0577626 Z" id="Shape"></path>
                        </g>
                        <g id="Group" transform="translate(59.671036, 40.456836)">
                            <path d="M20.6801089,40.1001412 C9.33091194,40.1001412 0.117002031,31.1600292 0.117002031,20.2112212 C0.117002031,9.26241313 9.36016245,0.322301134 20.6801089,0.322301134 C32.0293059,0.322301134 41.2432158,9.26241313 41.2432158,20.2112212 C41.2432158,31.1600292 32.0293059,40.1001412 20.6801089,40.1001412 Z M20.6801089,2.2744142 C10.4716817,2.2744142 2.13528706,10.3091984 2.13528706,20.2112212 C2.13528706,30.0849525 10.4424312,38.1480281 20.6801089,38.1480281 C30.8885361,38.1480281 39.2249308,30.113244 39.2249308,20.2112212 C39.2249308,10.3374899 30.8885361,2.2744142 20.6801089,2.2744142 Z" id="Shape"></path>
                        </g>
                    </g>
                </g>
                <g id="Group-2" transform="translate(0.000000, 65.000000)">
                    <g id="Group">
                        <path d="M279.225835,196.82 L1.74781176,196.82 C0.895811765,196.82 0.204188235,196.13 0.204188235,195.28 C0.204188235,194.43 0.895811765,193.74 1.74781176,193.74 L279.225835,193.74 C280.077835,193.74 280.769459,194.43 280.769459,195.28 C280.769459,196.13 280.077835,196.82 279.225835,196.82" id="Fill-907"></path>
                        <path d="M254.952188,204.823333 L26.0214588,204.823333 C25.1694588,204.823333 24.4778353,204.133333 24.4778353,203.283333 C24.4778353,202.433333 25.1694588,201.743333 26.0214588,201.743333 L254.952188,201.743333 C255.804188,201.743333 256.495812,202.433333 256.495812,203.283333 C256.495812,204.133333 255.804188,204.823333 254.952188,204.823333" id="Fill-908"></path>
                        <path d="M70.0280941,194.046667 L210.948894,194.046667 L210.948894,15.38 L70.0280941,15.38 L70.0280941,194.046667 Z M212.181788,196.51 L68.7918588,196.51 C68.1102588,196.51 67.5589647,195.96 67.5589647,195.28 L67.5589647,14.15 C67.5589647,13.47 68.1102588,12.92 68.7918588,12.92 L212.181788,12.92 C212.863388,12.92 213.414682,13.47 213.414682,14.15 L213.414682,195.28 C213.414682,195.96 212.863388,196.51 212.181788,196.51 L212.181788,196.51 Z" id="Fill-909"></path>
                        <text id="LENDER" font-family="TitilliumWeb-SemiBold, Titillium Web" font-size="24" font-weight="500" letter-spacing="0.560000002">
                            <tspan x="97" y="110.715">LENDER</tspan>
                        </text>
                        <path d="M65.6478118,12.92 L215.325835,12.92 L215.325835,3.38666667 L65.6478118,3.38666667 L65.6478118,12.92 Z M216.562071,15.38 L64.4115765,15.38 C63.7299765,15.38 63.1786824,14.83 63.1786824,14.15 L63.1786824,2.15333333 C63.1786824,1.47333333 63.7299765,0.923333333 64.4115765,0.923333333 L216.562071,0.923333333 C217.243671,0.923333333 217.794965,1.47333333 217.794965,2.15333333 L217.794965,14.15 C217.794965,14.83 217.243671,15.38 216.562071,15.38 L216.562071,15.38 Z" id="Fill-910"></path>
                        <path d="M175.819765,182.966667 L199.375059,182.966667 L199.375059,138.15 L175.819765,138.15 L175.819765,182.966667 Z M200.611294,185.426667 L174.586871,185.426667 C173.905271,185.426667 173.350635,184.876667 173.350635,184.196667 L173.350635,136.92 C173.350635,136.24 173.905271,135.686667 174.586871,135.686667 L200.611294,135.686667 C201.292894,135.686667 201.844188,136.24 201.844188,136.92 L201.844188,184.196667 C201.844188,184.876667 201.292894,185.426667 200.611294,185.426667 L200.611294,185.426667 Z" id="Fill-911"></path>
                        <path d="M171.559765,193.876667 L203.635059,193.876667 L199.812753,185.426667 L175.382071,185.426667 L171.559765,193.876667 Z M205.546212,196.34 L169.648612,196.34 C169.230965,196.34 168.840047,196.13 168.612847,195.776667 C168.382306,195.426667 168.348894,194.983333 168.522635,194.603333 L173.460894,183.69 C173.661365,183.25 174.099059,182.966667 174.586871,182.966667 L200.611294,182.966667 C201.095765,182.966667 201.533459,183.25 201.733929,183.69 L206.672188,194.603333 C206.845929,194.983333 206.812518,195.426667 206.585318,195.776667 C206.358118,196.13 205.9672,196.34 205.546212,196.34 L205.546212,196.34 Z" id="Fill-912"></path>
                        <path d="M179.251153,163.253333 C179.251153,163.923333 178.706541,164.463333 178.038306,164.463333 C177.366729,164.463333 176.825459,163.923333 176.825459,163.253333 C176.825459,162.586667 177.366729,162.043333 178.038306,162.043333 C178.706541,162.043333 179.251153,162.586667 179.251153,163.253333" id="Fill-913"></path>
                        <path d="M87.8532706,59.3433333 L106.400141,59.3433333 L106.400141,40.84 L87.8532706,40.84 L87.8532706,59.3433333 Z M107.636376,61.8066667 L86.6170353,61.8066667 C85.9354353,61.8066667 85.3841412,61.2566667 85.3841412,60.5733333 L85.3841412,39.6066667 C85.3841412,38.9266667 85.9354353,38.3766667 86.6170353,38.3766667 L107.636376,38.3766667 C108.317976,38.3766667 108.869271,38.9266667 108.869271,39.6066667 L108.869271,60.5733333 C108.869271,61.2566667 108.317976,61.8066667 107.636376,61.8066667 L107.636376,61.8066667 Z" id="Fill-914"></path>
                        <path d="M84.6323765,65.01 L109.621035,65.01 L109.621035,61.8066667 L84.6323765,61.8066667 L84.6323765,65.01 Z M110.853929,67.4733333 L83.3994824,67.4733333 C82.7178824,67.4733333 82.1632471,66.9233333 82.1632471,66.2433333 L82.1632471,60.5733333 C82.1632471,59.8966667 82.7178824,59.3433333 83.3994824,59.3433333 L110.853929,59.3433333 C111.535529,59.3433333 112.090165,59.8966667 112.090165,60.5733333 L112.090165,66.2433333 C112.090165,66.9233333 111.535529,67.4733333 110.853929,67.4733333 L110.853929,67.4733333 Z" id="Fill-915"></path>
                        <polygon id="Fill-916" points="86.6170353 51.3233333 107.636376 51.3233333 107.636376 48.86 86.6170353 48.86"></polygon>
                        <path d="M131.211718,59.3433333 L149.761929,59.3433333 L149.761929,40.84 L131.211718,40.84 L131.211718,59.3433333 Z M150.994824,61.8066667 L129.978824,61.8066667 C129.297224,61.8066667 128.742588,61.2566667 128.742588,60.5733333 L128.742588,39.6066667 C128.742588,38.9266667 129.297224,38.3766667 129.978824,38.3766667 L150.994824,38.3766667 C151.676424,38.3766667 152.231059,38.9266667 152.231059,39.6066667 L152.231059,60.5733333 C152.231059,61.2566667 151.676424,61.8066667 150.994824,61.8066667 L150.994824,61.8066667 Z" id="Fill-917"></path>
                        <path d="M127.994165,65.01 L152.979482,65.01 L152.979482,61.8066667 L127.994165,61.8066667 L127.994165,65.01 Z M154.215718,67.4733333 L126.757929,67.4733333 C126.076329,67.4733333 125.525035,66.9233333 125.525035,66.2433333 L125.525035,60.5733333 C125.525035,59.8966667 126.076329,59.3433333 126.757929,59.3433333 L154.215718,59.3433333 C154.897318,59.3433333 155.448612,59.8966667 155.448612,60.5733333 L155.448612,66.2433333 C155.448612,66.9233333 154.897318,67.4733333 154.215718,67.4733333 L154.215718,67.4733333 Z" id="Fill-918"></path>
                        <polygon id="Fill-919" points="129.978824 51.3233333 150.994824 51.3233333 150.994824 48.86 129.978824 48.86"></polygon>
                        <path d="M174.573506,59.3433333 L193.120376,59.3433333 L193.120376,40.84 L174.573506,40.84 L174.573506,59.3433333 Z M194.356612,61.8066667 L173.337271,61.8066667 C172.655671,61.8066667 172.104376,61.2566667 172.104376,60.5733333 L172.104376,39.6066667 C172.104376,38.9266667 172.655671,38.3766667 173.337271,38.3766667 L194.356612,38.3766667 C195.038212,38.3766667 195.589506,38.9266667 195.589506,39.6066667 L195.589506,60.5733333 C195.589506,61.2566667 195.038212,61.8066667 194.356612,61.8066667 L194.356612,61.8066667 Z" id="Fill-920"></path>
                        <path d="M171.355953,65.01 L196.341271,65.01 L196.341271,61.8066667 L171.355953,61.8066667 L171.355953,65.01 Z M197.574165,67.4733333 L170.119718,67.4733333 C169.438118,67.4733333 168.886824,66.9233333 168.886824,66.2433333 L168.886824,60.5733333 C168.886824,59.8966667 169.438118,59.3433333 170.119718,59.3433333 L197.574165,59.3433333 C198.255765,59.3433333 198.8104,59.8966667 198.8104,60.5733333 L198.8104,66.2433333 C198.8104,66.9233333 198.255765,67.4733333 197.574165,67.4733333 L197.574165,67.4733333 Z" id="Fill-921"></path>
                        <polygon id="Fill-922" points="173.337271 51.3233333 194.356612 51.3233333 194.356612 48.86 173.337271 48.86"></polygon>
                        <path d="M87.8532706,160.146667 L106.400141,160.146667 L106.400141,141.64 L87.8532706,141.64 L87.8532706,160.146667 Z M107.636376,162.61 L86.6170353,162.61 C85.9354353,162.61 85.3841412,162.056667 85.3841412,161.376667 L85.3841412,140.41 C85.3841412,139.73 85.9354353,139.176667 86.6170353,139.176667 L107.636376,139.176667 C108.317976,139.176667 108.869271,139.73 108.869271,140.41 L108.869271,161.376667 C108.869271,162.056667 108.317976,162.61 107.636376,162.61 L107.636376,162.61 Z" id="Fill-923"></path>
                        <path d="M84.6323765,165.813333 L109.621035,165.813333 L109.621035,162.61 L84.6323765,162.61 L84.6323765,165.813333 Z M110.853929,168.276667 L83.3994824,168.276667 C82.7178824,168.276667 82.1632471,167.723333 82.1632471,167.043333 L82.1632471,161.376667 C82.1632471,160.696667 82.7178824,160.146667 83.3994824,160.146667 L110.853929,160.146667 C111.535529,160.146667 112.090165,160.696667 112.090165,161.376667 L112.090165,167.043333 C112.090165,167.723333 111.535529,168.276667 110.853929,168.276667 L110.853929,168.276667 Z" id="Fill-924"></path>
                        <polygon id="Fill-925" points="86.6170353 152.123333 107.636376 152.123333 107.636376 149.66 86.6170353 149.66"></polygon>
                        <path d="M131.211718,160.146667 L149.761929,160.146667 L149.761929,141.64 L131.211718,141.64 L131.211718,160.146667 Z M150.994824,162.61 L129.978824,162.61 C129.297224,162.61 128.742588,162.056667 128.742588,161.376667 L128.742588,140.41 C128.742588,139.73 129.297224,139.176667 129.978824,139.176667 L150.994824,139.176667 C151.676424,139.176667 152.231059,139.73 152.231059,140.41 L152.231059,161.376667 C152.231059,162.056667 151.676424,162.61 150.994824,162.61 L150.994824,162.61 Z" id="Fill-926"></path>
                        <path d="M127.994165,165.813333 L152.979482,165.813333 L152.979482,162.61 L127.994165,162.61 L127.994165,165.813333 Z M154.215718,168.276667 L126.757929,168.276667 C126.076329,168.276667 125.525035,167.723333 125.525035,167.043333 L125.525035,161.376667 C125.525035,160.696667 126.076329,160.146667 126.757929,160.146667 L154.215718,160.146667 C154.897318,160.146667 155.448612,160.696667 155.448612,161.376667 L155.448612,167.043333 C155.448612,167.723333 154.897318,168.276667 154.215718,168.276667 L154.215718,168.276667 Z" id="Fill-927"></path>
                        <polygon id="Fill-928" points="129.978824 152.123333 150.994824 152.123333 150.994824 149.66 129.978824 149.66"></polygon>
                        <polygon id="Fill-929" points="173.033224 188.86 202.054682 188.86 202.054682 186.396667 173.033224 186.396667"></polygon>
                        <polygon id="Fill-930" points="170.988424 192.76 204.450306 192.76 204.450306 190.296667 170.988424 190.296667"></polygon>
                        <polygon id="Fill-931" points="68.7918588 185.426667 174.586871 185.426667 174.586871 182.966667 68.7918588 182.966667"></polygon>
                        <polygon id="Fill-932" points="200.250447 185.426667 212.175106 185.426667 212.175106 182.966667 200.250447 182.966667"></polygon>
                        <path d="M86.9411294,190.296667 L95.2740235,190.296667 L95.2740235,189.476667 L86.9411294,189.476667 L86.9411294,190.296667 Z M96.5069176,192.76 L85.7082353,192.76 C85.0266353,192.76 84.472,192.21 84.472,191.53 L84.472,188.246667 C84.472,187.566667 85.0266353,187.013333 85.7082353,187.013333 L96.5069176,187.013333 C97.1885176,187.013333 97.7431529,187.566667 97.7431529,188.246667 L97.7431529,191.53 C97.7431529,192.21 97.1885176,192.76 96.5069176,192.76 L96.5069176,192.76 Z" id="Fill-933"></path>
                        <path d="M139.093553,190.296667 L147.423106,190.296667 L147.423106,189.476667 L139.093553,189.476667 L139.093553,190.296667 Z M148.659341,192.76 L137.857318,192.76 C137.175718,192.76 136.624424,192.21 136.624424,191.53 L136.624424,188.246667 C136.624424,187.566667 137.175718,187.013333 137.857318,187.013333 L148.659341,187.013333 C149.340941,187.013333 149.892235,187.566667 149.892235,188.246667 L149.892235,191.53 C149.892235,192.21 149.340941,192.76 148.659341,192.76 L148.659341,192.76 Z" id="Fill-934"></path>
                    </g>
                </g>
            </g>
        </g>
    </g>
</svg>