<?xml version="1.0" encoding="UTF-8"?>
<svg width="112px" height="35px" viewBox="0 0 112 35" version="1.1" xmlns="http://www.w3.org/2000/svg" xmlns:xlink="http://www.w3.org/1999/xlink">
    <!-- Generator: Sketch 45.2 (43514) - http://www.bohemiancoding.com/sketch -->
    <title>Page 1</title>
    <desc>Created with Sketch.</desc>
    <defs>
        <polygon id="path-1" points="0 33.9101404 111.172527 33.9101404 111.172527 0.122768549 0 0.122768549"></polygon>
    </defs>
    <g id="Page-1" stroke="none" stroke-width="1" fill="none" fill-rule="evenodd">
        <g transform="translate(0.103563, 0.166016)">
            <polygon id="Fill-1" fill="#2980B9" points="35.2942277 11.0988581 38.2008112 11.0988581 38.2008112 8.19227469 35.2942277 8.19227469"></polygon>
            <polygon id="Fill-2" fill="#2980B9" points="39.4464898 11.0988581 42.2146645 11.0988581 42.2146645 8.19227469 39.4464898 8.19227469"></polygon>
            <polygon id="Fill-3" fill="#2980B9" points="35.2942277 14.9743028 38.2008112 14.9743028 38.2008112 12.0677193 35.2942277 12.0677193"></polygon>
            <polygon id="Fill-4" fill="#2980B9" points="39.4464898 14.9743028 42.2146645 14.9743028 42.2146645 12.0677193 39.4464898 12.0677193"></polygon>
            <polygon id="Fill-5" fill="#474747" points="11.8393034 13.036622 5.39360852 21.7563724 3.46031529 21.7563724 3.46031529 13.036622 -4.15226209e-05 13.036622 -4.15226209e-05 33.6593853 3.46031529 33.6593853 3.46031529 24.8013646 5.80288315 24.8013646 12.2906543 33.6593853 16.4798715 33.6593853 8.42614393 22.8824658 15.9006309 13.036622"></polygon>
            <g id="Group-18" transform="translate(0.000000, 0.015640)">
                <path d="M21.0918582,21.8304626 C20.5462509,22.5039595 20.2078416,23.3800868 20.0748308,24.414 L20.1034814,24.50881 L26.1592788,24.50881 L26.1592788,24.1086704 C26.1592788,23.1405012 25.9095895,22.350741 25.4163007,21.739528 C24.9228736,21.128315 24.1749128,20.8218781 23.1780931,20.8218781 C22.3328309,20.8218781 21.6356661,21.1586265 21.0918582,21.8304626 Z M29.6194972,27.0001673 L20.0327545,27.0001673 L20.0057648,27.0563612 C20.0612667,28.2653615 20.416562,29.2392054 21.0698512,30.0070971 C21.7232788,30.7766496 22.6290256,31.1604571 23.7841849,31.1604571 C24.7068175,31.1604571 25.4965778,31.0476539 26.1548497,30.8220477 C26.8115992,30.5964415 27.4462033,30.2714577 28.0574162,29.8487575 L29.1584577,32.0966537 C28.5841999,32.6068283 27.8225366,33.0363107 26.8729143,33.3864848 C25.9232919,33.734998 24.8208663,33.910085 23.5714507,33.910085 C21.4077069,33.910085 19.6829956,33.2029548 18.3998083,31.7885559 C17.1167593,30.3724961 16.4706673,28.5556046 16.4706673,26.336359 L16.4706673,25.7723434 C16.4706673,23.5530977 17.1200811,21.7125383 18.3930262,20.2510805 C19.6676323,18.7894842 21.2769107,18.0621463 23.1947021,18.0722501 C25.2539473,18.0722501 26.8482775,18.6952279 27.9428138,19.9411833 C29.039011,21.1872772 29.6194972,22.8575938 29.6194972,24.9539325 L29.6194972,27.0001673 Z" id="Fill-6" fill="#474747"></path>
                <path d="M57.9932605,29.3268043 C57.5780343,29.8992628 57.2310436,30.3421708 56.7275126,30.6519295 C56.2257809,30.9634876 55.5954675,31.1167061 54.8714514,31.1167061 C53.6944235,31.1167061 52.8396112,30.6991269 52.2991251,29.8623077 C51.7568396,29.0271494 51.4880499,27.9023016 51.4880499,26.4930238 L51.4880499,26.1948914 C51.4880499,24.6155093 51.7573933,23.3357821 52.3097825,22.3525265 C52.8671545,21.3707933 53.7215516,20.8791655 54.8884757,20.8791655 C55.5838412,20.8791655 56.2144314,21.0357058 56.7229451,21.3522465 C57.2297979,21.6654655 57.5780343,22.1049132 57.9932605,22.6707282 L57.9932605,29.3268043 Z M57.9932605,12.7126348 L57.9932605,20.0035918 C57.4396255,19.3839359 56.9145028,18.9073946 56.2610751,18.573968 C55.6094468,18.2388804 54.8529047,18.0722363 54.02439,18.0722363 C52.1352491,18.0722363 50.6531684,18.818121 49.6091513,20.3083678 C48.5652726,21.7968154 48.0278315,23.7618042 48.0278315,26.1948914 L48.0278315,26.4930238 C48.0278315,28.7106086 48.5573833,30.5038322 49.6014004,31.866051 C50.6452791,33.2282697 52.1056297,33.9100712 53.9762237,33.9100712 C54.8888909,33.9100712 55.6905543,33.7248803 56.3776153,33.3528376 C57.0628769,32.9824558 57.6531902,32.4551185 58.1398353,31.7395454 L58.4808744,33.6439112 L61.3150701,33.6439112 L61.3150701,14.0360991 L57.9932605,12.7126348 Z" id="Fill-8" fill="#474747"></path>
                <path d="M72.555908,18.1210254 C72.3773607,18.089053 72.1837269,18.0721671 71.9766674,18.0721671 C71.1869072,18.0721671 70.4898808,18.2927906 69.8836505,18.7356986 C69.2758977,19.1768072 68.7808097,19.8208231 68.395203,20.6003411 L68.1695967,18.418881 L65.0520783,18.418881 L65.0520783,33.643842 L68.5122967,33.643842 L68.5122967,23.0092067 C68.6507055,22.4922501 69.0785269,22.0914184 69.5246182,21.8103102 C69.9725089,21.5274028 70.5165937,21.3859491 71.1851078,21.3859491 L72.6458736,21.4432503 L73.0521033,18.2406105 C72.902345,18.1934131 72.7344552,18.1547971 72.555908,18.1210254" id="Fill-10" fill="#474747"></path>
                <mask id="mask-2" fill="white">
                    <use xlink:href="#path-1"></use>
                </mask>
                <g id="Clip-13"></g>
                <path d="M75.2943525,14.6818451 L78.7545709,14.6818451 L78.7545709,11.6368529 L75.2943525,11.6368529 L75.2943525,14.6818451 Z M75.2943525,33.643842 L78.7545709,33.643842 L78.7545709,18.418881 L75.2943525,18.418881 L75.2943525,33.643842 Z" id="Fill-12" fill="#474747" mask="url(#mask-2)"></path>
                <path d="M86.0800332,22.2244984 C86.6155366,21.2899626 87.5358163,20.8218643 88.8239864,20.8218643 C89.7078646,20.8218643 90.4291125,21.1086472 90.9780416,21.6930088 C91.5286315,22.2755712 91.8069715,22.9864385 91.8069715,23.8168909 L94.9236594,23.8168909 L94.95231,23.7371675 C94.9894035,22.0920412 94.4370143,20.738819 93.295419,19.6712724 C92.1521629,18.6037258 90.6653762,18.071129 88.8315989,18.071129 C86.5837026,18.071129 84.8289566,18.7973597 83.6300602,20.250513 C82.4311637,21.7036663 81.7996046,23.5345371 81.7996046,25.7453398 L81.7996046,26.238767 C81.7996046,28.4580126 82.4311637,30.2899907 83.6300602,31.7380229 C84.8289566,33.1861935 86.5676472,33.9102096 88.8155435,33.9102096 C90.5178325,33.9102096 91.9806744,33.3932529 93.1880138,32.3593397 C94.3970142,31.3255648 94.9819295,30.0646612 94.9347321,28.6351758 L94.9102338,28.5227879 L91.8069715,28.5227879 C91.8069715,29.3532403 91.5207422,29.9047992 90.9464844,30.396427 C90.3740258,30.8863939 89.6685565,31.1463255 88.8315989,31.1463255 C87.5435672,31.1463255 86.6155366,30.6904071 86.0800332,29.7659752 C85.5445298,28.8415432 85.259823,27.6682524 85.259823,26.230324 L85.259823,25.7386962 C85.259823,24.32928 85.5445298,23.1590342 86.0800332,22.2244984" id="Fill-14" fill="#474747" mask="url(#mask-2)"></path>
                <polygon id="Fill-15" fill="#474747" mask="url(#mask-2)" points="105.388578 25.3401482 110.424857 18.418881 106.39038 18.418881 102.539572 24.2320479 101.1768 24.2320479 101.1768 11.6368529 97.7165816 11.6368529 97.7165816 33.643842 101.1768 33.643842 101.1768 27.0002226 102.652376 27.0002226 107.195365 33.643842 111.172541 33.643842"></polygon>
                <polygon id="Fill-16" fill="#2980B9" mask="url(#mask-2)" points="61.3150701 8.74387502 61.3150701 12.1283839 38.8549309 3.50551958 21.3149454 10.1902463 21.3149454 6.80573749 38.8549309 0.122810072"></polygon>
                <path d="M45.2596567,24.5071629 L45.2596567,33.6438004 L41.7994383,33.6438004 L41.7994383,24.5071629 C41.7994383,22.8401681 40.4916142,21.4884684 38.824481,21.4884684 C37.1556868,21.4884684 35.8478627,22.8401681 35.8478627,24.5071629 L35.8478627,33.6438004 L32.3876443,33.6438004 L32.3876443,24.5071629 C32.3876443,22.0386431 33.7635655,19.8930309 35.8028798,18.8128891 C36.7033671,18.332334 37.7260692,18.0609145 38.8171453,18.0609145 C39.9083598,18.0609145 40.9335533,18.332334 41.8340405,18.8128891 C43.8732164,19.8930309 45.2596567,22.0386431 45.2596567,24.5071629" id="Fill-17" fill="#2980B9" mask="url(#mask-2)"></path>
            </g>
        </g>
    </g>
</svg>