<?xml version="1.0" encoding="UTF-8"?>
<svg width="100px" height="103px" viewBox="0 0 100 103" version="1.1" xmlns="http://www.w3.org/2000/svg" xmlns:xlink="http://www.w3.org/1999/xlink">
    <!-- Generator: Sketch 43.1 (39012) - http://www.bohemiancoding.com/sketch -->
    <title>wallet</title>
    <desc>Created with Sketch.</desc>
    <defs></defs>
    <g id="Page-1" stroke="none" stroke-width="1" fill="none" fill-rule="evenodd">
        <g id="Careers" transform="translate(-669.000000, -1510.000000)" fill-rule="nonzero" fill="#338CCC">
            <g id="Group-3-Copy-4" transform="translate(560.000000, 1461.000000)">
                <g id="Group-9">
                    <g id="Group-11">
                        <g id="Group-10" transform="translate(41.000000, 49.000000)">
                            <g id="wallet" transform="translate(68.000000, 0.000000)">
                                <path d="M96.6915323,60.2307746 L95.1467742,60.2307746 L95.1467742,46.3697874 C95.1467742,44.1754072 94.0504032,42.232479 92.3760081,41.0519402 L92.3760081,39.1646448 C92.3760081,36.4269918 90.1403226,34.1998747 87.3921371,34.1998747 L86.2387097,34.1998747 L90.6518145,27.7488871 C92.1310484,25.5866414 91.5685484,22.6284659 89.3979839,21.1547004 L59.4522177,0.825654113 C58.4008065,0.111667158 57.1334677,-0.1518352 55.8826613,0.0845537294 C54.6324597,0.320540979 53.5491935,1.02729769 52.8326613,2.07488023 L26.9856855,39.8575435 L19.7931452,39.8575435 L21.5284274,22.3583358 C21.5479839,22.1611107 21.6766129,21.9901957 21.8560484,21.9229142 C24.0917339,21.0832013 26.0292339,19.5150409 27.3114919,17.5074421 C27.4125,17.3493809 27.6030242,17.2590028 27.8002016,17.278886 L39.0814516,18.3891307 C39.8903226,18.4672575 40.609879,17.8804024 40.6897177,17.0750332 C40.7695565,16.2696639 40.1790323,15.5524635 39.3705645,15.4729308 L28.0893145,14.3626861 C26.7798387,14.2349517 25.5310484,14.8360665 24.8294355,15.9342608 C23.8866935,17.4104363 22.4620968,18.5632591 20.8183468,19.180642 C19.5810484,19.6453862 18.7314516,20.7524175 18.6008065,22.0701301 L16.8370968,39.8573426 L14.9614919,39.8573426 L17.7058468,12.180758 C17.8046371,11.1845906 18.6971774,10.4527288 19.6983871,10.5525464 L42.4955645,12.7959316 C43.3040323,12.8736568 44.0239919,12.2872033 44.1038306,11.4818341 C44.1836694,10.6764648 43.5931452,9.95926445 42.7846774,9.87973172 L19.9875,7.63634655 C17.3737903,7.37947192 15.0364919,9.28845814 14.7782258,11.8925523 L12.566129,34.1998747 L8.79899194,34.1998747 C6.05100806,34.1998747 3.81512097,36.4269918 3.81512097,39.1646448 L3.81512097,40.4520305 C1.56693548,41.4831442 0.00161290323,43.747015 0.00161290323,46.3697874 L0.00161290323,96.317744 C0.00161290323,99.908767 2.93427419,102.830189 6.53931452,102.830189 L88.6092742,102.830189 C92.2141129,102.830189 95.1467742,99.908767 95.1467742,96.317744 L95.1467742,82.4569575 L96.6915323,82.4569575 C98.5149194,82.4569575 99.9981855,80.9793761 99.9981855,79.1631781 L99.9981855,63.5247549 C99.9983871,61.7083561 98.5149194,60.2307746 96.6915323,60.2307746 Z M87.3921371,37.1305351 L87.3921371,37.1305351 C88.5183468,37.1303342 89.4342742,38.0429522 89.4342742,39.1648456 L89.4342742,39.9113687 C89.1637097,39.8772258 88.8889113,39.8577443 88.6092742,39.8577443 L82.3683468,39.8577443 L84.233871,37.1305351 L87.3921371,37.1305351 Z M55.2635081,3.72498342 C55.5377016,3.32430719 55.9520161,3.05397627 56.4302419,2.96359817 C56.5445565,2.94210827 56.6592742,2.9312629 56.7731855,2.9312629 C57.1354839,2.9312629 57.4895161,3.03931493 57.7955645,3.24698371 L87.7413306,23.57603 C88.5715726,24.1397885 88.7868952,25.2713222 88.2211694,26.0983822 L78.8086694,39.8571418 L76.5497984,39.8571418 L81.1645161,33.1115216 C81.9129032,32.017545 81.9745968,30.6253206 81.325,29.4779205 C80.4616935,27.9535433 80.1116935,26.1586343 80.3395161,24.4235757 C80.508871,23.1327756 79.9387097,21.8727042 78.8516129,21.1348172 L63.3278226,10.5963296 C62.2405242,9.85824182 60.8546371,9.79055867 59.7106855,10.4197911 C58.1733871,11.2653283 56.3683468,11.5973172 54.6284274,11.3547022 C53.3381048,11.1743477 52.0294355,11.7547759 51.2921371,12.8322837 L32.8044355,39.8573426 L30.5455645,39.8573426 L55.2635081,3.72498342 Z M55.9112903,28.6072782 C49.5058468,28.6072782 44.2477823,33.5826927 43.8193548,39.8573426 L36.3639113,39.8573426 L53.7225806,14.4825877 L53.7227823,14.4825877 C53.821371,14.3381836 53.984879,14.252224 54.1528226,14.252224 C54.1752016,14.252224 54.1975806,14.2538307 54.2199597,14.2568433 C56.5864919,14.5866229 59.041129,14.1355358 61.1322581,12.9853239 C61.2967742,12.8945441 61.5080645,12.9075988 61.6709677,13.0180609 L77.1949597,23.5567493 C77.3574597,23.6672115 77.4467742,23.8584113 77.4225806,24.0439877 C77.1127016,26.4036593 77.5889113,28.8446713 78.7629032,30.917744 C78.8570565,31.0842405 78.8455645,31.2975328 78.733871,31.4612176 L72.9903226,39.8571418 L68.0038306,39.8571418 C67.575,33.5826927 62.3171371,28.6072782 55.9112903,28.6072782 Z M65.0540323,39.8575435 L46.76875,39.8575435 C47.190121,35.2002598 51.1284274,31.5379385 55.9112903,31.5379385 C60.6943548,31.5377377 64.6328629,35.2002598 65.0540323,39.8575435 Z M6.75685484,39.1646448 C6.75685484,38.0427513 7.67278226,37.1301334 8.79899194,37.1301334 L12.2756048,37.1301334 L12.0052419,39.8573426 L6.75685484,39.8573426 L6.75685484,39.1646448 Z M2.94334677,46.3697874 C2.94334677,44.3947247 4.55645161,42.7878022 6.53931452,42.7878022 L88.6092742,42.7878022 C90.5921371,42.7878022 92.2050403,44.3947247 92.2050403,46.3697874 L92.2050403,50.4355966 L2.94334677,50.4355966 L2.94334677,46.3697874 Z M92.2050403,96.317744 C92.2050403,98.2928066 90.5921371,99.8997291 88.6092742,99.8997291 L6.53931452,99.8997291 C4.55645161,99.8997291 2.94334677,98.2928066 2.94334677,96.317744 L2.94334677,92.2519347 L10.8752016,92.2519347 C11.6877016,92.2519347 12.3459677,91.5959906 12.3459677,90.7868054 C12.3459677,89.9776201 11.6875,89.321676 10.8752016,89.321676 L2.94334677,89.321676 L2.94334677,53.3660562 L92.2050403,53.3660562 L92.2050403,60.2307746 L78.2199597,60.2307746 L78.2197581,60.2307746 C73.8133065,60.2307746 69.996371,62.7894789 68.184879,66.4931733 C68.1788306,66.5056254 68.1719758,66.5176758 68.1657258,66.5301279 C68.1504032,66.5616598 68.1370968,66.5943967 68.1221774,66.6261295 C67.9064516,67.0826393 67.7189516,67.5552163 67.5663306,68.0428564 C67.5659274,68.0442622 67.5655242,68.0454673 67.565121,68.0468732 C67.2395161,69.089033 67.0639113,70.1962651 67.0639113,71.3438661 C67.0639113,77.4717018 72.0683468,82.4569575 78.2195565,82.4569575 L78.2197581,82.4569575 L92.2048387,82.4569575 L92.2048387,89.321676 L20.2933468,89.321676 C19.4808468,89.321676 18.8225806,89.9776201 18.8225806,90.7868054 C18.8225806,91.5959906 19.4810484,92.2519347 20.2933468,92.2519347 L92.2050403,92.2519347 L92.2050403,96.317744 Z M97.0566532,79.1629772 C97.0566532,79.3634158 96.8929435,79.526498 96.6915323,79.526498 L78.2201613,79.526498 C75.10625,79.526498 72.3913306,77.7914394 70.9987903,75.2409696 C70.9354839,75.1250848 70.875,75.0073924 70.8171371,74.8882941 C70.7016129,74.6498968 70.597379,74.4050726 70.5052419,74.154424 C70.1822581,73.2775556 70.0060484,72.3307949 70.0060484,71.3438661 C70.0060484,70.3569373 70.1824597,69.4101765 70.5052419,68.5333082 C70.5975806,68.2828604 70.7018145,68.0380362 70.8171371,67.799438 C70.875,67.6803398 70.9354839,67.5626474 70.9987903,67.4467626 C72.3913306,64.8962927 75.10625,63.1612342 78.2201613,63.1612342 L96.6915323,63.1612342 C96.8927419,63.1612342 97.0566532,63.3243164 97.0566532,63.5247549 L97.0566532,79.1629772 Z" id="Shape"></path>
                                <path d="M78.5647177,65.3989958 C75.2739919,65.3989958 72.5969758,68.065953 72.5969758,71.3438661 C72.5969758,74.6217792 75.2739919,77.2885355 78.5647177,77.2885355 C81.8554435,77.2885355 84.5324597,74.6217792 84.5324597,71.3438661 C84.5324597,68.065953 81.8554435,65.3989958 78.5647177,65.3989958 Z M78.5647177,74.358076 C76.8961694,74.358076 75.5387097,73.0058188 75.5387097,71.3438661 C75.5387097,69.6819133 76.8961694,68.3294553 78.5647177,68.3294553 C80.2332661,68.3294553 81.5907258,69.6817125 81.5907258,71.3438661 C81.5907258,73.0060197 80.2332661,74.358076 78.5647177,74.358076 Z" id="Shape"></path>
                            </g>
                        </g>
                    </g>
                </g>
            </g>
        </g>
    </g>
</svg>