<?xml version="1.0" encoding="UTF-8"?>
<svg width="286px" height="263px" viewBox="0 0 286 263" version="1.1" xmlns="http://www.w3.org/2000/svg" xmlns:xlink="http://www.w3.org/1999/xlink">
    <!-- Generator: Sketch 43.1 (39012) - http://www.bohemiancoding.com/sketch -->
    <title>Group 11</title>
    <desc>Created with Sketch.</desc>
    <defs></defs>
    <g id="Page-1" stroke="none" stroke-width="1" fill="none" fill-rule="evenodd">
        <g id="HomeBuying-Copy" transform="translate(-388.000000, -2239.000000)" fill="#358FCA">
            <g id="Group-11" transform="translate(388.000000, 2239.000000)">
                <g id="document" transform="translate(218.802865, 0.000000)" fill-rule="nonzero">
                    <path d="M65.8660528,28.3934207 C66.5628589,28.3934207 67.1275556,27.8237233 67.1275556,27.1207465 L67.1275556,17.4489306 C67.1275556,17.1146314 66.9924245,16.7854126 66.7582534,16.5489984 L50.7238237,0.37257262 C50.4893168,0.136158358 50.162988,0 49.8317911,0 L1.27979995,0 C0.582993867,0 0.0182972449,0.569697406 0.0182972449,1.2726742 L0.0182972449,85.4353049 C0.0182972449,86.1382817 0.582993867,86.7079791 1.27979995,86.7079791 L65.865885,86.7079791 C66.5626911,86.7079791 67.1273877,86.1382817 67.1273877,85.4353049 L67.1273877,33.2294133 C67.1273877,32.5264365 66.5626911,31.9567391 65.865885,31.9567391 C65.1690789,31.9567391 64.6043823,32.5264365 64.6043823,33.2294133 L64.6043823,84.1624614 L2.54130266,84.1624614 L2.54130266,2.54517905 L48.5702884,2.54517905 L48.5702884,17.4491 C48.5702884,18.1520768 49.134985,18.7217742 49.8317911,18.7217742 L64.604718,18.7217742 L64.604718,27.1209158 C64.6045501,27.8238926 65.1692468,28.3934207 65.8660528,28.3934207 Z M51.0931259,16.1765951 L51.0931259,4.34487416 L62.8206527,16.1764258 L51.0931259,16.1764258 L51.0931259,16.1765951 Z" id="Shape"></path>
                    <path d="M32.2273235,54.298395 L10.6986845,54.298395 C10.0018784,54.298395 9.43718175,54.8680924 9.43718175,55.5710692 L9.43718175,71.8606215 C9.43718175,72.5635983 10.0018784,73.1332957 10.6986845,73.1332957 L32.2273235,73.1332957 C32.9241296,73.1332957 33.4888262,72.5635983 33.4888262,71.8606215 L33.4888262,55.5710692 C33.4888262,54.8680924 32.9241296,54.298395 32.2273235,54.298395 Z M30.9659887,70.5879473 L11.9601872,70.5879473 L11.9601872,56.843574 L30.9659887,56.843574 L30.9659887,70.5879473 Z" id="Shape"></path>
                    <path d="M56.4471683,54.298395 L38.9551701,54.298395 C38.258364,54.298395 37.6936674,54.8680924 37.6936674,55.5710692 C37.6936674,56.2740459 38.258364,56.8437434 38.9551701,56.8437434 L56.4471683,56.8437434 C57.1439744,56.8437434 57.7086711,56.2740459 57.7086711,55.5710692 C57.7086711,54.8680924 57.1439744,54.298395 56.4471683,54.298395 Z" id="Shape"></path>
                    <path d="M56.4471683,62.4431711 L38.9551701,62.4431711 C38.258364,62.4431711 37.6936674,63.0128685 37.6936674,63.7158453 C37.6936674,64.4188221 38.258364,64.9885195 38.9551701,64.9885195 L56.4471683,64.9885195 C57.1439744,64.9885195 57.7086711,64.4188221 57.7086711,63.7158453 C57.7086711,63.0128685 57.1439744,62.4431711 56.4471683,62.4431711 Z" id="Shape"></path>
                    <path d="M56.4471683,70.5879473 L38.9551701,70.5879473 C38.258364,70.5879473 37.6936674,71.1576447 37.6936674,71.8606215 C37.6936674,72.5635983 38.258364,73.1332957 38.9551701,73.1332957 L56.4471683,73.1332957 C57.1439744,73.1332957 57.7086711,72.5635983 57.7086711,71.8606215 C57.7086711,71.1576447 57.1439744,70.5879473 56.4471683,70.5879473 Z" id="Shape"></path>
                    <path d="M24.1540419,27.1491975 L22.808439,27.1491975 C21.278185,27.1491975 20.0333009,25.8931197 20.0333009,24.3494836 C20.0333009,22.8058475 21.2783529,21.5497697 22.808439,21.5497697 L28.1906827,21.5497697 C28.8874888,21.5497697 29.4521854,20.9800723 29.4521854,20.2770955 C29.4521854,19.5741187 28.8874888,19.0044213 28.1906827,19.0044213 L25.4155446,19.0044213 L25.4155446,17.5620572 C25.4155446,16.8590804 24.850848,16.289383 24.1540419,16.289383 C23.4572358,16.289383 22.8925392,16.8590804 22.8925392,17.5620572 L22.8925392,19.0044213 L22.808439,19.0044213 C19.8870908,19.0044213 17.5102955,21.4022648 17.5102955,24.3494836 C17.5102955,27.2967024 19.8870908,29.6945459 22.808439,29.6945459 L24.1540419,29.6945459 C25.6842959,29.6945459 26.92918,30.9506237 26.92918,32.4942598 C26.92918,34.0378959 25.684128,35.2939737 24.1540419,35.2939737 L18.7717982,35.2939737 C18.0749921,35.2939737 17.5102955,35.8636711 17.5102955,36.5666479 C17.5102955,37.2696246 18.0749921,37.8393221 18.7717982,37.8393221 L22.8925392,37.8393221 L22.8925392,39.2816861 C22.8925392,39.9846629 23.4572358,40.5543603 24.1540419,40.5543603 C24.850848,40.5543603 25.4155446,39.9846629 25.4155446,39.2816861 L25.4155446,37.6852125 C27.7297264,37.1124667 29.4521854,35.0031977 29.4521854,32.4944291 C29.4521854,29.547041 27.0753901,27.1491975 24.1540419,27.1491975 Z" id="Shape"></path>
                    <path d="M40.3006051,27.1491975 L38.9550022,27.1491975 C37.4247482,27.1491975 36.1798641,25.8931197 36.1798641,24.3494836 C36.1798641,22.8058475 37.4249161,21.5497697 38.9550022,21.5497697 L44.3372459,21.5497697 C45.034052,21.5497697 45.5987486,20.9800723 45.5987486,20.2770955 C45.5987486,19.5741187 45.034052,19.0044213 44.3372459,19.0044213 L41.5621078,19.0044213 L41.5621078,17.5620572 C41.5621078,16.8590804 40.9974112,16.289383 40.3006051,16.289383 C39.603799,16.289383 39.0391024,16.8590804 39.0391024,17.5620572 L39.0391024,19.0044213 L38.9550022,19.0044213 C36.033654,19.0044213 33.6568587,21.4022648 33.6568587,24.3494836 C33.6568587,27.2967024 36.033654,29.6945459 38.9550022,29.6945459 L40.3006051,29.6945459 C41.8308591,29.6945459 43.0757432,30.9506237 43.0757432,32.4942598 C43.0757432,34.0378959 41.8306912,35.2939737 40.3006051,35.2939737 L34.9183614,35.2939737 C34.2215553,35.2939737 33.6568587,35.8636711 33.6568587,36.5666479 C33.6568587,37.2696246 34.2215553,37.8393221 34.9183614,37.8393221 L39.0391024,37.8393221 L39.0391024,39.2816861 C39.0391024,39.9846629 39.603799,40.5543603 40.3006051,40.5543603 C40.9974112,40.5543603 41.5621078,39.9846629 41.5621078,39.2816861 L41.5621078,37.6852125 C43.8762896,37.1124667 45.5987486,35.0031977 45.5987486,32.4944291 C45.5987486,29.547041 43.2219533,27.1491975 40.3006051,27.1491975 Z" id="Shape"></path>
                </g>
                <g id="House-3" transform="translate(0.000000, 75.135177)">
                    <path d="M226.625166,180.810764 L1.53603289,180.810764 C0.844893678,180.810764 0.283851261,180.248991 0.283851261,179.556953 C0.283851261,178.864914 0.844893678,178.303141 1.53603289,178.303141 L226.625166,178.303141 C227.319016,178.303141 227.877348,178.864914 227.877348,179.556953 C227.877348,180.248991 227.319016,180.810764 226.625166,180.810764" id="Fill-480"></path>
                    <path d="M206.934475,187.326782 L21.2267245,187.326782 C20.5355853,187.326782 19.9772532,186.767724 19.9772532,186.075685 C19.9772532,185.380933 20.5355853,184.821874 21.2267245,184.821874 L206.934475,184.821874 C207.625614,184.821874 208.186656,185.380933 208.186656,186.075685 C208.186656,186.767724 207.625614,187.326782 206.934475,187.326782" id="Fill-481"></path>
                    <polygon id="Fill-482" points="209.156962 180.05902 211.1572 180.05902 211.1572 104.130168 209.156962 104.130168"></polygon>
                    <path d="M209.184065,99.7743957 L204.931526,82.1749032 L142.197769,82.1749032 L142.197769,80.1720619 L205.720238,80.1720619 C206.180997,80.1720619 206.58484,80.4868716 206.693254,80.9373752 L211.130096,99.3021811 L209.184065,99.7743957" id="Fill-483"></path>
                    <path d="M18.9771341,99.7743957 L17.0311029,99.3021811 L21.4679456,80.9373752 C21.5763596,80.4868716 21.9802017,80.1720619 22.4409612,80.1720619 L85.9580097,80.1720619 L85.9580097,82.1749032 L23.229673,82.1749032 L18.9771341,99.7743957" id="Fill-484"></path>
                    <polygon id="Fill-485" points="17.0039994 180.05902 19.0042376 180.05902 19.0042376 104.130168 17.0039994 104.130168"></polygon>
                    <path d="M215.398897,105.131589 L171.222905,105.131589 L171.222905,103.126034 L214.398778,103.126034 L214.398778,100.539709 L161.080776,100.539709 L161.080776,98.5368678 L215.398897,98.5368678 C215.951809,98.5368678 216.401727,98.9846575 216.401727,99.5382884 L216.401727,104.130168 C216.401727,104.683799 215.951809,105.131589 215.398897,105.131589" id="Fill-486"></path>
                    <polygon id="Fill-487" points="70.3138704 105.131589 158.226778 105.131589 158.226778 103.126034 70.3138704 103.126034"></polygon>
                    <path d="M56.7675419,105.131589 L12.7623019,105.131589 C12.2093906,105.131589 11.7621828,104.683799 11.7621828,104.130168 L11.7621828,99.5382884 C11.7621828,98.9846575 12.2093906,98.5368678 12.7623019,98.5368678 L66.9340642,98.5368678 L66.9340642,100.539709 L13.7651314,100.539709 L13.7651314,103.126034 L56.7675419,103.126034 L56.7675419,105.131589" id="Fill-488"></path>
                    <polygon id="Fill-489" points="80.1307575 100.539709 148.274373 100.539709 148.274373 98.5368678 80.1307575 98.5368678"></polygon>
                    <path d="M124.951813,179.5271 C124.398901,179.5271 123.948983,179.07931 123.948983,178.525679 L123.948983,139.491986 L104.212216,139.491986 L104.212216,178.525679 C104.212216,179.07931 103.762298,179.5271 103.209386,179.5271 C102.656475,179.5271 102.209267,179.07931 102.209267,178.525679 L102.209267,138.487851 C102.209267,137.936934 102.656475,137.486431 103.209386,137.486431 L124.951813,137.486431 C125.504724,137.486431 125.951932,137.936934 125.951932,138.487851 L125.951932,178.525679 C125.951932,179.07931 125.504724,179.5271 124.951813,179.5271" id="Fill-490"></path>
                    <path d="M108.212692,157.153898 C108.212692,158.054905 107.483608,158.787652 106.581062,158.787652 C105.681225,158.787652 104.952141,158.054905 104.952141,157.153898 C104.952141,156.252891 105.681225,155.520144 106.581062,155.520144 C107.483608,155.520144 108.212692,156.252891 108.212692,157.153898" id="Fill-491"></path>
                    <path d="M75.447273,110.315094 L63.4675267,110.315094 C62.9146153,110.315094 62.4674076,109.867304 62.4674076,109.313673 L62.4674076,107.017733 L64.4703562,107.017733 L64.4703562,108.309539 L74.4444436,108.309539 L74.4444436,105.131589 L69.4248757,105.131589 L69.4248757,103.126034 L75.447273,103.126034 C76.0001844,103.126034 76.4473921,103.576537 76.4473921,104.130168 L76.4473921,109.313673 C76.4473921,109.867304 76.0001844,110.315094 75.447273,110.315094" id="Fill-492"></path>
                    <path d="M66.1128282,113.93812 L72.8019716,113.93812 L72.8019716,110.315094 L66.1128282,110.315094 L66.1128282,113.93812 Z M73.8020906,115.943675 L65.1127091,115.943675 C64.5597977,115.943675 64.1098796,115.495885 64.1098796,114.939541 L64.1098796,109.313673 C64.1098796,108.760043 64.5597977,108.309539 65.1127091,108.309539 L73.8020906,108.309539 C74.355002,108.309539 74.8022097,108.760043 74.8022097,109.313673 L74.8022097,114.939541 C74.8022097,115.495885 74.355002,115.943675 73.8020906,115.943675 L73.8020906,115.943675 Z" id="Fill-493"></path>
                    <path d="M72.5824332,169.998678 L66.3323665,169.998678 C65.7794551,169.998678 65.3322474,169.550888 65.3322474,168.997257 L65.3322474,114.643728 L67.3351959,114.643728 L67.3351959,167.995836 L71.5796038,167.995836 L71.5796038,114.643728 L73.5825523,114.643728 L73.5825523,168.997257 C73.5825523,169.550888 73.1353446,169.998678 72.5824332,169.998678" id="Fill-494"></path>
                    <path d="M64.4703562,178.54739 L74.4444436,178.54739 L74.4444436,175.36944 L64.4703562,175.36944 L64.4703562,178.54739 Z M75.447273,180.552945 L63.4675267,180.552945 C62.9146153,180.552945 62.4674076,180.102442 62.4674076,179.548811 L62.4674076,174.365306 C62.4674076,173.811675 62.9146153,173.363885 63.4675267,173.363885 L75.447273,173.363885 C76.0001844,173.363885 76.4473921,173.811675 76.4473921,174.365306 L76.4473921,179.548811 C76.4473921,180.102442 76.0001844,180.552945 75.447273,180.552945 L75.447273,180.552945 Z" id="Fill-495"></path>
                    <path d="M66.1128282,173.363885 L72.8019716,173.363885 L72.8019716,169.740859 L66.1128282,169.740859 L66.1128282,173.363885 Z M73.8020906,175.36944 L65.1127091,175.36944 C64.5597977,175.36944 64.1098796,174.918937 64.1098796,174.365306 L64.1098796,168.736725 C64.1098796,168.185808 64.5597977,167.735304 65.1127091,167.735304 L73.8020906,167.735304 C74.355002,167.735304 74.8022097,168.185808 74.8022097,168.736725 L74.8022097,174.365306 C74.8022097,174.918937 74.355002,175.36944 73.8020906,175.36944 L73.8020906,175.36944 Z" id="Fill-496"></path>
                    <path d="M164.693673,110.315094 L152.716637,110.315094 C152.163725,110.315094 151.713807,109.867304 151.713807,109.313673 L151.713807,104.130168 C151.713807,103.576537 152.163725,103.126034 152.716637,103.126034 L158.226778,103.126034 C158.779689,103.126034 159.229607,103.576537 159.229607,104.130168 C159.229607,104.683799 158.779689,105.131589 158.226778,105.131589 L153.716756,105.131589 L153.716756,108.309539 L163.690843,108.309539 L163.690843,107.240271 C163.690843,106.68664 164.140761,106.236137 164.693673,106.236137 C165.246584,106.236137 165.693792,106.68664 165.693792,107.240271 L165.693792,109.313673 C165.693792,109.867304 165.246584,110.315094 164.693673,110.315094" id="Fill-497"></path>
                    <path d="M155.361938,113.93812 L162.048371,113.93812 L162.048371,110.315094 L155.361938,110.315094 L155.361938,113.93812 Z M163.04849,115.943675 L154.359109,115.943675 C153.806197,115.943675 153.358989,115.495885 153.358989,114.939541 L153.358989,109.313673 C153.358989,108.760043 153.806197,108.309539 154.359109,108.309539 L163.04849,108.309539 C163.601402,108.309539 164.05132,108.760043 164.05132,109.313673 L164.05132,114.939541 C164.05132,115.495885 163.601402,115.943675 163.04849,115.943675 L163.04849,115.943675 Z" id="Fill-498"></path>
                    <path d="M161.828833,169.998678 L155.578766,169.998678 C155.025855,169.998678 154.578647,169.550888 154.578647,168.997257 L154.578647,114.643728 L156.581595,114.643728 L156.581595,167.995836 L160.826003,167.995836 L160.826003,114.643728 L162.828952,114.643728 L162.828952,168.997257 C162.828952,169.550888 162.381744,169.998678 161.828833,169.998678" id="Fill-499"></path>
                    <path d="M153.716756,178.54739 L163.690843,178.54739 L163.690843,175.36944 L153.716756,175.36944 L153.716756,178.54739 Z M164.693673,180.552945 L152.716637,180.552945 C152.163725,180.552945 151.713807,180.102442 151.713807,179.548811 L151.713807,174.365306 C151.713807,173.811675 152.163725,173.363885 152.716637,173.363885 L164.693673,173.363885 C165.246584,173.363885 165.693792,173.811675 165.693792,174.365306 L165.693792,179.548811 C165.693792,180.102442 165.246584,180.552945 164.693673,180.552945 L164.693673,180.552945 Z" id="Fill-500"></path>
                    <path d="M155.361938,173.363885 L162.048371,173.363885 L162.048371,169.740859 L155.361938,169.740859 L155.361938,173.363885 Z M163.04849,175.36944 L154.359109,175.36944 C153.806197,175.36944 153.358989,174.918937 153.358989,174.365306 L153.358989,168.736725 C153.358989,168.185808 153.806197,167.735304 154.359109,167.735304 L163.04849,167.735304 C163.601402,167.735304 164.05132,168.185808 164.05132,168.736725 L164.05132,174.365306 C164.05132,174.918937 163.601402,175.36944 163.04849,175.36944 L163.04849,175.36944 Z" id="Fill-501"></path>
                    <path d="M80.5074961,166.112406 L96.845485,166.112406 L96.845485,147.153261 C96.845485,141.532822 92.6119185,138.973635 88.6764906,138.973635 C84.7437729,138.973635 80.5074961,141.532822 80.5074961,147.153261 L80.5074961,166.112406 Z M97.8483144,168.117961 L79.5073771,168.117961 C79.2417628,168.117961 78.9869899,168.01212 78.7999758,167.822148 C78.6102513,167.634891 78.5045476,167.379786 78.5045476,167.113826 L78.5045476,147.153261 C78.5045476,140.466268 83.6216881,136.96808 88.6764906,136.96808 C93.731293,136.96808 98.8484335,140.466268 98.8484335,147.153261 L98.8484335,167.113826 C98.8484335,167.667457 98.4012258,168.117961 97.8483144,168.117961 L97.8483144,168.117961 Z" id="Fill-502"></path>
                    <polygon id="Fill-503" points="79.5073771 155.913656 97.8483144 155.913656 97.8483144 153.908101 79.5073771 153.908101"></polygon>
                    <path d="M88.6764906,168.117961 C88.1235792,168.117961 87.6763715,167.667457 87.6763715,167.113826 L87.6763715,137.969501 C87.6763715,137.41587 88.1235792,136.96808 88.6764906,136.96808 C89.2294019,136.96808 89.67932,137.41587 89.67932,137.969501 L89.67932,167.113826 C89.67932,167.667457 89.2294019,168.117961 88.6764906,168.117961" id="Fill-504"></path>
                    <path d="M131.315714,166.112406 L147.653703,166.112406 L147.653703,147.153261 C147.653703,141.532822 143.420137,138.973635 139.484709,138.973635 C135.549281,138.973635 131.315714,141.532822 131.315714,147.153261 L131.315714,166.112406 Z M148.653822,168.117961 L130.312885,168.117961 C129.759973,168.117961 129.312766,167.667457 129.312766,167.113826 L129.312766,147.153261 C129.312766,140.466268 134.429906,136.96808 139.484709,136.96808 C144.539511,136.96808 149.656652,140.466268 149.656652,147.153261 L149.656652,167.113826 C149.656652,167.667457 149.206734,168.117961 148.653822,168.117961 L148.653822,168.117961 Z" id="Fill-505"></path>
                    <polygon id="Fill-506" points="130.312885 155.913656 148.653822 155.913656 148.653822 153.908101 130.312885 153.908101"></polygon>
                    <path d="M139.484709,168.117961 C138.931797,168.117961 138.481879,167.667457 138.481879,167.113826 L138.481879,137.969501 C138.481879,137.41587 138.931797,136.96808 139.484709,136.96808 C140.03762,136.96808 140.484828,137.41587 140.484828,137.969501 L140.484828,167.113826 C140.484828,167.667457 140.03762,168.117961 139.484709,168.117961" id="Fill-507"></path>
                    <path d="M170.155027,163.55322 L203.649531,163.55322 L203.649531,137.122771 L170.155027,137.122771 L170.155027,163.55322 Z M204.65236,165.558775 L169.154908,165.558775 C168.601997,165.558775 168.152079,165.108271 168.152079,164.55464 L168.152079,136.118637 C168.152079,135.565006 168.601997,135.117216 169.154908,135.117216 L204.65236,135.117216 C205.205272,135.117216 205.652479,135.565006 205.652479,136.118637 L205.652479,164.55464 C205.652479,165.108271 205.205272,165.558775 204.65236,165.558775 L204.65236,165.558775 Z" id="Fill-508"></path>
                    <path d="M182.256739,163.55322 L191.547819,163.55322 L191.547819,137.122771 L182.256739,137.122771 L182.256739,163.55322 Z M192.550648,165.558775 L181.25662,165.558775 C180.703709,165.558775 180.253791,165.108271 180.253791,164.55464 L180.253791,136.118637 C180.253791,135.565006 180.703709,135.117216 181.25662,135.117216 L192.550648,135.117216 C193.10356,135.117216 193.550767,135.565006 193.550767,136.118637 L193.550767,164.55464 C193.550767,165.108271 193.10356,165.558775 192.550648,165.558775 L192.550648,165.558775 Z" id="Fill-509"></path>
                    <path d="M24.5116685,163.55322 L58.0061718,163.55322 L58.0061718,137.122771 L24.5116685,137.122771 L24.5116685,163.55322 Z M59.0090012,165.558775 L23.508839,165.558775 C22.9559277,165.558775 22.5087199,165.108271 22.5087199,164.55464 L22.5087199,136.118637 C22.5087199,135.565006 22.9559277,135.117216 23.508839,135.117216 L59.0090012,135.117216 C59.5619126,135.117216 60.0091203,135.565006 60.0091203,136.118637 L60.0091203,164.55464 C60.0091203,165.108271 59.5619126,165.558775 59.0090012,165.558775 L59.0090012,165.558775 Z" id="Fill-510"></path>
                    <path d="M36.6133805,163.55322 L45.9044598,163.55322 L45.9044598,137.122771 L36.6133805,137.122771 L36.6133805,163.55322 Z M46.9045788,165.558775 L35.6105511,165.558775 C35.0576397,165.558775 34.610432,165.108271 34.610432,164.55464 L34.610432,136.118637 C34.610432,135.565006 35.0576397,135.117216 35.6105511,135.117216 L46.9045788,135.117216 C47.4574902,135.117216 47.9074083,135.565006 47.9074083,136.118637 L47.9074083,164.55464 C47.9074083,165.108271 47.4574902,165.558775 46.9045788,165.558775 L46.9045788,165.558775 Z" id="Fill-511"></path>
                    <path d="M163.498408,66.399136 L196.995622,66.399136 L196.995622,39.9659737 L163.498408,39.9659737 L163.498408,66.399136 Z M197.995741,68.4019772 L162.498289,68.4019772 C161.945378,68.4019772 161.49546,67.9541875 161.49546,67.4005566 L161.49546,38.9645531 C161.49546,38.4109222 161.945378,37.9631325 162.498289,37.9631325 L197.995741,37.9631325 C198.548652,37.9631325 198.99586,38.4109222 198.99586,38.9645531 L198.99586,67.4005566 C198.99586,67.9541875 198.548652,68.4019772 197.995741,68.4019772 L197.995741,68.4019772 Z" id="Fill-512"></path>
                    <path d="M175.60012,66.399136 L184.89391,66.399136 L184.89391,39.9659737 L175.60012,39.9659737 L175.60012,66.399136 Z M185.894029,68.4019772 L174.600001,68.4019772 C174.04709,68.4019772 173.597172,67.9541875 173.597172,67.4005566 L173.597172,38.9645531 C173.597172,38.4109222 174.04709,37.9631325 174.600001,37.9631325 L185.894029,37.9631325 C186.44694,37.9631325 186.894148,38.4109222 186.894148,38.9645531 L186.894148,67.4005566 C186.894148,67.9541875 186.44694,68.4019772 185.894029,68.4019772 L185.894029,68.4019772 Z" id="Fill-513"></path>
                    <path d="M97.3333479,66.399136 L130.827851,66.399136 L130.827851,39.9659737 L97.3333479,39.9659737 L97.3333479,66.399136 Z M131.830681,68.4019772 L96.3305185,68.4019772 C95.7776071,68.4019772 95.3303994,67.9541875 95.3303994,67.4005566 L95.3303994,38.9645531 C95.3303994,38.4109222 95.7776071,37.9631325 96.3305185,37.9631325 L131.830681,37.9631325 C132.383592,37.9631325 132.8308,38.4109222 132.8308,38.9645531 L132.8308,67.4005566 C132.8308,67.9541875 132.383592,68.4019772 131.830681,68.4019772 L131.830681,68.4019772 Z" id="Fill-514"></path>
                    <path d="M109.43506,66.399136 L118.726139,66.399136 L118.726139,39.9659737 L109.43506,39.9659737 L109.43506,66.399136 Z M119.728969,68.4019772 L108.434941,68.4019772 C107.88203,68.4019772 107.432111,67.9541875 107.432111,67.4005566 L107.432111,38.9645531 C107.432111,38.4109222 107.88203,37.9631325 108.434941,37.9631325 L119.728969,37.9631325 C120.28188,37.9631325 120.729088,38.4109222 120.729088,38.9645531 L120.729088,67.4005566 C120.729088,67.9541875 120.28188,68.4019772 119.728969,68.4019772 L119.728969,68.4019772 Z" id="Fill-515"></path>
                    <path d="M31.1655773,66.399136 L64.662791,66.399136 L64.662791,39.9659737 L31.1655773,39.9659737 L31.1655773,66.399136 Z M65.6629101,68.4019772 L30.1654582,68.4019772 C29.6125469,68.4019772 29.1653391,67.9541875 29.1653391,67.4005566 L29.1653391,38.9645531 C29.1653391,38.4109222 29.6125469,37.9631325 30.1654582,37.9631325 L65.6629101,37.9631325 C66.2158214,37.9631325 66.6657395,38.4109222 66.6657395,38.9645531 L66.6657395,67.4005566 C66.6657395,67.9541875 66.2158214,68.4019772 65.6629101,68.4019772 L65.6629101,68.4019772 Z" id="Fill-516"></path>
                    <path d="M43.2699997,66.399136 L52.561079,66.399136 L52.561079,39.9659737 L43.2699997,39.9659737 L43.2699997,66.399136 Z M53.561198,68.4019772 L42.2671703,68.4019772 C41.7142589,68.4019772 41.2670512,67.9541875 41.2670512,67.4005566 L41.2670512,38.9645531 C41.2670512,38.4109222 41.7142589,37.9631325 42.2671703,37.9631325 L53.561198,37.9631325 C54.1141094,37.9631325 54.5640275,38.4109222 54.5640275,38.9645531 L54.5640275,67.4005566 C54.5640275,67.9541875 54.1141094,68.4019772 53.561198,68.4019772 L53.561198,68.4019772 Z" id="Fill-517"></path>
                    <path d="M205.806969,82.1749032 L120.170756,82.1749032 L120.170756,80.1720619 L204.80414,80.1720619 L204.80414,31.7483541 L23.3570594,31.7483541 L23.3570594,80.1720619 L107.602863,80.1720619 L107.602863,82.1749032 L22.3569404,82.1749032 C21.804029,82.1749032 21.3541109,81.7271134 21.3541109,81.1734825 L21.3541109,30.7442196 C21.3541109,30.1905887 21.804029,29.742799 22.3569404,29.742799 L205.806969,29.742799 C206.359881,29.742799 206.807088,30.1905887 206.807088,30.7442196 L206.807088,81.1734825 C206.807088,81.7271134 206.359881,82.1749032 205.806969,82.1749032" id="Fill-518"></path>
                    <path d="M18.3916985,29.742799 L209.769501,29.742799 L209.769501,27.1564742 L18.3916985,27.1564742 L18.3916985,29.742799 Z M210.77233,31.7483541 L17.3888691,31.7483541 C16.8359577,31.7483541 16.38875,31.2978505 16.38875,30.7442196 L16.38875,26.1523397 C16.38875,25.5987088 16.8359577,25.150919 17.3888691,25.150919 L210.77233,25.150919 C211.325241,25.150919 211.772449,25.5987088 211.772449,26.1523397 L211.772449,30.7442196 C211.772449,31.2978505 211.325241,31.7483541 210.77233,31.7483541 L210.77233,31.7483541 Z" id="Fill-519"></path>
                    <path d="M18.6925474,25.150919 L209.468652,25.150919 L203.345972,2.05311166 L24.8152277,2.05311166 L18.6925474,25.150919 Z M210.77233,27.1564742 L17.3888691,27.1564742 C17.0798892,27.1564742 16.7844611,27.0126387 16.5974469,26.7656759 C16.4077225,26.5187131 16.3426741,26.1984756 16.4212742,25.8972352 L23.0778934,0.793872716 C23.1944385,0.354224637 23.5928599,0.0475565328 24.0454883,0.0475565328 L204.115711,0.0475565328 C204.568339,0.0475565328 204.966761,0.354224637 205.083306,0.793872716 L211.739925,25.8972352 C211.818525,26.1984756 211.753477,26.5187131 211.563752,26.7656759 C211.376738,27.0126387 211.08131,27.1564742 210.77233,27.1564742 L210.77233,27.1564742 Z" id="Fill-520"></path>
                    <path d="M114.0806,83.0949075 C114.221538,83.0949075 114.362476,83.1247601 114.492573,83.1844654 L175.713955,110.830731 C175.930783,110.92843 176.161163,110.97728 176.394253,110.97728 C177.047447,110.97728 177.643724,110.59191 177.909338,109.99757 C178.093642,109.593203 178.107194,109.139985 177.949994,108.724762 C177.792793,108.309539 177.483813,107.978446 177.079971,107.796616 L114.0806,79.3497572 L51.0812279,107.796616 C50.2464402,108.173845 49.8751223,109.161696 50.2518609,109.99757 C50.5174752,110.59191 51.1137521,110.97728 51.7669465,110.97728 C52.0027469,110.97728 52.2304163,110.925716 52.4499546,110.828017 L113.668626,83.1844654 C113.798723,83.1247601 113.939661,83.0949075 114.0806,83.0949075 Z M176.394253,112.982835 C175.873866,112.982835 175.36703,112.87428 174.890009,112.65717 L114.0806,85.1981622 L53.2711906,112.65717 C52.794169,112.87428 52.2873336,112.982835 51.7669465,112.982835 C50.3277507,112.982835 49.0159414,112.133392 48.4250851,110.822589 C47.5957181,108.977153 48.4169541,106.800623 50.2572816,105.970177 L113.668626,77.3360604 C113.93153,77.2166498 114.229669,77.2166498 114.492573,77.3360604 L177.903918,105.970177 C178.795623,106.371831 179.475921,107.09915 179.822845,108.01644 C180.16977,108.931017 180.139956,109.929724 179.736114,110.822589 C179.145258,112.133392 177.833449,112.982835 176.394253,112.982835 L176.394253,112.982835 Z" id="Fill-521"></path>
                    <polyline id="Fill-522" points="202.652122 26.410158 195.995503 1.30679547 197.930693 0.793872716 204.587312 25.8972352 202.652122 26.410158"></polyline>
                    <polyline id="Fill-523" points="193.691705 26.3857331 187.701832 1.28237058 189.647863 0.818297609 195.640447 25.9216601 193.691705 26.3857331"></polyline>
                    <polyline id="Fill-524" points="184.731289 26.3613082 179.408162 1.25794569 181.365034 0.842722502 186.690872 25.946085 184.731289 26.3613082"></polyline>
                    <polyline id="Fill-525" points="175.773583 26.3368833 171.114491 1.23352079 173.082205 0.867147395 177.741297 25.9705099 175.773583 26.3368833"></polyline>
                    <polyline id="Fill-526" points="166.815876 26.3124584 162.820821 1.2090959 164.799376 0.891572289 168.791721 25.9949348 166.815876 26.3124584"></polyline>
                    <polyline id="Fill-527" points="157.85817 26.2853196 154.529861 1.18195713 156.513837 0.918711059 159.842146 26.0220736 157.85817 26.2853196"></polyline>
                    <polyline id="Fill-528" points="148.900464 26.2581809 146.2389 1.15753224 148.231008 0.945849829 150.892571 26.0464985 148.900464 26.2581809"></polyline>
                    <polyline id="Fill-529" points="139.942758 26.233756 137.94794 1.13039347 139.942758 0.970274722 141.940286 26.0736372 139.942758 26.233756"></polyline>
                    <polyline id="Fill-530" points="130.987762 26.2066172 129.65698 1.1032547 131.657218 0.997413493 132.988 26.100776 130.987762 26.2066172"></polyline>
                    <polyline id="Fill-531" points="122.032766 26.1794784 121.36873 1.07611593 123.368969 1.02455226 124.035715 26.1279148 122.032766 26.1794784"></polyline>
                    <polygon id="Fill-532" points="113.080481 26.1523397 115.080719 26.1523397 115.080719 1.04897716 113.080481 1.04897716"></polygon>
                    <polyline id="Fill-533" points="106.128433 26.1794784 104.125485 26.1279148 104.792231 1.02455226 106.792469 1.07611593 106.128433 26.1794784"></polyline>
                    <polyline id="Fill-534" points="97.1734373 26.2066172 95.1731991 26.100776 96.5039809 0.997413493 98.5042191 1.1032547 97.1734373 26.2066172"></polyline>
                    <polyline id="Fill-535" points="88.2184414 26.233756 86.2209136 26.0736372 88.2184414 0.970274722 90.2132589 1.13039347 88.2184414 26.233756"></polyline>
                    <polyline id="Fill-536" points="79.2607352 26.2608947 77.2686281 26.0464985 79.932902 0.943135952 81.9250091 1.15753224 79.2607352 26.2608947"></polyline>
                    <polyline id="Fill-537" points="70.303029 26.2853196 68.3190529 26.0220736 71.6473625 0.918711059 73.6313386 1.18195713 70.303029 26.2853196"></polyline>
                    <polyline id="Fill-538" points="61.3480331 26.3124584 59.3694778 25.9949348 63.3618231 0.891572289 65.3403784 1.2090959 61.3480331 26.3124584"></polyline>
                    <polyline id="Fill-539" points="52.3876166 26.3368833 50.4199026 25.9705099 55.078994 0.867147395 57.0467079 1.23352079 52.3876166 26.3368833"></polyline>
                    <polyline id="Fill-540" points="43.4299103 26.3613082 41.4703274 25.946085 46.7961648 0.842722502 48.7530374 1.25794569 43.4299103 26.3613082"></polyline>
                    <polyline id="Fill-541" points="34.4694938 26.3857331 32.5234626 25.9216601 38.5133357 0.818297609 40.4593669 1.28237058 34.4694938 26.3857331"></polyline>
                    <polyline id="Fill-542" points="25.5090772 26.410158 23.5738874 25.8972352 30.2305066 0.793872716 32.1656964 1.30679547 25.5090772 26.410158"></polyline>
                    <polyline id="Fill-543" points="201.332182 99.7689679 196.98207 81.4041621 198.930812 80.942803 203.280923 99.3076088 201.332182 99.7689679"></polyline>
                    <polyline id="Fill-544" points="192.924676 99.7499708 188.989248 81.3851649 190.946121 80.964514 194.884259 99.326606 192.924676 99.7499708"></polyline>
                    <polyline id="Fill-545" points="184.519882 99.7282598 180.996427 81.3634539 182.96143 80.986225 186.484885 99.348317 184.519882 99.7282598"></polyline>
                    <polyline id="Fill-546" points="176.112376 99.7065488 173.003605 81.3417429 174.97945 81.0052222 178.085511 99.370028 176.112376 99.7065488"></polyline>
                    <polyline id="Fill-547" points="167.704871 99.6848377 165.013494 81.3200319 166.99476 81.0269332 169.686137 99.391739 167.704871 99.6848377"></polyline>
                    <polyline id="Fill-548" points="159.300076 99.6631267 157.020672 81.2983209 159.007359 81.0486442 161.286763 99.41345 159.300076 99.6631267"></polyline>
                    <polyline id="Fill-549" points="150.434522 95.2150823 149.030561 81.273896 151.022668 81.0730691 152.426629 95.0142554 150.434522 95.2150823"></polyline>
                    <polyline id="Fill-550" points="141.834582 91.3125271 141.040449 81.252185 143.037977 81.0947801 143.83211 91.1551222 141.834582 91.3125271"></polyline>
                    <polyline id="Fill-551" points="133.402684 87.4832466 133.050338 81.230474 135.050576 81.1164911 135.402922 87.3692638 133.402684 87.4832466"></polyline>
                    <polyline id="Fill-552" points="125.380048 83.9172122 125.068358 81.2928931 127.057755 81.0567858 127.369445 83.6811049 125.380048 83.9172122"></polyline>
                    <polyline id="Fill-553" points="94.5904739 87.5836601 92.5956564 87.4181136 93.1133333 81.0920662 95.1081507 81.2548988 94.5904739 87.5836601"></polyline>
                    <polyline id="Fill-554" points="86.3266173 91.3125271 84.3290894 91.1551222 85.1232219 81.0947801 87.1207498 81.252185 86.3266173 91.3125271"></polyline>
                    <polyline id="Fill-555" points="77.7158358 95.2150823 75.7237287 95.0142554 77.1385313 81.0730691 79.1306384 81.273896 77.7158358 95.2150823"></polyline>
                    <polyline id="Fill-556" points="68.8611229 99.6631267 66.8744365 99.41345 69.1538407 81.0486442 71.1405271 81.2983209 68.8611229 99.6631267"></polyline>
                    <polyline id="Fill-557" points="60.456328 99.6848377 58.4750623 99.391739 61.16915 81.0269332 63.1477054 81.3200319 60.456328 99.6848377"></polyline>
                    <polyline id="Fill-558" points="52.0488228 99.7065488 50.0756882 99.370028 53.1817491 81.0052222 55.1575941 81.3417429 52.0488228 99.7065488"></polyline>
                    <polyline id="Fill-559" points="43.644028 99.7282598 41.676314 99.348317 45.1997688 80.986225 47.1647724 81.3634539 43.644028 99.7282598"></polyline>
                    <polyline id="Fill-560" points="35.2365228 99.7499708 33.2796502 99.326606 37.2150782 80.964514 39.1719508 81.3851649 35.2365228 99.7499708"></polyline>
                    <polyline id="Fill-561" points="26.8290176 99.7689679 24.8802761 99.3076088 29.2303875 80.942803 31.1791291 81.4041621 26.8290176 99.7689679"></polyline>
                </g>
            </g>
        </g>
    </g>
</svg>