<?xml version="1.0" encoding="UTF-8"?>
<svg width="82px" height="108px" viewBox="0 0 82 108" version="1.1" xmlns="http://www.w3.org/2000/svg" xmlns:xlink="http://www.w3.org/1999/xlink">
    <!-- Generator: Sketch 43.1 (39012) - http://www.bohemiancoding.com/sketch -->
    <title>employee</title>
    <desc>Created with Sketch.</desc>
    <defs></defs>
    <g id="Page-1" stroke="none" stroke-width="1" fill="none" fill-rule="evenodd">
        <g id="Careers" transform="translate(-453.000000, -4419.000000)" fill-rule="nonzero" fill="#3088C7">
            <g id="Group-3-Copy-9" transform="translate(336.000000, 4370.000000)">
                <g id="Group-9">
                    <g id="employee" transform="translate(117.000000, 49.000000)">
                        <path d="M80.401,104.835938 L77.1893333,104.835938 L78.5423333,70.9462969 C78.745441,65.8570078 75.6994564,61.2062578 70.9628,59.3736328 C70.9445077,59.3664609 70.9257949,59.3597109 70.9070821,59.3531719 L54.5686872,53.7295781 L54.5686872,45.4819219 C56.9878974,42.9209297 58.7063231,39.6611016 59.3799846,35.9821406 C59.3890256,35.9395313 59.4626154,35.8678125 59.4865846,35.8587422 C59.9375846,35.8918594 60.3948923,35.8616953 60.8456821,35.7693047 C63.1641795,35.2930078 64.8470718,33.1304766 64.8470718,30.6272812 L64.8470718,29.2880391 C64.8470718,27.0367031 63.4381436,25.0705547 61.4209436,24.3814219 L61.4209436,20.4868828 C61.4207333,9.19033594 52.2602821,0 41,0 C29.7399282,0 20.5792667,9.19033594 20.5792667,20.4868828 L20.5792667,24.3717188 C18.5589128,25.0467188 17.1531385,27.0153984 17.1531385,29.3078672 L17.1531385,30.6268594 C17.1531385,33.1302656 18.8360308,35.2927969 21.1547385,35.7688828 C21.6055282,35.8614844 22.0626256,35.8916484 22.4938615,35.8576875 C22.5378051,35.8671797 22.6111846,35.9391094 22.6204359,35.9815078 C23.2938872,39.6606797 25.0125231,42.9205078 27.4317333,45.4815 L27.4317333,53.7291563 L11.0933385,59.35275 C11.0746256,59.3590781 11.0561231,59.3660391 11.0376205,59.3732109 C6.3009641,61.2058359 3.25497949,65.8565859 3.45808718,70.945875 L4.81087692,104.835938 L1.59942051,104.835938 C0.728538462,104.835938 0.0224974359,105.544266 0.0224974359,106.417969 C0.0224974359,107.291672 0.728538462,108 1.59942051,108 L80.4007897,108 C81.2716718,108 81.9777128,107.291672 81.9777128,106.417969 C81.9775026,105.544266 81.2716718,104.835938 80.401,104.835938 Z M25.7221385,35.4102891 C25.4225231,33.7721484 23.910359,32.5830938 22.2829744,32.7031172 C22.1206564,32.7151406 21.9541333,32.70375 21.7871897,32.6693672 C20.9432205,32.4961875 20.3069846,31.6180547 20.3069846,30.6270703 L20.3069846,29.3080781 C20.3069846,28.319625 20.9528923,27.4604766 21.8094769,27.3096563 C22.3796923,27.20925 22.8151333,27.3729375 23.0800564,27.5279766 C23.8323538,27.9679922 24.7978513,27.7131797 25.2366564,26.9582344 C25.6752513,26.2035 25.4210513,25.234875 24.6687538,24.7946484 C24.3718718,24.6210469 24.0573282,24.4839375 23.7333231,24.3761484 L23.7333231,20.4868828 C23.7333231,10.935 31.478959,3.1640625 41,3.1640625 C50.521041,3.1640625 58.2668872,10.935 58.2668872,20.4868828 L58.2668872,24.2776406 C58.1739538,24.2962031 58.0808103,24.3145547 57.9887179,24.3364922 C57.1409641,24.5366719 56.6157436,25.3884375 56.8152769,26.2389375 C57.0150205,27.0894375 57.8634051,27.6165703 58.7117897,27.4163906 C59.3045026,27.2763281 59.9159282,27.2588203 60.1901026,27.3136641 C61.0471077,27.4847344 61.6932256,28.3333359 61.6932256,29.2878281 L61.6932256,30.6270703 C61.6932256,31.6180547 61.0569897,32.4961875 60.2130205,32.6693672 C60.0460769,32.70375 59.8791333,32.7151406 59.7172359,32.7031172 C58.0904821,32.58225 56.5776872,33.7721484 56.2778615,35.4102891 C54.9238103,42.8068125 48.4983744,48.1753828 41,48.1753828 C33.5016256,48.1753828 27.0764,42.8070234 25.7221385,35.4102891 Z M51.414841,48.1553437 L51.414841,55.9395703 C49.2464667,59.5881562 45.3174051,61.8705 41.0002103,61.8705 C36.6830154,61.8705 32.7539538,59.5883672 30.5855795,55.9395703 L30.5855795,48.1553437 C33.5806821,50.1733828 37.1731231,51.3394453 41.0002103,51.3394453 C44.8272974,51.3394453 48.4197385,50.1735937 51.414841,48.1553437 Z M7.96745641,104.836148 L6.60941026,70.8197344 C6.56693846,69.757875 6.71790256,68.7225938 7.03454872,67.7529141 L16.1052205,76.8044531 C15.7616615,77.5469531 15.5974513,78.3700313 15.6434974,79.1985938 L16.9758923,103.25918 C17.0065897,103.814789 17.1279077,104.344664 17.3228154,104.836148 L7.96745641,104.836148 Z M63.2077026,79.0228828 L61.8753077,103.08368 C61.8208513,104.066227 61.0098923,104.835938 60.0288359,104.835938 L21.9713744,104.835938 C20.9903179,104.835938 20.179359,104.066227 20.1249026,103.08368 L18.7925077,79.0228828 C18.7641231,78.5086172 18.9426308,78.0192422 19.295441,77.6450391 C19.6482513,77.2708359 20.1255333,77.06475 20.6389795,77.06475 L61.361441,77.06475 C61.8748872,77.06475 62.351959,77.2708359 62.7049795,77.6450391 C63.0577897,78.0192422 63.2362974,78.5086172 63.2077026,79.0228828 Z M61.361441,73.9008984 L20.6389795,73.9008984 C19.8076256,73.9008984 18.9930923,74.1131016 18.270441,74.5022812 L8.62387692,64.8759375 C9.54458974,63.7691484 10.7436821,62.8838437 12.1460923,62.3360391 L21.025641,59.2797656 C24.6946154,66.9775078 32.4501333,71.9090156 41.0002103,71.9090156 C44.0796256,71.9090156 47.0604308,71.2863281 49.8599949,70.05825 C50.6579179,69.7080937 51.0218718,68.7753281 50.6730564,67.9748203 C50.3240308,67.1743125 49.3940667,66.8091797 48.5965641,67.159125 C46.197959,68.2114922 43.6420821,68.7449531 41.0004205,68.7449531 C33.7915692,68.7449531 27.2437641,64.6552969 24.0348308,58.2440625 L27.5717641,57.0267422 C30.2287744,61.9358906 35.3518821,65.0347734 41.0002103,65.0347734 C46.6485385,65.0347734 51.7716462,61.9361016 54.4286564,57.0267422 L57.9662205,58.2442734 C56.8987487,60.3692578 55.4250615,62.305875 53.653441,63.8965547 C53.0045897,64.479375 52.9492923,65.4794297 53.5302308,66.1303828 C53.8416205,66.4794844 54.2728564,66.6573047 54.7057744,66.6573047 C55.080241,66.6573047 55.4559692,66.5244141 55.7570564,66.2539922 C57.9281641,64.3045078 59.7161846,61.9082578 60.9733077,59.2791328 L69.8545385,62.3360391 C71.2575795,62.8842656 72.4573026,63.7699922 73.3782256,64.877625 L63.7659333,74.5210547 C63.034241,74.1196406 62.2066718,73.9008984 61.361441,73.9008984 Z M75.3905897,70.8197344 L74.0327538,104.835937 L64.6773949,104.835937 C64.8725128,104.344453 64.9936205,103.814578 65.0243179,103.25918 L66.3567128,79.1985937 C66.4019179,78.3841641 66.2438051,77.5747969 65.9120205,76.8422109 L74.9671333,67.7577656 C75.2827282,68.7259687 75.4328513,69.7597734 75.3905897,70.8197344 Z" id="Shape"></path>
                        <path d="M41,85.9310859 C37.7689897,85.9310859 35.1403641,88.5682266 35.1403641,91.8097031 C35.1403641,95.0511797 37.7689897,97.6883203 41,97.6883203 C44.2310103,97.6883203 46.8596359,95.0511797 46.8596359,91.8097031 C46.8596359,88.5682266 44.2310103,85.9310859 41,85.9310859 Z M41,94.5242578 C39.5080205,94.5242578 38.2942103,93.3065156 38.2942103,91.8097031 C38.2942103,90.3128906 39.5080205,89.0951484 41,89.0951484 C42.4919795,89.0951484 43.7057897,90.3128906 43.7057897,91.8097031 C43.706,93.3065156 42.4919795,94.5242578 41,94.5242578 Z" id="Shape"></path>
                    </g>
                </g>
            </g>
        </g>
    </g>
</svg>