<?xml version="1.0" encoding="UTF-8"?>
<svg width="100px" height="100px" viewBox="0 0 100 100" version="1.1" xmlns="http://www.w3.org/2000/svg" xmlns:xlink="http://www.w3.org/1999/xlink">
    <!-- Generator: Sketch 43.1 (39012) - http://www.bohemiancoding.com/sketch -->
    <title>cityscape</title>
    <desc>Created with Sketch.</desc>
    <defs></defs>
    <g id="Page-1" stroke="none" stroke-width="1" fill="none" fill-rule="evenodd">
        <g id="Careers" transform="translate(-670.000000, -1063.000000)" fill-rule="nonzero" fill="#3286C2">
            <g id="Group" transform="translate(560.000000, 1012.000000)">
                <g id="cityscape" transform="translate(110.000000, 51.000000)">
                    <path d="M63.3333984,65 C63.3333984,64.0800781 62.5867187,63.3333984 61.6667969,63.3333984 C60.746875,63.3333984 60.0001953,64.0800781 60.0001953,65 L60.0001953,68.3333984 C60.0001953,69.2533203 60.746875,70 61.6667969,70 C62.5867187,70 63.3333984,69.2533203 63.3333984,68.3333984 L63.3333984,65 Z" id="Shape"></path>
                    <path d="M61.6666016,83.3333984 C60.7466797,83.3333984 60,84.0800781 60,85 L60,91.6666016 C60,92.5865234 60.7466797,93.3332031 61.6666016,93.3332031 C62.5865234,93.3332031 63.3332031,92.5865234 63.3332031,91.6666016 L63.3332031,85 C63.3333984,84.0800781 62.5867188,83.3333984 61.6666016,83.3333984 Z" id="Shape"></path>
                    <path d="M70,45 C70,44.0800781 69.2533203,43.3333984 68.3333984,43.3333984 C67.4134766,43.3333984 66.6667969,44.0800781 66.6667969,45 L66.6667969,48.3333984 C66.6667969,49.2533203 67.4134766,50 68.3333984,50 C69.2533203,50 70,49.2533203 70,48.3333984 L70,45 Z" id="Shape"></path>
                    <path d="M63.3333984,55 C63.3333984,54.0800781 62.5867187,53.3333984 61.6667969,53.3333984 C60.746875,53.3333984 60.0001953,54.0800781 60.0001953,55 L60.0001953,58.3333984 C60.0001953,59.2533203 60.746875,60 61.6667969,60 C62.5867187,60 63.3333984,59.2533203 63.3333984,58.3333984 L63.3333984,55 Z" id="Shape"></path>
                    <path d="M63.3333984,75 C63.3333984,74.0800781 62.5867188,73.3333984 61.6667969,73.3333984 C60.746875,73.3333984 60,74.0800781 60,75 L60,78.3333984 C60,79.2533203 60.7466797,80 61.6666016,80 C62.5865234,80 63.3332031,79.2533203 63.3332031,78.3333984 L63.3332031,75 L63.3333984,75 Z" id="Shape"></path>
                    <path d="M70,55 C70,54.0800781 69.2533203,53.3333984 68.3333984,53.3333984 C67.4134766,53.3333984 66.6667969,54.0800781 66.6667969,55 L66.6667969,58.3333984 C66.6667969,59.2533203 67.4134766,60 68.3333984,60 C69.2533203,60 70,59.2533203 70,58.3333984 L70,55 Z" id="Shape"></path>
                    <path d="M56.6666016,45 C56.6666016,44.0800781 55.9199219,43.3333984 55,43.3333984 C54.0800781,43.3333984 53.3333984,44.0800781 53.3333984,45 L53.3333984,48.3333984 C53.3333984,49.2533203 54.0800781,50 55,50 C55.9199219,50 56.6666016,49.2533203 56.6666016,48.3333984 L56.6666016,45 Z" id="Shape"></path>
                    <path d="M63.3333984,45 C63.3333984,44.0800781 62.5867187,43.3333984 61.6667969,43.3333984 C60.746875,43.3333984 60.0001953,44.0800781 60.0001953,45 L60.0001953,48.3333984 C60.0001953,49.2533203 60.746875,50 61.6667969,50 C62.5867187,50 63.3333984,49.2533203 63.3333984,48.3333984 L63.3333984,45 Z" id="Shape"></path>
                    <path d="M70,28.3333984 L70,25 C70,24.0800781 69.2533203,23.3333984 68.3333984,23.3333984 C67.4134766,23.3333984 66.6667969,24.0800781 66.6667969,25 L66.6667969,28.3333984 C66.6667969,29.2533203 67.4134766,30 68.3333984,30 C69.2533203,30 70,29.2533203 70,28.3333984 Z" id="Shape"></path>
                    <path d="M56.6666016,55 C56.6666016,54.0800781 55.9199219,53.3333984 55,53.3333984 C54.0800781,53.3333984 53.3333984,54.0800781 53.3333984,55 L53.3333984,58.3333984 C53.3333984,59.2533203 54.0800781,60 55,60 C55.9199219,60 56.6666016,59.2533203 56.6666016,58.3333984 L56.6666016,55 Z" id="Shape"></path>
                    <path d="M76.6666016,25 C76.6666016,24.0800781 75.9199219,23.3333984 75,23.3333984 C74.0800781,23.3333984 73.3333984,24.0800781 73.3333984,25 L73.3333984,28.3333984 C73.3333984,29.2533203 74.0800781,30 75,30 C75.9199219,30 76.6666016,29.2533203 76.6666016,28.3333984 L76.6666016,25 Z" id="Shape"></path>
                    <path d="M55,63.3333984 C54.0800781,63.3333984 53.3333984,64.0800781 53.3333984,65 L53.3333984,68.3333984 C53.3333984,69.2533203 54.0800781,70 55,70 C55.9199219,70 56.6666016,69.2533203 56.6666016,68.3333984 L56.6666016,65 C56.6666016,64.0800781 55.9199219,63.3333984 55,63.3333984 Z" id="Shape"></path>
                    <path d="M83.3333984,75 C83.3333984,74.0800781 82.5867188,73.3333984 81.6667969,73.3333984 C80.746875,73.3333984 80,74.0800781 80,75 L80,78.3333984 C80,79.2533203 80.7466797,80 81.6666016,80 C82.5865234,80 83.3332031,79.2533203 83.3332031,78.3333984 L83.3332031,75 L83.3333984,75 Z" id="Shape"></path>
                    <path d="M81.6666016,83.3333984 C80.7466797,83.3333984 80,84.0800781 80,85 L80,91.6666016 C80,92.5865234 80.7466797,93.3332031 81.6666016,93.3332031 C82.5865234,93.3332031 83.3332031,92.5865234 83.3332031,91.6666016 L83.3332031,85 C83.3333984,84.0800781 82.5867188,83.3333984 81.6666016,83.3333984 Z" id="Shape"></path>
                    <path d="M88.3333984,63.3333984 C87.4134766,63.3333984 86.6667969,64.0800781 86.6667969,65 L86.6667969,68.3333984 C86.6667969,69.2533203 87.4134766,70 88.3333984,70 C89.2533203,70 90,69.2533203 90,68.3333984 L90,65 C90,64.0800781 89.2533203,63.3333984 88.3333984,63.3333984 Z" id="Shape"></path>
                    <path d="M61.6666016,30 C62.5865234,30 63.3332031,29.2533203 63.3332031,28.3333984 L63.3332031,21.3017578 L80,17.1349609 L80,45 C80,45.6949219 80.4316406,46.3166016 81.0816406,46.5617187 L93.3333984,51.1550781 L93.3333984,68.3333984 C93.3333984,69.2533203 94.0800781,70 95,70 C95.9199219,70 96.6666016,69.2533203 96.6666016,68.3333984 L96.6666016,50 C96.6666016,49.3050781 96.2349609,48.6833984 95.5849609,48.4382812 L83.3332031,43.8449219 L83.3332031,11.6666016 C83.3332031,10.7466797 82.5865234,10 81.6666016,10 C80.7466797,10 80,10.7466797 80,11.6666016 L80,13.6982422 L61.2617187,18.3832031 C60.5201172,18.5681641 60,19.2349609 60,19.9998047 L60,28.3332031 C60,29.2533203 60.7466797,30 61.6666016,30 Z" id="Shape"></path>
                    <path d="M90,55 C90,54.0800781 89.2533203,53.3333984 88.3333984,53.3333984 C87.4134766,53.3333984 86.6667969,54.0800781 86.6667969,55 L86.6667969,58.3333984 C86.6667969,59.2533203 87.4134766,60 88.3333984,60 C89.2533203,60 90,59.2533203 90,58.3333984 L90,55 Z" id="Shape"></path>
                    <path d="M83.3333984,55 C83.3333984,54.0800781 82.5867187,53.3333984 81.6667969,53.3333984 C80.746875,53.3333984 80.0001953,54.0800781 80.0001953,55 L80.0001953,58.3333984 C80.0001953,59.2533203 80.746875,60 81.6667969,60 C82.5867187,60 83.3333984,59.2533203 83.3333984,58.3333984 L83.3333984,55 Z" id="Shape"></path>
                    <path d="M70,75 C70,74.0800781 69.2533203,73.3333984 68.3333984,73.3333984 C67.4134766,73.3333984 66.6667969,74.0800781 66.6667969,75 L66.6667969,78.3333984 C66.6667969,79.2533203 67.4134766,80 68.3333984,80 C69.2533203,80 70,79.2533203 70,78.3333984 L70,75 Z" id="Shape"></path>
                    <path d="M83.3333984,65 C83.3333984,64.0800781 82.5867187,63.3333984 81.6667969,63.3333984 C80.746875,63.3333984 80.0001953,64.0800781 80.0001953,65 L80.0001953,68.3333984 C80.0001953,69.2533203 80.746875,70 81.6667969,70 C82.5867187,70 83.3333984,69.2533203 83.3333984,68.3333984 L83.3333984,65 Z" id="Shape"></path>
                    <path d="M68.3333984,83.3333984 C67.4134766,83.3333984 66.6667969,84.0800781 66.6667969,85 L66.6667969,91.6666016 C66.6667969,92.5865234 67.4134766,93.3332031 68.3333984,93.3332031 C69.2533203,93.3332031 70,92.5865234 70,91.6666016 L70,85 C70,84.0800781 69.2533203,83.3333984 68.3333984,83.3333984 Z" id="Shape"></path>
                    <path d="M70,65 C70,64.0800781 69.2533203,63.3333984 68.3333984,63.3333984 C67.4134766,63.3333984 66.6667969,64.0800781 66.6667969,65 L66.6667969,68.3333984 C66.6667969,69.2533203 67.4134766,70 68.3333984,70 C69.2533203,70 70,69.2533203 70,68.3333984 L70,65 Z" id="Shape"></path>
                    <path d="M75,93.3333984 C75.9199219,93.3333984 76.6666016,92.5867187 76.6666016,91.6667969 L76.6666016,38.3333984 C76.6666016,37.5683594 76.1449219,36.9017578 75.4048828,36.7167969 L48.7382812,30.05 C48.2433594,29.925 47.7115234,30.0382812 47.3082031,30.3533203 C46.903125,30.6683594 46.6666016,31.1533203 46.6666016,31.6666016 L46.6666016,68.3332031 C46.6666016,69.253125 47.4132812,69.9998047 48.3332031,69.9998047 C49.253125,69.9998047 49.9998047,69.253125 49.9998047,68.3332031 L49.9998047,33.8017578 L73.3332031,39.6351562 L73.3332031,91.6667969 C73.3333984,92.5867187 74.0800781,93.3333984 75,93.3333984 Z" id="Shape"></path>
                    <path d="M36.6666016,35 C36.6666016,34.0800781 35.9199219,33.3333984 35,33.3333984 C34.0800781,33.3333984 33.3333984,34.0800781 33.3333984,35 L33.3333984,38.3333984 C33.3333984,39.2533203 34.0800781,40 35,40 C35.9199219,40 36.6666016,39.2533203 36.6666016,38.3333984 L36.6666016,35 Z" id="Shape"></path>
                    <path d="M36.6666016,25 C36.6666016,24.0800781 35.9199219,23.3333984 35,23.3333984 C34.0800781,23.3333984 33.3333984,24.0800781 33.3333984,25 L33.3333984,28.3333984 C33.3333984,29.2533203 34.0800781,30 35,30 C35.9199219,30 36.6666016,29.2533203 36.6666016,28.3333984 L36.6666016,25 Z" id="Shape"></path>
                    <path d="M23.3333984,75 C23.3333984,74.0800781 22.5867188,73.3333984 21.6667969,73.3333984 C20.746875,73.3333984 20,74.0800781 20,75 L20,78.3333984 C20,79.2533203 20.7466797,80 21.6666016,80 C22.5865234,80 23.3332031,79.2533203 23.3332031,78.3333984 L23.3332031,75 L23.3333984,75 Z" id="Shape"></path>
                    <path d="M8.33339844,60 C9.25332031,60 10,59.2533203 10,58.3333984 L10,50 L26.6666016,50 L26.6666016,91.6666016 C26.6666016,92.5865234 27.4132812,93.3332031 28.3332031,93.3332031 C29.253125,93.3332031 29.9998047,92.5865234 29.9998047,91.6666016 L29.9998047,48.3333984 C29.9998047,47.4134766 29.253125,46.6667969 28.3332031,46.6667969 L8.33320312,46.6667969 C7.41328125,46.6667969 6.66660156,47.4134766 6.66660156,48.3333984 L6.66660156,58.3333984 C6.66660156,59.2533203 7.41328125,60 8.33339844,60 Z" id="Shape"></path>
                    <path d="M26.6666016,35 L26.6666016,38.3333984 C26.6666016,39.2533203 27.4132812,40 28.3332031,40 C29.253125,40 29.9998047,39.2533203 29.9998047,38.3333984 L29.9998047,35 C29.9998047,34.0800781 29.253125,33.3333984 28.3332031,33.3333984 C27.4132812,33.3333984 26.6666016,34.0800781 26.6666016,35 Z" id="Shape"></path>
                    <path d="M36.6666016,15 C36.6666016,14.0800781 35.9199219,13.3333984 35,13.3333984 C34.0800781,13.3333984 33.3333984,14.0800781 33.3333984,15 L33.3333984,18.3333984 C33.3333984,19.2533203 34.0800781,20 35,20 C35.9199219,20 36.6666016,19.2533203 36.6666016,18.3333984 L36.6666016,15 Z" id="Shape"></path>
                    <path d="M21.6666016,83.3333984 C20.7466797,83.3333984 20,84.0800781 20,85 L20,91.6666016 C20,92.5865234 20.7466797,93.3332031 21.6666016,93.3332031 C22.5865234,93.3332031 23.3332031,92.5865234 23.3332031,91.6666016 L23.3332031,85 C23.3333984,84.0800781 22.5867187,83.3333984 21.6666016,83.3333984 Z" id="Shape"></path>
                    <path d="M98.3333984,96.6666016 L95,96.6666016 L95,86.4298828 C97.8666016,85.6849609 100,83.0964844 100,79.9998047 C100,76.3230469 97.0099609,73.3332031 93.3333984,73.3332031 C89.6568359,73.3332031 86.6667969,76.3232422 86.6667969,79.9998047 C86.6667969,83.0964844 88.8001953,85.6847656 91.6667969,86.4298828 L91.6667969,96.6666016 L50,96.6666016 L50,89.8316406 C53.7982422,89.0566406 56.6666016,85.6916016 56.6666016,81.6666016 C56.6666016,77.0716797 52.9283203,73.3332031 48.3332031,73.3332031 C43.7382812,73.3332031 39.9998047,77.0714844 39.9998047,81.6666016 C39.9998047,85.6916016 42.8681641,89.0566406 46.6664062,89.8316406 L46.6664062,96.6666016 L10,96.6666016 L10,79.8316406 C13.7982422,79.0566406 16.6666016,75.6916016 16.6666016,71.6666016 C16.6666016,67.0716797 12.9283203,63.3332031 8.33320312,63.3332031 C3.73828125,63.3333984 0,67.0716797 0,71.6666016 C0,75.6916016 2.86835937,79.0566406 6.66660156,79.8316406 L6.66660156,96.6666016 L1.66660156,96.6666016 C0.746679688,96.6666016 3.46944695e-16,97.4132812 3.46944695e-16,98.3332031 C3.46944695e-16,99.253125 0.746679687,100 1.66660156,100 L98.3332031,100 C99.253125,100 99.9998047,99.2533203 99.9998047,98.3333984 C99.9998047,97.4134766 99.2533203,96.6666016 98.3333984,96.6666016 Z M3.33339844,71.6666016 C3.33339844,68.9099609 5.57675781,66.6666016 8.33339844,66.6666016 C11.0900391,66.6666016 13.3333984,68.9099609 13.3333984,71.6666016 C13.3333984,74.4232422 11.0900391,76.6666016 8.33339844,76.6666016 C5.57675781,76.6666016 3.33339844,74.4232422 3.33339844,71.6666016 Z M43.3333984,81.6666016 C43.3333984,78.9099609 45.5767578,76.6666016 48.3333984,76.6666016 C51.0900391,76.6666016 53.3333984,78.9099609 53.3333984,81.6666016 C53.3333984,84.4232422 51.0900391,86.6666016 48.3333984,86.6666016 C45.5767578,86.6666016 43.3333984,84.4232422 43.3333984,81.6666016 Z M90,80 C90,78.1617187 91.4949219,76.6666016 93.3333984,76.6666016 C95.171875,76.6666016 96.6667969,78.1615234 96.6667969,80 C96.6667969,81.8382812 95.171875,83.3333984 93.3333984,83.3333984 C91.4949219,83.3333984 90,81.8382812 90,80 Z" id="Shape"></path>
                    <path d="M13.3333984,85 L13.3333984,91.6666016 C13.3333984,92.5865234 14.0800781,93.3332031 15,93.3332031 C15.9199219,93.3332031 16.6666016,92.5865234 16.6666016,91.6666016 L16.6666016,85 C16.6666016,84.0800781 15.9199219,83.3333984 15,83.3333984 C14.0800781,83.3333984 13.3333984,84.0800781 13.3333984,85 Z" id="Shape"></path>
                    <path d="M23.3333984,55 C23.3333984,54.0800781 22.5867187,53.3333984 21.6667969,53.3333984 C20.746875,53.3333984 20.0001953,54.0800781 20.0001953,55 L20.0001953,58.3333984 C20.0001953,59.2533203 20.746875,60 21.6667969,60 C22.5867187,60 23.3333984,59.2533203 23.3333984,58.3333984 L23.3333984,55 Z" id="Shape"></path>
                    <path d="M23.3333984,65 C23.3333984,64.0800781 22.5867187,63.3333984 21.6667969,63.3333984 C20.746875,63.3333984 20.0001953,64.0800781 20.0001953,65 L20.0001953,68.3333984 C20.0001953,69.2533203 20.746875,70 21.6667969,70 C22.5867187,70 23.3333984,69.2533203 23.3333984,68.3333984 L23.3333984,65 Z" id="Shape"></path>
                    <path d="M13.3333984,55 L13.3333984,58.3333984 C13.3333984,59.2533203 14.0800781,60 15,60 C15.9199219,60 16.6666016,59.2533203 16.6666016,58.3333984 L16.6666016,55 C16.6666016,54.0800781 15.9199219,53.3333984 15,53.3333984 C14.0800781,53.3333984 13.3333984,54.0800781 13.3333984,55 Z" id="Shape"></path>
                    <path d="M36.6666016,65 C36.6666016,64.0800781 35.9199219,63.3333984 35,63.3333984 C34.0800781,63.3333984 33.3333984,64.0800781 33.3333984,65 L33.3333984,68.3333984 C33.3333984,69.2533203 34.0800781,70 35,70 C35.9199219,70 36.6666016,69.2533203 36.6666016,68.3333984 L36.6666016,65 Z" id="Shape"></path>
                    <path d="M43.3333984,45 C43.3333984,44.0800781 42.5867187,43.3333984 41.6667969,43.3333984 C40.746875,43.3333984 40.0001953,44.0800781 40.0001953,45 L40.0001953,48.3333984 C40.0001953,49.2533203 40.746875,50 41.6667969,50 C42.5867187,50 43.3333984,49.2533203 43.3333984,48.3333984 L43.3333984,45 Z" id="Shape"></path>
                    <path d="M43.3333984,35 C43.3333984,34.0800781 42.5867187,33.3333984 41.6667969,33.3333984 C40.746875,33.3333984 40.0001953,34.0800781 40.0001953,35 L40.0001953,38.3333984 C40.0001953,39.2533203 40.746875,40 41.6667969,40 C42.5867187,40 43.3333984,39.2533203 43.3333984,38.3333984 L43.3333984,35 Z" id="Shape"></path>
                    <path d="M43.3333984,55 C43.3333984,54.0800781 42.5867187,53.3333984 41.6667969,53.3333984 C40.746875,53.3333984 40.0001953,54.0800781 40.0001953,55 L40.0001953,58.3333984 C40.0001953,59.2533203 40.746875,60 41.6667969,60 C42.5867187,60 43.3333984,59.2533203 43.3333984,58.3333984 L43.3333984,55 Z" id="Shape"></path>
                    <path d="M41.6666016,63.3333984 C40.7466797,63.3333984 40,64.0800781 40,65 L40,68.3333984 C40,69.2533203 40.7466797,70 41.6666016,70 C42.5865234,70 43.3332031,69.2533203 43.3332031,68.3333984 L43.3332031,65 C43.3333984,64.0800781 42.5867187,63.3333984 41.6666016,63.3333984 Z" id="Shape"></path>
                    <path d="M43.3333984,25 C43.3333984,24.0800781 42.5867187,23.3333984 41.6667969,23.3333984 C40.746875,23.3333984 40.0001953,24.0800781 40.0001953,25 L40.0001953,28.3333984 C40.0001953,29.2533203 40.746875,30 41.6667969,30 C42.5867187,30 43.3333984,29.2533203 43.3333984,28.3333984 L43.3333984,25 Z" id="Shape"></path>
                    <path d="M36.6666016,75 C36.6666016,74.0800781 35.9199219,73.3333984 35,73.3333984 C34.0800781,73.3333984 33.3333984,74.0800781 33.3333984,75 L33.3333984,78.3333984 C33.3333984,79.2533203 34.0800781,80 35,80 C35.9199219,80 36.6666016,79.2533203 36.6666016,78.3333984 L36.6666016,75 Z" id="Shape"></path>
                    <path d="M21.6666016,43.3333984 C22.5865234,43.3333984 23.3332031,42.5867187 23.3332031,41.6667969 L23.3332031,29.3632812 L29.078125,26.4916016 C29.6431641,26.2082031 29.9998047,25.6316406 29.9998047,25 L29.9998047,11.0300781 L38.3332031,6.86347656 L46.6666016,11.0300781 L46.6666016,25 C46.6666016,25.9199219 47.4132812,26.6666016 48.3332031,26.6666016 C49.253125,26.6666016 50,25.9199219 50,25 L50,10 C50,9.36835937 49.6433594,8.79160156 49.0783203,8.50839844 L40,3.96992187 L40,1.66660156 C40,0.746679687 39.2533203,0 38.3333984,0 C37.4134766,0 36.6667969,0.746679687 36.6667969,1.66660156 L36.6667969,3.96992187 L27.5884766,8.50820312 C27.0234375,8.79160156 26.6667969,9.36816406 26.6667969,9.99980469 L26.6667969,23.9697266 L20.921875,26.8414062 C20.3568359,27.1248047 20.0001953,27.7013672 20.0001953,28.3330078 L20.0001953,41.6664062 C20,42.5867187 20.7466797,43.3333984 21.6666016,43.3333984 Z" id="Shape"></path>
                    <path d="M36.6666016,55 C36.6666016,54.0800781 35.9199219,53.3333984 35,53.3333984 C34.0800781,53.3333984 33.3333984,54.0800781 33.3333984,55 L33.3333984,58.3333984 C33.3333984,59.2533203 34.0800781,60 35,60 C35.9199219,60 36.6666016,59.2533203 36.6666016,58.3333984 L36.6666016,55 Z" id="Shape"></path>
                    <path d="M35,83.3333984 C34.0800781,83.3333984 33.3333984,84.0800781 33.3333984,85 L33.3333984,91.6666016 C33.3333984,92.5865234 34.0800781,93.3332031 35,93.3332031 C35.9199219,93.3332031 36.6666016,92.5865234 36.6666016,91.6666016 L36.6666016,85 C36.6666016,84.0800781 35.9199219,83.3333984 35,83.3333984 Z" id="Shape"></path>
                    <path d="M43.3333984,15 C43.3333984,14.0800781 42.5867187,13.3333984 41.6667969,13.3333984 C40.746875,13.3333984 40.0001953,14.0800781 40.0001953,15 L40.0001953,18.3333984 C40.0001953,19.2533203 40.746875,20 41.6667969,20 C42.5867187,20 43.3333984,19.2533203 43.3333984,18.3333984 L43.3333984,15 Z" id="Shape"></path>
                    <path d="M36.6666016,45 C36.6666016,44.0800781 35.9199219,43.3333984 35,43.3333984 C34.0800781,43.3333984 33.3333984,44.0800781 33.3333984,45 L33.3333984,48.3333984 C33.3333984,49.2533203 34.0800781,50 35,50 C35.9199219,50 36.6666016,49.2533203 36.6666016,48.3333984 L36.6666016,45 Z" id="Shape"></path>
                </g>
            </g>
        </g>
    </g>
</svg>