<?xml version="1.0" encoding="UTF-8"?>
<svg width="100px" height="100px" viewBox="0 0 100 100" version="1.1" xmlns="http://www.w3.org/2000/svg" xmlns:xlink="http://www.w3.org/1999/xlink">
    <!-- Generator: Sketch 43.1 (39012) - http://www.bohemiancoding.com/sketch -->
    <title>presentation</title>
    <desc>Created with Sketch.</desc>
    <defs></defs>
    <g id="Page-1" stroke="none" stroke-width="1" fill="none" fill-rule="evenodd">
        <g id="Careers" transform="translate(-1051.000000, -1063.000000)" fill-rule="nonzero" fill="#3388C4">
            <g id="Group-6" transform="translate(941.000000, 1012.000000)">
                <g id="presentation" transform="translate(110.000000, 51.000000)">
                    <path d="M15.625,28.125 C15.625,33.2953125 19.8296875,37.5 25,37.5 C30.1703125,37.5 34.375,33.2953125 34.375,28.125 C34.375,22.9546875 30.1703125,18.75 25,18.75 C19.8296875,18.75 15.625,22.9546875 15.625,28.125 Z M31.25,28.125 C31.25,31.571875 28.446875,34.375 25,34.375 C21.553125,34.375 18.75,31.571875 18.75,28.125 C18.75,24.678125 21.553125,21.875 25,21.875 C28.446875,21.875 31.25,24.678125 31.25,28.125 Z" id="Shape"></path>
                    <path d="M47.9796875,44.8546875 L58.9171875,33.9171875 C59.528125,33.30625 59.528125,32.31875 58.9171875,31.7078125 L54.2296875,27.0203125 C53.6515625,26.4421875 52.7265625,26.4078125 52.1078125,26.9390625 L41.3515625,36.1578125 L30.9296875,40.625 L12.5,40.625 C12.0484375,40.625 11.621875,40.81875 11.325,41.159375 L0.3875,53.659375 C0.021875,54.0765625 -0.0953125,54.65625 0.08125,55.1828125 L4.76875,69.2453125 C4.9125,69.6734375 5.234375,70.0203125 5.653125,70.19375 C6.071875,70.3640625 6.5421875,70.35 6.95,70.1484375 L13.2,67.0234375 C13.734375,66.75625 14.0625,66.2203125 14.0625,65.6546875 L14.0625,92.1875 C14.0625,96.4953125 17.5671875,100 21.875,100 L34.375,100 C35.2375,100 35.9375,99.3015625 35.9375,98.4375 L35.9375,50.965625 L47.5734375,45.146875 C47.725,45.0734375 47.8609375,44.9734375 47.9796875,44.8546875 Z M14.0625,65.59375 C14.0625,65.409375 14.0234375,65.225 13.9515625,65.04375 L11.1640625,58.078125 L14.0625,54.4546875 L14.0625,65.59375 Z M33.6765625,48.6015625 C33.146875,48.8671875 32.8125,49.4078125 32.8125,50 L32.8125,96.875 L26.5625,96.875 L26.5625,71.875 C26.5625,71.0109375 25.8625,70.3125 25,70.3125 C24.1375,70.3125 23.4375,71.0109375 23.4375,71.875 L23.4375,96.875 L21.875,96.875 C19.290625,96.875 17.1875,94.771875 17.1875,92.1875 L17.1875,50 C17.1875,49.3359375 16.76875,48.7453125 16.1421875,48.5265625 C15.5171875,48.30625 14.81875,48.50625 14.4046875,49.0234375 L8.1546875,56.8359375 C7.803125,57.275 7.715625,57.8703125 7.9234375,58.3921875 L10.515625,64.8703125 L7.1625,66.546875 L3.328125,55.04375 L13.209375,43.75 L31.25,43.75 C31.4609375,43.75 31.671875,43.7078125 31.865625,43.6234375 L42.803125,38.9359375 C42.9484375,38.8734375 43.084375,38.7890625 43.2046875,38.6859375 L53.04375,30.2546875 L55.603125,32.8125 L45.95,42.465625 L33.6765625,48.6015625 Z" id="Shape"></path>
                    <polygon id="Shape" points="21.875 50 23.4375 50 23.4375 62.5 26.5625 62.5 26.5625 50 28.125 50 28.125 46.875 21.875 46.875"></polygon>
                    <path d="M100,78.125 C100,72.9546875 95.7953125,68.75 90.625,68.75 C87.365625,68.75 84.49375,70.4234375 82.8125,72.953125 C81.13125,70.421875 78.259375,68.75 75,68.75 C71.740625,68.75 68.86875,70.4234375 67.1875,72.953125 C65.50625,70.421875 62.634375,68.75 59.375,68.75 C54.2046875,68.75 50,72.9546875 50,78.125 C50,81.384375 51.6734375,84.25625 54.203125,85.9375 C51.671875,87.61875 50,90.490625 50,93.75 L50,100 L53.125,100 L53.125,93.75 C53.125,90.303125 55.928125,87.5 59.375,87.5 C62.821875,87.5 65.625,90.303125 65.625,93.75 L65.625,100 L68.75,100 L68.75,93.75 C68.75,90.303125 71.553125,87.5 75,87.5 C78.446875,87.5 81.25,90.303125 81.25,93.75 L81.25,100 L84.375,100 L84.375,93.75 C84.375,90.303125 87.178125,87.5 90.625,87.5 C94.071875,87.5 96.875,90.303125 96.875,93.75 L96.875,100 L100,100 L100,93.75 C100,90.490625 98.3265625,87.61875 95.796875,85.9375 C98.3265625,84.25625 100,81.384375 100,78.125 Z M75,71.875 C78.446875,71.875 81.25,74.678125 81.25,78.125 C81.25,81.571875 78.446875,84.375 75,84.375 C71.553125,84.375 68.75,81.571875 68.75,78.125 C68.75,74.678125 71.5546875,71.875 75,71.875 Z M53.125,78.125 C53.125,74.678125 55.928125,71.875 59.375,71.875 C62.821875,71.875 65.625,74.678125 65.625,78.125 C65.625,81.571875 62.821875,84.375 59.375,84.375 C55.928125,84.375 53.125,81.571875 53.125,78.125 Z M67.1875,88.578125 C66.4921875,87.53125 65.59375,86.6328125 64.546875,85.9375 C65.59375,85.2421875 66.4921875,84.34375 67.1875,83.296875 C67.8828125,84.34375 68.78125,85.2421875 69.828125,85.9375 C68.78125,86.6328125 67.8828125,87.53125 67.1875,88.578125 Z M82.8125,88.578125 C82.1171875,87.53125 81.21875,86.6328125 80.171875,85.9375 C81.21875,85.2421875 82.1171875,84.34375 82.8125,83.296875 C83.5078125,84.34375 84.40625,85.2421875 85.453125,85.9375 C84.40625,86.6328125 83.5078125,87.53125 82.8125,88.578125 Z M90.625,84.375 C87.178125,84.375 84.375,81.571875 84.375,78.125 C84.375,74.678125 87.178125,71.875 90.625,71.875 C94.071875,71.875 96.875,74.678125 96.875,78.125 C96.875,81.571875 94.071875,84.375 90.625,84.375 Z" id="Shape"></path>
                    <path d="M98.4375,0 L40.625,0 C39.7625,0 39.0625,0.6984375 39.0625,1.5625 L39.0625,31.25 L42.1875,31.25 L42.1875,3.125 L96.875,3.125 L96.875,45.3125 C96.875,47.896875 94.771875,50 92.1875,50 L43.75,50 L43.75,53.125 L92.1875,53.125 C96.4953125,53.125 100,49.6203125 100,45.3125 L100,1.5625 C100,0.6984375 99.3,0 98.4375,0 Z" id="Shape"></path>
                    <path d="M65.625,7.8125 L50,7.8125 C49.1375,7.8125 48.4375,8.5109375 48.4375,9.375 L48.4375,15.625 C48.4375,16.4890625 49.1375,17.1875 50,17.1875 L65.625,17.1875 C66.4875,17.1875 67.1875,16.4890625 67.1875,15.625 L67.1875,14.0625 L71.875,14.0625 L71.875,15.625 C71.875,16.4890625 72.575,17.1875 73.4375,17.1875 L79.6875,17.1875 L79.6875,21.875 L73.4375,21.875 C72.575,21.875 71.875,22.5734375 71.875,23.4375 L71.875,29.6875 C71.875,30.5515625 72.575,31.25 73.4375,31.25 L79.6875,31.25 L79.6875,35.9375 L73.4375,35.9375 C72.575,35.9375 71.875,36.6359375 71.875,37.5 L71.875,43.75 C71.875,44.6140625 72.575,45.3125 73.4375,45.3125 L89.0625,45.3125 C89.925,45.3125 90.625,44.6140625 90.625,43.75 L90.625,37.5 C90.625,36.6359375 89.925,35.9375 89.0625,35.9375 L82.8125,35.9375 L82.8125,31.25 L89.0625,31.25 C89.925,31.25 90.625,30.5515625 90.625,29.6875 L90.625,23.4375 C90.625,22.5734375 89.925,21.875 89.0625,21.875 L82.8125,21.875 L82.8125,17.1875 L89.0625,17.1875 C89.925,17.1875 90.625,16.4890625 90.625,15.625 L90.625,9.375 C90.625,8.5109375 89.925,7.8125 89.0625,7.8125 L73.4375,7.8125 C72.575,7.8125 71.875,8.5109375 71.875,9.375 L71.875,10.9375 L67.1875,10.9375 L67.1875,9.375 C67.1875,8.5109375 66.4875,7.8125 65.625,7.8125 Z M64.0625,14.0625 L51.5625,14.0625 L51.5625,10.9375 L64.0625,10.9375 L64.0625,14.0625 Z M87.5,42.1875 L75,42.1875 L75,39.0625 L87.5,39.0625 L87.5,42.1875 Z M87.5,28.125 L75,28.125 L75,25 L87.5,25 L87.5,28.125 Z M75,10.9375 L87.5,10.9375 L87.5,14.0625 L75,14.0625 L75,10.9375 Z" id="Shape"></path>
                    <rect id="Rectangle-path" x="50" y="20.3125" width="17.1875" height="3.125"></rect>
                    <rect id="Rectangle-path" x="60.9375" y="26.5625" width="6.25" height="3.125"></rect>
                    <rect id="Rectangle-path" x="62.5" y="32.8125" width="4.6875" height="3.125"></rect>
                    <rect id="Rectangle-path" x="57.8125" y="39.0625" width="9.375" height="3.125"></rect>
                    <path d="M6.25,15.625 L7.03125,15.625 L11.25,21.25 C11.5515625,21.65 12.0171875,21.875 12.5,21.875 C12.6640625,21.875 12.83125,21.8484375 12.99375,21.79375 C13.6328125,21.58125 14.0625,20.9859375 14.0625,20.3125 L14.0625,15.625 L23.4375,15.625 C26.021875,15.625 28.125,13.521875 28.125,10.9375 L28.125,4.6875 C28.125,2.103125 26.021875,0 23.4375,0 L6.25,0 C3.665625,0 1.5625,2.103125 1.5625,4.6875 L1.5625,10.9375 C1.5625,13.521875 3.665625,15.625 6.25,15.625 Z M4.6875,4.6875 C4.6875,3.825 5.3890625,3.125 6.25,3.125 L23.4375,3.125 C24.2984375,3.125 25,3.825 25,4.6875 L25,10.9375 C25,11.8 24.2984375,12.5 23.4375,12.5 L12.5,12.5 C11.6375,12.5 10.9375,13.1984375 10.9375,14.0625 L10.9375,15.625 L9.0625,13.125 C8.7671875,12.73125 8.3046875,12.5 7.8125,12.5 L6.25,12.5 C5.3890625,12.5 4.6875,11.8 4.6875,10.9375 L4.6875,4.6875 Z" id="Shape"></path>
                    <rect id="Rectangle-path" x="7.8125" y="6.25" width="14.0625" height="3.125"></rect>
                </g>
            </g>
        </g>
    </g>
</svg>