<?xml version="1.0" encoding="UTF-8"?>
<svg width="15px" height="22px" viewBox="0 0 15 22" version="1.1" xmlns="http://www.w3.org/2000/svg" xmlns:xlink="http://www.w3.org/1999/xlink">
    <!-- Generator: Sketch 43.1 (39012) - http://www.bohemiancoding.com/sketch -->
    <title>685779</title>
    <desc>Created with Sketch.</desc>
    <defs></defs>
    <g id="Page-1" stroke="none" stroke-width="1" fill="none" fill-rule="evenodd">
        <g id="Listing-Page-Copy" transform="translate(-950.000000, -1254.000000)" fill-rule="nonzero" fill="#000000">
            <g id="685779" transform="translate(950.000000, 1254.000000)">
                <path d="M8.62067308,3.47232376 L6.33605769,3.47232376 C6.15144231,3.47232376 5.98990385,3.63315927 5.98990385,3.81697128 C5.98990385,4.00078329 6.15144231,4.1616188 6.33605769,4.1616188 L8.62067308,4.1616188 C8.80528846,4.1616188 8.96682692,4.00078329 8.96682692,3.81697128 C8.96682692,3.63315927 8.80528846,3.47232376 8.62067308,3.47232376 Z" id="Shape"></path>
                <path d="M13.9283654,4.96579634 L13.5822115,4.96579634 L13.5822115,4.2305483 C13.5822115,3.10469974 12.6591346,2.16266319 11.5052885,2.16266319 L8.15913462,2.16266319 L10.3514423,0.623237598 C10.5129808,0.508355091 10.5360577,0.30156658 10.4206731,0.14073107 C10.3052885,-0.0201044386 10.0975962,-0.0430809399 9.93605769,0.0718015666 L7.18990385,2.02480418 L4.44375,0.0718015666 C4.28221154,-0.0430809399 4.07451923,0.00287206266 3.95913462,0.14073107 C3.84375,0.30156658 3.88990385,0.508355091 4.02836538,0.623237598 L6.22067308,2.16266319 L3.49759615,2.16266319 C2.36682692,2.16266319 1.42067308,3.08172324 1.42067308,4.2305483 L1.42067308,4.96579634 L1.07451923,4.96579634 C0.497596154,4.96579634 0.0360576923,5.42532637 0.0360576923,5.9997389 L0.0360576923,8.27441253 C0.0360576923,8.45822454 0.197596154,8.61906005 0.382211538,8.61906005 C0.566826923,8.61906005 0.728365385,8.45822454 0.728365385,8.27441253 L0.728365385,5.9997389 C0.728365385,5.81592689 0.889903846,5.65509138 1.07451923,5.65509138 L1.42067308,5.65509138 L1.42067308,15.5349869 C1.42067308,16.545953 2.15913462,17.3960836 3.12836538,17.5569191 L1.09759615,21.4399478 C1.00528846,21.6007833 1.07451923,21.8075718 1.23605769,21.8994778 C1.28221154,21.9224543 1.35144231,21.9454308 1.39759615,21.9454308 C1.51298077,21.9454308 1.65144231,21.8765013 1.69759615,21.7616188 L2.43605769,20.3370757 L12.4745192,20.3370757 L13.2129808,21.7616188 C13.2822115,21.8765013 13.3975962,21.9454308 13.5129808,21.9454308 C13.5591346,21.9454308 13.6283654,21.9224543 13.6745192,21.8994778 C13.8360577,21.8075718 13.9052885,21.6007833 13.8129808,21.4399478 L11.7822115,17.5569191 C12.7745192,17.4190601 13.5591346,16.5689295 13.5591346,15.5120104 L13.5591346,5.63211488 L13.9052885,5.63211488 C14.0899038,5.63211488 14.2514423,5.79295039 14.2514423,5.9767624 L14.2514423,8.25143603 C14.2975962,8.45822454 14.4360577,8.61906005 14.6206731,8.61906005 C14.8052885,8.61906005 14.9668269,8.45822454 14.9668269,8.27441253 L14.9668269,5.9997389 C14.9668269,5.42532637 14.5052885,4.96579634 13.9283654,4.96579634 Z M2.11298077,4.2305483 C2.11298077,3.47232376 2.73605769,2.85195822 3.49759615,2.85195822 L11.5283654,2.85195822 C12.2899038,2.85195822 12.9129808,3.47232376 12.9129808,4.2305483 L12.9129808,4.96579634 L2.11298077,4.96579634 L2.11298077,4.2305483 Z M12.1514423,19.6707572 L2.80528846,19.6707572 L3.88990385,17.6258486 L11.0668269,17.6258486 L12.1514423,19.6707572 Z M11.5283654,16.913577 L3.49759615,16.913577 C2.73605769,16.913577 2.11298077,16.2932115 2.11298077,15.5349869 L2.11298077,12.7548303 L12.84375,12.7548303 L12.8899038,12.7548303 L12.8899038,15.5579634 C12.9129808,16.316188 12.2899038,16.913577 11.5283654,16.913577 Z M12.8668269,12.0655352 L2.11298077,12.0655352 L2.11298077,5.65509138 L12.9129808,5.65509138 L12.9129808,12.0655352 L12.8668269,12.0655352 Z" id="Shape"></path>
                <path d="M3.84375,12.9156658 C3.24375,12.9156658 2.75913462,13.3981723 2.75913462,13.9955614 C2.75913462,14.5929504 3.24375,15.0754569 3.84375,15.0754569 C4.44375,15.0754569 4.92836538,14.5929504 4.92836538,13.9955614 C4.92836538,13.3981723 4.44375,12.9156658 3.84375,12.9156658 Z M3.84375,14.4091384 C3.61298077,14.4091384 3.45144231,14.2253264 3.45144231,14.0185379 C3.45144231,13.7887728 3.63605769,13.6279373 3.84375,13.6279373 C4.07451923,13.6279373 4.23605769,13.8117493 4.23605769,14.0185379 C4.23605769,14.2253264 4.05144231,14.4091384 3.84375,14.4091384 Z" id="Shape"></path>
                <path d="M11.2745192,12.9156658 C10.6745192,12.9156658 10.1899038,13.3981723 10.1899038,13.9955614 C10.1899038,14.5929504 10.6745192,15.0754569 11.2745192,15.0754569 C11.8745192,15.0754569 12.3591346,14.5929504 12.3591346,13.9955614 C12.3591346,13.3981723 11.8745192,12.9156658 11.2745192,12.9156658 Z M11.2745192,14.4091384 C11.04375,14.4091384 10.8822115,14.2253264 10.8822115,14.0185379 C10.8822115,13.7887728 11.0668269,13.6279373 11.2745192,13.6279373 C11.4822115,13.6279373 11.6668269,13.8117493 11.6668269,14.0185379 C11.6668269,14.2253264 11.4822115,14.4091384 11.2745192,14.4091384 Z" id="Shape"></path>
                <path d="M8.38990385,13.6738903 L6.26682692,13.6738903 C6.08221154,13.6738903 5.92067308,13.8347258 5.92067308,14.0185379 C5.92067308,14.2023499 6.08221154,14.3631854 6.26682692,14.3631854 L8.38990385,14.3631854 C8.57451923,14.3631854 8.73605769,14.2023499 8.73605769,14.0185379 C8.73605769,13.8347258 8.57451923,13.6738903 8.38990385,13.6738903 Z" id="Shape"></path>
            </g>
        </g>
    </g>
</svg>