<?xml version="1.0" encoding="UTF-8"?>
<svg width="9px" height="21px" viewBox="0 0 9 21" version="1.1" xmlns="http://www.w3.org/2000/svg" xmlns:xlink="http://www.w3.org/1999/xlink">
    <!-- Generator: Sketch 43.1 (39012) - http://www.bohemiancoding.com/sketch -->
    <title>599734</title>
    <desc>Created with Sketch.</desc>
    <defs></defs>
    <g id="Page-1" stroke="none" stroke-width="1" fill="none" fill-rule="evenodd">
        <g id="Listing-Page-Copy" transform="translate(-953.000000, -1380.000000)" fill-rule="nonzero" fill="#000000">
            <g id="599734" transform="translate(957.500000, 1390.500000) scale(-1, 1) translate(-957.500000, -1390.500000) translate(953.000000, 1380.000000)">
                <path d="M8.54960177,16.7988516 L7.91398673,16.5025547 L5.86477434,15.1628613 C5.76167257,15.0954316 5.70476549,14.9723848 5.71977876,14.8493789 C5.81240708,14.0906309 5.64407522,13.3289297 5.41489381,12.8882578 C5.42672124,12.8171367 5.44750885,12.6762891 5.45081416,12.6082852 C5.75856637,12.0730723 5.79054425,11.8024102 5.91399558,11.5223555 C5.94573451,11.4505781 5.97249558,11.3699414 5.99137168,11.2891816 C6.03003982,11.1240527 5.93139823,10.9578164 5.77103097,10.9179902 C5.61066372,10.8781641 5.44930088,10.9797598 5.41063274,11.1449297 C5.37953097,11.2775742 5.34504425,11.290002 5.2400708,11.6172656 C4.8864823,12.7195605 3.94188053,13.5183809 3.66080973,13.7369531 C3.4225885,13.9221797 3.37468142,14.098916 3.02013717,14.6391738 C2.80732301,14.9797676 2.32144248,14.9039297 2.2640177,14.6313398 C2.23574336,14.4971367 2.31419469,14.4127266 2.31562832,14.408625 C2.43896018,14.245916 2.45723894,14.0233652 2.36226106,13.8418301 C2.35067257,13.8197637 2.35939381,13.8353086 2.96546018,13.4765449 C3.19926106,13.3407832 2.98565044,13.4691621 4.53110177,11.1213867 C4.71504425,10.8419473 4.35536283,10.7540508 4.28742478,9.26419922 L5.29327434,9.17404688 C5.34890708,9.35385938 5.38773451,9.56677148 5.40903982,9.80983008 C5.42385398,9.97906055 5.56964602,10.1038711 5.73339823,10.0885723 C5.89770796,10.0733145 6.01888938,9.92373047 6.0040354,9.7545 C5.9785885,9.46427344 5.92980531,9.20538281 5.85931858,8.97983789 C5.95692478,8.87081836 6.01192035,8.72193164 5.99846018,8.56287305 L5.92988496,7.75117383 C5.88942478,7.27239844 5.60393363,6.87512109 5.20928761,6.67783594 C4.8234823,6.08794922 4.93347345,5.40315234 4.97843363,5.1995918 C5.88811062,4.17227344 6.27124779,3.19872656 6.11661504,2.30495508 C5.92896903,1.22070703 5.01228319,0.662197266 4.84781416,0.569953125 C4.74734071,0.496042969 4.31709292,0.198966797 3.72667699,0.065625 C3.10069912,-0.0758378906 2.17338053,-0.057421875 1.30961947,0.832166016 C0.72979646,1.42935352 0.678185841,2.09954883 1.25187611,2.67475195 C1.13814159,3.10131445 1.11966372,3.54379102 1.11691593,3.70961719 L0.885424779,4.27325391 C0.83210177,4.40306836 0.835287611,4.55047852 0.894146018,4.67775 C1.05228319,5.0195332 1.42470796,4.94390039 1.44011947,5.02863867 C1.56838938,5.73808594 1.94224779,6.18917578 2.46592035,6.26620313 C2.81879204,6.31812891 2.94670354,6.73238672 2.9909469,6.96424805 C2.8369115,7.1000918 2.71166814,7.26579492 2.61931858,7.46008594 C2.20364602,8.33478516 1.80298673,10.5002051 2.13534956,12.1950117 L1.51653982,13.6091074 C1.02528319,14.7317461 1.30288938,15.5993496 1.30930088,16.4461172 C1.32009292,16.608457 1.45130973,16.7326934 1.6070177,16.7326934 C1.78100442,16.7326934 1.91707965,16.5811816 1.90529204,16.4039941 C1.82365487,15.1582266 1.82377434,15.2168789 1.82078761,15.0873105 C2.18954867,15.6176016 3.10189381,15.6455332 3.52270354,14.9720156 L3.91213274,14.3488242 C4.00416372,14.2017012 4.09468142,14.2107246 4.54380531,13.7677969 C4.38893363,14.1373066 4.15963274,14.5272422 3.8215354,14.8347363 C3.62126549,15.0168457 3.50637611,15.2832832 3.50637611,15.5655938 L3.50637611,18.7077598 L2.05853097,18.7077598 L2.00078761,17.8396641 C1.98947788,17.6701465 1.84687168,17.5422598 1.68236283,17.5537441 C1.51777434,17.5653516 1.39352655,17.7121465 1.40479646,17.8817051 L1.4650885,18.7880273 C0.788575221,19.0217344 0.249451327,19.5170801 0.0576238938,20.0991738 C-0.0984026549,20.5729453 0.294371681,21.055207 0.80589823,20.994791 C3.81301327,20.9794512 3.62711947,20.981625 3.64926106,20.9796152 C4.00563717,20.9482383 4.18197345,20.6441484 4.16504867,20.2785762 L4.10384071,19.007502 L4.10384071,17.0978145 L6.14604425,18.4701973 C6.22780088,18.5251172 6.31624779,18.561252 6.40668584,18.5801191 C6.50238053,19.566791 7.19952212,20.9156309 8.03130531,20.485623 C8.24133186,20.3770957 8.3819469,20.1717715 8.41129646,19.9329375 C8.82772566,18.1900605 8.96563274,17.6169902 8.96865929,17.5969336 C9.01863717,17.2655273 8.84644248,16.9373203 8.54960177,16.7988516 Z M5.09284513,7.32813867 C5.23306195,7.44938086 5.31892035,7.61857031 5.33461062,7.80453516 L5.39737168,8.54704102 C4.79289823,8.60122266 4.48693805,8.62866211 4.08142035,8.66504297 L4.01483628,7.87721484 C3.96489823,7.28613867 4.63902212,6.93549609 5.09284513,7.32813867 Z M1.73182301,1.2673418 C3.01193363,-0.0510234375 4.44747345,1.02957422 4.50892035,1.0770293 C4.5230177,1.08802148 4.5380708,1.09766016 4.55388053,1.10586328 C4.56212389,1.11016992 5.37809735,1.54493555 5.52834956,2.41294922 C5.63706637,3.04118555 5.37590708,3.75247852 4.7514823,4.5312832 L4.57761504,4.23732422 C4.57243805,4.07523047 4.71066372,3.70153711 4.41856195,3.37255078 C4.12060619,3.03704297 3.73364602,3.15582422 3.54472566,3.13244531 C2.8040177,2.94676758 1.61080088,2.4614707 1.4595531,1.91321484 C1.44007965,1.84283203 1.38102212,1.62868945 1.73182301,1.2673418 Z M2.55014602,5.65716211 C2.20245133,5.60601563 2.07322566,5.17092188 2.02715044,4.91605078 C1.94439823,4.45884961 1.49865929,4.39088672 1.48810619,4.38473438 L1.6900885,3.89291602 C1.74345133,3.7629375 1.68132743,3.60408398 1.7755885,3.07449023 C2.4154646,3.46036523 3.39053097,3.75038672 3.51043805,3.74780273 C3.68311062,3.74739258 3.8365885,3.74702344 3.88756195,3.74690039 C3.95932301,3.74690039 4.01583186,3.81039258 4.00922124,3.88434375 C3.99229646,4.22227148 3.93367699,4.33141406 4.0160708,4.47062109 L4.38785841,5.09902148 C4.3340177,5.35865039 4.25919027,5.93504297 4.47435398,6.538875 C4.15899558,6.51467578 3.82671239,6.54777539 3.53090708,6.65187305 C3.38415929,6.13606055 3.06892035,5.73349219 2.55014602,5.65716211 Z M3.15565487,7.730625 C3.23482301,7.56397852 3.35289823,7.4321543 3.50848673,7.3360957 C3.32780973,7.78632422 3.46229204,8.09787891 3.49721681,8.84715234 C3.50848673,8.9806582 3.57156637,9.10706836 3.68637611,9.19512891 C3.69720796,9.54413086 3.74551327,10.2540293 3.95227434,10.9045371 C3.81986283,11.1066211 3.55352655,11.5146035 3.29200885,11.9242266 C3.26819469,11.9224629 3.38236726,11.9238164 2.69346903,11.9231191 C2.44815929,10.4358926 2.78139823,8.51828906 3.15565487,7.730625 Z M2.64022566,12.5382715 L2.90580531,12.5382715 C2.80457522,12.7028262 2.71967257,12.8451504 2.66531416,12.9444082 L2.39336283,13.1024414 L2.64022566,12.5382715 Z M3.56411947,20.3658164 C0.608933628,20.3816074 0.782323009,20.3770137 0.742619469,20.3828789 C0.676513274,20.3930918 0.606225664,20.3480566 0.62299115,20.2970332 C0.789610619,19.7915566 1.33574336,19.4469023 1.81481416,19.3231582 L3.52059292,19.3231582 C3.5624469,20.2693887 3.57355752,20.2862461 3.56411947,20.3658164 Z M6.47219469,17.955 L4.10352212,16.3631836 C4.1315177,15.6825293 4.03124336,15.4645723 4.21665929,15.295998 C4.64957522,14.9023301 4.93207965,14.4090762 5.11618142,13.9532695 C5.15086726,14.188125 5.16448673,14.4660469 5.12709292,14.7725156 C5.08336726,15.1306641 5.24723894,15.4877051 5.54459735,15.6822012 L7.35511062,16.8658711 L6.68783628,17.9088574 C6.64072566,17.9825215 6.54407522,18.0033164 6.47219469,17.955 Z M8.37923894,17.4927949 C7.79380088,19.9464727 7.82263274,19.8078398 7.81880973,19.8514805 C7.81196018,19.9296152 7.72809292,19.9730508 7.66202655,19.9312148 C7.28701327,19.6943496 7.04098673,19.0178789 6.9959469,18.451166 C7.19271239,18.306668 7.20430088,18.1918242 7.88089381,17.1625371 L8.30333628,17.3594531 C8.35351327,17.382832 8.38381858,17.4368086 8.37923894,17.4927949 Z" id="Shape"></path>
            </g>
        </g>
    </g>
</svg>