<?xml version="1.0" encoding="UTF-8"?>
<svg width="981px" height="157px" viewBox="0 0 981 157" version="1.1" xmlns="http://www.w3.org/2000/svg" xmlns:xlink="http://www.w3.org/1999/xlink">
    <!-- Generator: Sketch 43.1 (39012) - http://www.bohemiancoding.com/sketch -->
    <title>Group 21</title>
    <desc>Created with Sketch.</desc>
    <defs></defs>
    <g id="Page-1" stroke="none" stroke-width="1" fill="none" fill-rule="evenodd">
        <g id="Careers" transform="translate(-454.000000, -6677.000000)">
            <g id="Group-21" transform="translate(444.000000, 6677.000000)">
                <g id="Group-11" transform="translate(0.000000, 76.000000)" fill="#358FCA">
                    <path d="M99.6891765,111.424083 L118.614353,111.424083 L118.614353,71.3720833 L99.6891765,71.3720833 L99.6891765,111.424083 Z M119.569412,113.333167 L98.7341176,113.333167 C98.2061176,113.333167 97.7764706,112.906917 97.7764706,112.379917 L97.7764706,70.41625 C97.7764706,69.88925 98.2061176,69.463 98.7341176,69.463 L119.569412,69.463 C120.097412,69.463 120.527059,69.88925 120.527059,70.41625 L120.527059,112.379917 C120.527059,112.906917 120.097412,113.333167 119.569412,113.333167 L119.569412,113.333167 Z" id="Fill-3"></path>
                    <polyline id="Fill-5" points="202.310118 113.333167 15.9934118 113.333167 15.9934118 55.0040833 17.9061176 55.0040833 17.9061176 111.424083 200.397412 111.424083 200.397412 55.0040833 202.310118 55.0040833 202.310118 113.333167"></polyline>
                    <path d="M207.090588,55.17975 L11.2129412,55.17975 C10.9282353,55.17975 10.6564706,55.0505833 10.4752941,54.831 C10.2941176,54.6114167 10.2190588,54.3220833 10.276,54.0430833 L18.4030588,12.2240833 C18.4884706,11.7745833 18.8818824,11.4516667 19.34,11.4516667 L38.8656471,11.4516667 C39.3936471,11.4516667 39.8207059,11.8779167 39.8207059,12.4049167 C39.8207059,12.9319167 39.3936471,13.36075 38.8656471,13.36075 L20.1294118,13.36075 L12.3724706,53.2706667 L205.931059,53.2706667 L198.174118,13.36075 L179.440471,13.36075 C178.909882,13.36075 178.482824,12.9319167 178.482824,12.4049167 C178.482824,11.8779167 178.909882,11.4516667 179.440471,11.4516667 L198.963529,11.4516667 C199.421647,11.4516667 199.815059,11.7745833 199.900471,12.2240833 L208.027529,54.0430833 C208.084471,54.3220833 208.009412,54.6114167 207.828235,54.831 C207.647059,55.0505833 207.375294,55.17975 207.090588,55.17975" id="Fill-6"></path>
                    <path d="M150.736941,13.36075 L67.5665882,13.36075 C67.0385882,13.36075 66.6089412,12.9319167 66.6089412,12.4049167 C66.6089412,11.8779167 67.0385882,11.4516667 67.5665882,11.4516667 L150.736941,11.4516667 C151.264941,11.4516667 151.694588,11.8779167 151.694588,12.4049167 C151.694588,12.9319167 151.264941,13.36075 150.736941,13.36075" id="Fill-7"></path>
                    <path d="M46.0014118,40.81125 L60.4282353,40.81125 L60.4282353,26.8044167 C60.4282353,21.8573333 56.6908235,19.6046667 53.2148235,19.6046667 C49.7414118,19.6046667 46.0014118,21.8573333 46.0014118,26.8044167 L46.0014118,40.81125 Z M61.3858824,42.7203333 L45.0463529,42.7203333 C44.5183529,42.7203333 44.0887059,42.2915 44.0887059,41.7645 L44.0887059,26.8044167 C44.0887059,20.824 48.6802353,17.6955833 53.2148235,17.6955833 C57.7494118,17.6955833 62.3409412,20.824 62.3409412,26.8044167 L62.3409412,41.7645 C62.3409412,42.2915 61.9138824,42.7203333 61.3858824,42.7203333 L61.3858824,42.7203333 Z" id="Fill-8"></path>
                    <path d="M53.2148235,42.2915 C52.6868235,42.2915 52.2597647,41.86525 52.2597647,41.33825 L52.2597647,19.1680833 C52.2597647,18.6410833 52.6868235,18.2148333 53.2148235,18.2148333 C53.7428235,18.2148333 54.1724706,18.6410833 54.1724706,19.1680833 L54.1724706,41.33825 C54.1724706,41.86525 53.7428235,42.2915 53.2148235,42.2915" id="Fill-9"></path>
                    <polygon id="Fill-10" points="45.2767059 31.6610833 61.1529412 31.6610833 61.1529412 29.752 45.2767059 29.752"></polygon>
                    <path d="M44.4303529,44.9910833 L61.9992941,44.9910833 L61.9992941,42.7203333 L44.4303529,42.7203333 L44.4303529,44.9910833 Z M62.9569412,46.9001667 L43.4752941,46.9001667 C42.9472941,46.9001667 42.5176471,46.4713333 42.5176471,45.9443333 L42.5176471,41.7645 C42.5176471,41.2375 42.9472941,40.81125 43.4752941,40.81125 L62.9569412,40.81125 C63.4849412,40.81125 63.912,41.2375 63.912,41.7645 L63.912,45.9443333 C63.912,46.4713333 63.4849412,46.9001667 62.9569412,46.9001667 L62.9569412,46.9001667 Z" id="Fill-11"></path>
                    <path d="M64,44.81025 C63.472,44.81025 63.0423529,44.3814167 63.0423529,43.8544167 L63.0423529,14.56975 C63.0423529,14.04275 63.472,13.6165 64,13.6165 C64.528,13.6165 64.9550588,14.04275 64.9550588,14.56975 L64.9550588,43.8544167 C64.9550588,44.3814167 64.528,44.81025 64,44.81025" id="Fill-12"></path>
                    <path d="M42.4322353,44.81025 C41.9042353,44.81025 41.4745882,44.3814167 41.4745882,43.8544167 L41.4745882,14.56975 C41.4745882,14.04275 41.9042353,13.6165 42.4322353,13.6165 C42.9602353,13.6165 43.3872941,14.04275 43.3872941,14.56975 L43.3872941,43.8544167 C43.3872941,44.3814167 42.9602353,44.81025 42.4322353,44.81025" id="Fill-13"></path>
                    <path d="M53.2148235,2.60891667 C52.9974118,2.60891667 52.7929412,2.67866667 52.6247059,2.813 L38.0141176,14.2881667 C37.6,14.6136667 37.5275294,15.213 37.8536471,15.6263333 C38.0374118,15.8588333 38.3117647,15.9905833 38.6068235,15.9905833 C38.7569412,15.9905833 38.9821176,15.957 39.1969412,15.7865 L52.6247059,5.24133333 C52.9715294,4.97008333 53.4607059,4.97008333 53.8075294,5.24133333 L67.2327059,15.7865 C67.4475294,15.957 67.6727059,15.9905833 67.8228235,15.9905833 C68.1178824,15.9905833 68.3948235,15.8588333 68.576,15.6263333 C68.9021176,15.213 68.8296471,14.6136667 68.4155294,14.2881667 L53.8075294,2.813 C53.6367059,2.67866667 53.4322353,2.60891667 53.2148235,2.60891667 Z M38.6068235,17.8996667 C37.7216471,17.8996667 36.8985882,17.5018333 36.3524706,16.8069167 C35.3741176,15.5669167 35.5889412,13.76375 36.8312941,12.78725 L51.4418824,1.31208333 C52.4487059,0.524166667 53.9835294,0.524166667 54.9877647,1.31208333 L69.5983529,12.78725 C70.8407059,13.76375 71.0555294,15.5669167 70.0797647,16.8069167 C69.5310588,17.5018333 68.708,17.8996667 67.8228235,17.8996667 C67.1835294,17.8996667 66.5545882,17.6826667 66.0498824,17.2874167 L53.2148235,7.20725 L40.3797647,17.2874167 C39.8776471,17.6826667 39.2461176,17.8996667 38.6068235,17.8996667 L38.6068235,17.8996667 Z" id="Fill-14"></path>
                    <path d="M157.875294,40.81125 L172.302118,40.81125 L172.302118,26.8044167 C172.302118,21.8573333 168.562118,19.6046667 165.088706,19.6046667 C161.615294,19.6046667 157.875294,21.8573333 157.875294,26.8044167 L157.875294,40.81125 Z M173.259765,42.7203333 L156.917647,42.7203333 C156.389647,42.7203333 155.962588,42.2915 155.962588,41.7645 L155.962588,26.8044167 C155.962588,20.824 160.554118,17.6955833 165.088706,17.6955833 C169.623294,17.6955833 174.214824,20.824 174.214824,26.8044167 L174.214824,41.7645 C174.214824,42.2915 173.785176,42.7203333 173.259765,42.7203333 L173.259765,42.7203333 Z" id="Fill-15"></path>
                    <path d="M165.088706,42.2915 C164.560706,42.2915 164.133647,41.86525 164.133647,41.33825 L164.133647,19.1680833 C164.133647,18.6410833 164.560706,18.2148333 165.088706,18.2148333 C165.616706,18.2148333 166.043765,18.6410833 166.043765,19.1680833 L166.043765,41.33825 C166.043765,41.86525 165.616706,42.2915 165.088706,42.2915" id="Fill-16"></path>
                    <polygon id="Fill-17" points="157.150588 31.6610833 173.026824 31.6610833 173.026824 29.752 157.150588 29.752"></polygon>
                    <path d="M156.304235,44.9910833 L173.873176,44.9910833 L173.873176,42.7203333 L156.304235,42.7203333 L156.304235,44.9910833 Z M174.828235,46.9001667 L155.346588,46.9001667 C154.818588,46.9001667 154.391529,46.4713333 154.391529,45.9443333 L154.391529,41.7645 C154.391529,41.2375 154.818588,40.81125 155.346588,40.81125 L174.828235,40.81125 C175.356235,40.81125 175.785882,41.2375 175.785882,41.7645 L175.785882,45.9443333 C175.785882,46.4713333 175.356235,46.9001667 174.828235,46.9001667 L174.828235,46.9001667 Z" id="Fill-18"></path>
                    <path d="M175.873882,44.81025 C175.345882,44.81025 174.916235,44.3814167 174.916235,43.8544167 L174.916235,14.56975 C174.916235,14.04275 175.345882,13.6165 175.873882,13.6165 C176.401882,13.6165 176.828941,14.04275 176.828941,14.56975 L176.828941,43.8544167 C176.828941,44.3814167 176.401882,44.81025 175.873882,44.81025" id="Fill-19"></path>
                    <path d="M154.303529,44.81025 C153.775529,44.81025 153.348471,44.3814167 153.348471,43.8544167 L153.348471,14.56975 C153.348471,14.04275 153.775529,13.6165 154.303529,13.6165 C154.831529,13.6165 155.261176,14.04275 155.261176,14.56975 L155.261176,43.8544167 C155.261176,44.3814167 154.831529,44.81025 154.303529,44.81025" id="Fill-20"></path>
                    <path d="M165.088706,2.60891667 C164.871294,2.60891667 164.666824,2.67866667 164.496,2.813 L149.888,14.2881667 C149.473882,14.6136667 149.401412,15.213 149.727529,15.6263333 C149.911294,15.8588333 150.185647,15.9905833 150.480706,15.9905833 C150.630824,15.9905833 150.856,15.957 151.070824,15.7865 L164.498588,5.24133333 C164.842824,4.97008333 165.332,4.97008333 165.678824,5.24133333 L179.106588,15.7865 C179.321412,15.957 179.546588,15.9905833 179.696706,15.9905833 C179.991765,15.9905833 180.266118,15.8588333 180.449882,15.6263333 C180.776,15.213 180.703529,14.6136667 180.289412,14.2881667 L165.678824,2.813 C165.510588,2.67866667 165.306118,2.60891667 165.088706,2.60891667 Z M150.480706,17.8996667 C149.595529,17.8996667 148.772471,17.5018333 148.223765,16.8069167 C147.248,15.5669167 147.462824,13.76375 148.705176,12.78725 L163.315765,1.31208333 C164.32,0.524166667 165.854824,0.524166667 166.861647,1.31208333 L181.472235,12.78725 C182.714588,13.76375 182.929412,15.5669167 181.951059,16.8069167 C181.404941,17.5018333 180.581882,17.8996667 179.696706,17.8996667 C179.057412,17.8996667 178.428471,17.6826667 177.923765,17.2874167 L165.088706,7.20725 L152.253647,17.2874167 C151.748941,17.6826667 151.12,17.8996667 150.480706,17.8996667 L150.480706,17.8996667 Z" id="Fill-21"></path>
                    <path d="M31.1449412,95.41775 L44.8496471,95.41775 L44.8496471,71.96625 L31.1449412,71.96625 L31.1449412,95.41775 Z M45.8072941,97.3268333 L30.1898824,97.3268333 C29.6618824,97.3268333 29.2322353,96.9005833 29.2322353,96.3735833 L29.2322353,71.0104167 C29.2322353,70.4834167 29.6618824,70.0571667 30.1898824,70.0571667 L45.8072941,70.0571667 C46.3352941,70.0571667 46.7623529,70.4834167 46.7623529,71.0104167 L46.7623529,96.3735833 C46.7623529,96.9005833 46.3352941,97.3268333 45.8072941,97.3268333 L45.8072941,97.3268333 Z" id="Fill-22"></path>
                    <path d="M37.9985882,96.991 C37.4705882,96.991 37.0409412,96.5621667 37.0409412,96.0351667 L37.0409412,71.3488333 C37.0409412,70.8218333 37.4705882,70.3955833 37.9985882,70.3955833 C38.5265882,70.3955833 38.9536471,70.8218333 38.9536471,71.3488333 L38.9536471,96.0351667 C38.9536471,96.5621667 38.5265882,96.991 37.9985882,96.991" id="Fill-25"></path>
                    <path d="M72.8155294,95.41775 L86.5202353,95.41775 L86.5202353,71.96625 L72.8155294,71.96625 L72.8155294,95.41775 Z M87.4752941,97.3268333 L71.8578824,97.3268333 C71.3298824,97.3268333 70.9028235,96.9005833 70.9028235,96.3735833 L70.9028235,71.0104167 C70.9028235,70.4834167 71.3298824,70.0571667 71.8578824,70.0571667 L87.4752941,70.0571667 C88.0032941,70.0571667 88.4329412,70.4834167 88.4329412,71.0104167 L88.4329412,96.3735833 C88.4329412,96.9005833 88.0032941,97.3268333 87.4752941,97.3268333 L87.4752941,97.3268333 Z" id="Fill-26"></path>
                    <path d="M79.6665882,96.991 C79.1385882,96.991 78.7115294,96.5621667 78.7115294,96.0351667 L78.7115294,71.3488333 C78.7115294,70.8218333 79.1385882,70.3955833 79.6665882,70.3955833 C80.1945882,70.3955833 80.6242353,70.8218333 80.6242353,71.3488333 L80.6242353,96.0351667 C80.6242353,96.5621667 80.1945882,96.991 79.6665882,96.991" id="Fill-29"></path>
                    <path d="M131.783294,95.41775 L145.488,95.41775 L145.488,71.96625 L131.783294,71.96625 L131.783294,95.41775 Z M146.445647,97.3268333 L130.828235,97.3268333 C130.300235,97.3268333 129.870588,96.9005833 129.870588,96.3735833 L129.870588,71.0104167 C129.870588,70.4834167 130.300235,70.0571667 130.828235,70.0571667 L146.445647,70.0571667 C146.973647,70.0571667 147.400706,70.4834167 147.400706,71.0104167 L147.400706,96.3735833 C147.400706,96.9005833 146.973647,97.3268333 146.445647,97.3268333 L146.445647,97.3268333 Z" id="Fill-30"></path>
                    <path d="M138.636941,96.991 C138.108941,96.991 137.679294,96.5621667 137.679294,96.0351667 L137.679294,71.3488333 C137.679294,70.8218333 138.108941,70.3955833 138.636941,70.3955833 C139.164941,70.3955833 139.592,70.8218333 139.592,71.3488333 L139.592,96.0351667 C139.592,96.5621667 139.164941,96.991 138.636941,96.991" id="Fill-33"></path>
                    <path d="M173.453882,95.41775 L187.158588,95.41775 L187.158588,71.96625 L173.453882,71.96625 L173.453882,95.41775 Z M188.113647,97.3268333 L172.496235,97.3268333 C171.968235,97.3268333 171.541176,96.9005833 171.541176,96.3735833 L171.541176,71.0104167 C171.541176,70.4834167 171.968235,70.0571667 172.496235,70.0571667 L188.113647,70.0571667 C188.641647,70.0571667 189.071294,70.4834167 189.071294,71.0104167 L189.071294,96.3735833 C189.071294,96.9005833 188.641647,97.3268333 188.113647,97.3268333 L188.113647,97.3268333 Z" id="Fill-34"></path>
                    <path d="M180.304941,96.991 C179.776941,96.991 179.349882,96.5621667 179.349882,96.0351667 L179.349882,71.3488333 C179.349882,70.8218333 179.776941,70.3955833 180.304941,70.3955833 C180.832941,70.3955833 181.262588,70.8218333 181.262588,71.3488333 L181.262588,96.0351667 C181.262588,96.5621667 180.832941,96.991 180.304941,96.991" id="Fill-37"></path>
                </g>
                <g id="Group-10" transform="translate(751.000000, 76.000000)" fill="#4990E2">
                    <g id="Group-5" transform="translate(0.000000, 0.000000)">
                        <path d="M24.596963,99.7445741 L38.1861852,99.7445741 L38.1861852,76.2934259 L24.596963,76.2934259 L24.596963,99.7445741 Z M39.2590185,101.893148 L23.5241296,101.893148 C22.9310185,101.893148 22.4512963,101.413426 22.4512963,100.820315 L22.4512963,75.2176852 C22.4512963,74.6245741 22.9310185,74.1448519 23.5241296,74.1448519 L39.2590185,74.1448519 C39.8521296,74.1448519 40.3318519,74.6245741 40.3318519,75.2176852 L40.3318519,100.820315 C40.3318519,101.413426 39.8521296,101.893148 39.2590185,101.893148 L39.2590185,101.893148 Z" id="Fill-193"></path>
                        <path d="M31.3915741,101.552981 C30.798463,101.552981 30.3187407,101.073259 30.3187407,100.480148 L30.3187407,75.5578519 C30.3187407,74.9647407 30.798463,74.4850185 31.3915741,74.4850185 C31.9846852,74.4850185 32.4644074,74.9647407 32.4644074,75.5578519 L32.4644074,100.480148 C32.4644074,101.073259 31.9846852,101.552981 31.3915741,101.552981" id="Fill-196"></path>
                        <path d="M60.392963,99.7445741 L73.9792778,99.7445741 L73.9792778,76.2934259 L60.392963,76.2934259 L60.392963,99.7445741 Z M75.0521111,101.893148 L59.3172222,101.893148 C58.7241111,101.893148 58.2443889,101.413426 58.2443889,100.820315 L58.2443889,75.2176852 C58.2443889,74.6245741 58.7241111,74.1448519 59.3172222,74.1448519 L75.0521111,74.1448519 C75.6452222,74.1448519 76.1278519,74.6245741 76.1278519,75.2176852 L76.1278519,100.820315 C76.1278519,101.413426 75.6452222,101.893148 75.0521111,101.893148 L75.0521111,101.893148 Z" id="Fill-197"></path>
                        <path d="M67.1846667,101.552981 C66.5915556,101.552981 66.1118333,101.073259 66.1118333,100.480148 L66.1118333,75.5578519 C66.1118333,74.9647407 66.5915556,74.4850185 67.1846667,74.4850185 C67.7777778,74.4850185 68.2604074,74.9647407 68.2604074,75.5578519 L68.2604074,100.480148 C68.2604074,101.073259 67.7777778,101.552981 67.1846667,101.552981" id="Fill-200"></path>
                        <path d="M171.737944,99.7445741 L185.324259,99.7445741 L185.324259,76.2934259 L171.737944,76.2934259 L171.737944,99.7445741 Z M186.4,101.893148 L170.665111,101.893148 C170.072,101.893148 169.58937,101.413426 169.58937,100.820315 L169.58937,75.2176852 C169.58937,74.6245741 170.072,74.1448519 170.665111,74.1448519 L186.4,74.1448519 C186.993111,74.1448519 187.472833,74.6245741 187.472833,75.2176852 L187.472833,100.820315 C187.472833,101.413426 186.993111,101.893148 186.4,101.893148 L186.4,101.893148 Z" id="Fill-201"></path>
                        <path d="M178.532556,101.552981 C177.939444,101.552981 177.456815,101.073259 177.456815,100.480148 L177.456815,75.5578519 C177.456815,74.9647407 177.939444,74.4850185 178.532556,74.4850185 C179.125667,74.4850185 179.605389,74.9647407 179.605389,75.5578519 L179.605389,100.480148 C179.605389,101.073259 179.125667,101.552981 178.532556,101.552981" id="Fill-204"></path>
                        <path d="M207.531037,99.7445741 L221.120259,99.7445741 L221.120259,76.2934259 L207.531037,76.2934259 L207.531037,99.7445741 Z M222.193093,101.893148 L206.458204,101.893148 C205.865093,101.893148 205.38537,101.413426 205.38537,100.820315 L205.38537,75.2176852 C205.38537,74.6245741 205.865093,74.1448519 206.458204,74.1448519 L222.193093,74.1448519 C222.786204,74.1448519 223.268833,74.6245741 223.268833,75.2176852 L223.268833,100.820315 C223.268833,101.413426 222.786204,101.893148 222.193093,101.893148 L222.193093,101.893148 Z" id="Fill-205"></path>
                        <path d="M214.325648,101.552981 C213.732537,101.552981 213.252815,101.073259 213.252815,100.480148 L213.252815,75.5578519 C213.252815,74.9647407 213.732537,74.4850185 214.325648,74.4850185 C214.918759,74.4850185 215.398481,74.9647407 215.398481,75.5578519 L215.398481,100.480148 C215.398481,101.073259 214.918759,101.552981 214.325648,101.552981" id="Fill-208"></path>
                        <polygon id="Fill-214" points="149.781204 131.162019 151.929778 131.162019 151.929778 64.0677778 149.781204 64.0677778"></polygon>
                        <polygon id="Fill-215" points="155.2355 131.162019 157.384074 131.162019 157.384074 64.0677778 155.2355 64.0677778"></polygon>
                        <polygon id="Fill-216" points="88.3331481 131.162019 90.4817222 131.162019 90.4817222 64.0677778 88.3331481 64.0677778"></polygon>
                        <polygon id="Fill-217" points="93.7874444 131.162019 95.9360185 131.162019 95.9360185 64.0677778 93.7874444 64.0677778"></polygon>
                        <polygon id="Fill-218" points="231.232222 131.162019 233.380796 131.162019 233.380796 64.0677778 231.232222 64.0677778"></polygon>
                        <polygon id="Fill-219" points="236.686519 131.162019 238.832185 131.162019 238.832185 64.0677778 236.686519 64.0677778"></polygon>
                        <polygon id="Fill-220" points="6.88503704 131.162019 9.0307037 131.162019 9.0307037 64.0677778 6.88503704 64.0677778"></polygon>
                        <polygon id="Fill-221" points="12.3364259 131.162019 14.485 131.162019 14.485 64.0677778 12.3364259 64.0677778"></polygon>
                        <path d="M139.230222,131.162019 L137.081648,131.162019 L137.081648,77.0755185 L108.635574,77.0755185 L108.635574,131.162019 L106.487,131.162019 L106.487,75.9997778 C106.487,75.4066667 106.966722,74.9269444 107.559833,74.9269444 L138.157389,74.9269444 C138.7505,74.9269444 139.230222,75.4066667 139.230222,75.9997778 L139.230222,131.162019" id="Fill-222"></path>
                        <path d="M8.17592593,62.4774259 L237.544204,62.4774259 L237.544204,59.2647407 L8.17592593,59.2647407 L8.17592593,62.4774259 Z M238.617037,64.626 L7.10018519,64.626 C6.50707407,64.626 6.02735185,64.1433704 6.02735185,63.5502593 L6.02735185,58.189 C6.02735185,57.5958889 6.50707407,57.1161667 7.10018519,57.1161667 L238.617037,57.1161667 C239.210148,57.1161667 239.68987,57.5958889 239.68987,58.189 L239.68987,63.5502593 C239.68987,64.1433704 239.210148,64.626 238.617037,64.626 L238.617037,64.626 Z" id="Fill-240"></path>
                        <path d="M9.14118519,56.4067593 L236.576037,56.4067593 L211.583963,20.0292778 L34.1332593,20.0292778 L9.14118519,56.4067593 Z M238.617037,58.5553333 L7.10018519,58.5553333 C6.70187037,58.5553333 6.33553704,58.3343704 6.14946296,57.9825741 C5.96338889,57.6278704 5.98955556,57.2033889 6.21633333,56.8748519 L32.6853704,18.3458889 C32.8830741,18.0551481 33.2145185,17.8807037 33.5692222,17.8807037 L212.148,17.8807037 C212.502704,17.8807037 212.834148,18.0551481 213.034759,18.3458889 L239.500889,56.8748519 C239.727667,57.2033889 239.753833,57.6278704 239.567759,57.9825741 C239.381685,58.3343704 239.015352,58.5553333 238.617037,58.5553333 L238.617037,58.5553333 Z" id="Fill-241"></path>
                        <path d="M203.353093,19.3692963 L201.204519,19.3692963 L201.204519,12.6619074 L184.795111,12.6619074 L184.795111,19.3692963 L182.646537,19.3692963 L182.646537,11.5890741 C182.646537,10.995963 183.126259,10.5133333 183.71937,10.5133333 L202.280259,10.5133333 C202.87337,10.5133333 203.353093,10.995963 203.353093,11.5890741 L203.353093,19.3692963" id="Fill-242"></path>
                        <path d="M179.605389,10.5133333 L206.394241,10.5133333 L206.394241,2.98024074 L179.605389,2.98024074 L179.605389,10.5133333 Z M207.467074,12.6619074 L178.532556,12.6619074 C177.939444,12.6619074 177.456815,12.1821852 177.456815,11.5890741 L177.456815,1.9045 C177.456815,1.31138889 177.939444,0.831666667 178.532556,0.831666667 L207.467074,0.831666667 C208.060185,0.831666667 208.539907,1.31138889 208.539907,1.9045 L208.539907,11.5890741 C208.539907,12.1821852 208.060185,12.6619074 207.467074,12.6619074 L207.467074,12.6619074 Z" id="Fill-243"></path>
                    </g>
                </g>
                <g id="Group-9" transform="translate(236.000000, 0.000000)" fill="#358FCA">
                    <path d="M255.8304,210.9696 L12.8896,210.9696 C12.2368,210.9696 11.7088,210.4416 11.7088,209.7888 L11.7088,50.1408 C11.7088,49.488 12.2368,48.96 12.8896,48.96 C13.5424,48.96 14.0704,49.488 14.0704,50.1408 L14.0704,208.6048 L254.6464,208.6048 L254.6464,50.1408 C254.6464,49.488 255.1776,48.96 255.8304,48.96 C256.4832,48.96 257.0112,49.488 257.0112,50.1408 L257.0112,209.7888 C257.0112,210.4416 256.4832,210.9696 255.8304,210.9696" id="Fill-564"></path>
                    <path d="M255.8304,51.3248 L198.2624,51.3248 C197.6096,51.3248 197.0816,50.7936 197.0816,50.1408 C197.0816,49.488 197.6096,48.96 198.2624,48.96 L254.3648,48.96 L246.0096,10.3936 L229.936,10.3936 C229.2832,10.3936 228.7552,9.8624 228.7552,9.2096 C228.7552,8.5568 229.2832,8.0288 229.936,8.0288 L246.9632,8.0288 C247.52,8.0288 248,8.416 248.1184,8.96 L256.9856,49.8912 C257.0592,50.24 256.9728,50.6048 256.7488,50.8832 C256.5248,51.1616 256.1856,51.3248 255.8304,51.3248" id="Fill-565"></path>
                    <polygon id="Fill-566" points="60.5536 10.3936 207.9808 10.3936 207.9808 8.0288 60.5536 8.0288"></polygon>
                    <path d="M71.2064,51.3248 L12.8896,51.3248 C12.5312,51.3248 12.192,51.1616 11.968,50.8832 C11.744,50.6048 11.6576,50.24 11.7344,49.8912 L20.6016,8.96 C20.7168,8.416 21.2,8.0288 21.7568,8.0288 L39.2544,8.0288 C39.9072,8.0288 40.4384,8.5568 40.4384,9.2096 C40.4384,9.8624 39.9072,10.3936 39.2544,10.3936 L22.7104,10.3936 L14.3552,48.96 L71.2064,48.96 C71.8592,48.96 72.3904,49.488 72.3904,50.1408 C72.3904,50.7936 71.8592,51.3248 71.2064,51.3248" id="Fill-567"></path>
                    <path d="M158.0512,126.8192 L155.6864,126.8192 L155.6864,79.824 L113.0336,79.824 L113.0336,126.8192 L110.6688,126.8192 L110.6688,78.64 C110.6688,77.9872 111.1968,77.4592 111.8496,77.4592 L156.8672,77.4592 C157.52,77.4592 158.0512,77.9872 158.0512,78.64 L158.0512,126.8192" id="Fill-572"></path>
                    <polygon id="Fill-573" points="133.1776 126.8192 135.5424 126.8192 135.5424 78.64 133.1776 78.64"></polygon>
                    <path d="M138.6496,105.968 C138.6496,106.8416 138.1056,107.5456 137.4368,107.5456 C136.768,107.5456 136.2272,106.8416 136.2272,105.968 C136.2272,105.0976 136.768,104.3936 137.4368,104.3936 C138.1056,104.3936 138.6496,105.0976 138.6496,105.968" id="Fill-574"></path>
                    <path d="M132.4928,105.968 C132.4928,106.8416 131.9488,107.5456 131.28,107.5456 C130.6112,107.5456 130.0704,106.8416 130.0704,105.968 C130.0704,105.0976 130.6112,104.3936 131.28,104.3936 C131.9488,104.3936 132.4928,105.0976 132.4928,105.968" id="Fill-575"></path>
                    <path d="M73.28,135.7984 L195.44,135.7984 L195.44,128.3104 L73.28,128.3104 L73.28,135.7984 Z M196.6208,138.1632 L72.096,138.1632 C71.4432,138.1632 70.9152,137.6352 70.9152,136.9824 L70.9152,127.1296 C70.9152,126.4768 71.4432,125.9456 72.096,125.9456 L196.6208,125.9456 C197.2736,125.9456 197.8048,126.4768 197.8048,127.1296 L197.8048,136.9824 C197.8048,137.6352 197.2736,138.1632 196.6208,138.1632 L196.6208,138.1632 Z" id="Fill-576"></path>
                    <path d="M73.28,125.9456 L195.44,125.9456 L195.44,116.5888 L73.28,116.5888 L73.28,125.9456 Z M196.6208,128.3104 L72.096,128.3104 C71.4432,128.3104 70.9152,127.7824 70.9152,127.1296 L70.9152,115.4048 C70.9152,114.752 71.4432,114.224 72.096,114.224 L196.6208,114.224 C197.2736,114.224 197.8048,114.752 197.8048,115.4048 L197.8048,127.1296 C197.8048,127.7824 197.2736,128.3104 196.6208,128.3104 L196.6208,128.3104 Z" id="Fill-577"></path>
                    <polygon id="Fill-578" points="91.3088 203.8784 93.6736 203.8784 93.6736 143.088 91.3088 143.088"></polygon>
                    <polygon id="Fill-579" points="82.8352 203.8784 85.2 203.8784 85.2 143.088 82.8352 143.088"></polygon>
                    <path d="M81.2608,141.9072 L95.248,141.9072 L95.248,138.1632 L81.2608,138.1632 L81.2608,141.9072 Z M96.432,144.272 L80.0768,144.272 C79.424,144.272 78.896,143.7408 78.896,143.088 L78.896,136.9824 C78.896,136.3296 79.424,135.7984 80.0768,135.7984 L96.432,135.7984 C97.0848,135.7984 97.6128,136.3296 97.6128,136.9824 L97.6128,143.088 C97.6128,143.7408 97.0848,144.272 96.432,144.272 L96.432,144.272 Z" id="Fill-580"></path>
                    <polygon id="Fill-582" points="183.52 203.8784 185.8816 203.8784 185.8816 143.088 183.52 143.088"></polygon>
                    <polygon id="Fill-583" points="175.0464 203.8784 177.4112 203.8784 177.4112 143.088 175.0464 143.088"></polygon>
                    <path d="M173.4688,141.9072 L187.4592,141.9072 L187.4592,138.1632 L173.4688,138.1632 L173.4688,141.9072 Z M188.64,144.272 L172.288,144.272 C171.6352,144.272 171.1072,143.7408 171.1072,143.088 L171.1072,136.9824 C171.1072,136.3296 171.6352,135.7984 172.288,135.7984 L188.64,135.7984 C189.2928,135.7984 189.824,136.3296 189.824,136.9824 L189.824,143.088 C189.824,143.7408 189.2928,144.272 188.64,144.272 L188.64,144.272 Z" id="Fill-584"></path>
                    <path d="M80.0512,128.3104 C79.3984,128.3104 78.8704,127.7824 78.8704,127.1296 L78.8704,115.4048 C78.8704,114.752 79.3984,114.224 80.0512,114.224 C80.704,114.224 81.2352,114.752 81.2352,115.4048 L81.2352,127.1296 C81.2352,127.7824 80.704,128.3104 80.0512,128.3104" id="Fill-586"></path>
                    <path d="M87.8112,128.3104 C87.1584,128.3104 86.6272,127.7824 86.6272,127.1296 L86.6272,115.4048 C86.6272,114.752 87.1584,114.224 87.8112,114.224 C88.464,114.224 88.992,114.752 88.992,115.4048 L88.992,127.1296 C88.992,127.7824 88.464,128.3104 87.8112,128.3104" id="Fill-587"></path>
                    <path d="M95.568,128.3104 C94.9152,128.3104 94.3872,127.7824 94.3872,127.1296 L94.3872,115.4048 C94.3872,114.752 94.9152,114.224 95.568,114.224 C96.2208,114.224 96.7488,114.752 96.7488,115.4048 L96.7488,127.1296 C96.7488,127.7824 96.2208,128.3104 95.568,128.3104" id="Fill-588"></path>
                    <path d="M103.3248,128.3104 C102.672,128.3104 102.144,127.7824 102.144,127.1296 L102.144,115.4048 C102.144,114.752 102.672,114.224 103.3248,114.224 C103.9776,114.224 104.5088,114.752 104.5088,115.4048 L104.5088,127.1296 C104.5088,127.7824 103.9776,128.3104 103.3248,128.3104" id="Fill-589"></path>
                    <path d="M111.0848,128.3104 C110.432,128.3104 109.904,127.7824 109.904,127.1296 L109.904,115.4048 C109.904,114.752 110.432,114.224 111.0848,114.224 C111.7376,114.224 112.2656,114.752 112.2656,115.4048 L112.2656,127.1296 C112.2656,127.7824 111.7376,128.3104 111.0848,128.3104" id="Fill-590"></path>
                    <path d="M118.8416,128.3104 C118.1888,128.3104 117.6608,127.7824 117.6608,127.1296 L117.6608,115.4048 C117.6608,114.752 118.1888,114.224 118.8416,114.224 C119.4944,114.224 120.0256,114.752 120.0256,115.4048 L120.0256,127.1296 C120.0256,127.7824 119.4944,128.3104 118.8416,128.3104" id="Fill-591"></path>
                    <path d="M126.6016,128.3104 C125.9488,128.3104 125.4176,127.7824 125.4176,127.1296 L125.4176,115.4048 C125.4176,114.752 125.9488,114.224 126.6016,114.224 C127.2544,114.224 127.7824,114.752 127.7824,115.4048 L127.7824,127.1296 C127.7824,127.7824 127.2544,128.3104 126.6016,128.3104" id="Fill-592"></path>
                    <path d="M134.3584,128.3104 C133.7056,128.3104 133.1776,127.7824 133.1776,127.1296 L133.1776,115.4048 C133.1776,114.752 133.7056,114.224 134.3584,114.224 C135.0112,114.224 135.5424,114.752 135.5424,115.4048 L135.5424,127.1296 C135.5424,127.7824 135.0112,128.3104 134.3584,128.3104" id="Fill-593"></path>
                    <path d="M142.1184,128.3104 C141.4656,128.3104 140.9344,127.7824 140.9344,127.1296 L140.9344,115.4048 C140.9344,114.752 141.4656,114.224 142.1184,114.224 C142.7712,114.224 143.2992,114.752 143.2992,115.4048 L143.2992,127.1296 C143.2992,127.7824 142.7712,128.3104 142.1184,128.3104" id="Fill-594"></path>
                    <path d="M149.8752,128.3104 C149.2224,128.3104 148.6944,127.7824 148.6944,127.1296 L148.6944,115.4048 C148.6944,114.752 149.2224,114.224 149.8752,114.224 C150.528,114.224 151.0592,114.752 151.0592,115.4048 L151.0592,127.1296 C151.0592,127.7824 150.528,128.3104 149.8752,128.3104" id="Fill-595"></path>
                    <path d="M157.6352,128.3104 C156.9824,128.3104 156.4512,127.7824 156.4512,127.1296 L156.4512,115.4048 C156.4512,114.752 156.9824,114.224 157.6352,114.224 C158.288,114.224 158.816,114.752 158.816,115.4048 L158.816,127.1296 C158.816,127.7824 158.288,128.3104 157.6352,128.3104" id="Fill-596"></path>
                    <path d="M165.392,128.3104 C164.7392,128.3104 164.2112,127.7824 164.2112,127.1296 L164.2112,115.4048 C164.2112,114.752 164.7392,114.224 165.392,114.224 C166.0448,114.224 166.576,114.752 166.576,115.4048 L166.576,127.1296 C166.576,127.7824 166.0448,128.3104 165.392,128.3104" id="Fill-597"></path>
                    <path d="M173.152,128.3104 C172.4992,128.3104 171.968,127.7824 171.968,127.1296 L171.968,115.4048 C171.968,114.752 172.4992,114.224 173.152,114.224 C173.8048,114.224 174.3328,114.752 174.3328,115.4048 L174.3328,127.1296 C174.3328,127.7824 173.8048,128.3104 173.152,128.3104" id="Fill-598"></path>
                    <path d="M180.9088,128.3104 C180.256,128.3104 179.728,127.7824 179.728,127.1296 L179.728,115.4048 C179.728,114.752 180.256,114.224 180.9088,114.224 C181.5616,114.224 182.0896,114.752 182.0896,115.4048 L182.0896,127.1296 C182.0896,127.7824 181.5616,128.3104 180.9088,128.3104" id="Fill-599"></path>
                    <path d="M188.6656,128.3104 C188.0128,128.3104 187.4848,127.7824 187.4848,127.1296 L187.4848,115.4048 C187.4848,114.752 188.0128,114.224 188.6656,114.224 C189.3216,114.224 189.8496,114.752 189.8496,115.4048 L189.8496,127.1296 C189.8496,127.7824 189.3216,128.3104 188.6656,128.3104" id="Fill-600"></path>
                    <path d="M188.6656,128.3104 L80.0512,128.3104 C79.3984,128.3104 78.8704,127.7824 78.8704,127.1296 L78.8704,51.9808 C78.8704,51.328 79.3984,50.7968 80.0512,50.7968 C80.704,50.7968 81.2352,51.328 81.2352,51.9808 L81.2352,125.9456 L187.4848,125.9456 L187.4848,51.9808 C187.4848,51.328 188.0128,50.7968 188.6656,50.7968 C189.3216,50.7968 189.8496,51.328 189.8496,51.9808 L189.8496,127.1296 C189.8496,127.7824 189.3216,128.3104 188.6656,128.3104" id="Fill-601"></path>
                    <path d="M134.3584,12.656 C134.0288,12.656 133.7056,12.7456 133.424,12.9216 L65.4816,55.0848 C64.6496,55.6 64.3936,56.6976 64.9088,57.5264 C65.2352,58.0544 65.7984,58.3648 66.4192,58.3648 C66.7456,58.3648 67.0688,58.2752 67.3504,58.0992 L134.3584,16.5152 L201.3664,58.0992 C201.648,58.2752 201.9712,58.3648 202.3008,58.3648 C202.9184,58.3648 203.4816,58.0544 203.808,57.5264 C204.3264,56.6976 204.0672,55.6 203.2384,55.0848 L135.2928,12.9216 C135.0144,12.7456 134.6912,12.656 134.3584,12.656 Z M66.4192,60.7296 C64.976,60.7296 63.6608,60 62.8992,58.7744 C61.6992,56.8352 62.2976,54.2784 64.2336,53.0784 L132.176,10.912 C133.488,10.0992 135.2288,10.0992 136.5408,10.912 L204.4832,53.0784 C206.4224,54.2784 207.0208,56.8352 205.8176,58.7744 C205.0592,60 203.7408,60.7296 202.3008,60.7296 C201.5296,60.7296 200.7776,60.5152 200.1216,60.1088 L134.3584,19.296 L68.5984,60.1088 C67.9424,60.5152 67.1872,60.7296 66.4192,60.7296 L66.4192,60.7296 Z" id="Fill-602"></path>
                    <path d="M211.5168,40.2176 L226.4032,40.2176 L226.4032,25.5744 C226.4032,20.4608 222.544,18.1312 218.96,18.1312 C215.376,18.1312 211.5168,20.4608 211.5168,25.5744 L211.5168,40.2176 Z M227.584,42.5824 L210.336,42.5824 C209.68,42.5824 209.152,42.0512 209.152,41.3984 L209.152,25.5744 C209.152,19.136 214.0864,15.7664 218.96,15.7664 C223.8336,15.7664 228.768,19.136 228.768,25.5744 L228.768,41.3984 C228.768,42.0512 228.2368,42.5824 227.584,42.5824 L227.584,42.5824 Z" id="Fill-603"></path>
                    <path d="M218.96,42.128 C218.3072,42.128 217.776,41.6 217.776,40.9472 L217.776,17.4976 C217.776,16.8448 218.3072,16.3168 218.96,16.3168 C219.6128,16.3168 220.1408,16.8448 220.1408,17.4976 L220.1408,40.9472 C220.1408,41.6 219.6128,42.128 218.96,42.128" id="Fill-604"></path>
                    <polygon id="Fill-605" points="210.5792 30.8832 227.3408 30.8832 227.3408 28.5184 210.5792 28.5184"></polygon>
                    <path d="M205.4752,44.64 L232.4448,44.64 L232.4448,42.5824 L205.4752,42.5824 L205.4752,44.64 Z M233.6256,47.0048 L204.2912,47.0048 C203.6384,47.0048 203.1104,46.4736 203.1104,45.8208 L203.1104,41.3984 C203.1104,40.7456 203.6384,40.2176 204.2912,40.2176 L233.6256,40.2176 C234.2784,40.2176 234.8096,40.7456 234.8096,41.3984 L234.8096,45.8208 C234.8096,46.4736 234.2784,47.0048 233.6256,47.0048 L233.6256,47.0048 Z" id="Fill-606"></path>
                    <path d="M230.3456,41.7632 C229.6928,41.7632 229.1648,41.2352 229.1648,40.5824 L229.1648,15.1584 C229.1648,14.5056 229.6928,13.9744 230.3456,13.9744 C230.9984,13.9744 231.5264,14.5056 231.5264,15.1584 L231.5264,40.5824 C231.5264,41.2352 230.9984,41.7632 230.3456,41.7632" id="Fill-607"></path>
                    <path d="M207.5744,41.7632 C206.9216,41.7632 206.3904,41.2352 206.3904,40.5824 L206.3904,15.1584 C206.3904,14.5056 206.9216,13.9744 207.5744,13.9744 C208.2272,13.9744 208.7552,14.5056 208.7552,15.1584 L208.7552,40.5824 C208.7552,41.2352 208.2272,41.7632 207.5744,41.7632" id="Fill-608"></path>
                    <path d="M218.96,2.6784 C218.8288,2.6784 218.6304,2.7072 218.4416,2.8576 L203.0176,14.992 C202.656,15.28 202.592,15.8048 202.8768,16.1696 C203.0368,16.3712 203.2768,16.4864 203.536,16.4864 C203.6672,16.4864 203.8656,16.4576 204.0512,16.3104 L218.2272,5.1552 C218.656,4.816 219.2608,4.816 219.6896,5.1552 L233.8656,16.3104 C234.0544,16.4576 234.2496,16.4864 234.3808,16.4864 C234.64,16.4864 234.88,16.3712 235.04,16.1696 C235.328,15.8048 235.264,15.28 234.9024,14.992 L219.4784,2.8576 C219.2896,2.7072 219.0912,2.6784 218.96,2.6784 Z M203.536,18.8512 C202.5472,18.8512 201.6288,18.4064 201.0208,17.6288 C199.9296,16.2432 200.1696,14.2272 201.5552,13.136 L216.9792,0.9984 C218.1024,0.1152 219.8144,0.1152 220.9376,0.9984 L236.3648,13.136 C237.7504,14.2272 237.9904,16.2432 236.8992,17.632 C236.288,18.4064 235.3696,18.8512 234.3808,18.8512 C233.6704,18.8512 232.9664,18.608 232.4032,18.1664 L218.96,7.5872 L205.5136,18.1664 C204.9536,18.608 204.2496,18.8512 203.536,18.8512 L203.536,18.8512 Z" id="Fill-609"></path>
                    <path d="M42.3168,40.2176 L57.2032,40.2176 L57.2032,25.5744 C57.2032,20.4608 53.344,18.1312 49.76,18.1312 C46.1728,18.1312 42.3168,20.4608 42.3168,25.5744 L42.3168,40.2176 Z M58.384,42.5824 L41.1328,42.5824 C40.48,42.5824 39.952,42.0512 39.952,41.3984 L39.952,25.5744 C39.952,19.136 44.8864,15.7664 49.76,15.7664 C54.6336,15.7664 59.568,19.136 59.568,25.5744 L59.568,41.3984 C59.568,42.0512 59.0368,42.5824 58.384,42.5824 L58.384,42.5824 Z" id="Fill-610"></path>
                    <path d="M49.76,42.128 C49.1072,42.128 48.576,41.6 48.576,40.9472 L48.576,17.4976 C48.576,16.8448 49.1072,16.3168 49.76,16.3168 C50.4128,16.3168 50.9408,16.8448 50.9408,17.4976 L50.9408,40.9472 C50.9408,41.6 50.4128,42.128 49.76,42.128" id="Fill-611"></path>
                    <polygon id="Fill-612" points="41.3792 30.8832 58.1408 30.8832 58.1408 28.5184 41.3792 28.5184"></polygon>
                    <path d="M36.2752,44.64 L63.2448,44.64 L63.2448,42.5824 L36.2752,42.5824 L36.2752,44.64 Z M64.4256,47.0048 L35.0912,47.0048 C34.4384,47.0048 33.9104,46.4736 33.9104,45.8208 L33.9104,41.3984 C33.9104,40.7456 34.4384,40.2176 35.0912,40.2176 L64.4256,40.2176 C65.0784,40.2176 65.6096,40.7456 65.6096,41.3984 L65.6096,45.8208 C65.6096,46.4736 65.0784,47.0048 64.4256,47.0048 L64.4256,47.0048 Z" id="Fill-613"></path>
                    <path d="M61.1456,41.7632 C60.4928,41.7632 59.9616,41.2352 59.9616,40.5824 L59.9616,15.1584 C59.9616,14.5056 60.4928,13.9744 61.1456,13.9744 C61.7984,13.9744 62.3264,14.5056 62.3264,15.1584 L62.3264,40.5824 C62.3264,41.2352 61.7984,41.7632 61.1456,41.7632" id="Fill-614"></path>
                    <path d="M38.3744,41.7632 C37.7216,41.7632 37.1904,41.2352 37.1904,40.5824 L37.1904,15.1584 C37.1904,14.5056 37.7216,13.9744 38.3744,13.9744 C39.0272,13.9744 39.5552,14.5056 39.5552,15.1584 L39.5552,40.5824 C39.5552,41.2352 39.0272,41.7632 38.3744,41.7632" id="Fill-615"></path>
                    <path d="M49.76,2.6784 C49.6256,2.6784 49.4304,2.7072 49.2416,2.8576 L33.8176,14.992 C33.456,15.28 33.392,15.8048 33.6768,16.1696 C33.8368,16.3712 34.0768,16.4864 34.336,16.4864 C34.4672,16.4864 34.6656,16.4576 34.8512,16.3104 L49.0272,5.1552 C49.456,4.816 50.0608,4.816 50.4896,5.1552 L64.6656,16.3104 C64.8544,16.4576 65.0496,16.4864 65.1808,16.4864 C65.44,16.4864 65.68,16.3712 65.84,16.1696 C65.9776,15.9936 66.0416,15.7728 66.0128,15.552 C65.9872,15.3312 65.8752,15.1328 65.6992,14.992 L50.2752,2.8576 C50.0896,2.7072 49.8912,2.6784 49.76,2.6784 Z M34.336,18.8512 C33.3472,18.8512 32.4288,18.4064 31.8176,17.6288 C30.7264,16.2432 30.9696,14.2272 32.3552,13.136 L47.7792,0.9984 C48.9024,0.1152 50.6144,0.1152 51.7376,0.9984 L67.1616,13.136 C67.8336,13.664 68.2592,14.4224 68.3616,15.2736 C68.464,16.1216 68.2272,16.96 67.6992,17.632 C67.088,18.4064 66.1696,18.8512 65.1808,18.8512 C64.4672,18.8512 63.7664,18.608 63.2032,18.1664 L49.76,7.5872 L36.3136,18.1664 C35.7536,18.608 35.0496,18.8512 34.336,18.8512 L34.336,18.8512 Z" id="Fill-616"></path>
                    <path d="M195.4208,109.7664 L215.12,109.7664 L215.12,90.7072 C215.12,83.9424 210.016,80.8608 205.2704,80.8608 C200.528,80.8608 195.4208,83.9424 195.4208,90.7072 L195.4208,109.7664 Z M216.3008,112.1312 L194.24,112.1312 C193.5872,112.1312 193.0592,111.6 193.0592,110.9472 L193.0592,90.7072 C193.0592,82.6912 199.2032,78.496 205.2704,78.496 C211.3408,78.496 217.4848,82.6912 217.4848,90.7072 L217.4848,110.9472 C217.4848,111.6 216.9536,112.1312 216.3008,112.1312 L216.3008,112.1312 Z" id="Fill-629"></path>
                    <path d="M205.2704,111.552 C204.6176,111.552 204.0896,111.024 204.0896,110.3712 L204.0896,80.3808 C204.0896,79.728 204.6176,79.1968 205.2704,79.1968 C205.9232,79.1968 206.4544,79.728 206.4544,80.3808 L206.4544,110.3712 C206.4544,111.024 205.9232,111.552 205.2704,111.552" id="Fill-630"></path>
                    <polygon id="Fill-631" points="194.5504 97.168 215.9904 97.168 215.9904 94.8032 194.5504 94.8032"></polygon>
                    <path d="M227.6768,109.7664 L247.3728,109.7664 L247.3728,90.7072 C247.3728,83.9424 242.2688,80.8608 237.5232,80.8608 C232.7808,80.8608 227.6768,83.9424 227.6768,90.7072 L227.6768,109.7664 Z M248.5568,112.1312 L226.4928,112.1312 C225.84,112.1312 225.312,111.6 225.312,110.9472 L225.312,90.7072 C225.312,82.6912 231.456,78.496 237.5232,78.496 C243.5936,78.496 249.7376,82.6912 249.7376,90.7072 L249.7376,110.9472 C249.7376,111.6 249.2096,112.1312 248.5568,112.1312 L248.5568,112.1312 Z" id="Fill-632"></path>
                    <path d="M237.5232,111.552 C236.8704,111.552 236.3424,111.024 236.3424,110.3712 L236.3424,80.3808 C236.3424,79.728 236.8704,79.1968 237.5232,79.1968 C238.1792,79.1968 238.7072,79.728 238.7072,80.3808 L238.7072,110.3712 C238.7072,111.024 238.1792,111.552 237.5232,111.552" id="Fill-633"></path>
                    <polygon id="Fill-634" points="226.8064 97.168 248.2432 97.168 248.2432 94.8032 226.8064 94.8032"></polygon>
                    <path d="M21.344,109.7664 L41.0432,109.7664 L41.0432,90.7072 C41.0432,83.9424 35.936,80.8608 31.1936,80.8608 C26.4512,80.8608 21.344,83.9424 21.344,90.7072 L21.344,109.7664 Z M42.224,112.1312 L20.1632,112.1312 C19.5104,112.1312 18.9792,111.6 18.9792,110.9472 L18.9792,90.7072 C18.9792,82.6912 25.1264,78.496 31.1936,78.496 C37.264,78.496 43.408,82.6912 43.408,90.7072 L43.408,110.9472 C43.408,111.6 42.8768,112.1312 42.224,112.1312 L42.224,112.1312 Z" id="Fill-635"></path>
                    <path d="M31.1936,111.552 C30.5408,111.552 30.0128,111.024 30.0128,110.3712 L30.0128,80.3808 C30.0128,79.728 30.5408,79.1968 31.1936,79.1968 C31.8464,79.1968 32.3776,79.728 32.3776,80.3808 L32.3776,110.3712 C32.3776,111.024 31.8464,111.552 31.1936,111.552" id="Fill-636"></path>
                    <polygon id="Fill-637" points="20.4736 97.168 41.9136 97.168 41.9136 94.8032 20.4736 94.8032"></polygon>
                    <path d="M53.6,109.7664 L73.296,109.7664 L73.296,90.7072 C73.296,83.9424 68.192,80.8608 63.4464,80.8608 C58.704,80.8608 53.6,83.9424 53.6,90.7072 L53.6,109.7664 Z M74.48,112.1312 L52.416,112.1312 C51.7632,112.1312 51.2352,111.6 51.2352,110.9472 L51.2352,90.7072 C51.2352,82.6912 57.3792,78.496 63.4464,78.496 C69.5168,78.496 75.6608,82.6912 75.6608,90.7072 L75.6608,110.9472 C75.6608,111.6 75.1328,112.1312 74.48,112.1312 L74.48,112.1312 Z" id="Fill-638"></path>
                    <path d="M63.4464,111.552 C62.7936,111.552 62.2656,111.024 62.2656,110.3712 L62.2656,80.3808 C62.2656,79.728 62.7936,79.1968 63.4464,79.1968 C64.0992,79.1968 64.6304,79.728 64.6304,80.3808 L64.6304,110.3712 C64.6304,111.024 64.0992,111.552 63.4464,111.552" id="Fill-639"></path>
                    <polygon id="Fill-640" points="52.7296 97.168 74.1664 97.168 74.1664 94.8032 52.7296 94.8032"></polygon>
                    <path d="M97.712,84.352 C96.2976,84.352 94.9888,84.8256 94.0256,85.68 C92.9568,86.6304 92.3904,88.0128 92.3904,89.6736 L92.3904,98.6368 C92.352,100.144 92.784,101.3568 93.6736,102.272 C94.6464,103.2704 96.1152,103.84 97.712,103.84 C99.3056,103.84 100.7776,103.2704 101.7472,102.272 C102.64,101.3568 103.072,100.144 103.0304,98.6688 L103.0304,89.6736 C103.0304,88.0128 102.4672,86.6304 101.3952,85.68 C100.4352,84.8256 99.1264,84.352 97.712,84.352 Z M97.712,106.2048 C95.4816,106.2048 93.3952,105.3728 91.9808,103.92 C90.6464,102.5504 89.9712,100.7136 90.0288,98.6048 L90.0288,89.6736 C90.0288,87.3184 90.8672,85.3248 92.4544,83.9136 C93.8528,82.672 95.7184,81.9872 97.712,81.9872 C99.7056,81.9872 101.5712,82.672 102.9664,83.9136 C104.5568,85.3248 105.3952,87.3184 105.3952,89.6736 L105.3952,98.6368 C105.4528,100.7136 104.7776,102.5504 103.4432,103.92 C102.0288,105.3728 99.9392,106.2048 97.712,106.2048 L97.712,106.2048 Z" id="Fill-641"></path>
                    <polygon id="Fill-642" points="96.528 104.4896 98.8928 104.4896 98.8928 83.7024 96.528 83.7024"></polygon>
                    <polygon id="Fill-643" points="91.2096 95.28 104.2144 95.28 104.2144 92.9152 91.2096 92.9152"></polygon>
                    <path d="M171.008,84.352 C169.5936,84.352 168.2848,84.8256 167.3216,85.68 C166.2528,86.6304 165.6864,88.0128 165.6864,89.6736 L165.6864,98.6368 C165.648,100.144 166.08,101.3568 166.9696,102.272 C167.9424,103.2704 169.4112,103.84 171.008,103.84 C172.6016,103.84 174.0736,103.2704 175.0432,102.272 C175.936,101.3568 176.368,100.144 176.3264,98.6688 L176.3264,89.6736 C176.3264,88.0128 175.76,86.6304 174.6912,85.68 C173.728,84.8256 172.4192,84.352 171.008,84.352 Z M171.008,106.2048 C168.7776,106.2048 166.688,105.3728 165.2768,103.92 C163.9424,102.5504 163.2672,100.7136 163.3216,98.6048 L163.3216,89.6736 C163.3216,87.3184 164.1632,85.3248 165.7504,83.9136 C167.1488,82.672 169.0144,81.9872 171.008,81.9872 C173.0016,81.9872 174.8672,82.672 176.2624,83.9136 C177.8528,85.3248 178.6912,87.3184 178.6912,89.6736 L178.6912,98.6368 C178.7488,100.7136 178.0736,102.5504 176.7392,103.92 C175.3248,105.3728 173.2352,106.2048 171.008,106.2048 L171.008,106.2048 Z" id="Fill-644"></path>
                    <polygon id="Fill-645" points="169.824 104.4896 172.1888 104.4896 172.1888 83.7024 169.824 83.7024"></polygon>
                    <polygon id="Fill-646" points="164.5056 95.28 177.5104 95.28 177.5104 92.9152 164.5056 92.9152"></polygon>
                </g>
                <g id="Group-8" transform="translate(474.000000, 27.000000)" fill="#358FCA">
                    <path d="M153.976471,153.632471 C153.304471,153.632471 152.760941,153.088941 152.760941,152.416941 L152.760941,3.42729412 L124.161412,3.42729412 L124.161412,152.416941 C124.161412,153.088941 123.617882,153.632471 122.945882,153.632471 C122.273882,153.632471 121.727059,153.088941 121.727059,152.416941 L121.727059,2.20847059 C121.727059,1.53647059 122.273882,0.992941176 122.945882,0.992941176 L153.976471,0.992941176 C154.648471,0.992941176 155.195294,1.53647059 155.195294,2.20847059 L155.195294,152.416941 C155.195294,153.088941 154.648471,153.632471 153.976471,153.632471" id="Fill-742"></path>
                    <path d="M128.522824,10.8522353 L142.315294,10.8522353 L142.315294,7.71952941 L128.522824,7.71952941 L128.522824,10.8522353 Z M143.530824,13.2865882 L127.304,13.2865882 C126.632,13.2865882 126.088471,12.7430588 126.088471,12.0677647 L126.088471,6.504 C126.088471,5.832 126.632,5.28847059 127.304,5.28847059 L143.530824,5.28847059 C144.202824,5.28847059 144.749647,5.832 144.749647,6.504 L144.749647,12.0677647 C144.749647,12.7430588 144.202824,13.2865882 143.530824,13.2865882 L143.530824,13.2865882 Z" id="Fill-743"></path>
                    <path d="M128.522824,33.5289412 L142.315294,33.5289412 L142.315294,30.3962353 L128.522824,30.3962353 L128.522824,33.5289412 Z M143.530824,35.96 L127.304,35.96 C126.632,35.96 126.088471,35.4164706 126.088471,34.7444706 L126.088471,29.1807059 C126.088471,28.5087059 126.632,27.9618824 127.304,27.9618824 L143.530824,27.9618824 C144.202824,27.9618824 144.749647,28.5087059 144.749647,29.1807059 L144.749647,34.7444706 C144.749647,35.4164706 144.202824,35.96 143.530824,35.96 L143.530824,35.96 Z" id="Fill-744"></path>
                    <path d="M128.522824,56.2023529 L142.315294,56.2023529 L142.315294,53.0729412 L128.522824,53.0729412 L128.522824,56.2023529 Z M143.530824,58.6367059 L127.304,58.6367059 C126.632,58.6367059 126.088471,58.0931765 126.088471,57.4211765 L126.088471,51.8541176 C126.088471,51.1821176 126.632,50.6385882 127.304,50.6385882 L143.530824,50.6385882 C144.202824,50.6385882 144.749647,51.1821176 144.749647,51.8541176 L144.749647,57.4211765 C144.749647,58.0931765 144.202824,58.6367059 143.530824,58.6367059 L143.530824,58.6367059 Z" id="Fill-745"></path>
                    <path d="M128.522824,78.8790588 L142.315294,78.8790588 L142.315294,75.7463529 L128.522824,75.7463529 L128.522824,78.8790588 Z M143.530824,81.3134118 L127.304,81.3134118 C126.632,81.3134118 126.088471,80.7665882 126.088471,80.0945882 L126.088471,74.5308235 C126.088471,73.8588235 126.632,73.312 127.304,73.312 L143.530824,73.312 C144.202824,73.312 144.749647,73.8588235 144.749647,74.5308235 L144.749647,80.0945882 C144.749647,80.7665882 144.202824,81.3134118 143.530824,81.3134118 L143.530824,81.3134118 Z" id="Fill-746"></path>
                    <path d="M128.522824,101.552471 L142.315294,101.552471 L142.315294,98.4230588 L128.522824,98.4230588 L128.522824,101.552471 Z M143.530824,103.986824 L127.304,103.986824 C126.632,103.986824 126.088471,103.443294 126.088471,102.771294 L126.088471,97.2042353 C126.088471,96.5322353 126.632,95.9887059 127.304,95.9887059 L143.530824,95.9887059 C144.202824,95.9887059 144.749647,96.5322353 144.749647,97.2042353 L144.749647,102.771294 C144.749647,103.443294 144.202824,103.986824 143.530824,103.986824 L143.530824,103.986824 Z" id="Fill-747"></path>
                    <path d="M128.522824,124.229176 L142.315294,124.229176 L142.315294,121.096471 L128.522824,121.096471 L128.522824,124.229176 Z M143.530824,126.663529 L127.304,126.663529 C126.632,126.663529 126.088471,126.12 126.088471,125.444706 L126.088471,119.880941 C126.088471,119.208941 126.632,118.662118 127.304,118.662118 L143.530824,118.662118 C144.202824,118.662118 144.749647,119.208941 144.749647,119.880941 L144.749647,125.444706 C144.749647,126.12 144.202824,126.663529 143.530824,126.663529 L143.530824,126.663529 Z" id="Fill-748"></path>
                    <path d="M135.822588,21.0936471 L149.615059,21.0936471 L149.615059,17.9642353 L135.822588,17.9642353 L135.822588,21.0936471 Z M150.833882,23.528 L134.607059,23.528 C133.935059,23.528 133.391529,22.9844706 133.391529,22.3124706 L133.391529,16.7454118 C133.391529,16.0734118 133.935059,15.5298824 134.607059,15.5298824 L150.833882,15.5298824 C151.505882,15.5298824 152.049412,16.0734118 152.049412,16.7454118 L152.049412,22.3124706 C152.049412,22.9844706 151.505882,23.528 150.833882,23.528 L150.833882,23.528 Z" id="Fill-750"></path>
                    <path d="M135.822588,44.2084706 L149.615059,44.2084706 L149.615059,41.0757647 L135.822588,41.0757647 L135.822588,44.2084706 Z M150.833882,46.6428235 L134.607059,46.6428235 C133.935059,46.6428235 133.391529,46.096 133.391529,45.424 L133.391529,39.8602353 C133.391529,39.1882353 133.935059,38.6447059 134.607059,38.6447059 L150.833882,38.6447059 C151.505882,38.6447059 152.049412,39.1882353 152.049412,39.8602353 L152.049412,45.424 C152.049412,46.096 151.505882,46.6428235 150.833882,46.6428235 L150.833882,46.6428235 Z" id="Fill-751"></path>
                    <path d="M135.822588,67.3232941 L149.615059,67.3232941 L149.615059,64.1905882 L135.822588,64.1905882 L135.822588,67.3232941 Z M150.833882,69.7543529 L134.607059,69.7543529 C133.935059,69.7543529 133.391529,69.2108235 133.391529,68.5388235 L133.391529,62.9717647 C133.391529,62.2997647 133.935059,61.7562353 134.607059,61.7562353 L150.833882,61.7562353 C151.505882,61.7562353 152.049412,62.2997647 152.049412,62.9717647 L152.049412,68.5388235 C152.049412,69.2108235 151.505882,69.7543529 150.833882,69.7543529 L150.833882,69.7543529 Z" id="Fill-752"></path>
                    <path d="M135.822588,90.4348235 L149.615059,90.4348235 L149.615059,87.3021176 L135.822588,87.3021176 L135.822588,90.4348235 Z M150.833882,92.8691765 L134.607059,92.8691765 C133.935059,92.8691765 133.391529,92.3256471 133.391529,91.6503529 L133.391529,86.0865882 C133.391529,85.4145882 133.935059,84.8710588 134.607059,84.8710588 L150.833882,84.8710588 C151.505882,84.8710588 152.049412,85.4145882 152.049412,86.0865882 L152.049412,91.6503529 C152.049412,92.3256471 151.505882,92.8691765 150.833882,92.8691765 L150.833882,92.8691765 Z" id="Fill-753"></path>
                    <path d="M135.822588,113.549647 L149.615059,113.549647 L149.615059,110.416941 L135.822588,110.416941 L135.822588,113.549647 Z M150.833882,115.980706 L134.607059,115.980706 C133.935059,115.980706 133.391529,115.437176 133.391529,114.765176 L133.391529,109.198118 C133.391529,108.529412 133.935059,107.982588 134.607059,107.982588 L150.833882,107.982588 C151.505882,107.982588 152.049412,108.529412 152.049412,109.198118 L152.049412,114.765176 C152.049412,115.437176 151.505882,115.980706 150.833882,115.980706 L150.833882,115.980706 Z" id="Fill-754"></path>
                    <path d="M264.938824,107.702588 C264.688471,107.702588 264.441412,107.626824 264.230588,107.475294 L153.268235,27.9388235 C152.721412,27.5468235 152.596235,26.7858824 152.988235,26.2390588 C153.380235,25.6922353 154.141176,25.5670588 154.684706,25.9590588 L263.664,104.075765 L263.509176,97.2832941 L153.271529,19.0150588 C152.724706,18.6263529 152.596235,17.8687059 152.984941,17.3185882 C153.373647,16.7717647 154.134588,16.6432941 154.681412,17.032 L265.416471,95.6494118 C265.729412,95.8734118 265.920471,96.2291765 265.927059,96.6145882 L266.154353,106.457412 C266.164235,106.918588 265.913882,107.346824 265.505412,107.564235 C265.327529,107.656471 265.133176,107.702588 264.938824,107.702588" id="Fill-756"></path>
                    <polyline id="Fill-757" points="36.9068235 104.184471 36.6597647 94.2856471 37.648 94.0781176 122.692235 76.0889412 123.196235 78.4705882 39.1435294 96.2489412 39.2654118 101.2 122.692235 83.5534118 123.196235 85.9350588 36.9068235 104.184471"></polyline>
                    <polygon id="Fill-758" points="256.038118 154.429647 258.472471 154.429647 258.472471 101.018824 256.038118 101.018824"></polygon>
                    <polygon id="Fill-759" points="42.3487059 154.429647 44.7830588 154.429647 44.7830588 101.473412 42.3487059 101.473412"></polygon>
                    <path d="M94.6790588,153.210824 L113.086588,153.210824 L113.086588,114.620235 L94.6790588,114.620235 L94.6790588,153.210824 Z M114.305412,155.645176 L93.4635294,155.645176 C92.7915294,155.645176 92.248,155.101647 92.248,154.429647 L92.248,113.404706 C92.248,112.732706 92.7915294,112.185882 93.4635294,112.185882 L114.305412,112.185882 C114.977412,112.185882 115.520941,112.732706 115.520941,113.404706 L115.520941,154.429647 C115.520941,155.101647 114.977412,155.645176 114.305412,155.645176 L114.305412,155.645176 Z" id="Fill-760"></path>
                    <path d="M177.891765,27.1745882 L214.400471,27.1745882 L214.400471,21.5548235 L177.891765,21.5548235 L177.891765,27.1745882 Z M215.616,29.6089412 L176.672941,29.6089412 C176.000941,29.6089412 175.457412,29.0621176 175.457412,28.3901176 L175.457412,20.3392941 C175.457412,19.6672941 176.000941,19.1204706 176.672941,19.1204706 L215.616,19.1204706 C216.288,19.1204706 216.831529,19.6672941 216.831529,20.3392941 L216.831529,28.3901176 C216.831529,29.0621176 216.288,29.6089412 215.616,29.6089412 L215.616,29.6089412 Z" id="Fill-762"></path>
                    <path d="M212.776471,60.9063529 C212.104471,60.9063529 211.557647,60.3628235 211.557647,59.6908235 L211.557647,29.6089412 L180.731294,29.6089412 L180.731294,35.8216471 C180.731294,36.4969412 180.184471,37.0404706 179.512471,37.0404706 C178.840471,37.0404706 178.296941,36.4969412 178.296941,35.8216471 L178.296941,28.3901176 C178.296941,27.7181176 178.840471,27.1745882 179.512471,27.1745882 L212.776471,27.1745882 C213.448471,27.1745882 213.992,27.7181176 213.992,28.3901176 L213.992,59.6908235 C213.992,60.3628235 213.448471,60.9063529 212.776471,60.9063529" id="Fill-763"></path>
                    <path d="M170.150588,139.919059 L242.463059,139.919059 L242.463059,115.562353 L170.150588,115.562353 L170.150588,139.919059 Z M243.678588,142.353412 L168.935059,142.353412 C168.263059,142.353412 167.716235,141.809882 167.716235,141.137882 L167.716235,114.346824 C167.716235,113.674824 168.263059,113.128 168.935059,113.128 L243.678588,113.128 C244.350588,113.128 244.894118,113.674824 244.894118,114.346824 L244.894118,141.137882 C244.894118,141.809882 244.350588,142.353412 243.678588,142.353412 L243.678588,142.353412 Z" id="Fill-764"></path>
                    <path d="M173.599529,136.470118 L239.010824,136.470118 L239.010824,119.011294 L173.599529,119.011294 L173.599529,136.470118 Z M240.229647,138.904471 L172.384,138.904471 C171.712,138.904471 171.165176,138.360941 171.165176,137.688941 L171.165176,117.795765 C171.165176,117.123765 171.712,116.580235 172.384,116.580235 L240.229647,116.580235 C240.901647,116.580235 241.445176,117.123765 241.445176,117.795765 L241.445176,137.688941 C241.445176,138.360941 240.901647,138.904471 240.229647,138.904471 L240.229647,138.904471 Z" id="Fill-765"></path>
                    <path d="M194.289882,136.470118 L218.323765,136.470118 L218.323765,119.011294 L194.289882,119.011294 L194.289882,136.470118 Z M219.539294,138.904471 L193.071059,138.904471 C192.399059,138.904471 191.855529,138.360941 191.855529,137.688941 L191.855529,117.795765 C191.855529,117.123765 192.399059,116.580235 193.071059,116.580235 L219.539294,116.580235 C220.211294,116.580235 220.758118,117.123765 220.758118,117.795765 L220.758118,137.688941 C220.758118,138.360941 220.211294,138.904471 219.539294,138.904471 L219.539294,138.904471 Z" id="Fill-766"></path>
                    <path d="M59.9096471,139.984941 L84.3322353,139.984941 L84.3322353,115.562353 L59.9096471,115.562353 L59.9096471,139.984941 Z M85.5510588,142.419294 L58.6908235,142.419294 C58.0188235,142.419294 57.4752941,141.875765 57.4752941,141.203765 L57.4752941,114.346824 C57.4752941,113.674824 58.0188235,113.128 58.6908235,113.128 L85.5510588,113.128 C86.2230588,113.128 86.7665882,113.674824 86.7665882,114.346824 L86.7665882,141.203765 C86.7665882,141.875765 86.2230588,142.419294 85.5510588,142.419294 L85.5510588,142.419294 Z" id="Fill-767"></path>
                    <path d="M63.3585882,136.536 L80.8832941,136.536 L80.8832941,119.011294 L63.3585882,119.011294 L63.3585882,136.536 Z M82.1021176,138.970353 L62.1430588,138.970353 C61.4710588,138.970353 60.9242353,138.426824 60.9242353,137.754824 L60.9242353,117.795765 C60.9242353,117.123765 61.4710588,116.580235 62.1430588,116.580235 L82.1021176,116.580235 C82.7741176,116.580235 83.3176471,117.123765 83.3176471,117.795765 L83.3176471,137.754824 C83.3176471,138.426824 82.7741176,138.970353 82.1021176,138.970353 L82.1021176,138.970353 Z" id="Fill-768"></path>
                    <polygon id="Fill-769" points="153.976471 33.3774118 161.249882 33.3774118 161.249882 30.9463529 153.976471 30.9463529"></polygon>
                    <polygon id="Fill-770" points="153.976471 44.7157647 177.213176 44.7157647 177.213176 42.2814118 153.976471 42.2814118"></polygon>
                    <polygon id="Fill-771" points="153.976471 56.0541176 193.071059 56.0541176 193.071059 53.6197647 153.976471 53.6197647"></polygon>
                    <polygon id="Fill-772" points="153.976471 67.3924706 208.701647 67.3924706 208.701647 64.9581176 153.976471 64.9581176"></polygon>
                    <polygon id="Fill-773" points="153.976471 78.7308235 224.302588 78.7308235 224.302588 76.2964706 153.976471 76.2964706"></polygon>
                    <polygon id="Fill-774" points="153.976471 90.0658824 239.956235 90.0658824 239.956235 87.6315294 153.976471 87.6315294"></polygon>
                    <polygon id="Fill-775" points="153.976471 101.404235 256.038118 101.404235 256.038118 98.9698824 153.976471 98.9698824"></polygon>
                    <polygon id="Fill-776" points="153.976471 112.742588 257.256941 112.742588 257.256941 110.308235 153.976471 110.308235"></polygon>
                    <polygon id="Fill-777" points="243.678588 124.080941 257.256941 124.080941 257.256941 121.646588 243.678588 121.646588"></polygon>
                    <polygon id="Fill-778" points="153.976471 124.080941 168.315765 124.080941 168.315765 121.646588 153.976471 121.646588"></polygon>
                    <polygon id="Fill-782" points="103.882824 90.0658824 122.945882 90.0658824 122.945882 87.6315294 103.882824 87.6315294"></polygon>
                    <polygon id="Fill-783" points="50.1096471 101.404235 122.945882 101.404235 122.945882 98.9698824 50.1096471 98.9698824"></polygon>
                    <polygon id="Fill-784" points="43.5675294 112.742588 122.945882 112.742588 122.945882 110.308235 43.5675294 110.308235"></polygon>
                    <polygon id="Fill-785" points="114.305412 124.080941 122.945882 124.080941 122.945882 121.646588 114.305412 121.646588"></polygon>
                    <polygon id="Fill-788" points="84.8230588 124.080941 93.4635294 124.080941 93.4635294 121.646588 84.8230588 121.646588"></polygon>
                    <polygon id="Fill-790" points="43.8705882 124.080941 58.7501176 124.080941 58.7501176 121.646588 43.8705882 121.646588"></polygon>
                </g>
            </g>
        </g>
    </g>
</svg>